<?xml version="1.0" encoding="utf-8" standalone="no"?>
<!DOCTYPE svg PUBLIC "-//W3C//DTD SVG 1.1//EN"
  "http://www.w3.org/Graphics/SVG/1.1/DTD/svg11.dtd">
<svg xmlns:xlink="http://www.w3.org/1999/xlink" width="720pt" height="432pt" viewBox="0 0 720 432" xmlns="http://www.w3.org/2000/svg" version="1.1">
 <metadata>
  <rdf:RDF xmlns:dc="http://purl.org/dc/elements/1.1/" xmlns:cc="http://creativecommons.org/ns#" xmlns:rdf="http://www.w3.org/1999/02/22-rdf-syntax-ns#">
   <cc:Work>
    <dc:type rdf:resource="http://purl.org/dc/dcmitype/StillImage"/>
    <dc:date>2024-05-17T22:46:34.506721</dc:date>
    <dc:format>image/svg+xml</dc:format>
    <dc:creator>
     <cc:Agent>
      <dc:title>Matplotlib v3.8.4, https://matplotlib.org/</dc:title>
     </cc:Agent>
    </dc:creator>
   </cc:Work>
  </rdf:RDF>
 </metadata>
 <defs>
  <style type="text/css">*{stroke-linejoin: round; stroke-linecap: butt}</style>
 </defs>
 <g id="figure_1">
  <g id="patch_1">
   <path d="M 0 432 
L 720 432 
L 720 0 
L 0 0 
z
" style="fill: #ffffff"/>
  </g>
  <g id="axes_1">
   <g id="patch_2">
    <path d="M 73.6625 369.62125 
L 692.187273 369.62125 
L 692.187273 19.752188 
L 73.6625 19.752188 
z
" style="fill: #ffffff"/>
   </g>
   <g id="matplotlib.axis_1">
    <g id="xtick_1">
     <g id="line2d_1">
      <path d="M 101.777262 369.62125 
L 101.777262 19.752188 
" clip-path="url(#p91a548012c)" style="fill: none; stroke: #b0b0b0; stroke-opacity: 0.7; stroke-width: 0.8; stroke-linecap: square"/>
     </g>
     <g id="line2d_2">
      <defs>
       <path id="m10f6ef5e39" d="M 0 0 
L 0 3.5 
" style="stroke: #000000; stroke-width: 0.8"/>
      </defs>
      <g>
       <use xlink:href="#m10f6ef5e39" x="101.777262" y="369.62125" style="stroke: #000000; stroke-width: 0.8"/>
      </g>
     </g>
     <g id="text_1">
      <!-- 0 -->
      <g transform="translate(97.5557 388.50125) scale(0.18 -0.18)">
       <defs>
        <path id="STSong-30" d="M 1517 4064 
Q 2048 4064 2435 3465 
Q 2822 2867 2822 1978 
Q 2822 1094 2435 496 
Q 2048 -102 1517 -102 
Q 1005 -102 608 490 
Q 211 1082 211 1978 
Q 211 2867 598 3465 
Q 986 4064 1517 4064 
z
M 1517 45 
Q 1990 45 2172 515 
Q 2355 986 2355 1978 
Q 2355 2970 2172 3443 
Q 1990 3917 1517 3917 
Q 1043 3917 860 3443 
Q 678 2970 678 1978 
Q 678 45 1517 45 
z
" transform="scale(0.015625)"/>
       </defs>
       <use xlink:href="#STSong-30"/>
      </g>
     </g>
    </g>
    <g id="xtick_2">
     <g id="line2d_3">
      <path d="M 218.922106 369.62125 
L 218.922106 19.752188 
" clip-path="url(#p91a548012c)" style="fill: none; stroke: #b0b0b0; stroke-opacity: 0.7; stroke-width: 0.8; stroke-linecap: square"/>
     </g>
     <g id="line2d_4">
      <g>
       <use xlink:href="#m10f6ef5e39" x="218.922106" y="369.62125" style="stroke: #000000; stroke-width: 0.8"/>
      </g>
     </g>
     <g id="text_2">
      <!-- 50 -->
      <g transform="translate(210.478981 388.50125) scale(0.18 -0.18)">
       <defs>
        <path id="STSong-35" d="M 2432 3622 
L 1536 3622 
Q 1037 3622 986 3603 
L 902 2432 
Q 1184 2566 1478 2566 
Q 2003 2566 2368 2208 
Q 2733 1850 2733 1274 
Q 2733 634 2281 266 
Q 1830 -102 1254 -102 
Q 934 -102 665 10 
Q 397 122 397 256 
Q 397 320 454 387 
Q 512 454 614 454 
Q 685 454 730 422 
Q 1178 83 1453 83 
Q 1811 83 2086 393 
Q 2362 704 2362 1126 
Q 2362 1574 2083 1872 
Q 1805 2170 1395 2170 
Q 1216 2170 1059 2112 
Q 902 2054 832 1952 
L 723 1952 
L 845 4000 
L 1542 4000 
Q 2022 4000 2176 4013 
Q 2330 4026 2394 4109 
L 2490 4109 
L 2432 3622 
z
" transform="scale(0.015625)"/>
       </defs>
       <use xlink:href="#STSong-35"/>
       <use xlink:href="#STSong-30" x="46.899994"/>
      </g>
     </g>
    </g>
    <g id="xtick_3">
     <g id="line2d_5">
      <path d="M 336.066949 369.62125 
L 336.066949 19.752188 
" clip-path="url(#p91a548012c)" style="fill: none; stroke: #b0b0b0; stroke-opacity: 0.7; stroke-width: 0.8; stroke-linecap: square"/>
     </g>
     <g id="line2d_6">
      <g>
       <use xlink:href="#m10f6ef5e39" x="336.066949" y="369.62125" style="stroke: #000000; stroke-width: 0.8"/>
      </g>
     </g>
     <g id="text_3">
      <!-- 100 -->
      <g transform="translate(323.402262 388.50125) scale(0.18 -0.18)">
       <defs>
        <path id="STSong-31" d="M 2272 -19 
Q 1939 0 1523 0 
Q 1107 0 774 -19 
L 774 83 
L 1107 141 
Q 1331 186 1331 390 
L 1331 3552 
L 570 3059 
L 480 3181 
Q 922 3469 1542 4064 
L 1754 4064 
L 1754 390 
Q 1754 173 1978 134 
L 2272 83 
L 2272 -19 
z
" transform="scale(0.015625)"/>
       </defs>
       <use xlink:href="#STSong-31"/>
       <use xlink:href="#STSong-30" x="46.899994"/>
       <use xlink:href="#STSong-30" x="93.799988"/>
      </g>
     </g>
    </g>
    <g id="xtick_4">
     <g id="line2d_7">
      <path d="M 453.211792 369.62125 
L 453.211792 19.752188 
" clip-path="url(#p91a548012c)" style="fill: none; stroke: #b0b0b0; stroke-opacity: 0.7; stroke-width: 0.8; stroke-linecap: square"/>
     </g>
     <g id="line2d_8">
      <g>
       <use xlink:href="#m10f6ef5e39" x="453.211792" y="369.62125" style="stroke: #000000; stroke-width: 0.8"/>
      </g>
     </g>
     <g id="text_4">
      <!-- 150 -->
      <g transform="translate(440.547105 388.50125) scale(0.18 -0.18)">
       <use xlink:href="#STSong-31"/>
       <use xlink:href="#STSong-35" x="46.899994"/>
       <use xlink:href="#STSong-30" x="93.799988"/>
      </g>
     </g>
    </g>
    <g id="xtick_5">
     <g id="line2d_9">
      <path d="M 570.356636 369.62125 
L 570.356636 19.752188 
" clip-path="url(#p91a548012c)" style="fill: none; stroke: #b0b0b0; stroke-opacity: 0.7; stroke-width: 0.8; stroke-linecap: square"/>
     </g>
     <g id="line2d_10">
      <g>
       <use xlink:href="#m10f6ef5e39" x="570.356636" y="369.62125" style="stroke: #000000; stroke-width: 0.8"/>
      </g>
     </g>
     <g id="text_5">
      <!-- 200 -->
      <g transform="translate(557.691948 388.50125) scale(0.18 -0.18)">
       <defs>
        <path id="STSong-32" d="M 2726 -19 
Q 2266 0 1421 0 
Q 595 0 141 -19 
Q 262 230 448 454 
Q 634 678 1043 1088 
Q 1638 1683 1913 2102 
Q 2189 2522 2189 2950 
Q 2189 3302 1968 3520 
Q 1747 3738 1421 3738 
Q 1101 3738 838 3517 
Q 576 3296 474 2893 
L 326 2918 
Q 429 3462 755 3763 
Q 1082 4064 1549 4064 
Q 2016 4064 2342 3753 
Q 2669 3443 2669 3008 
Q 2669 2573 2365 2192 
Q 2061 1811 1446 1242 
Q 1120 941 634 339 
L 2138 339 
Q 2381 339 2480 425 
Q 2579 512 2688 800 
L 2822 800 
L 2726 -19 
z
" transform="scale(0.015625)"/>
       </defs>
       <use xlink:href="#STSong-32"/>
       <use xlink:href="#STSong-30" x="46.899994"/>
       <use xlink:href="#STSong-30" x="93.799988"/>
      </g>
     </g>
    </g>
    <g id="xtick_6">
     <g id="line2d_11">
      <path d="M 687.501479 369.62125 
L 687.501479 19.752188 
" clip-path="url(#p91a548012c)" style="fill: none; stroke: #b0b0b0; stroke-opacity: 0.7; stroke-width: 0.8; stroke-linecap: square"/>
     </g>
     <g id="line2d_12">
      <g>
       <use xlink:href="#m10f6ef5e39" x="687.501479" y="369.62125" style="stroke: #000000; stroke-width: 0.8"/>
      </g>
     </g>
     <g id="text_6">
      <!-- 250 -->
      <g transform="translate(674.836791 388.50125) scale(0.18 -0.18)">
       <use xlink:href="#STSong-32"/>
       <use xlink:href="#STSong-35" x="46.899994"/>
       <use xlink:href="#STSong-30" x="93.799988"/>
      </g>
     </g>
    </g>
    <g id="text_7">
     <!-- Time (s) -->
     <g transform="translate(353.845043 409.007812) scale(0.18 -0.18)">
      <defs>
       <path id="STSong-54" d="M 269 4134 
Q 314 4301 365 4301 
Q 410 4301 486 4160 
Q 544 4045 595 4022 
Q 646 4000 794 4000 
L 3270 4000 
Q 3501 4000 3571 4035 
Q 3642 4070 3706 4218 
Q 3744 4307 3802 4307 
Q 3885 4307 3885 4179 
L 3872 3168 
Q 3872 3066 3821 3066 
Q 3750 3066 3706 3251 
Q 3635 3565 3532 3686 
Q 3430 3808 3091 3808 
L 2291 3808 
L 2291 512 
Q 2291 339 2332 281 
Q 2374 224 2509 192 
L 3008 83 
L 3008 -19 
Q 2669 0 2010 0 
Q 1165 0 1011 -19 
L 1011 83 
L 1459 173 
Q 1645 211 1702 284 
Q 1760 358 1760 518 
L 1760 3808 
L 973 3808 
Q 762 3814 627 3712 
Q 493 3610 237 3245 
Q 122 3078 70 3078 
Q 38 3078 38 3149 
Q 38 3219 70 3354 
L 269 4134 
z
" transform="scale(0.015625)"/>
       <path id="STSong-69" d="M 717 4096 
Q 826 4096 915 4013 
Q 1005 3930 1005 3821 
Q 1005 3718 912 3638 
Q 819 3558 704 3558 
Q 595 3558 518 3635 
Q 442 3712 442 3821 
Q 442 3930 525 4013 
Q 608 4096 717 4096 
z
M 1421 -26 
Q 1222 0 717 0 
Q 211 0 13 -26 
L 13 77 
L 371 147 
Q 570 186 570 378 
L 570 1882 
Q 570 2035 493 2105 
Q 416 2176 186 2227 
L 186 2317 
Q 640 2432 851 2778 
L 954 2778 
L 954 358 
Q 954 262 982 217 
Q 1011 173 1094 154 
L 1421 77 
L 1421 -26 
z
" transform="scale(0.015625)"/>
       <path id="STSong-6d" d="M 3578 83 
L 3763 122 
Q 3917 154 3981 202 
Q 4045 250 4045 390 
L 4045 1536 
Q 4045 1914 3894 2086 
Q 3744 2259 3424 2259 
Q 3002 2259 2688 1888 
L 2688 442 
Q 2688 307 2713 240 
Q 2739 173 2854 147 
L 3181 77 
L 3181 -26 
Q 2861 0 2502 0 
Q 2125 0 1773 -26 
L 1773 77 
L 1958 122 
Q 2138 166 2218 220 
Q 2298 275 2298 410 
L 2298 1549 
Q 2298 1869 2144 2061 
Q 1990 2253 1747 2253 
Q 1459 2253 1193 2083 
Q 928 1914 928 1741 
L 928 435 
Q 928 282 969 224 
Q 1011 166 1101 147 
L 1427 77 
L 1427 -26 
Q 1107 0 787 0 
Q 454 0 115 -26 
L 115 77 
L 301 115 
Q 442 147 490 204 
Q 538 262 538 397 
L 538 1779 
Q 538 1939 477 2000 
Q 416 2061 192 2093 
L 192 2195 
Q 518 2278 806 2669 
L 928 2669 
L 928 2054 
Q 1210 2310 1430 2432 
Q 1651 2554 1888 2554 
Q 2189 2554 2349 2464 
Q 2509 2374 2669 2086 
Q 2886 2310 3113 2432 
Q 3341 2554 3635 2554 
Q 4013 2554 4224 2326 
Q 4435 2099 4435 1677 
L 4435 384 
Q 4435 147 4538 128 
L 4826 77 
L 4826 -26 
Q 4506 0 4218 0 
Q 3834 0 3578 -19 
L 3578 83 
z
" transform="scale(0.015625)"/>
       <path id="STSong-65" d="M 2477 1606 
L 691 1606 
Q 672 1478 672 1350 
Q 672 851 944 537 
Q 1216 224 1683 224 
Q 1907 224 2092 313 
Q 2278 403 2496 608 
L 2522 454 
Q 2074 -102 1363 -102 
Q 896 -102 582 275 
Q 269 653 269 1190 
Q 269 1779 617 2166 
Q 966 2554 1504 2554 
Q 1914 2554 2186 2294 
Q 2458 2035 2477 1606 
z
M 723 1741 
L 1888 1741 
Q 2061 1741 2061 1875 
Q 2061 2010 1933 2208 
Q 1805 2406 1478 2406 
Q 1197 2406 992 2224 
Q 787 2042 723 1741 
z
" transform="scale(0.015625)"/>
       <path id="STSong-20" transform="scale(0.015625)"/>
       <path id="STSong-28" d="M 1901 4198 
L 1984 4032 
Q 1350 3450 1068 2797 
Q 787 2144 787 1286 
Q 787 582 1091 -112 
Q 1395 -806 1965 -1312 
L 1888 -1459 
Q 1242 -992 867 -208 
Q 493 576 493 1389 
Q 493 2208 864 2985 
Q 1235 3763 1901 4198 
z
" transform="scale(0.015625)"/>
       <path id="STSong-73" d="M 1792 1843 
Q 1734 2061 1536 2233 
Q 1338 2406 1184 2406 
Q 717 2406 717 1978 
Q 717 1805 870 1686 
Q 1024 1568 1338 1453 
Q 2061 1178 2061 672 
Q 2061 339 1805 118 
Q 1549 -102 1171 -102 
Q 710 -102 416 64 
L 352 787 
L 461 787 
Q 550 448 774 240 
Q 998 32 1254 32 
Q 1459 32 1600 163 
Q 1741 294 1741 493 
Q 1741 858 1139 1082 
Q 717 1242 534 1418 
Q 352 1594 352 1850 
Q 352 2176 595 2365 
Q 838 2554 1248 2554 
Q 1613 2554 1875 2400 
L 1914 1843 
L 1792 1843 
z
" transform="scale(0.015625)"/>
       <path id="STSong-29" d="M -38 4198 
Q 627 3763 998 2985 
Q 1370 2208 1370 1389 
Q 1370 576 995 -208 
Q 621 -992 -26 -1459 
L -102 -1312 
Q 467 -806 771 -112 
Q 1075 582 1075 1286 
Q 1075 2144 793 2797 
Q 512 3450 -122 4032 
L -38 4198 
z
" transform="scale(0.015625)"/>
      </defs>
      <use xlink:href="#STSong-54"/>
      <use xlink:href="#STSong-69" x="61.499985"/>
      <use xlink:href="#STSong-6d" x="84.399979"/>
      <use xlink:href="#STSong-65" x="161.499969"/>
      <use xlink:href="#STSong-20" x="203.199966"/>
      <use xlink:href="#STSong-28" x="228.199951"/>
      <use xlink:href="#STSong-73" x="257.399948"/>
      <use xlink:href="#STSong-29" x="293.899933"/>
     </g>
    </g>
   </g>
   <g id="matplotlib.axis_2">
    <g id="ytick_1">
     <g id="line2d_13">
      <path d="M 73.6625 350.295864 
L 692.187273 350.295864 
" clip-path="url(#p91a548012c)" style="fill: none; stroke: #b0b0b0; stroke-opacity: 0.7; stroke-width: 0.8; stroke-linecap: square"/>
     </g>
     <g id="line2d_14">
      <defs>
       <path id="m0910a30815" d="M 0 0 
L -3.5 0 
" style="stroke: #000000; stroke-width: 0.8"/>
      </defs>
      <g>
       <use xlink:href="#m0910a30815" x="73.6625" y="350.295864" style="stroke: #000000; stroke-width: 0.8"/>
      </g>
     </g>
     <g id="text_8">
      <!-- 0 -->
      <g transform="translate(58.219375 356.235864) scale(0.18 -0.18)">
       <use xlink:href="#STSong-30"/>
      </g>
     </g>
    </g>
    <g id="ytick_2">
     <g id="line2d_15">
      <path d="M 73.6625 285.333125 
L 692.187273 285.333125 
" clip-path="url(#p91a548012c)" style="fill: none; stroke: #b0b0b0; stroke-opacity: 0.7; stroke-width: 0.8; stroke-linecap: square"/>
     </g>
     <g id="line2d_16">
      <g>
       <use xlink:href="#m0910a30815" x="73.6625" y="285.333125" style="stroke: #000000; stroke-width: 0.8"/>
      </g>
     </g>
     <g id="text_9">
      <!-- 20 -->
      <g transform="translate(49.77625 291.273125) scale(0.18 -0.18)">
       <use xlink:href="#STSong-32"/>
       <use xlink:href="#STSong-30" x="46.899994"/>
      </g>
     </g>
    </g>
    <g id="ytick_3">
     <g id="line2d_17">
      <path d="M 73.6625 220.370386 
L 692.187273 220.370386 
" clip-path="url(#p91a548012c)" style="fill: none; stroke: #b0b0b0; stroke-opacity: 0.7; stroke-width: 0.8; stroke-linecap: square"/>
     </g>
     <g id="line2d_18">
      <g>
       <use xlink:href="#m0910a30815" x="73.6625" y="220.370386" style="stroke: #000000; stroke-width: 0.8"/>
      </g>
     </g>
     <g id="text_10">
      <!-- 40 -->
      <g transform="translate(49.77625 226.310386) scale(0.18 -0.18)">
       <defs>
        <path id="STSong-34" d="M 2086 4064 
L 2240 4064 
L 2240 1408 
L 2918 1408 
L 2918 1114 
L 2240 1114 
L 2240 -102 
L 1818 -102 
L 1818 1114 
L 179 1114 
L 179 1325 
L 941 2438 
L 2086 4064 
z
M 1818 1408 
L 1818 3373 
Q 947 2163 486 1408 
L 1818 1408 
z
" transform="scale(0.015625)"/>
       </defs>
       <use xlink:href="#STSong-34"/>
       <use xlink:href="#STSong-30" x="46.899994"/>
      </g>
     </g>
    </g>
    <g id="ytick_4">
     <g id="line2d_19">
      <path d="M 73.6625 155.407647 
L 692.187273 155.407647 
" clip-path="url(#p91a548012c)" style="fill: none; stroke: #b0b0b0; stroke-opacity: 0.7; stroke-width: 0.8; stroke-linecap: square"/>
     </g>
     <g id="line2d_20">
      <g>
       <use xlink:href="#m0910a30815" x="73.6625" y="155.407647" style="stroke: #000000; stroke-width: 0.8"/>
      </g>
     </g>
     <g id="text_11">
      <!-- 60 -->
      <g transform="translate(49.77625 161.347647) scale(0.18 -0.18)">
       <defs>
        <path id="STSong-36" d="M 2458 4083 
L 2509 3962 
Q 1709 3661 1232 2934 
Q 755 2208 755 1376 
Q 755 826 985 432 
Q 1216 38 1549 38 
Q 2266 38 2266 1178 
Q 2266 1658 2080 1926 
Q 1894 2195 1613 2195 
Q 1504 2195 1402 2150 
L 1331 2253 
Q 1536 2342 1747 2342 
Q 2170 2342 2448 2022 
Q 2726 1702 2726 1146 
Q 2726 614 2396 256 
Q 2067 -102 1542 -102 
Q 998 -102 656 323 
Q 314 749 314 1478 
Q 314 2362 893 3088 
Q 1472 3814 2458 4083 
z
" transform="scale(0.015625)"/>
       </defs>
       <use xlink:href="#STSong-36"/>
       <use xlink:href="#STSong-30" x="46.899994"/>
      </g>
     </g>
    </g>
    <g id="ytick_5">
     <g id="line2d_21">
      <path d="M 73.6625 90.444908 
L 692.187273 90.444908 
" clip-path="url(#p91a548012c)" style="fill: none; stroke: #b0b0b0; stroke-opacity: 0.7; stroke-width: 0.8; stroke-linecap: square"/>
     </g>
     <g id="line2d_22">
      <g>
       <use xlink:href="#m0910a30815" x="73.6625" y="90.444908" style="stroke: #000000; stroke-width: 0.8"/>
      </g>
     </g>
     <g id="text_12">
      <!-- 80 -->
      <g transform="translate(49.77625 96.384908) scale(0.18 -0.18)">
       <defs>
        <path id="STSong-38" d="M 1267 1997 
Q 493 2381 493 3040 
Q 493 3437 809 3750 
Q 1126 4064 1555 4064 
Q 2042 4064 2342 3801 
Q 2643 3539 2643 3142 
Q 2643 2797 2451 2585 
Q 2259 2374 1901 2195 
Q 2490 1914 2656 1626 
Q 2822 1338 2822 1050 
Q 2822 582 2473 240 
Q 2125 -102 1606 -102 
Q 1069 -102 749 195 
Q 429 493 429 947 
Q 429 1222 557 1488 
Q 685 1754 1267 1997 
z
M 1760 2272 
Q 2022 2394 2163 2627 
Q 2304 2861 2304 3136 
Q 2304 3475 2109 3696 
Q 1914 3917 1568 3917 
Q 1254 3917 1056 3702 
Q 858 3488 858 3174 
Q 858 3014 915 2860 
Q 973 2707 1232 2528 
Q 1491 2349 1760 2272 
z
M 1421 1926 
Q 1094 1766 953 1532 
Q 813 1299 813 909 
Q 813 518 1037 284 
Q 1261 51 1600 51 
Q 1952 51 2185 284 
Q 2419 518 2419 883 
Q 2419 1267 2185 1497 
Q 1952 1728 1421 1926 
z
" transform="scale(0.015625)"/>
       </defs>
       <use xlink:href="#STSong-38"/>
       <use xlink:href="#STSong-30" x="46.899994"/>
      </g>
     </g>
    </g>
    <g id="ytick_6">
     <g id="line2d_23">
      <path d="M 73.6625 25.482169 
L 692.187273 25.482169 
" clip-path="url(#p91a548012c)" style="fill: none; stroke: #b0b0b0; stroke-opacity: 0.7; stroke-width: 0.8; stroke-linecap: square"/>
     </g>
     <g id="line2d_24">
      <g>
       <use xlink:href="#m0910a30815" x="73.6625" y="25.482169" style="stroke: #000000; stroke-width: 0.8"/>
      </g>
     </g>
     <g id="text_13">
      <!-- 100 -->
      <g transform="translate(41.333125 31.422169) scale(0.18 -0.18)">
       <use xlink:href="#STSong-31"/>
       <use xlink:href="#STSong-30" x="46.899994"/>
       <use xlink:href="#STSong-30" x="93.799988"/>
      </g>
     </g>
    </g>
    <g id="text_14">
     <!-- RocksDB吞吐量 (KIOPS) -->
     <g transform="translate(32.706563 289.394844) rotate(-90) scale(0.18 -0.18)">
      <defs>
       <path id="STSong-52" d="M 134 77 
L 486 115 
Q 672 134 733 188 
Q 794 243 794 448 
L 794 3443 
Q 794 3642 742 3725 
Q 691 3808 442 3853 
L 160 3904 
L 154 4000 
Q 435 4000 550 4006 
L 1600 4064 
Q 1728 4070 1843 4070 
Q 2522 4070 2851 3833 
Q 3181 3597 3181 3098 
Q 3181 2720 2992 2499 
Q 2803 2278 2413 2093 
L 3117 845 
Q 3405 352 3593 246 
Q 3782 141 4102 96 
L 4102 -6 
Q 3834 0 3443 0 
Q 3117 0 2982 -6 
L 2003 1805 
Q 1894 2003 1683 2003 
L 1325 2003 
L 1325 486 
Q 1325 333 1385 262 
Q 1446 192 1600 154 
L 1914 77 
L 1914 -26 
Q 1453 0 1024 0 
Q 518 0 134 -26 
L 134 77 
z
M 1325 2176 
Q 2618 2131 2618 2995 
Q 2618 3392 2326 3638 
Q 2035 3885 1542 3885 
Q 1440 3885 1325 3872 
L 1325 2176 
z
" transform="scale(0.015625)"/>
       <path id="STSong-6f" d="M 1587 -102 
Q 1030 -102 640 269 
Q 250 640 250 1235 
Q 250 1805 640 2179 
Q 1030 2554 1664 2554 
Q 2253 2554 2630 2160 
Q 3008 1766 3008 1184 
Q 3008 653 2608 275 
Q 2208 -102 1587 -102 
z
M 710 1171 
Q 710 640 960 329 
Q 1210 19 1606 19 
Q 2016 19 2281 345 
Q 2547 672 2547 1210 
Q 2547 1760 2297 2096 
Q 2048 2432 1638 2432 
Q 1197 2432 953 2112 
Q 710 1792 710 1171 
z
" transform="scale(0.015625)"/>
       <path id="STSong-63" d="M 2496 570 
L 2502 371 
Q 2266 122 2029 10 
Q 1792 -102 1459 -102 
Q 960 -102 624 288 
Q 288 678 288 1261 
Q 288 1894 640 2224 
Q 992 2554 1670 2554 
Q 2022 2554 2243 2451 
Q 2464 2349 2464 2176 
Q 2464 2086 2403 2016 
Q 2342 1946 2240 1946 
Q 2074 1946 1882 2138 
Q 1670 2349 1440 2349 
Q 1165 2349 957 2051 
Q 749 1754 749 1306 
Q 749 794 1017 493 
Q 1286 192 1651 192 
Q 2067 192 2496 570 
z
" transform="scale(0.015625)"/>
       <path id="STSong-6b" d="M 3059 -26 
Q 2816 0 2362 0 
Q 1907 0 1664 -26 
L 1664 77 
L 1958 102 
Q 2099 115 2099 173 
Q 2099 211 2051 278 
Q 2003 346 1872 506 
Q 1741 666 1577 880 
Q 1414 1094 1347 1164 
Q 1280 1235 1225 1264 
Q 1171 1293 1082 1293 
L 966 1293 
L 966 384 
Q 966 224 998 182 
Q 1030 141 1126 122 
L 1370 77 
L 1370 -26 
Q 1171 0 768 0 
Q 365 0 166 -26 
L 166 77 
L 403 115 
Q 518 128 550 176 
Q 582 224 582 384 
L 582 3565 
Q 582 3712 515 3760 
Q 448 3808 186 3846 
L 186 3936 
Q 512 4000 864 4224 
L 966 4224 
L 966 1402 
Q 1094 1402 1222 1478 
Q 1350 1555 1564 1728 
Q 1779 1901 1865 1993 
Q 1952 2086 1952 2144 
Q 1952 2272 1542 2336 
L 1542 2438 
L 2842 2438 
L 2842 2336 
Q 2394 2291 2048 1997 
L 1491 1517 
L 2349 486 
Q 2528 275 2611 208 
Q 2694 141 2778 128 
L 3059 77 
L 3059 -26 
z
" transform="scale(0.015625)"/>
       <path id="STSong-44" d="M 762 3526 
Q 762 3680 723 3744 
Q 685 3808 576 3827 
L 141 3904 
L 141 4006 
Q 550 3994 1139 4029 
Q 1728 4064 1971 4064 
Q 2598 4064 2963 3993 
Q 3328 3923 3651 3737 
Q 3974 3552 4182 3305 
Q 4390 3059 4505 2739 
Q 4621 2419 4621 2061 
Q 4621 1459 4288 905 
Q 3955 352 3424 173 
Q 2893 -6 2394 -6 
L 1357 19 
L 77 19 
L 77 122 
L 576 230 
Q 678 250 720 314 
Q 762 378 762 557 
L 762 3526 
z
M 1286 710 
Q 1286 506 1507 330 
Q 1728 154 2144 154 
Q 2880 154 3433 637 
Q 3987 1120 3987 2086 
Q 3987 2931 3411 3417 
Q 2835 3904 1811 3904 
Q 1466 3904 1376 3837 
Q 1286 3770 1286 3526 
L 1286 710 
z
" transform="scale(0.015625)"/>
       <path id="STSong-42" d="M 83 3872 
L 83 3981 
L 461 4000 
Q 1664 4064 1869 4064 
Q 2586 4064 2963 3817 
Q 3341 3571 3341 3110 
Q 3341 2624 2650 2317 
Q 3635 2048 3635 1210 
Q 3635 864 3411 573 
Q 3187 282 2800 138 
Q 2413 -6 1946 -6 
L 614 0 
L 160 0 
L 160 102 
L 563 179 
Q 685 205 736 272 
Q 787 339 787 525 
L 787 3622 
Q 787 3725 752 3769 
Q 717 3814 499 3834 
L 83 3872 
z
M 1312 2278 
Q 1421 2259 1811 2259 
Q 2266 2259 2538 2505 
Q 2810 2752 2810 3168 
Q 2810 3520 2547 3715 
Q 2285 3910 1792 3910 
Q 1542 3910 1312 3853 
L 1312 2278 
z
M 1312 2086 
L 1312 653 
Q 1312 166 2061 166 
Q 2470 166 2777 451 
Q 3085 736 3085 1107 
Q 3085 1619 2768 1865 
Q 2451 2112 1798 2112 
Q 1574 2112 1312 2086 
z
" transform="scale(0.015625)"/>
       <path id="STSong-541e" d="M 6253 1325 
Q 5830 1280 5677 1101 
Q 5664 1075 5632 1075 
Q 5530 1075 4851 1542 
Q 4173 2010 3744 2950 
L 2637 2950 
Q 2272 2246 1670 1670 
L 2016 1440 
L 4237 1440 
L 4429 1677 
L 4826 1350 
Q 4864 1325 4864 1299 
Q 4864 1274 4819 1248 
L 4621 1133 
L 4621 205 
Q 4621 -109 4634 -333 
L 4653 -730 
Q 4653 -845 4521 -893 
Q 4390 -941 4355 -941 
Q 4320 -941 4320 -858 
L 4320 -365 
L 1933 -365 
L 1933 -723 
Q 1933 -832 1814 -877 
Q 1696 -922 1654 -922 
Q 1613 -922 1613 -813 
L 1632 -454 
Q 1638 -237 1638 96 
L 1638 1043 
Q 1638 1254 1626 1626 
Q 1082 1114 237 666 
L 198 730 
Q 1690 1773 2310 2950 
L 979 2950 
Q 730 2950 550 2880 
L 371 3117 
Q 678 3091 838 3091 
L 2381 3091 
Q 2637 3584 2810 4250 
L 1472 4250 
Q 1222 4250 1043 4179 
L 864 4416 
Q 1171 4390 1331 4390 
L 4627 4390 
L 4909 4768 
L 5382 4352 
Q 5440 4307 5440 4278 
Q 5440 4250 5357 4250 
L 3174 4250 
Q 3014 3738 2707 3091 
L 5344 3091 
L 5619 3469 
L 6080 3046 
Q 6125 3008 6125 2979 
Q 6125 2950 6054 2950 
L 3878 2950 
Q 4685 1613 6246 1402 
L 6253 1325 
z
M 4320 -224 
L 4320 1299 
L 1933 1299 
L 1933 -224 
L 4320 -224 
z
" transform="scale(0.015625)"/>
       <path id="STSong-5410" d="M 6042 -614 
Q 6106 -678 6106 -707 
Q 6106 -736 6016 -736 
L 2362 -736 
Q 2118 -736 1933 -800 
L 1754 -563 
Q 2054 -589 2221 -589 
L 3974 -589 
L 3974 2394 
L 3078 2394 
Q 2842 2394 2669 2330 
L 2496 2560 
Q 2784 2534 2944 2534 
L 3974 2534 
L 3974 3866 
Q 3974 4269 3949 4749 
L 4454 4499 
Q 4544 4454 4544 4428 
Q 4544 4403 4480 4365 
L 4275 4243 
L 4275 2534 
L 5229 2534 
L 5504 2925 
L 5926 2515 
Q 5990 2451 5990 2422 
Q 5990 2394 5901 2394 
L 4275 2394 
L 4275 -589 
L 5331 -589 
L 5606 -186 
L 6042 -614 
z
M 2426 3501 
L 2221 3366 
L 2221 1632 
Q 2221 1158 2234 883 
L 2253 422 
Q 2253 301 2125 253 
Q 1997 205 1961 205 
Q 1926 205 1926 288 
L 1926 806 
L 909 806 
L 909 83 
Q 909 -38 793 -102 
Q 678 -166 659 -166 
Q 608 -166 608 -70 
Q 608 26 617 422 
Q 627 819 627 1370 
L 627 3315 
Q 627 3661 608 3974 
L 986 3642 
L 1818 3642 
L 2029 3910 
L 2419 3629 
Q 2477 3590 2477 3561 
Q 2477 3533 2426 3501 
z
M 1926 947 
L 1926 3501 
L 909 3501 
L 909 947 
L 1926 947 
z
" transform="scale(0.015625)"/>
       <path id="STSong-91cf" d="M 5331 4442 
L 5133 4326 
L 5133 3546 
L 5146 3142 
Q 5146 3078 5024 3024 
Q 4902 2970 4860 2970 
Q 4819 2970 4819 3066 
L 4819 3213 
L 1542 3213 
L 1542 3098 
Q 1542 2989 1414 2928 
Q 1286 2867 1254 2867 
Q 1222 2867 1222 2950 
L 1235 3565 
L 1235 4320 
Q 1235 4621 1216 4896 
L 1606 4582 
L 4736 4582 
L 4941 4851 
L 5331 4557 
Q 5376 4525 5376 4496 
Q 5376 4467 5331 4442 
z
M 4819 3955 
L 4819 4493 
L 1542 4493 
L 1542 3955 
L 4819 3955 
z
M 4819 3302 
L 4819 3866 
L 1542 3866 
L 1542 3302 
L 4819 3302 
z
M 6112 2701 
Q 6157 2662 6157 2636 
Q 6157 2611 6086 2611 
L 819 2611 
Q 570 2611 390 2541 
L 211 2726 
Q 518 2701 678 2701 
L 5459 2701 
L 5709 3053 
L 6112 2701 
z
M 6029 -768 
Q 6067 -806 6067 -828 
Q 6067 -851 6003 -851 
L 890 -851 
Q 640 -851 461 -922 
L 282 -736 
Q 589 -762 749 -762 
L 3014 -762 
L 3014 -102 
L 1626 -102 
Q 1376 -102 1197 -173 
L 1018 13 
Q 1325 -13 1485 -13 
L 3014 -13 
L 3014 634 
L 1517 634 
L 1517 493 
Q 1517 429 1494 400 
Q 1472 371 1385 339 
Q 1299 307 1254 307 
Q 1210 307 1210 371 
L 1229 941 
L 1229 1805 
Q 1229 2106 1210 2381 
L 1574 2118 
L 4736 2118 
L 4896 2355 
L 5293 2093 
Q 5338 2061 5338 2035 
Q 5338 2010 5293 1984 
L 5107 1869 
L 5107 1146 
Q 5107 960 5120 819 
L 5139 589 
Q 5139 512 5017 441 
Q 4896 371 4848 371 
Q 4800 371 4800 474 
L 4800 634 
L 3322 634 
L 3322 -13 
L 4845 -13 
L 5082 326 
L 5453 -32 
Q 5491 -70 5491 -86 
Q 5491 -102 5414 -102 
L 3322 -102 
L 3322 -762 
L 5395 -762 
L 5638 -416 
L 6029 -768 
z
M 4800 1434 
L 4800 2029 
L 3322 2029 
L 3322 1434 
L 4800 1434 
z
M 3014 1434 
L 3014 2029 
L 1517 2029 
L 1517 1434 
L 3014 1434 
z
M 4800 723 
L 4800 1344 
L 3322 1344 
L 3322 723 
L 4800 723 
z
M 3014 723 
L 3014 1344 
L 1517 1344 
L 1517 723 
L 3014 723 
z
" transform="scale(0.015625)"/>
       <path id="STSong-4b" d="M 1869 -26 
Q 1626 0 1043 0 
Q 461 0 218 -26 
L 218 77 
L 621 134 
Q 710 147 745 192 
Q 781 237 781 346 
L 781 3674 
Q 781 3782 752 3814 
Q 723 3846 621 3859 
L 218 3917 
L 218 4019 
Q 294 4000 1376 4000 
Q 1645 4000 1869 4019 
L 1869 3917 
L 1440 3859 
Q 1344 3853 1312 3817 
Q 1280 3782 1280 3674 
L 1280 346 
Q 1280 243 1315 201 
Q 1350 160 1440 147 
L 1869 77 
L 1869 -26 
z
M 4864 -26 
Q 4518 0 3910 0 
Q 3302 0 2957 -26 
L 2957 77 
L 3411 154 
Q 3514 166 3514 218 
Q 3514 262 3398 358 
L 1907 1606 
Q 1613 1850 1389 2003 
Q 1683 2150 1997 2413 
L 3142 3379 
Q 3488 3667 3488 3782 
Q 3488 3840 3398 3853 
L 2938 3917 
L 2938 4019 
Q 3123 4000 3718 4000 
Q 4314 4000 4499 4019 
L 4499 3917 
Q 4198 3891 3923 3769 
Q 3648 3648 3251 3315 
L 1952 2214 
L 3846 595 
Q 4179 307 4291 230 
Q 4403 154 4531 134 
L 4864 77 
L 4864 -26 
z
" transform="scale(0.015625)"/>
       <path id="STSong-49" d="M 890 346 
L 890 3654 
Q 890 3763 854 3808 
Q 819 3853 730 3859 
L 166 3917 
L 166 4019 
Q 237 4000 1510 4000 
Q 1888 4000 2112 4019 
L 2112 3910 
L 1549 3853 
Q 1459 3846 1424 3808 
Q 1389 3770 1389 3654 
L 1389 346 
Q 1389 237 1421 201 
Q 1453 166 1549 160 
L 2112 128 
L 2112 -26 
Q 1856 0 1139 0 
Q 422 0 166 -26 
L 166 128 
L 730 160 
Q 826 173 858 205 
Q 890 237 890 346 
z
" transform="scale(0.015625)"/>
       <path id="STSong-4f" d="M 2490 -102 
Q 1510 -102 902 480 
Q 294 1062 294 1958 
Q 294 2829 915 3446 
Q 1536 4064 2579 4064 
Q 3462 4064 4076 3472 
Q 4691 2880 4691 1997 
Q 4691 1056 4083 477 
Q 3475 -102 2490 -102 
z
M 870 1914 
Q 870 1152 1328 582 
Q 1786 13 2464 13 
Q 3277 13 3702 512 
Q 4128 1011 4128 1958 
Q 4128 2842 3677 3392 
Q 3226 3942 2490 3942 
Q 1965 3942 1590 3660 
Q 1216 3379 1043 2896 
Q 870 2413 870 1914 
z
" transform="scale(0.015625)"/>
       <path id="STSong-50" d="M 134 4000 
Q 755 4000 979 4013 
L 1888 4064 
Q 1990 4070 2086 4070 
Q 2803 4070 3116 3705 
Q 3430 3341 3430 2893 
Q 3430 2394 3068 2045 
Q 2707 1696 2182 1696 
Q 1779 1696 1568 1946 
L 1606 1984 
Q 1773 1926 1952 1926 
Q 2342 1926 2608 2179 
Q 2874 2432 2874 2867 
Q 2874 3290 2576 3587 
Q 2278 3885 1638 3885 
Q 1414 3885 1299 3834 
L 1299 390 
Q 1299 294 1340 252 
Q 1382 211 1523 179 
L 1990 77 
L 1990 -26 
Q 1453 0 1126 0 
Q 902 0 262 -19 
L 262 83 
L 621 134 
Q 717 154 749 205 
Q 781 256 781 378 
L 781 3430 
Q 781 3674 630 3757 
Q 480 3840 134 3878 
L 134 4000 
z
" transform="scale(0.015625)"/>
       <path id="STSong-53" d="M 2406 3053 
Q 2221 3891 1485 3891 
Q 1139 3891 905 3692 
Q 672 3494 672 3226 
Q 672 3014 861 2835 
Q 1050 2656 1645 2349 
Q 2253 2035 2525 1798 
Q 2797 1562 2797 1094 
Q 2797 557 2422 227 
Q 2048 -102 1376 -102 
Q 755 -102 243 198 
L 314 1152 
L 403 1152 
Q 461 678 787 374 
Q 1114 70 1510 70 
Q 1888 70 2147 294 
Q 2406 518 2406 832 
Q 2406 1114 2198 1306 
Q 1990 1498 1510 1747 
Q 845 2093 582 2374 
Q 320 2656 320 3021 
Q 320 3475 672 3769 
Q 1024 4064 1587 4064 
Q 2150 4064 2515 3782 
L 2490 3053 
L 2406 3053 
z
" transform="scale(0.015625)"/>
      </defs>
      <use xlink:href="#STSong-52"/>
      <use xlink:href="#STSong-6f" x="62.499985"/>
      <use xlink:href="#STSong-63" x="113.499969"/>
      <use xlink:href="#STSong-6b" x="155.199966"/>
      <use xlink:href="#STSong-73" x="202.09996"/>
      <use xlink:href="#STSong-44" x="238.599945"/>
      <use xlink:href="#STSong-42" x="315.699936"/>
      <use xlink:href="#STSong-541e" x="377.199921"/>
      <use xlink:href="#STSong-5410" x="477.199905"/>
      <use xlink:href="#STSong-91cf" x="577.19989"/>
      <use xlink:href="#STSong-20" x="677.199875"/>
      <use xlink:href="#STSong-28" x="702.19986"/>
      <use xlink:href="#STSong-4b" x="731.399857"/>
      <use xlink:href="#STSong-49" x="805.399841"/>
      <use xlink:href="#STSong-4f" x="840.799835"/>
      <use xlink:href="#STSong-50" x="918.899826"/>
      <use xlink:href="#STSong-53" x="975.199814"/>
      <use xlink:href="#STSong-29" x="1023.099808"/>
     </g>
    </g>
   </g>
   <g id="line2d_25">
    <path d="M 101.777262 202.932129 
L 125.206231 224.223657 
L 148.6352 210.567095 
L 172.064168 142.990578 
L 195.493137 157.500399 
L 218.922106 272.604894 
L 242.351074 207.729622 
L 265.780043 265.419341 
L 289.209012 282.960375 
L 312.63798 241.105114 
L 336.066949 242.927028 
L 359.495918 184.280807 
L 382.924886 208.604736 
L 406.353855 256.543427 
L 429.782824 246.050854 
L 453.211792 263.102946 
L 476.640761 232.797646 
L 500.06973 293.993525 
L 523.498698 219.121302 
L 546.927667 298.344788 
L 570.356636 353.718111 
L 593.785604 264.148096 
L 617.214573 225.680612 
L 640.643542 318.056392 
L 664.07251 198.822749 
" clip-path="url(#p91a548012c)" style="fill: none; stroke: #3c78d5; stroke-width: 2.5; stroke-linecap: square"/>
   </g>
   <g id="line2d_26">
    <path d="M 101.777262 47.689062 
L 125.206231 72.517083 
L 148.6352 69.656764 
L 172.064168 40.892074 
L 195.493137 35.655327 
L 218.922106 121.998781 
L 242.351074 66.624792 
L 265.780043 99.922579 
L 289.209012 114.926546 
L 312.63798 95.179785 
L 336.066949 110.221298 
L 359.495918 63.934797 
L 382.924886 95.172098 
L 406.353855 132.122823 
L 429.782824 92.093566 
L 453.211792 106.432762 
L 476.640761 90.044957 
L 500.06973 112.600465 
L 523.498698 119.372214 
L 546.927667 143.057896 
L 570.356636 188.596391 
L 593.785604 95.540908 
L 617.214573 73.636778 
L 640.643542 165.73384 
L 664.07251 42.667235 
" clip-path="url(#p91a548012c)" style="fill: none; stroke: #c7e9b4; stroke-width: 2.5; stroke-linecap: square"/>
   </g>
   <g id="patch_3">
    <path d="M 73.6625 369.62125 
L 73.6625 19.752188 
" style="fill: none; stroke: #000000; stroke-width: 2; stroke-linejoin: miter; stroke-linecap: square"/>
   </g>
   <g id="patch_4">
    <path d="M 692.187273 369.62125 
L 692.187273 19.752188 
" style="fill: none; stroke: #000000; stroke-width: 2; stroke-linejoin: miter; stroke-linecap: square"/>
   </g>
   <g id="patch_5">
    <path d="M 73.6625 369.62125 
L 692.187273 369.62125 
" style="fill: none; stroke: #000000; stroke-width: 2; stroke-linejoin: miter; stroke-linecap: square"/>
   </g>
   <g id="patch_6">
    <path d="M 73.6625 19.752188 
L 692.187273 19.752188 
" style="fill: none; stroke: #000000; stroke-width: 2; stroke-linejoin: miter; stroke-linecap: square"/>
   </g>
   <g id="legend_1">
    <g id="patch_7">
     <path d="M 86.2625 360.62125 
L 282.06875 360.62125 
Q 285.66875 360.62125 285.66875 357.02125 
L 285.66875 306.368125 
Q 285.66875 302.768125 282.06875 302.768125 
L 86.2625 302.768125 
Q 82.6625 302.768125 82.6625 306.368125 
L 82.6625 357.02125 
Q 82.6625 360.62125 86.2625 360.62125 
z
" style="fill: #ffffff; opacity: 0.8; stroke: #cccccc; stroke-linejoin: miter"/>
    </g>
    <g id="line2d_27">
     <path d="M 89.8625 316.268125 
L 107.8625 316.268125 
L 125.8625 316.268125 
" style="fill: none; stroke: #3c78d5; stroke-width: 2.5; stroke-linecap: square"/>
    </g>
    <g id="text_15">
     <!-- NVMeVirt -->
     <g transform="translate(140.2625 322.568125) scale(0.18 -0.18)">
      <defs>
       <path id="STSong-4e" d="M 947 429 
Q 947 269 985 214 
Q 1024 160 1146 147 
L 1734 83 
L 1734 -19 
Q 1350 0 909 0 
Q 582 0 77 -19 
L 77 83 
L 429 147 
Q 646 186 707 237 
Q 768 288 768 429 
L 768 3219 
Q 768 3514 704 3661 
Q 640 3808 461 3834 
L 83 3891 
L 83 4000 
L 851 4000 
Q 986 4000 1040 3968 
Q 1094 3936 1190 3834 
L 4083 678 
L 4019 3558 
Q 4013 3738 3958 3789 
Q 3904 3840 3789 3853 
L 3238 3917 
L 3238 4019 
Q 3418 4000 3930 4000 
Q 4442 4000 4621 4019 
L 4621 3917 
L 4352 3891 
Q 4243 3878 4217 3814 
Q 4192 3750 4198 3558 
L 4262 -83 
L 4109 -83 
L 947 3309 
L 947 429 
z
" transform="scale(0.015625)"/>
       <path id="STSong-56" d="M 4390 3917 
L 4045 3859 
Q 3853 3821 3782 3648 
L 2310 -147 
L 2176 -147 
L 614 3539 
Q 544 3706 489 3763 
Q 435 3821 339 3840 
L -19 3917 
L -19 4019 
Q 198 4000 909 4000 
Q 1530 4000 1843 4019 
L 1843 3917 
L 1434 3891 
Q 1267 3885 1196 3843 
Q 1126 3802 1126 3712 
Q 1126 3616 1229 3373 
L 2394 570 
L 3418 3411 
Q 3482 3597 3482 3674 
Q 3482 3770 3395 3811 
Q 3309 3853 3066 3885 
L 2810 3917 
L 2810 4019 
Q 2982 4000 3597 4000 
Q 4250 4000 4390 4019 
L 4390 3917 
z
" transform="scale(0.015625)"/>
       <path id="STSong-4d" d="M 5280 -19 
Q 4666 0 4365 0 
Q 3968 0 3450 -19 
L 3450 83 
L 3834 160 
Q 3981 192 4019 256 
Q 4058 320 4058 506 
L 4058 3494 
L 2624 -51 
L 922 3770 
L 922 467 
Q 922 166 1114 147 
L 1702 83 
L 1702 -19 
Q 1318 0 877 0 
Q 550 0 45 -19 
L 45 83 
L 397 147 
Q 640 192 688 253 
Q 736 314 736 467 
L 736 3846 
L 154 3917 
L 154 4019 
Q 262 4000 768 4000 
Q 1197 4000 1357 4019 
L 2778 845 
L 4070 4019 
Q 4384 4000 4698 4000 
Q 5005 4000 5274 4019 
L 5274 3917 
L 4877 3834 
Q 4691 3795 4620 3718 
Q 4550 3642 4550 3456 
L 4550 550 
Q 4550 352 4585 285 
Q 4621 218 4736 192 
L 5280 83 
L 5280 -19 
z
" transform="scale(0.015625)"/>
       <path id="STSong-72" d="M 134 -26 
L 134 77 
L 454 134 
Q 582 166 617 230 
Q 653 294 653 461 
L 653 1690 
Q 653 1818 598 1875 
Q 544 1933 358 1971 
L 186 2010 
L 198 2106 
Q 448 2195 614 2313 
Q 781 2432 909 2701 
L 1024 2701 
Q 1050 2355 1050 1894 
Q 1171 2125 1401 2339 
Q 1632 2554 1811 2554 
Q 1952 2554 2038 2464 
Q 2125 2374 2125 2234 
Q 2125 2125 2054 2061 
Q 1984 1997 1875 1997 
Q 1779 1997 1670 2042 
Q 1542 2099 1459 2099 
Q 1318 2099 1184 1868 
Q 1050 1638 1050 1510 
L 1050 448 
Q 1050 282 1104 227 
Q 1158 173 1338 147 
L 1830 77 
L 1830 -26 
Q 1485 0 979 0 
Q 499 0 134 -26 
z
" transform="scale(0.015625)"/>
       <path id="STSong-74" d="M 979 3085 
L 1056 3085 
L 1062 2400 
L 1933 2419 
L 1933 2189 
L 1062 2163 
L 1062 640 
Q 1062 352 1142 224 
Q 1222 96 1402 96 
Q 1619 96 1926 275 
L 1984 186 
Q 1850 32 1674 -35 
Q 1498 -102 1197 -102 
Q 864 -102 761 61 
Q 659 224 659 704 
L 659 2150 
L 314 2144 
Q 224 2144 224 2195 
Q 224 2240 307 2278 
Q 582 2394 707 2544 
Q 832 2694 979 3085 
z
" transform="scale(0.015625)"/>
      </defs>
      <use xlink:href="#STSong-4e"/>
      <use xlink:href="#STSong-56" x="77.099991"/>
      <use xlink:href="#STSong-4d" x="144.799973"/>
      <use xlink:href="#STSong-65" x="228.09996"/>
      <use xlink:href="#STSong-56" x="269.799957"/>
      <use xlink:href="#STSong-69" x="337.499939"/>
      <use xlink:href="#STSong-72" x="360.399933"/>
      <use xlink:href="#STSong-74" x="393.699921"/>
     </g>
    </g>
    <g id="line2d_28">
     <path d="M 89.8625 342.494687 
L 107.8625 342.494687 
L 125.8625 342.494687 
" style="fill: none; stroke: #c7e9b4; stroke-width: 2.5; stroke-linecap: square"/>
    </g>
    <g id="text_16">
     <!-- Inspur NS800G2-Z -->
     <g transform="translate(140.2625 348.794688) scale(0.18 -0.18)">
      <defs>
       <path id="STSong-6e" d="M 3200 -19 
Q 2867 0 2534 0 
Q 2202 0 1869 -19 
L 1869 83 
L 2221 134 
Q 2362 154 2362 384 
L 2362 1645 
Q 2362 1926 2202 2092 
Q 2042 2259 1766 2259 
Q 1357 2259 966 1869 
L 966 314 
Q 966 211 1120 173 
L 1498 83 
L 1498 -19 
Q 1261 0 806 0 
Q 352 0 115 -19 
L 115 83 
L 454 147 
Q 582 166 582 339 
L 582 1606 
Q 582 1805 502 1875 
Q 422 1946 218 1978 
L 218 2093 
Q 627 2189 864 2669 
L 966 2669 
L 966 2093 
Q 1210 2304 1504 2429 
Q 1798 2554 2022 2554 
Q 2758 2554 2758 1677 
L 2758 403 
Q 2758 282 2790 218 
Q 2822 154 2918 134 
L 3200 83 
L 3200 -19 
z
" transform="scale(0.015625)"/>
       <path id="STSong-70" d="M 890 2157 
Q 1446 2554 1965 2554 
Q 2445 2554 2739 2211 
Q 3034 1869 3034 1293 
Q 3034 710 2643 304 
Q 2253 -102 1645 -102 
Q 1280 -102 890 83 
L 890 -1274 
Q 890 -1357 944 -1405 
Q 998 -1453 1158 -1478 
L 1542 -1542 
L 1542 -1645 
Q 1293 -1619 806 -1619 
Q 403 -1619 77 -1645 
L 77 -1542 
L 346 -1491 
Q 442 -1472 470 -1430 
Q 499 -1389 499 -1267 
L 499 1939 
Q 499 2170 416 2182 
L 102 2234 
L 122 2323 
Q 442 2458 573 2547 
Q 704 2637 794 2784 
L 890 2784 
L 890 2157 
z
M 890 1965 
L 890 563 
Q 890 333 1101 182 
Q 1312 32 1645 32 
Q 2054 32 2323 336 
Q 2592 640 2592 1075 
Q 2592 1632 2355 1945 
Q 2118 2259 1722 2259 
Q 1331 2259 890 1965 
z
" transform="scale(0.015625)"/>
       <path id="STSong-75" d="M 102 2438 
L 922 2438 
L 922 787 
Q 922 480 1027 352 
Q 1133 224 1427 224 
Q 1862 224 2227 550 
L 2227 2093 
Q 2227 2214 2131 2256 
Q 2035 2298 1638 2336 
L 1638 2438 
L 2643 2438 
L 2643 557 
Q 2643 339 2710 291 
Q 2778 243 3091 230 
L 3098 134 
L 2227 -96 
L 2227 390 
Q 1946 147 1715 22 
Q 1485 -102 1254 -102 
Q 934 -102 726 134 
Q 518 371 518 762 
L 518 2099 
Q 518 2214 451 2256 
Q 384 2298 102 2349 
L 102 2438 
z
" transform="scale(0.015625)"/>
       <path id="STSong-47" d="M 4845 1670 
L 4429 1626 
Q 4320 1613 4278 1574 
Q 4237 1536 4237 1446 
L 4237 736 
Q 4237 512 4224 429 
Q 4211 346 4163 278 
Q 4115 211 3862 112 
Q 3610 13 3277 -44 
Q 2944 -102 2586 -102 
Q 1536 -102 915 454 
Q 294 1011 294 1907 
Q 294 2861 982 3462 
Q 1670 4064 2752 4064 
Q 3603 4064 4173 3757 
L 4224 2989 
L 4134 2970 
Q 3738 3923 2854 3923 
Q 1952 3923 1440 3398 
Q 928 2874 928 1984 
Q 928 1210 1456 630 
Q 1984 51 2752 51 
Q 3712 51 3712 736 
L 3712 1446 
Q 3712 1542 3664 1580 
Q 3616 1619 3514 1626 
L 2899 1670 
L 2899 1786 
Q 3392 1760 3712 1760 
Q 4346 1760 4845 1786 
L 4845 1670 
z
" transform="scale(0.015625)"/>
       <path id="STSong-2d" d="M 243 1389 
L 1760 1389 
L 1760 1114 
L 243 1114 
L 243 1389 
z
" transform="scale(0.015625)"/>
       <path id="STSong-5a" d="M 3898 1126 
L 3872 -19 
Q 2970 0 2413 0 
Q 1050 0 243 -26 
L 243 38 
L 3085 3846 
L 1325 3814 
Q 1069 3802 937 3757 
Q 806 3712 681 3574 
Q 557 3437 339 3110 
L 275 3110 
L 653 4282 
L 762 4282 
Q 736 4186 736 4134 
Q 736 4019 870 3990 
Q 1005 3962 1440 3968 
L 3725 4000 
L 3725 3872 
L 928 160 
L 2150 160 
Q 2848 160 3145 217 
Q 3443 275 3596 521 
Q 3750 768 3795 1126 
L 3898 1126 
z
" transform="scale(0.015625)"/>
      </defs>
      <use xlink:href="#STSong-49"/>
      <use xlink:href="#STSong-6e" x="35.399994"/>
      <use xlink:href="#STSong-73" x="86.399979"/>
      <use xlink:href="#STSong-70" x="122.899963"/>
      <use xlink:href="#STSong-75" x="173.899948"/>
      <use xlink:href="#STSong-72" x="222.899933"/>
      <use xlink:href="#STSong-20" x="256.199921"/>
      <use xlink:href="#STSong-4e" x="281.199905"/>
      <use xlink:href="#STSong-53" x="358.299896"/>
      <use xlink:href="#STSong-38" x="406.19989"/>
      <use xlink:href="#STSong-30" x="453.099884"/>
      <use xlink:href="#STSong-30" x="499.999878"/>
      <use xlink:href="#STSong-47" x="546.899872"/>
      <use xlink:href="#STSong-32" x="623.999863"/>
      <use xlink:href="#STSong-2d" x="670.899857"/>
      <use xlink:href="#STSong-5a" x="702.199844"/>
     </g>
    </g>
   </g>
  </g>
 </g>
 <defs>
  <clipPath id="p91a548012c">
   <rect x="73.6625" y="19.752188" width="618.524773" height="349.869062"/>
  </clipPath>
 </defs>
</svg>
