<?xml version="1.0" encoding="utf-8" standalone="no"?>
<!DOCTYPE svg PUBLIC "-//W3C//DTD SVG 1.1//EN"
  "http://www.w3.org/Graphics/SVG/1.1/DTD/svg11.dtd">
<svg xmlns:xlink="http://www.w3.org/1999/xlink" width="864pt" height="576pt" viewBox="0 0 864 576" xmlns="http://www.w3.org/2000/svg" version="1.1">
 <metadata>
  <rdf:RDF xmlns:dc="http://purl.org/dc/elements/1.1/" xmlns:cc="http://creativecommons.org/ns#" xmlns:rdf="http://www.w3.org/1999/02/22-rdf-syntax-ns#">
   <cc:Work>
    <dc:type rdf:resource="http://purl.org/dc/dcmitype/StillImage"/>
    <dc:date>2024-05-17T22:20:54.314124</dc:date>
    <dc:format>image/svg+xml</dc:format>
    <dc:creator>
     <cc:Agent>
      <dc:title>Matplotlib v3.8.4, https://matplotlib.org/</dc:title>
     </cc:Agent>
    </dc:creator>
   </cc:Work>
  </rdf:RDF>
 </metadata>
 <defs>
  <style type="text/css">*{stroke-linejoin: round; stroke-linecap: butt}</style>
 </defs>
 <g id="figure_1">
  <g id="patch_1">
   <path d="M 0 576 
L 864 576 
L 864 0 
L 0 0 
z
" style="fill: #ffffff"/>
  </g>
  <g id="axes_1">
   <g id="patch_2">
    <path d="M 83.91125 494.26 
L 838.08 494.26 
L 838.08 25.92 
L 83.91125 25.92 
z
" style="fill: #f7f7f7"/>
   </g>
   <g id="patch_3">
    <path d="M 118.191648 494.26 
L 169.247559 494.26 
L 169.247559 488.684524 
L 118.191648 488.684524 
z
" clip-path="url(#p4dcdd4d614)" style="fill: #3c78d5; stroke: #000000; stroke-linejoin: miter"/>
   </g>
   <g id="patch_4">
    <path d="M 264.065681 494.26 
L 315.121592 494.26 
L 315.121592 481.993952 
L 264.065681 481.993952 
z
" clip-path="url(#p4dcdd4d614)" style="fill: #3c78d5; stroke: #000000; stroke-linejoin: miter"/>
   </g>
   <g id="patch_5">
    <path d="M 409.939713 494.26 
L 460.995625 494.26 
L 460.995625 449.65619 
L 409.939713 449.65619 
z
" clip-path="url(#p4dcdd4d614)" style="fill: #3c78d5; stroke: #000000; stroke-linejoin: miter"/>
   </g>
   <g id="patch_6">
    <path d="M 555.813746 494.26 
L 606.869658 494.26 
L 606.869658 360.448571 
L 555.813746 360.448571 
z
" clip-path="url(#p4dcdd4d614)" style="fill: #3c78d5; stroke: #000000; stroke-linejoin: miter"/>
   </g>
   <g id="patch_7">
    <path d="M 701.687779 494.26 
L 752.743691 494.26 
L 752.743691 48.221905 
L 701.687779 48.221905 
z
" clip-path="url(#p4dcdd4d614)" style="fill: #3c78d5; stroke: #000000; stroke-linejoin: miter"/>
   </g>
   <g id="patch_8">
    <path d="M 169.247559 494.26 
L 220.303471 494.26 
L 220.303471 489.799619 
L 169.247559 489.799619 
z
" clip-path="url(#p4dcdd4d614)" style="fill: #95d5bb; stroke: #000000; stroke-linejoin: miter"/>
   </g>
   <g id="patch_9">
    <path d="M 315.121592 494.26 
L 366.177504 494.26 
L 366.177504 485.339238 
L 315.121592 485.339238 
z
" clip-path="url(#p4dcdd4d614)" style="fill: #95d5bb; stroke: #000000; stroke-linejoin: miter"/>
   </g>
   <g id="patch_10">
    <path d="M 460.995625 494.26 
L 512.051537 494.26 
L 512.051537 481.993952 
L 460.995625 481.993952 
z
" clip-path="url(#p4dcdd4d614)" style="fill: #95d5bb; stroke: #000000; stroke-linejoin: miter"/>
   </g>
   <g id="patch_11">
    <path d="M 606.869658 494.26 
L 657.925569 494.26 
L 657.925569 460.807143 
L 606.869658 460.807143 
z
" clip-path="url(#p4dcdd4d614)" style="fill: #95d5bb; stroke: #000000; stroke-linejoin: miter"/>
   </g>
   <g id="patch_12">
    <path d="M 752.743691 494.26 
L 803.799602 494.26 
L 803.799602 427.354286 
L 752.743691 427.354286 
z
" clip-path="url(#p4dcdd4d614)" style="fill: #95d5bb; stroke: #000000; stroke-linejoin: miter"/>
   </g>
   <g id="matplotlib.axis_1">
    <g id="xtick_1">
     <g id="line2d_1">
      <path d="M 169.247559 494.26 
L 169.247559 25.92 
" clip-path="url(#p4dcdd4d614)" style="fill: none; stroke: #b0b0b0; stroke-opacity: 0.7; stroke-width: 0.8; stroke-linecap: square"/>
     </g>
     <g id="line2d_2">
      <defs>
       <path id="m629a6f384f" d="M 0 0 
L 0 3.5 
" style="stroke: #000000; stroke-width: 0.8"/>
      </defs>
      <g>
       <use xlink:href="#m629a6f384f" x="169.247559" y="494.26" style="stroke: #000000; stroke-width: 0.8"/>
      </g>
     </g>
     <g id="text_1">
      <!-- 4 -->
      <g transform="translate(163.618809 517.1) scale(0.24 -0.24)">
       <defs>
        <path id="STSong-34" d="M 2086 4064 
L 2240 4064 
L 2240 1408 
L 2918 1408 
L 2918 1114 
L 2240 1114 
L 2240 -102 
L 1818 -102 
L 1818 1114 
L 179 1114 
L 179 1325 
L 941 2438 
L 2086 4064 
z
M 1818 1408 
L 1818 3373 
Q 947 2163 486 1408 
L 1818 1408 
z
" transform="scale(0.015625)"/>
       </defs>
       <use xlink:href="#STSong-34"/>
      </g>
     </g>
    </g>
    <g id="xtick_2">
     <g id="line2d_3">
      <path d="M 315.121592 494.26 
L 315.121592 25.92 
" clip-path="url(#p4dcdd4d614)" style="fill: none; stroke: #b0b0b0; stroke-opacity: 0.7; stroke-width: 0.8; stroke-linecap: square"/>
     </g>
     <g id="line2d_4">
      <g>
       <use xlink:href="#m629a6f384f" x="315.121592" y="494.26" style="stroke: #000000; stroke-width: 0.8"/>
      </g>
     </g>
     <g id="text_2">
      <!-- 8 -->
      <g transform="translate(309.492842 517.1) scale(0.24 -0.24)">
       <defs>
        <path id="STSong-38" d="M 1267 1997 
Q 493 2381 493 3040 
Q 493 3437 809 3750 
Q 1126 4064 1555 4064 
Q 2042 4064 2342 3801 
Q 2643 3539 2643 3142 
Q 2643 2797 2451 2585 
Q 2259 2374 1901 2195 
Q 2490 1914 2656 1626 
Q 2822 1338 2822 1050 
Q 2822 582 2473 240 
Q 2125 -102 1606 -102 
Q 1069 -102 749 195 
Q 429 493 429 947 
Q 429 1222 557 1488 
Q 685 1754 1267 1997 
z
M 1760 2272 
Q 2022 2394 2163 2627 
Q 2304 2861 2304 3136 
Q 2304 3475 2109 3696 
Q 1914 3917 1568 3917 
Q 1254 3917 1056 3702 
Q 858 3488 858 3174 
Q 858 3014 915 2860 
Q 973 2707 1232 2528 
Q 1491 2349 1760 2272 
z
M 1421 1926 
Q 1094 1766 953 1532 
Q 813 1299 813 909 
Q 813 518 1037 284 
Q 1261 51 1600 51 
Q 1952 51 2185 284 
Q 2419 518 2419 883 
Q 2419 1267 2185 1497 
Q 1952 1728 1421 1926 
z
" transform="scale(0.015625)"/>
       </defs>
       <use xlink:href="#STSong-38"/>
      </g>
     </g>
    </g>
    <g id="xtick_3">
     <g id="line2d_5">
      <path d="M 460.995625 494.26 
L 460.995625 25.92 
" clip-path="url(#p4dcdd4d614)" style="fill: none; stroke: #b0b0b0; stroke-opacity: 0.7; stroke-width: 0.8; stroke-linecap: square"/>
     </g>
     <g id="line2d_6">
      <g>
       <use xlink:href="#m629a6f384f" x="460.995625" y="494.26" style="stroke: #000000; stroke-width: 0.8"/>
      </g>
     </g>
     <g id="text_3">
      <!-- 16 -->
      <g transform="translate(449.738125 517.1) scale(0.24 -0.24)">
       <defs>
        <path id="STSong-31" d="M 2272 -19 
Q 1939 0 1523 0 
Q 1107 0 774 -19 
L 774 83 
L 1107 141 
Q 1331 186 1331 390 
L 1331 3552 
L 570 3059 
L 480 3181 
Q 922 3469 1542 4064 
L 1754 4064 
L 1754 390 
Q 1754 173 1978 134 
L 2272 83 
L 2272 -19 
z
" transform="scale(0.015625)"/>
        <path id="STSong-36" d="M 2458 4083 
L 2509 3962 
Q 1709 3661 1232 2934 
Q 755 2208 755 1376 
Q 755 826 985 432 
Q 1216 38 1549 38 
Q 2266 38 2266 1178 
Q 2266 1658 2080 1926 
Q 1894 2195 1613 2195 
Q 1504 2195 1402 2150 
L 1331 2253 
Q 1536 2342 1747 2342 
Q 2170 2342 2448 2022 
Q 2726 1702 2726 1146 
Q 2726 614 2396 256 
Q 2067 -102 1542 -102 
Q 998 -102 656 323 
Q 314 749 314 1478 
Q 314 2362 893 3088 
Q 1472 3814 2458 4083 
z
" transform="scale(0.015625)"/>
       </defs>
       <use xlink:href="#STSong-31"/>
       <use xlink:href="#STSong-36" x="46.899994"/>
      </g>
     </g>
    </g>
    <g id="xtick_4">
     <g id="line2d_7">
      <path d="M 606.869658 494.26 
L 606.869658 25.92 
" clip-path="url(#p4dcdd4d614)" style="fill: none; stroke: #b0b0b0; stroke-opacity: 0.7; stroke-width: 0.8; stroke-linecap: square"/>
     </g>
     <g id="line2d_8">
      <g>
       <use xlink:href="#m629a6f384f" x="606.869658" y="494.26" style="stroke: #000000; stroke-width: 0.8"/>
      </g>
     </g>
     <g id="text_4">
      <!-- 64 -->
      <g transform="translate(595.612158 517.1) scale(0.24 -0.24)">
       <use xlink:href="#STSong-36"/>
       <use xlink:href="#STSong-34" x="46.899994"/>
      </g>
     </g>
    </g>
    <g id="xtick_5">
     <g id="line2d_9">
      <path d="M 752.743691 494.26 
L 752.743691 25.92 
" clip-path="url(#p4dcdd4d614)" style="fill: none; stroke: #b0b0b0; stroke-opacity: 0.7; stroke-width: 0.8; stroke-linecap: square"/>
     </g>
     <g id="line2d_10">
      <g>
       <use xlink:href="#m629a6f384f" x="752.743691" y="494.26" style="stroke: #000000; stroke-width: 0.8"/>
      </g>
     </g>
     <g id="text_5">
      <!-- 256 -->
      <g transform="translate(735.857441 517.1) scale(0.24 -0.24)">
       <defs>
        <path id="STSong-32" d="M 2726 -19 
Q 2266 0 1421 0 
Q 595 0 141 -19 
Q 262 230 448 454 
Q 634 678 1043 1088 
Q 1638 1683 1913 2102 
Q 2189 2522 2189 2950 
Q 2189 3302 1968 3520 
Q 1747 3738 1421 3738 
Q 1101 3738 838 3517 
Q 576 3296 474 2893 
L 326 2918 
Q 429 3462 755 3763 
Q 1082 4064 1549 4064 
Q 2016 4064 2342 3753 
Q 2669 3443 2669 3008 
Q 2669 2573 2365 2192 
Q 2061 1811 1446 1242 
Q 1120 941 634 339 
L 2138 339 
Q 2381 339 2480 425 
Q 2579 512 2688 800 
L 2822 800 
L 2726 -19 
z
" transform="scale(0.015625)"/>
        <path id="STSong-35" d="M 2432 3622 
L 1536 3622 
Q 1037 3622 986 3603 
L 902 2432 
Q 1184 2566 1478 2566 
Q 2003 2566 2368 2208 
Q 2733 1850 2733 1274 
Q 2733 634 2281 266 
Q 1830 -102 1254 -102 
Q 934 -102 665 10 
Q 397 122 397 256 
Q 397 320 454 387 
Q 512 454 614 454 
Q 685 454 730 422 
Q 1178 83 1453 83 
Q 1811 83 2086 393 
Q 2362 704 2362 1126 
Q 2362 1574 2083 1872 
Q 1805 2170 1395 2170 
Q 1216 2170 1059 2112 
Q 902 2054 832 1952 
L 723 1952 
L 845 4000 
L 1542 4000 
Q 2022 4000 2176 4013 
Q 2330 4026 2394 4109 
L 2490 4109 
L 2432 3622 
z
" transform="scale(0.015625)"/>
       </defs>
       <use xlink:href="#STSong-32"/>
       <use xlink:href="#STSong-35" x="46.899994"/>
       <use xlink:href="#STSong-36" x="93.799988"/>
      </g>
     </g>
    </g>
    <g id="text_6">
     <!-- WAL size(MiB) -->
     <g transform="translate(387.985 543.10875) scale(0.24 -0.24)">
      <defs>
       <path id="STSong-57" d="M 3168 2246 
L 3949 518 
L 4979 3155 
Q 5114 3501 5114 3661 
Q 5114 3834 4954 3866 
L 4691 3917 
L 4691 4019 
Q 4755 4000 5190 4000 
Q 5606 4000 5709 4019 
L 5709 3917 
L 5517 3859 
Q 5421 3827 5369 3769 
Q 5318 3712 5267 3571 
L 3878 -141 
L 3744 -141 
L 2906 1696 
L 2016 -141 
L 1882 -141 
L 454 3398 
Q 333 3693 278 3769 
Q 224 3846 128 3872 
L -58 3917 
L -58 4019 
Q 102 4000 570 4000 
Q 979 4000 1210 4019 
L 1210 3917 
L 909 3859 
Q 858 3853 858 3802 
Q 858 3718 998 3366 
L 2157 448 
L 2822 1875 
L 2157 3405 
Q 2029 3686 1971 3766 
Q 1914 3846 1830 3859 
L 1517 3917 
L 1517 4019 
Q 1696 4000 2515 4000 
Q 2835 4000 2976 4019 
L 2976 3917 
L 2605 3846 
Q 2547 3840 2547 3782 
Q 2547 3712 2688 3373 
L 3078 2445 
L 3584 3571 
Q 3616 3635 3616 3699 
Q 3616 3776 3568 3824 
Q 3520 3872 3469 3878 
L 3251 3917 
L 3251 4019 
Q 3411 4000 3834 4000 
Q 4294 4000 4416 4019 
L 4416 3917 
L 4115 3859 
Q 3898 3814 3782 3565 
L 3168 2246 
z
" transform="scale(0.015625)"/>
       <path id="STSong-41" d="M 1434 1818 
L 922 333 
Q 902 269 902 230 
Q 902 179 940 153 
Q 979 128 1101 122 
L 1549 90 
L 1549 -13 
Q 1427 0 762 0 
Q 96 0 -26 -13 
L -26 90 
L 378 122 
Q 589 141 672 358 
L 2106 4224 
L 2291 4224 
L 3706 403 
Q 3750 294 3788 256 
Q 3827 218 3930 186 
L 4282 77 
L 4282 -19 
Q 3955 0 3443 0 
Q 2931 0 2605 -19 
L 2605 77 
L 3027 141 
Q 3149 160 3197 185 
Q 3245 211 3245 262 
Q 3245 301 3213 390 
L 2694 1818 
L 1434 1818 
z
M 2643 1958 
L 2048 3610 
L 1485 1958 
L 2643 1958 
z
" transform="scale(0.015625)"/>
       <path id="STSong-4c" d="M 1331 288 
Q 1331 205 1360 163 
Q 1389 122 1510 122 
L 2106 122 
Q 2662 122 2854 179 
Q 3046 237 3248 448 
Q 3450 659 3597 1024 
L 3699 1024 
L 3514 -26 
Q 2989 0 1792 0 
Q 480 0 64 -26 
L 64 64 
L 646 147 
Q 813 166 813 282 
L 813 3629 
Q 813 3750 771 3785 
Q 730 3821 646 3834 
L 154 3917 
L 154 4019 
Q 499 4000 1472 4000 
Q 1882 4000 2048 4019 
L 2048 3917 
L 1498 3834 
Q 1402 3821 1366 3792 
Q 1331 3763 1331 3629 
L 1331 288 
z
" transform="scale(0.015625)"/>
       <path id="STSong-20" transform="scale(0.015625)"/>
       <path id="STSong-73" d="M 1792 1843 
Q 1734 2061 1536 2233 
Q 1338 2406 1184 2406 
Q 717 2406 717 1978 
Q 717 1805 870 1686 
Q 1024 1568 1338 1453 
Q 2061 1178 2061 672 
Q 2061 339 1805 118 
Q 1549 -102 1171 -102 
Q 710 -102 416 64 
L 352 787 
L 461 787 
Q 550 448 774 240 
Q 998 32 1254 32 
Q 1459 32 1600 163 
Q 1741 294 1741 493 
Q 1741 858 1139 1082 
Q 717 1242 534 1418 
Q 352 1594 352 1850 
Q 352 2176 595 2365 
Q 838 2554 1248 2554 
Q 1613 2554 1875 2400 
L 1914 1843 
L 1792 1843 
z
" transform="scale(0.015625)"/>
       <path id="STSong-69" d="M 717 4096 
Q 826 4096 915 4013 
Q 1005 3930 1005 3821 
Q 1005 3718 912 3638 
Q 819 3558 704 3558 
Q 595 3558 518 3635 
Q 442 3712 442 3821 
Q 442 3930 525 4013 
Q 608 4096 717 4096 
z
M 1421 -26 
Q 1222 0 717 0 
Q 211 0 13 -26 
L 13 77 
L 371 147 
Q 570 186 570 378 
L 570 1882 
Q 570 2035 493 2105 
Q 416 2176 186 2227 
L 186 2317 
Q 640 2432 851 2778 
L 954 2778 
L 954 358 
Q 954 262 982 217 
Q 1011 173 1094 154 
L 1421 77 
L 1421 -26 
z
" transform="scale(0.015625)"/>
       <path id="STSong-7a" d="M 2496 781 
L 2355 -19 
Q 1779 0 1261 0 
Q 499 0 160 -19 
L 160 70 
L 1990 2285 
L 1107 2259 
Q 838 2253 681 2157 
Q 525 2061 339 1766 
L 262 1766 
L 582 2752 
L 704 2752 
Q 672 2643 672 2573 
Q 672 2483 736 2444 
Q 800 2406 1050 2413 
L 2483 2438 
L 2483 2304 
L 762 154 
L 1242 154 
Q 1690 154 1869 186 
Q 2048 218 2157 339 
Q 2266 461 2387 781 
L 2496 781 
z
" transform="scale(0.015625)"/>
       <path id="STSong-65" d="M 2477 1606 
L 691 1606 
Q 672 1478 672 1350 
Q 672 851 944 537 
Q 1216 224 1683 224 
Q 1907 224 2092 313 
Q 2278 403 2496 608 
L 2522 454 
Q 2074 -102 1363 -102 
Q 896 -102 582 275 
Q 269 653 269 1190 
Q 269 1779 617 2166 
Q 966 2554 1504 2554 
Q 1914 2554 2186 2294 
Q 2458 2035 2477 1606 
z
M 723 1741 
L 1888 1741 
Q 2061 1741 2061 1875 
Q 2061 2010 1933 2208 
Q 1805 2406 1478 2406 
Q 1197 2406 992 2224 
Q 787 2042 723 1741 
z
" transform="scale(0.015625)"/>
       <path id="STSong-28" d="M 1901 4198 
L 1984 4032 
Q 1350 3450 1068 2797 
Q 787 2144 787 1286 
Q 787 582 1091 -112 
Q 1395 -806 1965 -1312 
L 1888 -1459 
Q 1242 -992 867 -208 
Q 493 576 493 1389 
Q 493 2208 864 2985 
Q 1235 3763 1901 4198 
z
" transform="scale(0.015625)"/>
       <path id="STSong-4d" d="M 5280 -19 
Q 4666 0 4365 0 
Q 3968 0 3450 -19 
L 3450 83 
L 3834 160 
Q 3981 192 4019 256 
Q 4058 320 4058 506 
L 4058 3494 
L 2624 -51 
L 922 3770 
L 922 467 
Q 922 166 1114 147 
L 1702 83 
L 1702 -19 
Q 1318 0 877 0 
Q 550 0 45 -19 
L 45 83 
L 397 147 
Q 640 192 688 253 
Q 736 314 736 467 
L 736 3846 
L 154 3917 
L 154 4019 
Q 262 4000 768 4000 
Q 1197 4000 1357 4019 
L 2778 845 
L 4070 4019 
Q 4384 4000 4698 4000 
Q 5005 4000 5274 4019 
L 5274 3917 
L 4877 3834 
Q 4691 3795 4620 3718 
Q 4550 3642 4550 3456 
L 4550 550 
Q 4550 352 4585 285 
Q 4621 218 4736 192 
L 5280 83 
L 5280 -19 
z
" transform="scale(0.015625)"/>
       <path id="STSong-42" d="M 83 3872 
L 83 3981 
L 461 4000 
Q 1664 4064 1869 4064 
Q 2586 4064 2963 3817 
Q 3341 3571 3341 3110 
Q 3341 2624 2650 2317 
Q 3635 2048 3635 1210 
Q 3635 864 3411 573 
Q 3187 282 2800 138 
Q 2413 -6 1946 -6 
L 614 0 
L 160 0 
L 160 102 
L 563 179 
Q 685 205 736 272 
Q 787 339 787 525 
L 787 3622 
Q 787 3725 752 3769 
Q 717 3814 499 3834 
L 83 3872 
z
M 1312 2278 
Q 1421 2259 1811 2259 
Q 2266 2259 2538 2505 
Q 2810 2752 2810 3168 
Q 2810 3520 2547 3715 
Q 2285 3910 1792 3910 
Q 1542 3910 1312 3853 
L 1312 2278 
z
M 1312 2086 
L 1312 653 
Q 1312 166 2061 166 
Q 2470 166 2777 451 
Q 3085 736 3085 1107 
Q 3085 1619 2768 1865 
Q 2451 2112 1798 2112 
Q 1574 2112 1312 2086 
z
" transform="scale(0.015625)"/>
       <path id="STSong-29" d="M -38 4198 
Q 627 3763 998 2985 
Q 1370 2208 1370 1389 
Q 1370 576 995 -208 
Q 621 -992 -26 -1459 
L -102 -1312 
Q 467 -806 771 -112 
Q 1075 582 1075 1286 
Q 1075 2144 793 2797 
Q 512 3450 -122 4032 
L -38 4198 
z
" transform="scale(0.015625)"/>
      </defs>
      <use xlink:href="#STSong-57"/>
      <use xlink:href="#STSong-41" x="88.499985"/>
      <use xlink:href="#STSong-4c" x="156.199966"/>
      <use xlink:href="#STSong-20" x="213.499954"/>
      <use xlink:href="#STSong-73" x="238.499939"/>
      <use xlink:href="#STSong-69" x="274.999924"/>
      <use xlink:href="#STSong-7a" x="297.899918"/>
      <use xlink:href="#STSong-65" x="340.599915"/>
      <use xlink:href="#STSong-28" x="382.299911"/>
      <use xlink:href="#STSong-4d" x="411.499908"/>
      <use xlink:href="#STSong-69" x="494.799896"/>
      <use xlink:href="#STSong-42" x="517.69989"/>
      <use xlink:href="#STSong-29" x="579.199875"/>
     </g>
    </g>
   </g>
   <g id="matplotlib.axis_2">
    <g id="ytick_1">
     <g id="line2d_11">
      <path d="M 83.91125 494.26 
L 838.08 494.26 
" clip-path="url(#p4dcdd4d614)" style="fill: none; stroke: #b0b0b0; stroke-opacity: 0.7; stroke-width: 0.8; stroke-linecap: square"/>
     </g>
     <g id="line2d_12">
      <defs>
       <path id="m543acfbb72" d="M 0 0 
L -3.5 0 
" style="stroke: #000000; stroke-width: 0.8"/>
      </defs>
      <g>
       <use xlink:href="#m543acfbb72" x="83.91125" y="494.26" style="stroke: #000000; stroke-width: 0.8"/>
      </g>
     </g>
     <g id="text_7">
      <!-- 0 -->
      <g transform="translate(65.65375 502.18) scale(0.24 -0.24)">
       <defs>
        <path id="STSong-30" d="M 1517 4064 
Q 2048 4064 2435 3465 
Q 2822 2867 2822 1978 
Q 2822 1094 2435 496 
Q 2048 -102 1517 -102 
Q 1005 -102 608 490 
Q 211 1082 211 1978 
Q 211 2867 598 3465 
Q 986 4064 1517 4064 
z
M 1517 45 
Q 1990 45 2172 515 
Q 2355 986 2355 1978 
Q 2355 2970 2172 3443 
Q 1990 3917 1517 3917 
Q 1043 3917 860 3443 
Q 678 2970 678 1978 
Q 678 45 1517 45 
z
" transform="scale(0.015625)"/>
       </defs>
       <use xlink:href="#STSong-30"/>
      </g>
     </g>
    </g>
    <g id="ytick_2">
     <g id="line2d_13">
      <path d="M 83.91125 438.505238 
L 838.08 438.505238 
" clip-path="url(#p4dcdd4d614)" style="fill: none; stroke: #b0b0b0; stroke-opacity: 0.7; stroke-width: 0.8; stroke-linecap: square"/>
     </g>
     <g id="line2d_14">
      <g>
       <use xlink:href="#m543acfbb72" x="83.91125" y="438.505238" style="stroke: #000000; stroke-width: 0.8"/>
      </g>
     </g>
     <g id="text_8">
      <!-- 5 -->
      <g transform="translate(65.65375 446.425238) scale(0.24 -0.24)">
       <use xlink:href="#STSong-35"/>
      </g>
     </g>
    </g>
    <g id="ytick_3">
     <g id="line2d_15">
      <path d="M 83.91125 382.750476 
L 838.08 382.750476 
" clip-path="url(#p4dcdd4d614)" style="fill: none; stroke: #b0b0b0; stroke-opacity: 0.7; stroke-width: 0.8; stroke-linecap: square"/>
     </g>
     <g id="line2d_16">
      <g>
       <use xlink:href="#m543acfbb72" x="83.91125" y="382.750476" style="stroke: #000000; stroke-width: 0.8"/>
      </g>
     </g>
     <g id="text_9">
      <!-- 10 -->
      <g transform="translate(54.39625 390.670476) scale(0.24 -0.24)">
       <use xlink:href="#STSong-31"/>
       <use xlink:href="#STSong-30" x="46.899994"/>
      </g>
     </g>
    </g>
    <g id="ytick_4">
     <g id="line2d_17">
      <path d="M 83.91125 326.995714 
L 838.08 326.995714 
" clip-path="url(#p4dcdd4d614)" style="fill: none; stroke: #b0b0b0; stroke-opacity: 0.7; stroke-width: 0.8; stroke-linecap: square"/>
     </g>
     <g id="line2d_18">
      <g>
       <use xlink:href="#m543acfbb72" x="83.91125" y="326.995714" style="stroke: #000000; stroke-width: 0.8"/>
      </g>
     </g>
     <g id="text_10">
      <!-- 15 -->
      <g transform="translate(54.39625 334.915714) scale(0.24 -0.24)">
       <use xlink:href="#STSong-31"/>
       <use xlink:href="#STSong-35" x="46.899994"/>
      </g>
     </g>
    </g>
    <g id="ytick_5">
     <g id="line2d_19">
      <path d="M 83.91125 271.240952 
L 838.08 271.240952 
" clip-path="url(#p4dcdd4d614)" style="fill: none; stroke: #b0b0b0; stroke-opacity: 0.7; stroke-width: 0.8; stroke-linecap: square"/>
     </g>
     <g id="line2d_20">
      <g>
       <use xlink:href="#m543acfbb72" x="83.91125" y="271.240952" style="stroke: #000000; stroke-width: 0.8"/>
      </g>
     </g>
     <g id="text_11">
      <!-- 20 -->
      <g transform="translate(54.39625 279.160952) scale(0.24 -0.24)">
       <use xlink:href="#STSong-32"/>
       <use xlink:href="#STSong-30" x="46.899994"/>
      </g>
     </g>
    </g>
    <g id="ytick_6">
     <g id="line2d_21">
      <path d="M 83.91125 215.48619 
L 838.08 215.48619 
" clip-path="url(#p4dcdd4d614)" style="fill: none; stroke: #b0b0b0; stroke-opacity: 0.7; stroke-width: 0.8; stroke-linecap: square"/>
     </g>
     <g id="line2d_22">
      <g>
       <use xlink:href="#m543acfbb72" x="83.91125" y="215.48619" style="stroke: #000000; stroke-width: 0.8"/>
      </g>
     </g>
     <g id="text_12">
      <!-- 25 -->
      <g transform="translate(54.39625 223.40619) scale(0.24 -0.24)">
       <use xlink:href="#STSong-32"/>
       <use xlink:href="#STSong-35" x="46.899994"/>
      </g>
     </g>
    </g>
    <g id="ytick_7">
     <g id="line2d_23">
      <path d="M 83.91125 159.731429 
L 838.08 159.731429 
" clip-path="url(#p4dcdd4d614)" style="fill: none; stroke: #b0b0b0; stroke-opacity: 0.7; stroke-width: 0.8; stroke-linecap: square"/>
     </g>
     <g id="line2d_24">
      <g>
       <use xlink:href="#m543acfbb72" x="83.91125" y="159.731429" style="stroke: #000000; stroke-width: 0.8"/>
      </g>
     </g>
     <g id="text_13">
      <!-- 30 -->
      <g transform="translate(54.39625 167.651429) scale(0.24 -0.24)">
       <defs>
        <path id="STSong-33" d="M 602 3130 
L 486 3194 
Q 672 3635 934 3849 
Q 1197 4064 1594 4064 
Q 1952 4064 2195 3859 
Q 2438 3654 2438 3405 
Q 2438 3155 2268 2931 
Q 2099 2707 1741 2438 
Q 2208 2470 2489 2163 
Q 2771 1856 2771 1376 
Q 2771 755 2329 326 
Q 1888 -102 1203 -102 
Q 762 -102 531 3 
Q 301 109 301 250 
Q 301 314 361 368 
Q 422 422 493 422 
Q 602 422 742 307 
Q 1101 38 1350 38 
Q 1741 38 2038 377 
Q 2336 717 2336 1203 
Q 2336 1613 2134 1878 
Q 1933 2144 1626 2144 
Q 1389 2144 1139 1926 
L 1069 2048 
Q 1197 2163 1350 2278 
Q 2054 2797 2054 3155 
Q 2054 3418 1878 3578 
Q 1702 3738 1440 3738 
Q 1184 3738 957 3581 
Q 730 3424 602 3130 
z
" transform="scale(0.015625)"/>
       </defs>
       <use xlink:href="#STSong-33"/>
       <use xlink:href="#STSong-30" x="46.899994"/>
      </g>
     </g>
    </g>
    <g id="ytick_8">
     <g id="line2d_25">
      <path d="M 83.91125 103.976667 
L 838.08 103.976667 
" clip-path="url(#p4dcdd4d614)" style="fill: none; stroke: #b0b0b0; stroke-opacity: 0.7; stroke-width: 0.8; stroke-linecap: square"/>
     </g>
     <g id="line2d_26">
      <g>
       <use xlink:href="#m543acfbb72" x="83.91125" y="103.976667" style="stroke: #000000; stroke-width: 0.8"/>
      </g>
     </g>
     <g id="text_14">
      <!-- 35 -->
      <g transform="translate(54.39625 111.896667) scale(0.24 -0.24)">
       <use xlink:href="#STSong-33"/>
       <use xlink:href="#STSong-35" x="46.899994"/>
      </g>
     </g>
    </g>
    <g id="ytick_9">
     <g id="line2d_27">
      <path d="M 83.91125 48.221905 
L 838.08 48.221905 
" clip-path="url(#p4dcdd4d614)" style="fill: none; stroke: #b0b0b0; stroke-opacity: 0.7; stroke-width: 0.8; stroke-linecap: square"/>
     </g>
     <g id="line2d_28">
      <g>
       <use xlink:href="#m543acfbb72" x="83.91125" y="48.221905" style="stroke: #000000; stroke-width: 0.8"/>
      </g>
     </g>
     <g id="text_15">
      <!-- 40 -->
      <g transform="translate(54.39625 56.141905) scale(0.24 -0.24)">
       <use xlink:href="#STSong-34"/>
       <use xlink:href="#STSong-30" x="46.899994"/>
      </g>
     </g>
    </g>
    <g id="text_16">
     <!-- 数据恢复时间(sec) -->
     <g transform="translate(44.2275 353.4875) rotate(-90) scale(0.24 -0.24)">
      <defs>
       <path id="STSong-6570" d="M 6202 -538 
L 6176 -602 
Q 6067 -595 5997 -595 
Q 5754 -595 5613 -742 
Q 5594 -762 5574 -762 
Q 5504 -762 5136 -406 
Q 4768 -51 4486 435 
Q 3808 -525 2310 -1107 
L 2285 -1018 
Q 3744 -275 4346 698 
Q 3974 1434 3680 2829 
Q 3520 2432 3283 2074 
L 3213 2112 
Q 3834 3514 4115 4947 
L 4550 4698 
Q 4595 4672 4595 4653 
Q 4595 4634 4508 4618 
Q 4422 4602 4393 4557 
Q 4365 4512 4237 4179 
L 3968 3494 
L 5542 3494 
L 5779 3789 
L 6144 3437 
Q 6182 3398 6182 3376 
Q 6182 3354 6106 3354 
L 5478 3354 
Q 5184 1587 4646 691 
Q 5197 -115 6202 -538 
z
M 5133 3354 
L 3910 3354 
L 3776 3040 
Q 4032 1734 4493 947 
Q 4966 1843 5133 3354 
z
M 1773 1837 
Q 1792 2099 1792 2445 
L 1792 3053 
Q 1088 2176 243 1645 
L 186 1702 
Q 979 2342 1459 3059 
L 960 3059 
Q 710 3059 531 2989 
L 352 3226 
Q 659 3200 819 3200 
L 1792 3200 
L 1792 4371 
Q 1792 4608 1773 4922 
L 2227 4691 
Q 2272 4666 2272 4650 
Q 2272 4634 2227 4608 
L 2067 4518 
L 2067 3200 
L 2803 3200 
L 3040 3501 
L 3418 3142 
Q 3462 3098 3462 3078 
Q 3462 3059 3379 3059 
L 2067 3059 
L 2067 2714 
Q 3110 2426 3110 2054 
Q 3110 1971 3075 1916 
Q 3040 1862 2982 1862 
Q 2925 1862 2893 1884 
Q 2861 1907 2803 1990 
Q 2547 2355 2067 2618 
L 2067 1875 
Q 2067 1779 1926 1741 
Q 1914 1734 1907 1734 
Q 1901 1715 1856 1702 
L 1715 1664 
L 1555 1318 
L 2566 1363 
L 2720 1568 
L 3085 1280 
Q 3117 1254 3117 1228 
Q 3117 1203 3066 1197 
Q 2886 1178 2829 1043 
Q 2554 467 2317 166 
Q 2534 70 2710 -54 
Q 2886 -179 2934 -252 
Q 2982 -326 2982 -416 
Q 2982 -506 2947 -566 
Q 2912 -627 2845 -627 
Q 2778 -627 2688 -515 
Q 2598 -403 2438 -262 
Q 2278 -122 2131 -32 
Q 1645 -493 314 -941 
L 282 -858 
Q 1427 -358 1907 96 
Q 1542 288 902 493 
Q 1114 838 1267 1178 
L 845 1158 
Q 582 1146 416 1088 
L 282 1306 
Q 467 1274 730 1286 
L 1318 1312 
Q 1440 1619 1530 1984 
L 1773 1837 
z
M 2598 1229 
L 1491 1184 
L 1190 525 
Q 1690 410 2061 269 
Q 2362 640 2598 1229 
z
M 3360 4250 
Q 3411 4224 3411 4205 
Q 3411 4186 3328 4176 
Q 3245 4166 3168 4128 
Q 3091 4090 2947 3946 
Q 2803 3802 2502 3456 
L 2426 3507 
Q 2739 3955 2982 4461 
L 3360 4250 
z
M 576 4454 
Q 941 4269 1120 4102 
Q 1299 3936 1299 3744 
Q 1299 3648 1248 3584 
Q 1197 3520 1114 3520 
Q 1018 3520 979 3718 
Q 922 4038 544 4397 
L 576 4454 
z
" transform="scale(0.015625)"/>
       <path id="STSong-636e" d="M 2560 2438 
L 1568 1856 
L 1568 -365 
Q 1568 -576 1529 -685 
Q 1491 -794 1337 -890 
Q 1184 -986 1120 -986 
Q 1088 -986 1088 -934 
Q 1075 -768 956 -672 
Q 838 -576 480 -461 
L 499 -384 
Q 960 -467 1072 -467 
Q 1184 -467 1229 -444 
Q 1274 -422 1274 -326 
L 1274 1683 
L 1075 1568 
Q 659 1325 570 1184 
Q 538 1133 518 1133 
Q 499 1133 474 1158 
L 198 1446 
L 1274 1939 
L 1274 3283 
L 934 3283 
Q 685 3283 506 3213 
L 326 3450 
Q 634 3424 794 3424 
L 1274 3424 
L 1274 4032 
Q 1274 4461 1248 4966 
L 1683 4742 
Q 1741 4717 1741 4694 
Q 1741 4672 1683 4634 
L 1568 4563 
L 1568 3424 
L 1933 3424 
L 2150 3738 
L 2477 3386 
Q 2522 3334 2522 3308 
Q 2522 3283 2445 3283 
L 1568 3283 
L 1568 2080 
L 2515 2515 
L 2560 2438 
z
M 6131 2093 
Q 6182 2042 6182 2013 
Q 6182 1984 6106 1984 
L 4582 1984 
L 4582 1037 
L 5229 1037 
L 5408 1306 
L 5805 1018 
Q 5856 979 5856 956 
Q 5856 934 5798 896 
L 5632 794 
L 5632 -13 
Q 5632 -237 5645 -474 
L 5658 -845 
Q 5658 -947 5533 -995 
Q 5408 -1043 5373 -1043 
Q 5338 -1043 5338 -960 
L 5338 -525 
L 3558 -525 
L 3558 -838 
Q 3558 -915 3532 -937 
Q 3507 -960 3417 -998 
Q 3328 -1037 3283 -1037 
Q 3238 -1037 3238 -957 
Q 3238 -877 3251 -704 
Q 3264 -531 3264 -198 
L 3264 672 
Q 3264 1011 3245 1325 
L 3622 1037 
L 4282 1037 
L 4282 1984 
L 2989 1984 
Q 2880 858 2499 58 
Q 2118 -742 1728 -1082 
L 1664 -1030 
Q 2074 -493 2355 281 
Q 2637 1056 2707 1926 
Q 2778 2797 2778 3510 
Q 2778 4224 2765 4787 
L 3174 4448 
L 5318 4448 
L 5491 4723 
L 5862 4448 
Q 5920 4403 5920 4377 
Q 5920 4352 5862 4314 
L 5702 4211 
L 5702 3693 
Q 5702 3366 5715 3260 
Q 5728 3155 5728 3117 
Q 5728 3021 5597 2976 
Q 5466 2931 5434 2931 
Q 5402 2931 5402 3014 
L 5402 3232 
L 3053 3232 
Q 3034 2496 3002 2125 
L 4282 2125 
L 4282 2259 
Q 4282 2771 4262 3142 
L 4742 2861 
Q 4806 2822 4806 2803 
Q 4806 2784 4749 2752 
L 4582 2656 
L 4582 2125 
L 5562 2125 
L 5786 2445 
L 6131 2093 
z
M 5402 3373 
L 5402 4307 
L 3066 4307 
Q 3066 3610 3059 3373 
L 5402 3373 
z
M 5338 -384 
L 5338 896 
L 3558 896 
L 3558 -384 
L 5338 -384 
z
" transform="scale(0.015625)"/>
       <path id="STSong-6062" d="M 1542 3648 
Q 1818 3526 2003 3404 
Q 2189 3283 2259 3190 
Q 2330 3098 2330 2989 
Q 2330 2880 2278 2797 
Q 2227 2714 2163 2714 
Q 2042 2714 1965 2950 
Q 1869 3245 1542 3558 
L 1542 51 
Q 1542 -262 1552 -540 
Q 1562 -819 1562 -832 
Q 1562 -941 1427 -998 
Q 1293 -1056 1251 -1056 
Q 1210 -1056 1210 -928 
L 1222 -416 
Q 1235 -115 1235 410 
L 1235 4090 
Q 1235 4614 1210 4979 
L 1658 4774 
Q 1741 4736 1741 4707 
Q 1741 4678 1664 4640 
L 1542 4576 
L 1542 3648 
z
M 6003 3891 
Q 6086 3814 6086 3782 
Q 6086 3750 5978 3750 
L 3475 3750 
Q 3117 2355 2720 1478 
Q 2323 602 1658 -237 
L 1587 -186 
Q 2650 1440 3187 3750 
L 2586 3750 
Q 2336 3750 2157 3680 
L 1978 3917 
Q 2285 3891 2445 3891 
L 3219 3891 
Q 3322 4314 3424 4966 
L 3827 4742 
Q 3891 4710 3891 4678 
Q 3891 4646 3827 4621 
L 3686 4563 
Q 3603 4211 3514 3891 
L 5370 3891 
L 5638 4243 
L 6003 3891 
z
M 6195 -589 
L 6176 -666 
Q 6067 -653 5984 -653 
Q 5741 -653 5606 -781 
Q 5587 -800 5562 -800 
Q 5491 -800 5158 -339 
Q 4826 122 4624 739 
Q 4422 1357 4352 2266 
Q 4262 1101 4028 573 
Q 3795 45 3347 -345 
Q 2899 -736 2202 -1101 
L 2157 -1024 
Q 3366 -250 3753 624 
Q 4141 1498 4128 3475 
L 4589 3264 
Q 4653 3238 4653 3219 
Q 4653 3200 4608 3174 
L 4410 3046 
Q 4403 2093 4666 1274 
Q 5075 1856 5453 2643 
L 5818 2400 
Q 5869 2362 5869 2342 
Q 5869 2323 5798 2323 
Q 5728 2323 5677 2291 
Q 5626 2259 5530 2144 
L 4704 1152 
Q 5216 -275 6195 -589 
z
M 774 3341 
Q 838 2970 838 2688 
Q 838 2253 691 2102 
Q 544 1952 393 1952 
Q 243 1952 243 2067 
Q 243 2144 371 2298 
Q 691 2675 691 3347 
L 774 3341 
z
M 3539 2426 
Q 3571 2131 3571 1907 
Q 3571 1485 3440 1312 
Q 3309 1139 3168 1139 
Q 3104 1139 3049 1180 
Q 2995 1222 2995 1283 
Q 2995 1344 3123 1478 
Q 3450 1818 3450 2419 
L 3539 2426 
z
" transform="scale(0.015625)"/>
       <path id="STSong-590d" d="M 5715 4109 
Q 5779 4045 5779 4013 
Q 5779 3981 5670 3981 
L 1651 3981 
Q 883 2938 365 2490 
L 314 2554 
Q 1184 3610 1882 4954 
L 2240 4723 
Q 2317 4678 2317 4652 
Q 2317 4627 2221 4611 
Q 2125 4595 2080 4566 
Q 2035 4538 1964 4422 
Q 1894 4307 1754 4122 
L 5094 4122 
L 5344 4480 
L 5715 4109 
z
M 6131 -589 
Q 5907 -614 5776 -662 
Q 5645 -710 5549 -851 
Q 5517 -902 5478 -902 
Q 5357 -902 4569 -716 
Q 3782 -531 3283 -237 
Q 2157 -915 346 -1088 
L 346 -1011 
Q 2150 -646 3072 -83 
Q 2534 339 2125 992 
L 2061 992 
Q 1062 -115 326 -512 
L 282 -448 
Q 794 -58 1376 592 
Q 1958 1242 2272 1786 
L 1875 1786 
Q 1875 1664 1846 1632 
Q 1818 1600 1725 1558 
Q 1632 1517 1593 1517 
Q 1555 1517 1555 1571 
Q 1555 1626 1562 1690 
Q 1581 1901 1581 2330 
L 1581 3046 
Q 1581 3392 1562 3706 
L 1894 3437 
L 4467 3437 
L 4634 3686 
L 5024 3411 
Q 5082 3366 5082 3350 
Q 5082 3334 5024 3296 
L 4845 3174 
L 4845 2246 
L 4864 1722 
Q 4864 1632 4742 1571 
Q 4621 1510 4585 1510 
Q 4550 1510 4550 1606 
L 4550 1786 
L 2374 1786 
L 2598 1606 
Q 2675 1542 2675 1520 
Q 2675 1498 2608 1491 
Q 2541 1485 2467 1440 
Q 2394 1395 2355 1337 
Q 2317 1280 2189 1133 
L 4256 1133 
L 4448 1344 
L 4755 1069 
Q 4819 1011 4819 988 
Q 4819 966 4723 953 
Q 4627 941 4410 717 
Q 4006 282 3507 -90 
Q 3962 -301 4669 -413 
Q 5376 -525 6131 -512 
L 6131 -589 
z
M 4550 2656 
L 4550 3296 
L 1875 3296 
L 1875 2656 
L 4550 2656 
z
M 4550 1926 
L 4550 2515 
L 1875 2515 
L 1875 1926 
L 4550 1926 
z
M 4230 992 
L 2259 992 
Q 2720 390 3264 45 
Q 3891 506 4230 992 
z
" transform="scale(0.015625)"/>
       <path id="STSong-65f6" d="M 6093 3238 
Q 6144 3181 6144 3161 
Q 6144 3142 6061 3142 
L 5082 3142 
L 5082 -384 
Q 5082 -646 5046 -739 
Q 5011 -832 4803 -937 
Q 4595 -1043 4550 -1043 
Q 4506 -1043 4493 -992 
Q 4454 -806 4281 -697 
Q 4109 -589 3565 -448 
L 3584 -346 
Q 4186 -480 4406 -480 
Q 4627 -480 4707 -435 
Q 4787 -390 4787 -282 
L 4787 3142 
L 3232 3142 
Q 3053 3142 2854 3098 
L 2624 3309 
Q 2835 3283 3091 3283 
L 4787 3283 
L 4787 3962 
Q 4787 4742 4774 4890 
L 5229 4659 
Q 5299 4621 5299 4598 
Q 5299 4576 5229 4538 
L 5082 4454 
L 5082 3283 
L 5485 3283 
L 5715 3642 
L 6093 3238 
z
M 2618 4038 
L 2406 3891 
L 2406 1216 
Q 2406 698 2416 486 
Q 2426 275 2426 250 
Q 2426 166 2301 76 
Q 2176 -13 2147 -13 
Q 2118 -13 2118 115 
L 2118 410 
L 890 410 
L 890 -134 
Q 890 -192 867 -214 
Q 845 -237 752 -297 
Q 659 -358 620 -358 
Q 582 -358 582 -262 
Q 582 -166 592 198 
Q 602 563 602 1190 
L 602 3738 
Q 602 4147 582 4454 
L 966 4173 
L 2054 4173 
L 2221 4403 
L 2618 4147 
Q 2669 4109 2669 4089 
Q 2669 4070 2618 4038 
z
M 2118 2464 
L 2118 4032 
L 890 4032 
L 890 2464 
L 2118 2464 
z
M 2118 550 
L 2118 2323 
L 890 2323 
L 890 550 
L 2118 550 
z
M 3187 2483 
Q 3706 2086 3843 1888 
Q 3981 1690 3981 1546 
Q 3981 1402 3913 1306 
Q 3846 1210 3769 1210 
Q 3693 1210 3657 1267 
Q 3622 1325 3584 1510 
Q 3488 1997 3123 2432 
L 3187 2483 
z
" transform="scale(0.015625)"/>
       <path id="STSong-95f4" d="M 1152 4960 
Q 1766 4678 1910 4531 
Q 2054 4384 2054 4243 
Q 2054 4102 1990 4000 
Q 1926 3898 1865 3898 
Q 1805 3898 1757 3952 
Q 1709 4006 1696 4108 
Q 1683 4211 1532 4432 
Q 1382 4653 1114 4902 
L 1152 4960 
z
M 5875 4218 
L 5670 4096 
L 5670 -262 
Q 5670 -563 5625 -700 
Q 5581 -838 5389 -953 
Q 5197 -1069 5101 -1069 
Q 5069 -1069 5056 -1011 
Q 5018 -864 4867 -768 
Q 4717 -672 4282 -550 
L 4288 -461 
Q 4883 -550 5075 -550 
Q 5267 -550 5318 -502 
Q 5370 -454 5370 -326 
L 5370 4192 
L 3136 4192 
Q 2886 4192 2707 4122 
L 2528 4358 
Q 2835 4333 2995 4333 
L 5235 4333 
L 5504 4685 
L 5875 4307 
Q 5907 4275 5907 4256 
Q 5907 4237 5875 4218 
z
M 1286 3750 
L 1120 3648 
L 1120 365 
Q 1120 -294 1126 -486 
L 1133 -832 
Q 1133 -934 1001 -995 
Q 870 -1056 828 -1056 
Q 787 -1056 787 -941 
L 806 -442 
Q 819 -141 819 378 
L 819 3149 
Q 819 3578 794 4090 
L 1280 3846 
Q 1331 3821 1331 3801 
Q 1331 3782 1286 3750 
z
M 4493 2925 
L 4346 2829 
L 4346 973 
Q 4346 659 4358 474 
L 4384 160 
Q 4384 58 4253 6 
Q 4122 -45 4083 -45 
Q 4045 -45 4045 38 
L 4045 333 
L 2330 333 
L 2330 58 
Q 2330 -45 2211 -93 
Q 2093 -141 2048 -141 
Q 2003 -141 2003 -19 
L 2016 326 
Q 2029 544 2029 851 
L 2029 2714 
Q 2029 3059 2010 3373 
L 2413 3072 
L 3962 3072 
L 4160 3322 
L 4493 3053 
Q 4544 3008 4544 2982 
Q 4544 2957 4493 2925 
z
M 4045 1824 
L 4045 2931 
L 2330 2931 
L 2330 1824 
L 4045 1824 
z
M 4045 474 
L 4045 1683 
L 2330 1683 
L 2330 474 
L 4045 474 
z
" transform="scale(0.015625)"/>
       <path id="STSong-63" d="M 2496 570 
L 2502 371 
Q 2266 122 2029 10 
Q 1792 -102 1459 -102 
Q 960 -102 624 288 
Q 288 678 288 1261 
Q 288 1894 640 2224 
Q 992 2554 1670 2554 
Q 2022 2554 2243 2451 
Q 2464 2349 2464 2176 
Q 2464 2086 2403 2016 
Q 2342 1946 2240 1946 
Q 2074 1946 1882 2138 
Q 1670 2349 1440 2349 
Q 1165 2349 957 2051 
Q 749 1754 749 1306 
Q 749 794 1017 493 
Q 1286 192 1651 192 
Q 2067 192 2496 570 
z
" transform="scale(0.015625)"/>
      </defs>
      <use xlink:href="#STSong-6570"/>
      <use xlink:href="#STSong-636e" x="99.999985"/>
      <use xlink:href="#STSong-6062" x="199.999969"/>
      <use xlink:href="#STSong-590d" x="299.999954"/>
      <use xlink:href="#STSong-65f6" x="399.999939"/>
      <use xlink:href="#STSong-95f4" x="499.999924"/>
      <use xlink:href="#STSong-28" x="599.999908"/>
      <use xlink:href="#STSong-73" x="629.199905"/>
      <use xlink:href="#STSong-65" x="665.69989"/>
      <use xlink:href="#STSong-63" x="707.399887"/>
      <use xlink:href="#STSong-29" x="749.099884"/>
     </g>
    </g>
   </g>
   <g id="patch_13">
    <path d="M 83.91125 494.26 
L 83.91125 25.92 
" style="fill: none; stroke: #000000; stroke-width: 2; stroke-linejoin: miter; stroke-linecap: square"/>
   </g>
   <g id="patch_14">
    <path d="M 838.08 494.26 
L 838.08 25.92 
" style="fill: none; stroke: #000000; stroke-width: 2; stroke-linejoin: miter; stroke-linecap: square"/>
   </g>
   <g id="patch_15">
    <path d="M 83.91125 494.26 
L 838.08 494.26 
" style="fill: none; stroke: #000000; stroke-width: 2; stroke-linejoin: miter; stroke-linecap: square"/>
   </g>
   <g id="patch_16">
    <path d="M 83.91125 25.92 
L 838.08 25.92 
" style="fill: none; stroke: #000000; stroke-width: 2; stroke-linejoin: miter; stroke-linecap: square"/>
   </g>
   <g id="legend_1">
    <g id="patch_17">
     <path d="M 100.71125 115.0575 
L 240.51125 115.0575 
Q 245.31125 115.0575 245.31125 110.2575 
L 245.31125 42.72 
Q 245.31125 37.92 240.51125 37.92 
L 100.71125 37.92 
Q 95.91125 37.92 95.91125 42.72 
L 95.91125 110.2575 
Q 95.91125 115.0575 100.71125 115.0575 
z
" style="fill: #ffffff; opacity: 0.8; stroke: #cccccc; stroke-linejoin: miter"/>
    </g>
    <g id="patch_18">
     <path d="M 105.51125 64.32 
L 153.51125 64.32 
L 153.51125 47.52 
L 105.51125 47.52 
z
" style="fill: #3c78d5; stroke: #000000; stroke-linejoin: miter"/>
    </g>
    <g id="text_17">
     <!-- ZenFS -->
     <g transform="translate(172.71125 64.32) scale(0.24 -0.24)">
      <defs>
       <path id="STSong-5a" d="M 3898 1126 
L 3872 -19 
Q 2970 0 2413 0 
Q 1050 0 243 -26 
L 243 38 
L 3085 3846 
L 1325 3814 
Q 1069 3802 937 3757 
Q 806 3712 681 3574 
Q 557 3437 339 3110 
L 275 3110 
L 653 4282 
L 762 4282 
Q 736 4186 736 4134 
Q 736 4019 870 3990 
Q 1005 3962 1440 3968 
L 3725 4000 
L 3725 3872 
L 928 160 
L 2150 160 
Q 2848 160 3145 217 
Q 3443 275 3596 521 
Q 3750 768 3795 1126 
L 3898 1126 
z
" transform="scale(0.015625)"/>
       <path id="STSong-6e" d="M 3200 -19 
Q 2867 0 2534 0 
Q 2202 0 1869 -19 
L 1869 83 
L 2221 134 
Q 2362 154 2362 384 
L 2362 1645 
Q 2362 1926 2202 2092 
Q 2042 2259 1766 2259 
Q 1357 2259 966 1869 
L 966 314 
Q 966 211 1120 173 
L 1498 83 
L 1498 -19 
Q 1261 0 806 0 
Q 352 0 115 -19 
L 115 83 
L 454 147 
Q 582 166 582 339 
L 582 1606 
Q 582 1805 502 1875 
Q 422 1946 218 1978 
L 218 2093 
Q 627 2189 864 2669 
L 966 2669 
L 966 2093 
Q 1210 2304 1504 2429 
Q 1798 2554 2022 2554 
Q 2758 2554 2758 1677 
L 2758 403 
Q 2758 282 2790 218 
Q 2822 154 2918 134 
L 3200 83 
L 3200 -19 
z
" transform="scale(0.015625)"/>
       <path id="STSong-46" d="M 1914 -26 
Q 1472 0 1030 0 
Q 435 0 147 -26 
L 147 77 
L 557 122 
Q 666 134 701 182 
Q 736 230 736 352 
L 736 3565 
Q 736 3706 707 3773 
Q 678 3840 576 3853 
L 198 3898 
L 198 4013 
Q 486 4000 2605 4000 
Q 3168 4000 3443 4013 
Q 3430 3846 3430 3507 
Q 3430 3258 3437 3091 
L 3354 3091 
Q 3213 3565 3117 3693 
Q 3021 3821 2822 3821 
L 1446 3821 
Q 1338 3821 1299 3760 
Q 1261 3699 1261 3552 
L 1261 2131 
L 2592 2131 
Q 2707 2131 2748 2166 
Q 2790 2202 2816 2323 
L 2918 2778 
L 3021 2778 
Q 3008 2541 3008 2074 
Q 3008 1734 3027 1363 
L 2938 1363 
L 2803 1805 
Q 2765 1933 2701 1958 
Q 2637 1984 2445 1984 
L 1261 1984 
L 1261 358 
Q 1261 192 1315 163 
Q 1370 134 1504 122 
L 1914 77 
L 1914 -26 
z
" transform="scale(0.015625)"/>
       <path id="STSong-53" d="M 2406 3053 
Q 2221 3891 1485 3891 
Q 1139 3891 905 3692 
Q 672 3494 672 3226 
Q 672 3014 861 2835 
Q 1050 2656 1645 2349 
Q 2253 2035 2525 1798 
Q 2797 1562 2797 1094 
Q 2797 557 2422 227 
Q 2048 -102 1376 -102 
Q 755 -102 243 198 
L 314 1152 
L 403 1152 
Q 461 678 787 374 
Q 1114 70 1510 70 
Q 1888 70 2147 294 
Q 2406 518 2406 832 
Q 2406 1114 2198 1306 
Q 1990 1498 1510 1747 
Q 845 2093 582 2374 
Q 320 2656 320 3021 
Q 320 3475 672 3769 
Q 1024 4064 1587 4064 
Q 2150 4064 2515 3782 
L 2490 3053 
L 2406 3053 
z
" transform="scale(0.015625)"/>
      </defs>
      <use xlink:href="#STSong-5a"/>
      <use xlink:href="#STSong-65" x="65.599991"/>
      <use xlink:href="#STSong-6e" x="107.299988"/>
      <use xlink:href="#STSong-46" x="158.299973"/>
      <use xlink:href="#STSong-53" x="214.59996"/>
     </g>
    </g>
    <g id="patch_19">
     <path d="M 105.51125 99.28875 
L 153.51125 99.28875 
L 153.51125 82.48875 
L 105.51125 82.48875 
z
" style="fill: #95d5bb; stroke: #000000; stroke-linejoin: miter"/>
    </g>
    <g id="text_18">
     <!-- ZAFS -->
     <g transform="translate(172.71125 99.28875) scale(0.24 -0.24)">
      <use xlink:href="#STSong-5a"/>
      <use xlink:href="#STSong-41" x="65.599991"/>
      <use xlink:href="#STSong-46" x="133.299973"/>
      <use xlink:href="#STSong-53" x="189.59996"/>
     </g>
    </g>
   </g>
  </g>
 </g>
 <defs>
  <clipPath id="p4dcdd4d614">
   <rect x="83.91125" y="25.92" width="754.16875" height="468.34"/>
  </clipPath>
 </defs>
</svg>
