<?xml version="1.0" encoding="utf-8" standalone="no"?>
<!DOCTYPE svg PUBLIC "-//W3C//DTD SVG 1.1//EN"
  "http://www.w3.org/Graphics/SVG/1.1/DTD/svg11.dtd">
<svg xmlns:xlink="http://www.w3.org/1999/xlink" width="720pt" height="432pt" viewBox="0 0 720 432" xmlns="http://www.w3.org/2000/svg" version="1.1">
 <metadata>
  <rdf:RDF xmlns:dc="http://purl.org/dc/elements/1.1/" xmlns:cc="http://creativecommons.org/ns#" xmlns:rdf="http://www.w3.org/1999/02/22-rdf-syntax-ns#">
   <cc:Work>
    <dc:type rdf:resource="http://purl.org/dc/dcmitype/StillImage"/>
    <dc:date>2024-05-17T22:26:22.947613</dc:date>
    <dc:format>image/svg+xml</dc:format>
    <dc:creator>
     <cc:Agent>
      <dc:title>Matplotlib v3.8.4, https://matplotlib.org/</dc:title>
     </cc:Agent>
    </dc:creator>
   </cc:Work>
  </rdf:RDF>
 </metadata>
 <defs>
  <style type="text/css">*{stroke-linejoin: round; stroke-linecap: butt}</style>
 </defs>
 <g id="figure_1">
  <g id="patch_1">
   <path d="M 0 432 
L 720 432 
L 720 0 
L 0 0 
z
" style="fill: #ffffff"/>
  </g>
  <g id="axes_1">
   <g id="patch_2">
    <path d="M 104.4425 350.26 
L 694.08 350.26 
L 694.08 25.92 
L 104.4425 25.92 
z
" style="fill: #ffffff"/>
   </g>
   <g id="patch_3">
    <path d="M 131.244205 350.26 
L 150.388279 350.26 
L 150.388279 311.787265 
L 131.244205 311.787265 
z
" clip-path="url(#p1d95d1a4db)" style="fill: #6b9dc2; stroke: #000000; stroke-linejoin: miter"/>
   </g>
   <g id="patch_4">
    <path d="M 226.964578 350.26 
L 246.108653 350.26 
L 246.108653 262.552061 
L 226.964578 262.552061 
z
" clip-path="url(#p1d95d1a4db)" style="fill: #6b9dc2; stroke: #000000; stroke-linejoin: miter"/>
   </g>
   <g id="patch_5">
    <path d="M 322.684951 350.26 
L 341.829026 350.26 
L 341.829026 209.358247 
L 322.684951 209.358247 
z
" clip-path="url(#p1d95d1a4db)" style="fill: #6b9dc2; stroke: #000000; stroke-linejoin: miter"/>
   </g>
   <g id="patch_6">
    <path d="M 418.405325 350.26 
L 437.549399 350.26 
L 437.549399 128.948994 
L 418.405325 128.948994 
z
" clip-path="url(#p1d95d1a4db)" style="fill: #6b9dc2; stroke: #000000; stroke-linejoin: miter"/>
   </g>
   <g id="patch_7">
    <path d="M 514.125698 350.26 
L 533.269773 350.26 
L 533.269773 63.384527 
L 514.125698 63.384527 
z
" clip-path="url(#p1d95d1a4db)" style="fill: #6b9dc2; stroke: #000000; stroke-linejoin: miter"/>
   </g>
   <g id="patch_8">
    <path d="M 609.846071 350.26 
L 628.990146 350.26 
L 628.990146 41.364762 
L 609.846071 41.364762 
z
" clip-path="url(#p1d95d1a4db)" style="fill: #6b9dc2; stroke: #000000; stroke-linejoin: miter"/>
   </g>
   <g id="patch_9">
    <path d="M 150.388279 350.26 
L 169.532354 350.26 
L 169.532354 320.57043 
L 150.388279 320.57043 
z
" clip-path="url(#p1d95d1a4db)" style="fill: #7fcdb8; stroke: #000000; stroke-linejoin: miter"/>
   </g>
   <g id="patch_10">
    <path d="M 246.108653 350.26 
L 265.252727 350.26 
L 265.252727 261.809822 
L 246.108653 261.809822 
z
" clip-path="url(#p1d95d1a4db)" style="fill: #7fcdb8; stroke: #000000; stroke-linejoin: miter"/>
   </g>
   <g id="patch_11">
    <path d="M 341.829026 350.26 
L 360.973101 350.26 
L 360.973101 245.480558 
L 341.829026 245.480558 
z
" clip-path="url(#p1d95d1a4db)" style="fill: #7fcdb8; stroke: #000000; stroke-linejoin: miter"/>
   </g>
   <g id="patch_12">
    <path d="M 437.549399 350.26 
L 456.693474 350.26 
L 456.693474 155.669608 
L 437.549399 155.669608 
z
" clip-path="url(#p1d95d1a4db)" style="fill: #7fcdb8; stroke: #000000; stroke-linejoin: miter"/>
   </g>
   <g id="patch_13">
    <path d="M 533.269773 350.26 
L 552.413847 350.26 
L 552.413847 68.332788 
L 533.269773 68.332788 
z
" clip-path="url(#p1d95d1a4db)" style="fill: #7fcdb8; stroke: #000000; stroke-linejoin: miter"/>
   </g>
   <g id="patch_14">
    <path d="M 628.990146 350.26 
L 648.134221 350.26 
L 648.134221 114.227916 
L 628.990146 114.227916 
z
" clip-path="url(#p1d95d1a4db)" style="fill: #7fcdb8; stroke: #000000; stroke-linejoin: miter"/>
   </g>
   <g id="patch_15">
    <path d="M 169.532354 350.26 
L 188.676429 350.26 
L 188.676429 314.508809 
L 169.532354 314.508809 
z
" clip-path="url(#p1d95d1a4db)" style="fill: #c7e9b4; stroke: #000000; stroke-linejoin: miter"/>
   </g>
   <g id="patch_16">
    <path d="M 265.252727 350.26 
L 284.396802 350.26 
L 284.396802 267.005497 
L 265.252727 267.005497 
z
" clip-path="url(#p1d95d1a4db)" style="fill: #c7e9b4; stroke: #000000; stroke-linejoin: miter"/>
   </g>
   <g id="patch_17">
    <path d="M 360.973101 350.26 
L 380.117175 350.26 
L 380.117175 211.956085 
L 360.973101 211.956085 
z
" clip-path="url(#p1d95d1a4db)" style="fill: #c7e9b4; stroke: #000000; stroke-linejoin: miter"/>
   </g>
   <g id="patch_18">
    <path d="M 456.693474 350.26 
L 475.837549 350.26 
L 475.837549 139.216637 
L 456.693474 139.216637 
z
" clip-path="url(#p1d95d1a4db)" style="fill: #c7e9b4; stroke: #000000; stroke-linejoin: miter"/>
   </g>
   <g id="patch_19">
    <path d="M 552.413847 350.26 
L 571.557922 350.26 
L 571.557922 79.71379 
L 552.413847 79.71379 
z
" clip-path="url(#p1d95d1a4db)" style="fill: #c7e9b4; stroke: #000000; stroke-linejoin: miter"/>
   </g>
   <g id="patch_20">
    <path d="M 648.134221 350.26 
L 667.278295 350.26 
L 667.278295 41.364762 
L 648.134221 41.364762 
z
" clip-path="url(#p1d95d1a4db)" style="fill: #c7e9b4; stroke: #000000; stroke-linejoin: miter"/>
   </g>
   <g id="matplotlib.axis_1">
    <g id="xtick_1">
     <g id="line2d_1">
      <path d="M 159.960317 350.26 
L 159.960317 25.92 
" clip-path="url(#p1d95d1a4db)" style="fill: none; stroke-dasharray: 2.96,1.28; stroke-dashoffset: 0; stroke: #b0b0b0; stroke-opacity: 0.7; stroke-width: 0.8"/>
     </g>
     <g id="line2d_2">
      <defs>
       <path id="m26ce7b95f7" d="M 0 0 
L 0 3.5 
" style="stroke: #000000; stroke-width: 0.8"/>
      </defs>
      <g>
       <use xlink:href="#m26ce7b95f7" x="159.960317" y="350.26" style="stroke: #000000; stroke-width: 0.8"/>
      </g>
     </g>
     <g id="text_1">
      <!-- 4K -->
      <g transform="translate(145.451567 373.1) scale(0.24 -0.24)">
       <defs>
        <path id="STSong-34" d="M 2086 4064 
L 2240 4064 
L 2240 1408 
L 2918 1408 
L 2918 1114 
L 2240 1114 
L 2240 -102 
L 1818 -102 
L 1818 1114 
L 179 1114 
L 179 1325 
L 941 2438 
L 2086 4064 
z
M 1818 1408 
L 1818 3373 
Q 947 2163 486 1408 
L 1818 1408 
z
" transform="scale(0.015625)"/>
        <path id="STSong-4b" d="M 1869 -26 
Q 1626 0 1043 0 
Q 461 0 218 -26 
L 218 77 
L 621 134 
Q 710 147 745 192 
Q 781 237 781 346 
L 781 3674 
Q 781 3782 752 3814 
Q 723 3846 621 3859 
L 218 3917 
L 218 4019 
Q 294 4000 1376 4000 
Q 1645 4000 1869 4019 
L 1869 3917 
L 1440 3859 
Q 1344 3853 1312 3817 
Q 1280 3782 1280 3674 
L 1280 346 
Q 1280 243 1315 201 
Q 1350 160 1440 147 
L 1869 77 
L 1869 -26 
z
M 4864 -26 
Q 4518 0 3910 0 
Q 3302 0 2957 -26 
L 2957 77 
L 3411 154 
Q 3514 166 3514 218 
Q 3514 262 3398 358 
L 1907 1606 
Q 1613 1850 1389 2003 
Q 1683 2150 1997 2413 
L 3142 3379 
Q 3488 3667 3488 3782 
Q 3488 3840 3398 3853 
L 2938 3917 
L 2938 4019 
Q 3123 4000 3718 4000 
Q 4314 4000 4499 4019 
L 4499 3917 
Q 4198 3891 3923 3769 
Q 3648 3648 3251 3315 
L 1952 2214 
L 3846 595 
Q 4179 307 4291 230 
Q 4403 154 4531 134 
L 4864 77 
L 4864 -26 
z
" transform="scale(0.015625)"/>
       </defs>
       <use xlink:href="#STSong-34"/>
       <use xlink:href="#STSong-4b" x="46.899994"/>
      </g>
     </g>
    </g>
    <g id="xtick_2">
     <g id="line2d_3">
      <path d="M 255.68069 350.26 
L 255.68069 25.92 
" clip-path="url(#p1d95d1a4db)" style="fill: none; stroke-dasharray: 2.96,1.28; stroke-dashoffset: 0; stroke: #b0b0b0; stroke-opacity: 0.7; stroke-width: 0.8"/>
     </g>
     <g id="line2d_4">
      <g>
       <use xlink:href="#m26ce7b95f7" x="255.68069" y="350.26" style="stroke: #000000; stroke-width: 0.8"/>
      </g>
     </g>
     <g id="text_2">
      <!-- 16K -->
      <g transform="translate(235.54319 373.1) scale(0.24 -0.24)">
       <defs>
        <path id="STSong-31" d="M 2272 -19 
Q 1939 0 1523 0 
Q 1107 0 774 -19 
L 774 83 
L 1107 141 
Q 1331 186 1331 390 
L 1331 3552 
L 570 3059 
L 480 3181 
Q 922 3469 1542 4064 
L 1754 4064 
L 1754 390 
Q 1754 173 1978 134 
L 2272 83 
L 2272 -19 
z
" transform="scale(0.015625)"/>
        <path id="STSong-36" d="M 2458 4083 
L 2509 3962 
Q 1709 3661 1232 2934 
Q 755 2208 755 1376 
Q 755 826 985 432 
Q 1216 38 1549 38 
Q 2266 38 2266 1178 
Q 2266 1658 2080 1926 
Q 1894 2195 1613 2195 
Q 1504 2195 1402 2150 
L 1331 2253 
Q 1536 2342 1747 2342 
Q 2170 2342 2448 2022 
Q 2726 1702 2726 1146 
Q 2726 614 2396 256 
Q 2067 -102 1542 -102 
Q 998 -102 656 323 
Q 314 749 314 1478 
Q 314 2362 893 3088 
Q 1472 3814 2458 4083 
z
" transform="scale(0.015625)"/>
       </defs>
       <use xlink:href="#STSong-31"/>
       <use xlink:href="#STSong-36" x="46.899994"/>
       <use xlink:href="#STSong-4b" x="93.799988"/>
      </g>
     </g>
    </g>
    <g id="xtick_3">
     <g id="line2d_5">
      <path d="M 351.401063 350.26 
L 351.401063 25.92 
" clip-path="url(#p1d95d1a4db)" style="fill: none; stroke-dasharray: 2.96,1.28; stroke-dashoffset: 0; stroke: #b0b0b0; stroke-opacity: 0.7; stroke-width: 0.8"/>
     </g>
     <g id="line2d_6">
      <g>
       <use xlink:href="#m26ce7b95f7" x="351.401063" y="350.26" style="stroke: #000000; stroke-width: 0.8"/>
      </g>
     </g>
     <g id="text_3">
      <!-- 32K -->
      <g transform="translate(331.263563 373.1) scale(0.24 -0.24)">
       <defs>
        <path id="STSong-33" d="M 602 3130 
L 486 3194 
Q 672 3635 934 3849 
Q 1197 4064 1594 4064 
Q 1952 4064 2195 3859 
Q 2438 3654 2438 3405 
Q 2438 3155 2268 2931 
Q 2099 2707 1741 2438 
Q 2208 2470 2489 2163 
Q 2771 1856 2771 1376 
Q 2771 755 2329 326 
Q 1888 -102 1203 -102 
Q 762 -102 531 3 
Q 301 109 301 250 
Q 301 314 361 368 
Q 422 422 493 422 
Q 602 422 742 307 
Q 1101 38 1350 38 
Q 1741 38 2038 377 
Q 2336 717 2336 1203 
Q 2336 1613 2134 1878 
Q 1933 2144 1626 2144 
Q 1389 2144 1139 1926 
L 1069 2048 
Q 1197 2163 1350 2278 
Q 2054 2797 2054 3155 
Q 2054 3418 1878 3578 
Q 1702 3738 1440 3738 
Q 1184 3738 957 3581 
Q 730 3424 602 3130 
z
" transform="scale(0.015625)"/>
        <path id="STSong-32" d="M 2726 -19 
Q 2266 0 1421 0 
Q 595 0 141 -19 
Q 262 230 448 454 
Q 634 678 1043 1088 
Q 1638 1683 1913 2102 
Q 2189 2522 2189 2950 
Q 2189 3302 1968 3520 
Q 1747 3738 1421 3738 
Q 1101 3738 838 3517 
Q 576 3296 474 2893 
L 326 2918 
Q 429 3462 755 3763 
Q 1082 4064 1549 4064 
Q 2016 4064 2342 3753 
Q 2669 3443 2669 3008 
Q 2669 2573 2365 2192 
Q 2061 1811 1446 1242 
Q 1120 941 634 339 
L 2138 339 
Q 2381 339 2480 425 
Q 2579 512 2688 800 
L 2822 800 
L 2726 -19 
z
" transform="scale(0.015625)"/>
       </defs>
       <use xlink:href="#STSong-33"/>
       <use xlink:href="#STSong-32" x="46.899994"/>
       <use xlink:href="#STSong-4b" x="93.799988"/>
      </g>
     </g>
    </g>
    <g id="xtick_4">
     <g id="line2d_7">
      <path d="M 447.121437 350.26 
L 447.121437 25.92 
" clip-path="url(#p1d95d1a4db)" style="fill: none; stroke-dasharray: 2.96,1.28; stroke-dashoffset: 0; stroke: #b0b0b0; stroke-opacity: 0.7; stroke-width: 0.8"/>
     </g>
     <g id="line2d_8">
      <g>
       <use xlink:href="#m26ce7b95f7" x="447.121437" y="350.26" style="stroke: #000000; stroke-width: 0.8"/>
      </g>
     </g>
     <g id="text_4">
      <!-- 64K -->
      <g transform="translate(426.983937 373.1) scale(0.24 -0.24)">
       <use xlink:href="#STSong-36"/>
       <use xlink:href="#STSong-34" x="46.899994"/>
       <use xlink:href="#STSong-4b" x="93.799988"/>
      </g>
     </g>
    </g>
    <g id="xtick_5">
     <g id="line2d_9">
      <path d="M 542.84181 350.26 
L 542.84181 25.92 
" clip-path="url(#p1d95d1a4db)" style="fill: none; stroke-dasharray: 2.96,1.28; stroke-dashoffset: 0; stroke: #b0b0b0; stroke-opacity: 0.7; stroke-width: 0.8"/>
     </g>
     <g id="line2d_10">
      <g>
       <use xlink:href="#m26ce7b95f7" x="542.84181" y="350.26" style="stroke: #000000; stroke-width: 0.8"/>
      </g>
     </g>
     <g id="text_5">
      <!-- 128K -->
      <g transform="translate(517.07556 373.1) scale(0.24 -0.24)">
       <defs>
        <path id="STSong-38" d="M 1267 1997 
Q 493 2381 493 3040 
Q 493 3437 809 3750 
Q 1126 4064 1555 4064 
Q 2042 4064 2342 3801 
Q 2643 3539 2643 3142 
Q 2643 2797 2451 2585 
Q 2259 2374 1901 2195 
Q 2490 1914 2656 1626 
Q 2822 1338 2822 1050 
Q 2822 582 2473 240 
Q 2125 -102 1606 -102 
Q 1069 -102 749 195 
Q 429 493 429 947 
Q 429 1222 557 1488 
Q 685 1754 1267 1997 
z
M 1760 2272 
Q 2022 2394 2163 2627 
Q 2304 2861 2304 3136 
Q 2304 3475 2109 3696 
Q 1914 3917 1568 3917 
Q 1254 3917 1056 3702 
Q 858 3488 858 3174 
Q 858 3014 915 2860 
Q 973 2707 1232 2528 
Q 1491 2349 1760 2272 
z
M 1421 1926 
Q 1094 1766 953 1532 
Q 813 1299 813 909 
Q 813 518 1037 284 
Q 1261 51 1600 51 
Q 1952 51 2185 284 
Q 2419 518 2419 883 
Q 2419 1267 2185 1497 
Q 1952 1728 1421 1926 
z
" transform="scale(0.015625)"/>
       </defs>
       <use xlink:href="#STSong-31"/>
       <use xlink:href="#STSong-32" x="46.899994"/>
       <use xlink:href="#STSong-38" x="93.799988"/>
       <use xlink:href="#STSong-4b" x="140.699982"/>
      </g>
     </g>
    </g>
    <g id="xtick_6">
     <g id="line2d_11">
      <path d="M 638.562183 350.26 
L 638.562183 25.92 
" clip-path="url(#p1d95d1a4db)" style="fill: none; stroke-dasharray: 2.96,1.28; stroke-dashoffset: 0; stroke: #b0b0b0; stroke-opacity: 0.7; stroke-width: 0.8"/>
     </g>
     <g id="line2d_12">
      <g>
       <use xlink:href="#m26ce7b95f7" x="638.562183" y="350.26" style="stroke: #000000; stroke-width: 0.8"/>
      </g>
     </g>
     <g id="text_6">
      <!-- 256K -->
      <g transform="translate(612.795933 373.1) scale(0.24 -0.24)">
       <defs>
        <path id="STSong-35" d="M 2432 3622 
L 1536 3622 
Q 1037 3622 986 3603 
L 902 2432 
Q 1184 2566 1478 2566 
Q 2003 2566 2368 2208 
Q 2733 1850 2733 1274 
Q 2733 634 2281 266 
Q 1830 -102 1254 -102 
Q 934 -102 665 10 
Q 397 122 397 256 
Q 397 320 454 387 
Q 512 454 614 454 
Q 685 454 730 422 
Q 1178 83 1453 83 
Q 1811 83 2086 393 
Q 2362 704 2362 1126 
Q 2362 1574 2083 1872 
Q 1805 2170 1395 2170 
Q 1216 2170 1059 2112 
Q 902 2054 832 1952 
L 723 1952 
L 845 4000 
L 1542 4000 
Q 2022 4000 2176 4013 
Q 2330 4026 2394 4109 
L 2490 4109 
L 2432 3622 
z
" transform="scale(0.015625)"/>
       </defs>
       <use xlink:href="#STSong-32"/>
       <use xlink:href="#STSong-35" x="46.899994"/>
       <use xlink:href="#STSong-36" x="93.799988"/>
       <use xlink:href="#STSong-4b" x="140.699982"/>
      </g>
     </g>
    </g>
    <g id="text_7">
     <!-- Block Size (KB) -->
     <g transform="translate(324.484375 399.10875) scale(0.24 -0.24)">
      <defs>
       <path id="STSong-42" d="M 83 3872 
L 83 3981 
L 461 4000 
Q 1664 4064 1869 4064 
Q 2586 4064 2963 3817 
Q 3341 3571 3341 3110 
Q 3341 2624 2650 2317 
Q 3635 2048 3635 1210 
Q 3635 864 3411 573 
Q 3187 282 2800 138 
Q 2413 -6 1946 -6 
L 614 0 
L 160 0 
L 160 102 
L 563 179 
Q 685 205 736 272 
Q 787 339 787 525 
L 787 3622 
Q 787 3725 752 3769 
Q 717 3814 499 3834 
L 83 3872 
z
M 1312 2278 
Q 1421 2259 1811 2259 
Q 2266 2259 2538 2505 
Q 2810 2752 2810 3168 
Q 2810 3520 2547 3715 
Q 2285 3910 1792 3910 
Q 1542 3910 1312 3853 
L 1312 2278 
z
M 1312 2086 
L 1312 653 
Q 1312 166 2061 166 
Q 2470 166 2777 451 
Q 3085 736 3085 1107 
Q 3085 1619 2768 1865 
Q 2451 2112 1798 2112 
Q 1574 2112 1312 2086 
z
" transform="scale(0.015625)"/>
       <path id="STSong-6c" d="M 1453 -19 
Q 1139 0 742 0 
Q 346 0 32 -19 
L 32 83 
L 429 160 
Q 512 179 544 211 
Q 576 243 576 339 
L 576 3590 
Q 576 3725 499 3789 
Q 422 3853 160 3930 
L 160 4013 
Q 403 4064 819 4224 
L 966 4224 
L 966 352 
Q 966 230 992 195 
Q 1018 160 1114 141 
L 1453 83 
L 1453 -19 
z
" transform="scale(0.015625)"/>
       <path id="STSong-6f" d="M 1587 -102 
Q 1030 -102 640 269 
Q 250 640 250 1235 
Q 250 1805 640 2179 
Q 1030 2554 1664 2554 
Q 2253 2554 2630 2160 
Q 3008 1766 3008 1184 
Q 3008 653 2608 275 
Q 2208 -102 1587 -102 
z
M 710 1171 
Q 710 640 960 329 
Q 1210 19 1606 19 
Q 2016 19 2281 345 
Q 2547 672 2547 1210 
Q 2547 1760 2297 2096 
Q 2048 2432 1638 2432 
Q 1197 2432 953 2112 
Q 710 1792 710 1171 
z
" transform="scale(0.015625)"/>
       <path id="STSong-63" d="M 2496 570 
L 2502 371 
Q 2266 122 2029 10 
Q 1792 -102 1459 -102 
Q 960 -102 624 288 
Q 288 678 288 1261 
Q 288 1894 640 2224 
Q 992 2554 1670 2554 
Q 2022 2554 2243 2451 
Q 2464 2349 2464 2176 
Q 2464 2086 2403 2016 
Q 2342 1946 2240 1946 
Q 2074 1946 1882 2138 
Q 1670 2349 1440 2349 
Q 1165 2349 957 2051 
Q 749 1754 749 1306 
Q 749 794 1017 493 
Q 1286 192 1651 192 
Q 2067 192 2496 570 
z
" transform="scale(0.015625)"/>
       <path id="STSong-6b" d="M 3059 -26 
Q 2816 0 2362 0 
Q 1907 0 1664 -26 
L 1664 77 
L 1958 102 
Q 2099 115 2099 173 
Q 2099 211 2051 278 
Q 2003 346 1872 506 
Q 1741 666 1577 880 
Q 1414 1094 1347 1164 
Q 1280 1235 1225 1264 
Q 1171 1293 1082 1293 
L 966 1293 
L 966 384 
Q 966 224 998 182 
Q 1030 141 1126 122 
L 1370 77 
L 1370 -26 
Q 1171 0 768 0 
Q 365 0 166 -26 
L 166 77 
L 403 115 
Q 518 128 550 176 
Q 582 224 582 384 
L 582 3565 
Q 582 3712 515 3760 
Q 448 3808 186 3846 
L 186 3936 
Q 512 4000 864 4224 
L 966 4224 
L 966 1402 
Q 1094 1402 1222 1478 
Q 1350 1555 1564 1728 
Q 1779 1901 1865 1993 
Q 1952 2086 1952 2144 
Q 1952 2272 1542 2336 
L 1542 2438 
L 2842 2438 
L 2842 2336 
Q 2394 2291 2048 1997 
L 1491 1517 
L 2349 486 
Q 2528 275 2611 208 
Q 2694 141 2778 128 
L 3059 77 
L 3059 -26 
z
" transform="scale(0.015625)"/>
       <path id="STSong-20" transform="scale(0.015625)"/>
       <path id="STSong-53" d="M 2406 3053 
Q 2221 3891 1485 3891 
Q 1139 3891 905 3692 
Q 672 3494 672 3226 
Q 672 3014 861 2835 
Q 1050 2656 1645 2349 
Q 2253 2035 2525 1798 
Q 2797 1562 2797 1094 
Q 2797 557 2422 227 
Q 2048 -102 1376 -102 
Q 755 -102 243 198 
L 314 1152 
L 403 1152 
Q 461 678 787 374 
Q 1114 70 1510 70 
Q 1888 70 2147 294 
Q 2406 518 2406 832 
Q 2406 1114 2198 1306 
Q 1990 1498 1510 1747 
Q 845 2093 582 2374 
Q 320 2656 320 3021 
Q 320 3475 672 3769 
Q 1024 4064 1587 4064 
Q 2150 4064 2515 3782 
L 2490 3053 
L 2406 3053 
z
" transform="scale(0.015625)"/>
       <path id="STSong-69" d="M 717 4096 
Q 826 4096 915 4013 
Q 1005 3930 1005 3821 
Q 1005 3718 912 3638 
Q 819 3558 704 3558 
Q 595 3558 518 3635 
Q 442 3712 442 3821 
Q 442 3930 525 4013 
Q 608 4096 717 4096 
z
M 1421 -26 
Q 1222 0 717 0 
Q 211 0 13 -26 
L 13 77 
L 371 147 
Q 570 186 570 378 
L 570 1882 
Q 570 2035 493 2105 
Q 416 2176 186 2227 
L 186 2317 
Q 640 2432 851 2778 
L 954 2778 
L 954 358 
Q 954 262 982 217 
Q 1011 173 1094 154 
L 1421 77 
L 1421 -26 
z
" transform="scale(0.015625)"/>
       <path id="STSong-7a" d="M 2496 781 
L 2355 -19 
Q 1779 0 1261 0 
Q 499 0 160 -19 
L 160 70 
L 1990 2285 
L 1107 2259 
Q 838 2253 681 2157 
Q 525 2061 339 1766 
L 262 1766 
L 582 2752 
L 704 2752 
Q 672 2643 672 2573 
Q 672 2483 736 2444 
Q 800 2406 1050 2413 
L 2483 2438 
L 2483 2304 
L 762 154 
L 1242 154 
Q 1690 154 1869 186 
Q 2048 218 2157 339 
Q 2266 461 2387 781 
L 2496 781 
z
" transform="scale(0.015625)"/>
       <path id="STSong-65" d="M 2477 1606 
L 691 1606 
Q 672 1478 672 1350 
Q 672 851 944 537 
Q 1216 224 1683 224 
Q 1907 224 2092 313 
Q 2278 403 2496 608 
L 2522 454 
Q 2074 -102 1363 -102 
Q 896 -102 582 275 
Q 269 653 269 1190 
Q 269 1779 617 2166 
Q 966 2554 1504 2554 
Q 1914 2554 2186 2294 
Q 2458 2035 2477 1606 
z
M 723 1741 
L 1888 1741 
Q 2061 1741 2061 1875 
Q 2061 2010 1933 2208 
Q 1805 2406 1478 2406 
Q 1197 2406 992 2224 
Q 787 2042 723 1741 
z
" transform="scale(0.015625)"/>
       <path id="STSong-28" d="M 1901 4198 
L 1984 4032 
Q 1350 3450 1068 2797 
Q 787 2144 787 1286 
Q 787 582 1091 -112 
Q 1395 -806 1965 -1312 
L 1888 -1459 
Q 1242 -992 867 -208 
Q 493 576 493 1389 
Q 493 2208 864 2985 
Q 1235 3763 1901 4198 
z
" transform="scale(0.015625)"/>
       <path id="STSong-29" d="M -38 4198 
Q 627 3763 998 2985 
Q 1370 2208 1370 1389 
Q 1370 576 995 -208 
Q 621 -992 -26 -1459 
L -102 -1312 
Q 467 -806 771 -112 
Q 1075 582 1075 1286 
Q 1075 2144 793 2797 
Q 512 3450 -122 4032 
L -38 4198 
z
" transform="scale(0.015625)"/>
      </defs>
      <use xlink:href="#STSong-42"/>
      <use xlink:href="#STSong-6c" x="61.499985"/>
      <use xlink:href="#STSong-6f" x="84.399979"/>
      <use xlink:href="#STSong-63" x="135.399963"/>
      <use xlink:href="#STSong-6b" x="177.09996"/>
      <use xlink:href="#STSong-20" x="223.999954"/>
      <use xlink:href="#STSong-53" x="248.999939"/>
      <use xlink:href="#STSong-69" x="296.899933"/>
      <use xlink:href="#STSong-7a" x="319.799927"/>
      <use xlink:href="#STSong-65" x="362.499924"/>
      <use xlink:href="#STSong-20" x="404.199921"/>
      <use xlink:href="#STSong-28" x="429.199905"/>
      <use xlink:href="#STSong-4b" x="458.399902"/>
      <use xlink:href="#STSong-42" x="532.399887"/>
      <use xlink:href="#STSong-29" x="593.899872"/>
     </g>
    </g>
   </g>
   <g id="matplotlib.axis_2">
    <g id="ytick_1">
     <g id="line2d_13">
      <path d="M 104.4425 350.26 
L 694.08 350.26 
" clip-path="url(#p1d95d1a4db)" style="fill: none; stroke-dasharray: 2.96,1.28; stroke-dashoffset: 0; stroke: #b0b0b0; stroke-opacity: 0.7; stroke-width: 0.8"/>
     </g>
     <g id="line2d_14">
      <defs>
       <path id="m97626692c9" d="M 0 0 
L -3.5 0 
" style="stroke: #000000; stroke-width: 0.8"/>
      </defs>
      <g>
       <use xlink:href="#m97626692c9" x="104.4425" y="350.26" style="stroke: #000000; stroke-width: 0.8"/>
      </g>
     </g>
     <g id="text_8">
      <!-- 0 -->
      <g transform="translate(86.185 358.18) scale(0.24 -0.24)">
       <defs>
        <path id="STSong-30" d="M 1517 4064 
Q 2048 4064 2435 3465 
Q 2822 2867 2822 1978 
Q 2822 1094 2435 496 
Q 2048 -102 1517 -102 
Q 1005 -102 608 490 
Q 211 1082 211 1978 
Q 211 2867 598 3465 
Q 986 4064 1517 4064 
z
M 1517 45 
Q 1990 45 2172 515 
Q 2355 986 2355 1978 
Q 2355 2970 2172 3443 
Q 1990 3917 1517 3917 
Q 1043 3917 860 3443 
Q 678 2970 678 1978 
Q 678 45 1517 45 
z
" transform="scale(0.015625)"/>
       </defs>
       <use xlink:href="#STSong-30"/>
      </g>
     </g>
    </g>
    <g id="ytick_2">
     <g id="line2d_15">
      <path d="M 104.4425 288.406728 
L 694.08 288.406728 
" clip-path="url(#p1d95d1a4db)" style="fill: none; stroke-dasharray: 2.96,1.28; stroke-dashoffset: 0; stroke: #b0b0b0; stroke-opacity: 0.7; stroke-width: 0.8"/>
     </g>
     <g id="line2d_16">
      <g>
       <use xlink:href="#m97626692c9" x="104.4425" y="288.406728" style="stroke: #000000; stroke-width: 0.8"/>
      </g>
     </g>
     <g id="text_9">
      <!-- 500 -->
      <g transform="translate(63.67 296.326728) scale(0.24 -0.24)">
       <use xlink:href="#STSong-35"/>
       <use xlink:href="#STSong-30" x="46.899994"/>
       <use xlink:href="#STSong-30" x="93.799988"/>
      </g>
     </g>
    </g>
    <g id="ytick_3">
     <g id="line2d_17">
      <path d="M 104.4425 226.553457 
L 694.08 226.553457 
" clip-path="url(#p1d95d1a4db)" style="fill: none; stroke-dasharray: 2.96,1.28; stroke-dashoffset: 0; stroke: #b0b0b0; stroke-opacity: 0.7; stroke-width: 0.8"/>
     </g>
     <g id="line2d_18">
      <g>
       <use xlink:href="#m97626692c9" x="104.4425" y="226.553457" style="stroke: #000000; stroke-width: 0.8"/>
      </g>
     </g>
     <g id="text_10">
      <!-- 1000 -->
      <g transform="translate(52.4125 234.473457) scale(0.24 -0.24)">
       <use xlink:href="#STSong-31"/>
       <use xlink:href="#STSong-30" x="46.899994"/>
       <use xlink:href="#STSong-30" x="93.799988"/>
       <use xlink:href="#STSong-30" x="140.699982"/>
      </g>
     </g>
    </g>
    <g id="ytick_4">
     <g id="line2d_19">
      <path d="M 104.4425 164.700185 
L 694.08 164.700185 
" clip-path="url(#p1d95d1a4db)" style="fill: none; stroke-dasharray: 2.96,1.28; stroke-dashoffset: 0; stroke: #b0b0b0; stroke-opacity: 0.7; stroke-width: 0.8"/>
     </g>
     <g id="line2d_20">
      <g>
       <use xlink:href="#m97626692c9" x="104.4425" y="164.700185" style="stroke: #000000; stroke-width: 0.8"/>
      </g>
     </g>
     <g id="text_11">
      <!-- 1500 -->
      <g transform="translate(52.4125 172.620185) scale(0.24 -0.24)">
       <use xlink:href="#STSong-31"/>
       <use xlink:href="#STSong-35" x="46.899994"/>
       <use xlink:href="#STSong-30" x="93.799988"/>
       <use xlink:href="#STSong-30" x="140.699982"/>
      </g>
     </g>
    </g>
    <g id="ytick_5">
     <g id="line2d_21">
      <path d="M 104.4425 102.846914 
L 694.08 102.846914 
" clip-path="url(#p1d95d1a4db)" style="fill: none; stroke-dasharray: 2.96,1.28; stroke-dashoffset: 0; stroke: #b0b0b0; stroke-opacity: 0.7; stroke-width: 0.8"/>
     </g>
     <g id="line2d_22">
      <g>
       <use xlink:href="#m97626692c9" x="104.4425" y="102.846914" style="stroke: #000000; stroke-width: 0.8"/>
      </g>
     </g>
     <g id="text_12">
      <!-- 2000 -->
      <g transform="translate(52.4125 110.766914) scale(0.24 -0.24)">
       <use xlink:href="#STSong-32"/>
       <use xlink:href="#STSong-30" x="46.899994"/>
       <use xlink:href="#STSong-30" x="93.799988"/>
       <use xlink:href="#STSong-30" x="140.699982"/>
      </g>
     </g>
    </g>
    <g id="ytick_6">
     <g id="line2d_23">
      <path d="M 104.4425 40.993642 
L 694.08 40.993642 
" clip-path="url(#p1d95d1a4db)" style="fill: none; stroke-dasharray: 2.96,1.28; stroke-dashoffset: 0; stroke: #b0b0b0; stroke-opacity: 0.7; stroke-width: 0.8"/>
     </g>
     <g id="line2d_24">
      <g>
       <use xlink:href="#m97626692c9" x="104.4425" y="40.993642" style="stroke: #000000; stroke-width: 0.8"/>
      </g>
     </g>
     <g id="text_13">
      <!-- 2500 -->
      <g transform="translate(52.4125 48.913642) scale(0.24 -0.24)">
       <use xlink:href="#STSong-32"/>
       <use xlink:href="#STSong-35" x="46.899994"/>
       <use xlink:href="#STSong-30" x="93.799988"/>
       <use xlink:href="#STSong-30" x="140.699982"/>
      </g>
     </g>
    </g>
    <g id="text_14">
     <!-- Bandwidth (MiB/s) -->
     <g transform="translate(42.24375 279.351875) rotate(-90) scale(0.24 -0.24)">
      <defs>
       <path id="STSong-61" d="M 2554 403 
L 2637 358 
Q 2451 -102 2125 -102 
Q 1926 -102 1814 10 
Q 1702 122 1702 333 
Q 1350 64 1180 -19 
Q 1011 -102 755 -102 
Q 339 -102 339 237 
Q 339 538 707 877 
Q 1075 1216 1715 1453 
L 1715 1888 
Q 1715 2093 1600 2224 
Q 1485 2355 1293 2355 
Q 1069 2355 909 2204 
Q 749 2054 717 1786 
Q 704 1677 611 1600 
Q 518 1523 416 1523 
Q 371 1523 323 1545 
Q 275 1568 275 1619 
Q 275 1709 441 1984 
Q 608 2259 857 2406 
Q 1107 2554 1344 2554 
Q 1741 2554 1920 2397 
Q 2099 2240 2099 1894 
L 2099 595 
Q 2099 448 2108 368 
Q 2118 288 2176 246 
Q 2234 205 2291 205 
Q 2432 205 2554 403 
z
M 1715 653 
L 1715 1312 
Q 1306 1152 1043 889 
Q 781 627 781 410 
Q 781 288 861 208 
Q 941 128 1062 128 
Q 1235 128 1475 304 
Q 1715 480 1715 653 
z
" transform="scale(0.015625)"/>
       <path id="STSong-6e" d="M 3200 -19 
Q 2867 0 2534 0 
Q 2202 0 1869 -19 
L 1869 83 
L 2221 134 
Q 2362 154 2362 384 
L 2362 1645 
Q 2362 1926 2202 2092 
Q 2042 2259 1766 2259 
Q 1357 2259 966 1869 
L 966 314 
Q 966 211 1120 173 
L 1498 83 
L 1498 -19 
Q 1261 0 806 0 
Q 352 0 115 -19 
L 115 83 
L 454 147 
Q 582 166 582 339 
L 582 1606 
Q 582 1805 502 1875 
Q 422 1946 218 1978 
L 218 2093 
Q 627 2189 864 2669 
L 966 2669 
L 966 2093 
Q 1210 2304 1504 2429 
Q 1798 2554 2022 2554 
Q 2758 2554 2758 1677 
L 2758 403 
Q 2758 282 2790 218 
Q 2822 154 2918 134 
L 3200 83 
L 3200 -19 
z
" transform="scale(0.015625)"/>
       <path id="STSong-64" d="M 2285 3488 
Q 2285 3731 2205 3811 
Q 2125 3891 1786 3974 
L 1786 4077 
Q 2195 4109 2528 4224 
L 2688 4224 
L 2688 435 
Q 2688 218 2755 170 
Q 2822 122 3123 115 
L 3123 13 
Q 2643 -96 2285 -134 
L 2285 160 
Q 1952 26 1728 -38 
Q 1504 -102 1242 -102 
Q 826 -102 518 262 
Q 211 627 211 1114 
Q 211 1709 585 2131 
Q 960 2554 1459 2554 
Q 1958 2554 2285 2381 
L 2285 3488 
z
M 2285 320 
L 2285 1773 
Q 2285 2067 2080 2236 
Q 1875 2406 1523 2406 
Q 1152 2406 909 2073 
Q 666 1741 666 1203 
Q 666 730 934 432 
Q 1203 134 1606 134 
Q 1805 134 1997 188 
Q 2189 243 2285 320 
z
" transform="scale(0.015625)"/>
       <path id="STSong-77" d="M -64 2458 
Q 77 2438 570 2438 
Q 992 2438 1184 2458 
L 1184 2355 
L 928 2317 
Q 806 2291 806 2195 
Q 806 2138 838 2067 
L 1670 326 
L 2182 1363 
L 1933 2022 
Q 1862 2202 1814 2250 
Q 1766 2298 1715 2304 
L 1446 2355 
L 1446 2458 
Q 1626 2438 2131 2438 
Q 2675 2438 2835 2458 
L 2835 2355 
L 2522 2298 
Q 2330 2253 2330 2150 
Q 2330 2106 2362 2022 
L 2989 378 
L 3642 1907 
Q 3680 1990 3680 2067 
Q 3680 2170 3609 2234 
Q 3539 2298 3456 2310 
L 3194 2355 
L 3194 2458 
Q 3334 2438 3750 2438 
Q 4134 2438 4314 2458 
L 4314 2355 
L 4154 2323 
Q 3962 2266 3827 1965 
L 2906 -147 
L 2803 -147 
L 2259 1171 
L 1587 -147 
L 1459 -147 
L 326 2144 
Q 243 2317 83 2336 
L -64 2355 
L -64 2458 
z
" transform="scale(0.015625)"/>
       <path id="STSong-74" d="M 979 3085 
L 1056 3085 
L 1062 2400 
L 1933 2419 
L 1933 2189 
L 1062 2163 
L 1062 640 
Q 1062 352 1142 224 
Q 1222 96 1402 96 
Q 1619 96 1926 275 
L 1984 186 
Q 1850 32 1674 -35 
Q 1498 -102 1197 -102 
Q 864 -102 761 61 
Q 659 224 659 704 
L 659 2150 
L 314 2144 
Q 224 2144 224 2195 
Q 224 2240 307 2278 
Q 582 2394 707 2544 
Q 832 2694 979 3085 
z
" transform="scale(0.015625)"/>
       <path id="STSong-68" d="M 576 3539 
Q 576 3712 496 3779 
Q 416 3846 102 3917 
L 102 3994 
Q 371 4006 806 4224 
L 960 4224 
L 960 1965 
Q 1427 2554 1984 2554 
Q 2323 2554 2531 2323 
Q 2739 2093 2739 1683 
L 2739 301 
Q 2739 237 2764 201 
Q 2790 166 2899 141 
L 3181 77 
L 3181 -26 
Q 2784 0 2566 0 
Q 2342 0 1946 -26 
L 1946 77 
L 2208 147 
Q 2291 173 2326 205 
Q 2362 237 2362 346 
L 2362 1670 
Q 2362 1939 2202 2099 
Q 2042 2259 1760 2259 
Q 1542 2259 1356 2134 
Q 1171 2010 960 1741 
L 960 346 
Q 960 269 982 237 
Q 1005 205 1082 186 
L 1517 77 
L 1517 -26 
Q 1312 0 806 0 
Q 301 0 96 -26 
L 96 77 
L 442 147 
Q 525 166 550 188 
Q 576 211 576 288 
L 576 3539 
z
" transform="scale(0.015625)"/>
       <path id="STSong-4d" d="M 5280 -19 
Q 4666 0 4365 0 
Q 3968 0 3450 -19 
L 3450 83 
L 3834 160 
Q 3981 192 4019 256 
Q 4058 320 4058 506 
L 4058 3494 
L 2624 -51 
L 922 3770 
L 922 467 
Q 922 166 1114 147 
L 1702 83 
L 1702 -19 
Q 1318 0 877 0 
Q 550 0 45 -19 
L 45 83 
L 397 147 
Q 640 192 688 253 
Q 736 314 736 467 
L 736 3846 
L 154 3917 
L 154 4019 
Q 262 4000 768 4000 
Q 1197 4000 1357 4019 
L 2778 845 
L 4070 4019 
Q 4384 4000 4698 4000 
Q 5005 4000 5274 4019 
L 5274 3917 
L 4877 3834 
Q 4691 3795 4620 3718 
Q 4550 3642 4550 3456 
L 4550 550 
Q 4550 352 4585 285 
Q 4621 218 4736 192 
L 5280 83 
L 5280 -19 
z
" transform="scale(0.015625)"/>
       <path id="STSong-2f" d="M 2560 4454 
L 2835 4454 
L 634 -864 
L 365 -864 
L 2560 4454 
z
" transform="scale(0.015625)"/>
       <path id="STSong-73" d="M 1792 1843 
Q 1734 2061 1536 2233 
Q 1338 2406 1184 2406 
Q 717 2406 717 1978 
Q 717 1805 870 1686 
Q 1024 1568 1338 1453 
Q 2061 1178 2061 672 
Q 2061 339 1805 118 
Q 1549 -102 1171 -102 
Q 710 -102 416 64 
L 352 787 
L 461 787 
Q 550 448 774 240 
Q 998 32 1254 32 
Q 1459 32 1600 163 
Q 1741 294 1741 493 
Q 1741 858 1139 1082 
Q 717 1242 534 1418 
Q 352 1594 352 1850 
Q 352 2176 595 2365 
Q 838 2554 1248 2554 
Q 1613 2554 1875 2400 
L 1914 1843 
L 1792 1843 
z
" transform="scale(0.015625)"/>
      </defs>
      <use xlink:href="#STSong-42"/>
      <use xlink:href="#STSong-61" x="61.499985"/>
      <use xlink:href="#STSong-6e" x="102.099976"/>
      <use xlink:href="#STSong-64" x="153.09996"/>
      <use xlink:href="#STSong-77" x="203.099945"/>
      <use xlink:href="#STSong-69" x="269.799942"/>
      <use xlink:href="#STSong-64" x="292.699936"/>
      <use xlink:href="#STSong-74" x="342.699921"/>
      <use xlink:href="#STSong-68" x="371.899918"/>
      <use xlink:href="#STSong-20" x="422.899902"/>
      <use xlink:href="#STSong-28" x="447.899887"/>
      <use xlink:href="#STSong-4d" x="477.099884"/>
      <use xlink:href="#STSong-69" x="560.399872"/>
      <use xlink:href="#STSong-42" x="583.299866"/>
      <use xlink:href="#STSong-2f" x="644.79985"/>
      <use xlink:href="#STSong-73" x="694.799835"/>
      <use xlink:href="#STSong-29" x="731.29982"/>
     </g>
    </g>
   </g>
   <g id="patch_21">
    <path d="M 104.4425 350.26 
L 104.4425 25.92 
" style="fill: none; stroke: #000000; stroke-width: 2; stroke-linejoin: miter; stroke-linecap: square"/>
   </g>
   <g id="patch_22">
    <path d="M 694.08 350.26 
L 694.08 25.92 
" style="fill: none; stroke: #000000; stroke-width: 2; stroke-linejoin: miter; stroke-linecap: square"/>
   </g>
   <g id="patch_23">
    <path d="M 104.4425 350.26 
L 694.08 350.26 
" style="fill: none; stroke: #000000; stroke-width: 2; stroke-linejoin: miter; stroke-linecap: square"/>
   </g>
   <g id="patch_24">
    <path d="M 104.4425 25.92 
L 694.08 25.92 
" style="fill: none; stroke: #000000; stroke-width: 2; stroke-linejoin: miter; stroke-linecap: square"/>
   </g>
   <g id="legend_1">
    <g id="patch_25">
     <path d="M 121.2425 150.0975 
L 276.02 150.0975 
Q 280.82 150.0975 280.82 145.2975 
L 280.82 42.72 
Q 280.82 37.92 276.02 37.92 
L 121.2425 37.92 
Q 116.4425 37.92 116.4425 42.72 
L 116.4425 145.2975 
Q 116.4425 150.0975 121.2425 150.0975 
z
" style="fill: #ffffff; opacity: 0.8; stroke: #cccccc; stroke-linejoin: miter"/>
    </g>
    <g id="patch_26">
     <path d="M 126.0425 64.32 
L 174.0425 64.32 
L 174.0425 47.52 
L 126.0425 47.52 
z
" style="fill: #6b9dc2; stroke: #000000; stroke-linejoin: miter"/>
    </g>
    <g id="text_15">
     <!-- sync -->
     <g transform="translate(193.2425 64.32) scale(0.24 -0.24)">
      <defs>
       <path id="STSong-79" d="M 19 2470 
Q 422 2438 659 2438 
Q 1037 2438 1306 2470 
L 1306 2368 
L 915 2291 
Q 819 2272 819 2202 
Q 819 2176 838 2118 
L 1485 294 
L 2080 1946 
Q 2112 2029 2112 2099 
Q 2112 2253 1997 2278 
L 1638 2368 
L 1638 2470 
Q 1926 2438 2182 2438 
Q 2406 2438 2726 2470 
L 2726 2368 
L 2522 2310 
Q 2432 2285 2368 2205 
Q 2304 2125 2214 1882 
L 1133 -973 
Q 1024 -1274 864 -1427 
Q 704 -1581 525 -1581 
Q 250 -1581 250 -1376 
Q 250 -1146 486 -1146 
Q 570 -1146 685 -1171 
Q 736 -1184 768 -1184 
Q 819 -1184 854 -1152 
Q 890 -1120 998 -931 
Q 1107 -742 1187 -518 
Q 1267 -294 1267 -224 
Q 1267 -115 1203 51 
L 422 2118 
Q 371 2266 256 2298 
L 19 2368 
L 19 2470 
z
" transform="scale(0.015625)"/>
      </defs>
      <use xlink:href="#STSong-73"/>
      <use xlink:href="#STSong-79" x="36.499985"/>
      <use xlink:href="#STSong-6e" x="78.199982"/>
      <use xlink:href="#STSong-63" x="129.199966"/>
     </g>
    </g>
    <g id="patch_27">
     <path d="M 126.0425 99.28875 
L 174.0425 99.28875 
L 174.0425 82.48875 
L 126.0425 82.48875 
z
" style="fill: #7fcdb8; stroke: #000000; stroke-linejoin: miter"/>
    </g>
    <g id="text_16">
     <!-- libaio -->
     <g transform="translate(193.2425 99.28875) scale(0.24 -0.24)">
      <defs>
       <path id="STSong-62" d="M 102 3930 
L 122 4026 
L 941 4224 
L 941 2330 
Q 1459 2554 1856 2554 
Q 2374 2554 2700 2189 
Q 3027 1824 3027 1267 
Q 3027 640 2643 269 
Q 2259 -102 1709 -102 
Q 1427 -102 1165 13 
Q 922 122 877 122 
Q 774 122 634 -134 
L 538 -134 
L 538 3405 
Q 538 3654 467 3737 
Q 397 3821 102 3930 
z
M 941 691 
Q 941 410 1117 246 
Q 1293 83 1594 83 
Q 2560 83 2560 1146 
Q 2560 1664 2285 2003 
Q 2010 2342 1587 2342 
Q 1312 2342 1126 2265 
Q 941 2189 941 2086 
L 941 691 
z
" transform="scale(0.015625)"/>
      </defs>
      <use xlink:href="#STSong-6c"/>
      <use xlink:href="#STSong-69" x="22.899994"/>
      <use xlink:href="#STSong-62" x="45.799988"/>
      <use xlink:href="#STSong-61" x="96.799973"/>
      <use xlink:href="#STSong-69" x="137.399963"/>
      <use xlink:href="#STSong-6f" x="160.299957"/>
     </g>
    </g>
    <g id="patch_28">
     <path d="M 126.0425 134.2575 
L 174.0425 134.2575 
L 174.0425 117.4575 
L 126.0425 117.4575 
z
" style="fill: #c7e9b4; stroke: #000000; stroke-linejoin: miter"/>
    </g>
    <g id="text_17">
     <!-- io_uring -->
     <g transform="translate(193.2425 134.2575) scale(0.24 -0.24)">
      <defs>
       <path id="STSong-5f" d="M -38 -480 
L 3238 -480 
L 3238 -800 
L -38 -800 
L -38 -480 
z
" transform="scale(0.015625)"/>
       <path id="STSong-75" d="M 102 2438 
L 922 2438 
L 922 787 
Q 922 480 1027 352 
Q 1133 224 1427 224 
Q 1862 224 2227 550 
L 2227 2093 
Q 2227 2214 2131 2256 
Q 2035 2298 1638 2336 
L 1638 2438 
L 2643 2438 
L 2643 557 
Q 2643 339 2710 291 
Q 2778 243 3091 230 
L 3098 134 
L 2227 -96 
L 2227 390 
Q 1946 147 1715 22 
Q 1485 -102 1254 -102 
Q 934 -102 726 134 
Q 518 371 518 762 
L 518 2099 
Q 518 2214 451 2256 
Q 384 2298 102 2349 
L 102 2438 
z
" transform="scale(0.015625)"/>
       <path id="STSong-72" d="M 134 -26 
L 134 77 
L 454 134 
Q 582 166 617 230 
Q 653 294 653 461 
L 653 1690 
Q 653 1818 598 1875 
Q 544 1933 358 1971 
L 186 2010 
L 198 2106 
Q 448 2195 614 2313 
Q 781 2432 909 2701 
L 1024 2701 
Q 1050 2355 1050 1894 
Q 1171 2125 1401 2339 
Q 1632 2554 1811 2554 
Q 1952 2554 2038 2464 
Q 2125 2374 2125 2234 
Q 2125 2125 2054 2061 
Q 1984 1997 1875 1997 
Q 1779 1997 1670 2042 
Q 1542 2099 1459 2099 
Q 1318 2099 1184 1868 
Q 1050 1638 1050 1510 
L 1050 448 
Q 1050 282 1104 227 
Q 1158 173 1338 147 
L 1830 77 
L 1830 -26 
Q 1485 0 979 0 
Q 499 0 134 -26 
z
" transform="scale(0.015625)"/>
       <path id="STSong-67" d="M 1050 -243 
Q 768 -134 608 13 
Q 448 160 448 288 
Q 448 390 515 448 
Q 582 506 762 557 
Q 922 608 1101 685 
Q 794 858 650 1066 
Q 506 1274 506 1562 
Q 506 1978 803 2266 
Q 1101 2554 1555 2554 
Q 1760 2554 1907 2506 
Q 2054 2458 2240 2342 
Q 2400 2240 2496 2240 
Q 2573 2240 2758 2266 
Q 2925 2285 2989 2285 
Q 3098 2285 3126 2240 
Q 3155 2195 3155 2054 
Q 3155 1958 3046 1958 
Q 2970 1958 2765 2010 
Q 2509 2074 2458 2054 
Q 2592 1786 2592 1574 
Q 2592 1254 2320 940 
Q 2048 627 1459 627 
Q 1210 627 1011 531 
Q 813 435 813 346 
Q 813 237 1165 128 
Q 1517 19 2054 0 
Q 2515 -13 2771 -201 
Q 3027 -390 3027 -678 
Q 3027 -922 2851 -1155 
Q 2675 -1389 2297 -1526 
Q 1920 -1664 1485 -1664 
Q 954 -1664 598 -1456 
Q 243 -1248 243 -992 
Q 243 -589 1050 -243 
z
M 1530 2445 
Q 922 2445 922 1574 
Q 922 1184 1094 960 
Q 1267 736 1536 736 
Q 1824 736 1997 953 
Q 2170 1171 2170 1568 
Q 2170 1971 1990 2208 
Q 1811 2445 1530 2445 
z
M 621 -928 
Q 621 -1178 870 -1357 
Q 1120 -1536 1536 -1536 
Q 2067 -1536 2406 -1337 
Q 2746 -1139 2746 -845 
Q 2746 -538 2426 -426 
Q 2106 -314 1485 -314 
Q 1043 -314 832 -512 
Q 621 -710 621 -928 
z
" transform="scale(0.015625)"/>
      </defs>
      <use xlink:href="#STSong-69"/>
      <use xlink:href="#STSong-6f" x="22.899994"/>
      <use xlink:href="#STSong-5f" x="73.899979"/>
      <use xlink:href="#STSong-75" x="123.899963"/>
      <use xlink:href="#STSong-72" x="172.899948"/>
      <use xlink:href="#STSong-69" x="206.199936"/>
      <use xlink:href="#STSong-6e" x="229.09993"/>
      <use xlink:href="#STSong-67" x="280.099915"/>
     </g>
    </g>
   </g>
  </g>
 </g>
 <defs>
  <clipPath id="p1d95d1a4db">
   <rect x="104.4425" y="25.92" width="589.6375" height="324.34"/>
  </clipPath>
 </defs>
</svg>
