<svg xmlns="http://www.w3.org/2000/svg" xmlns:xlink="http://www.w3.org/1999/xlink" style="vertical-align:-2.505ex" width="60.766ex" height="5.884ex" viewBox="0 -1455.1 26162.8 2533.5"><defs><path id="i" stroke-width="1" d="M462 0q-18 3-129 3-116 0-134-3h-9v46h58q7 0 17 2t14 5 7 8q1 2 1 54v50H28v46l151 231q153 232 155 233 2 2 21 2h18l6-6V211h92v-46h-92v-51-48q0-7 6-12 8-7 57-8h29V0h-9zM293 211v334L74 212l109-1h110z"/><path id="a" stroke-width="1" d="M213 578l-13-5q-14-5-40-10t-58-7H83v46h19q47 2 87 15t56 24 28 22q2 3 12 3 9 0 17-6V361l1-300q7-7 12-9t24-4 62-2h26V0h-11q-21 3-159 3-136 0-157-3H88v46h64q16 0 25 1t16 3 8 2 6 5 6 4v517z"/><path id="c" stroke-width="1" d="M287 628q0 7-57 9-24 0-31 1t-7 10q0 1 2 11 6 20 9 22t194 2q190-1 203-3 64-11 107-49t44-101q0-77-66-141-69-68-178-86-7-1-105-2h-95l-30-119Q247 66 247 59q0-4 1-5t7-4 17-2 33-2h31q6-9 6-11 0-16-7-30-5-5-16-5-3 0-37 1T182 2H87Q54 2 51 1 33 1 33 11q0 2 3 14 4 16 8 18t23 3q27 0 60 3 14 3 19 12 3 4 72 278t69 289zm358-74q0 13-2 21t-9 22-25 22-49 16q-7 1-80 2h-35q-18 0-29-1t-12 0q-13-1-18-9-2-6-19-77t-35-138-18-68q0-2 81-2h35q112 0 160 50 27 27 41 79t14 83z"/><path id="d" stroke-width="1" d="M56 347q0 13 14 20h637q15-8 15-20 0-11-14-19l-318-1H72q-16 5-16 20zm0-194q0 15 16 20h636q14-10 14-20 0-13-15-20H70q-14 7-14 20z"/><path id="e" stroke-width="1" d="M127 463q-27 0-42 17t-16 44q0 55 48 98t116 43q35 0 44-1 74-12 113-53t40-89q0-52-34-101t-94-71l-3-2q0-1 9-3t29-9 38-21q82-53 82-140 0-79-62-138T238-22q-80 0-138 43T42 130q0 28 18 45t45 18q28 0 46-18t18-45q0-11-3-20t-7-16-11-12-12-8-10-4-8-3l-4-1q51-45 124-45 55 0 83 53 17 33 17 101v20q0 95-64 127-15 6-61 7l-42 1-3 2q-2 3-2 16 0 18 8 18 28 0 58 5 34 5 62 42t28 112v8q0 57-35 79-22 14-47 14-32 0-59-11t-38-23-11-12h3q3-1 8-2t10-5 12-7 10-11 8-15 3-20q0-22-14-39t-45-18z"/><path id="f" stroke-width="1" d="M42 313q0 163 81 258t180 95q69 0 99-36t30-80q0-25-14-40t-39-15q-23 0-38 14t-15 39q0 44 47 53-22 22-62 25-71 0-117-60-47-66-47-202l1-4q5 6 8 13 41 60 107 60h4q46 0 81-19 24-14 48-40t39-57q21-49 21-107v-18q0-23-5-43-11-59-64-115T253-22q-28 0-54 8t-56 30-51 59-36 97-14 141zm215 84q-30 0-52-17t-34-45-17-57-6-62q0-83 12-119t38-58q24-18 53-18 51 0 78 38 13 18 18 45t5 105q0 80-5 107t-18 45q-27 36-72 36z"/><path id="g" stroke-width="1" d="M164 157q0-24-16-40t-39-16h-7q46-79 122-79 70 0 102 60 19 33 19 128 0 103-27 139-26 33-58 33h-6q-78 0-118-68-4-7-7-8t-15-2q-17 0-19 6-2 4-2 175v129q0 50 5 50 2 2 4 2 1 0 21-8t55-16 75-8q71 0 136 28 8 4 13 4 8 0 8-18v-13q-82-97-205-97-31 0-56 6l-10 2V374q19 14 30 22t36 16 51 8q81 0 137-65t56-154q0-92-64-157T229-22q-81 0-130 54T50 154q0 24 11 38t23 18 23 4q25 0 41-17t16-40z"/><path id="h" stroke-width="1" d="M630 29q0-20-21-20-5 0-22 16t-94 93L389 222 284 117Q178 13 175 11q-4-2-7-2-8 0-14 6t-7 14q0 7 14 22t94 95l104 104-104 104q-81 81-94 95t-14 22q0 9 6 14t15 5q5 0 7-1 3-2 109-106l105-105 104 104q77 77 94 93t22 16q21 0 21-20 0-7-10-18t-98-98L418 250l104-105q84-84 96-97t12-19z"/><path id="b" stroke-width="1" d="M84 237v13l14 20h581q15-8 15-20t-15-20H98q-14 7-14 20z"/><path id="j" stroke-width="1" d="M78 250q0 24 17 42t43 18q24 0 42-16t19-43q0-25-17-43t-43-18-43 17-18 43zm447 0q0 24 17 42t43 18q24 0 42-16t19-43q0-25-17-43t-43-18-43 17-18 43zm447 0q0 24 17 42t43 18q24 0 42-16t19-43q0-25-17-43t-43-18-43 17-18 43z"/><path id="k" stroke-width="1" d="M21 287q1 6 3 16t12 38 20 47 33 37 46 17q36 0 60-18t30-34 6-21q0-2 1-2l11 11q61 64 139 64 54 0 87-27t34-79-38-157-38-127q0-26 17-26 6 0 9 1 29 5 52 38t35 80q2 8 20 8 20 0 20-8 0-1-4-15-8-29-22-57t-46-56-69-27q-47 0-68 27t-21 56q0 19 36 120t37 152q0 59-44 59h-5q-86 0-145-101l-7-12-33-134Q156 26 151 16q-13-27-43-27-13 0-21 6T76 7t-2 10q0 13 38 163t40 163q1 5 1 23 0 39-24 39-38 0-63-100-6-20-6-21-2-6-19-6H27q-6 6-6 9z"/><path id="l" stroke-width="1" d="M56 237v13l14 20h299v150l1 150q10 13 19 13 13 0 20-15V270h298q15-8 15-20t-15-20H409V-68q-8-14-18-14h-4q-12 0-18 14v298H70q-14 7-14 20z"/><path id="m" stroke-width="1" d="M78 661q0 21 18 38t42 17 42-16 19-39q0-7-20-229t-21-226q-2-8-19-8-18 0-20 8-1 3-21 225T78 661zm1-600q0 28 18 44t44 16q23-2 40-17t17-43q0-30-17-45T139 1q-25 0-42 15T79 61z"/><path id="n" stroke-width="1" d="M94 250q0 69 10 131t23 107 37 88 38 67 42 52 33 34 25 21h17q14 0 14-9 0-3-17-21t-41-53-49-86-42-138-17-193 17-192 41-139 49-86 42-53 17-21q0-9-15-9h-16l-28 24q-94 85-137 212T94 250z"/><path id="o" stroke-width="1" d="M60 749l4 1h22l28-24q94-85 137-212t43-264q0-68-10-131T261 12t-37-88-38-67-41-51-32-33-23-19l-4-4H63q-3 0-5 3t-3 9q1 1 11 13Q221-64 221 250T66 725q-10 12-11 13 0 8 5 11z"/><path id="p" stroke-width="1" d="M78 60q0 24 17 42t43 18q24 0 42-16t19-43q0-25-17-43T139 0 96 17 78 60z"/></defs><g fill="currentColor" stroke="currentColor" stroke-width="0" transform="scale(1 -1)"><use xlink:href="#a"/><use x="722" xlink:href="#b"/><use x="1723" xlink:href="#c"/><use x="2752" xlink:href="#d"/><path stroke="none" d="M3928 220h1621v60H3928z"/><g transform="translate(3988 676)"><use xlink:href="#e"/><use x="500" xlink:href="#f"/><use x="1001" xlink:href="#g"/></g><g transform="translate(3988 -686)"><use xlink:href="#e"/><use x="500" xlink:href="#f"/><use x="1001" xlink:href="#g"/></g><use x="5892" xlink:href="#h"/><path stroke="none" d="M7013 220h1621v60H7013z"/><g transform="translate(7073 676)"><use xlink:href="#e"/><use x="500" xlink:href="#f"/><use x="1001" xlink:href="#i"/></g><g transform="translate(7073 -686)"><use xlink:href="#e"/><use x="500" xlink:href="#f"/><use x="1001" xlink:href="#g"/></g><use x="8977" xlink:href="#h"/><use x="9977" xlink:href="#j"/><use x="11372" xlink:href="#h"/><g><path stroke="none" d="M12493 220h5168v60h-5168z"/><g transform="translate(12553 676)"><use xlink:href="#e"/><use x="500" xlink:href="#f"/><use x="1001" xlink:href="#g"/><use x="1723" xlink:href="#b"/><use x="2724" xlink:href="#k"/><use x="3547" xlink:href="#l"/><use x="4547" xlink:href="#a"/></g><g transform="translate(14326 -686)"><use xlink:href="#e"/><use x="500" xlink:href="#f"/><use x="1001" xlink:href="#g"/></g></g><use x="18059" xlink:href="#d"/><g><path stroke="none" d="M19235 220h6528v60h-6528z"/><g transform="translate(21609 676)"><use xlink:href="#e"/><use x="500" xlink:href="#f"/><use x="1001" xlink:href="#g"/><use x="1501" xlink:href="#m"/></g><g transform="translate(19295 -726)"><use xlink:href="#e"/><use x="500" xlink:href="#f"/><use x="1001" xlink:href="#g"/><use x="2123" y="557" transform="scale(.707)" xlink:href="#k"/><use x="2026" xlink:href="#n"/><g transform="translate(2415)"><use xlink:href="#e"/><use x="500" xlink:href="#f"/><use x="1001" xlink:href="#g"/></g><use x="4139" xlink:href="#b"/><use x="5140" xlink:href="#k"/><use x="5740" xlink:href="#o"/><use x="6130" xlink:href="#m"/></g></g><use x="25884" xlink:href="#p"/></g></svg>