<?xml version="1.0" standalone="no"?>
<!DOCTYPE svg PUBLIC "-//W3C//DTD SVG 20010904//EN"
 "http://www.w3.org/TR/2001/REC-SVG-20010904/DTD/svg10.dtd">
<svg version="1.0" xmlns="http://www.w3.org/2000/svg"
 width="737.000000pt" height="373.000000pt" viewBox="0 0 737.000000 373.000000"
 preserveAspectRatio="xMidYMid meet">

<g transform="translate(0.000000,373.000000) scale(0.100000,-0.100000)"
fill="#000000" stroke="none">
<path d="M4352 3554 c-21 -15 -22 -21 -22 -170 0 -141 2 -156 20 -174 19 -19
33 -20 289 -20 l270 0 21 27 c20 26 21 37 18 176 -3 134 -5 150 -22 163 -30
22 -542 21 -574 -2z"/>
<path d="M395 3294 c-10 -10 -15 -29 -13 -48 4 -38 43 -61 79 -47 23 9 22 10
-8 10 -32 1 -63 23 -63 45 0 22 38 49 60 43 11 -3 20 -1 20 4 0 15 -58 10 -75
-7z"/>
<path d="M498 3285 c-17 -37 0 -80 31 -80 30 0 46 40 32 78 -14 35 -47 36 -63
2z m50 -39 c-4 -40 -32 -42 -36 -3 -2 16 -1 36 2 44 11 27 37 -6 34 -41z"/>
<path d="M1665 3301 c-5 -10 -14 -7 164 -55 141 -38 227 -77 236 -107 8 -25
-19 -74 -71 -125 -39 -39 -49 -44 -89 -44 -25 0 -45 -4 -45 -10 0 -5 11 -10
25 -10 14 0 25 -4 25 -9 0 -15 -100 -90 -114 -85 -11 4 -52 -64 -43 -72 9 -10
76 27 79 44 2 10 45 55 97 101 111 100 151 152 151 196 0 55 -53 85 -241 134
-63 17 -127 35 -142 40 -14 6 -29 6 -32 2z"/>
<path d="M5226 3279 c16 -25 13 -68 -5 -72 -10 -3 -8 -5 7 -6 21 -1 23 3 20
41 -2 24 -9 43 -17 46 -10 3 -11 0 -5 -9z"/>
<path d="M6425 3280 c-4 -6 -1 -9 6 -8 20 5 22 -32 3 -53 -17 -18 -16 -19 12
-18 16 1 21 3 12 6 -16 4 -16 6 -2 29 13 19 14 27 4 39 -15 18 -26 19 -35 5z"/>
<path d="M1302 3143 c70 -2 187 -2 260 0 73 1 16 3 -127 3 -143 0 -203 -2
-133 -3z"/>
<path d="M6883 3090 c0 -25 2 -35 4 -22 2 12 2 32 0 45 -2 12 -4 2 -4 -23z"/>
<path d="M315 2960 c3 -5 19 -10 35 -10 16 0 32 5 35 10 4 6 -10 10 -35 10
-25 0 -39 -4 -35 -10z"/>
<path d="M455 2960 c3 -5 19 -10 35 -10 16 0 32 5 35 10 4 6 -10 10 -35 10
-25 0 -39 -4 -35 -10z"/>
<path d="M595 2960 c3 -5 19 -10 35 -10 16 0 32 5 35 10 4 6 -10 10 -35 10
-25 0 -39 -4 -35 -10z"/>
<path d="M740 2960 c0 -5 13 -10 29 -10 17 0 33 5 36 10 4 6 -8 10 -29 10 -20
0 -36 -4 -36 -10z"/>
<path d="M880 2960 c0 -5 16 -10 35 -10 19 0 35 5 35 10 0 6 -16 10 -35 10
-19 0 -35 -4 -35 -10z"/>
<path d="M1020 2960 c0 -5 16 -10 35 -10 19 0 35 5 35 10 0 6 -16 10 -35 10
-19 0 -35 -4 -35 -10z"/>
<path d="M1160 2960 c0 -5 16 -10 35 -10 19 0 35 5 35 10 0 6 -16 10 -35 10
-19 0 -35 -4 -35 -10z"/>
<path d="M1300 2960 c0 -5 16 -10 35 -10 19 0 35 5 35 10 0 6 -16 10 -35 10
-19 0 -35 -4 -35 -10z"/>
<path d="M1440 2960 c0 -5 16 -10 35 -10 19 0 35 5 35 10 0 6 -16 10 -35 10
-19 0 -35 -4 -35 -10z"/>
<path d="M1580 2960 c0 -5 16 -10 35 -10 19 0 35 5 35 10 0 6 -16 10 -35 10
-19 0 -35 -4 -35 -10z"/>
<path d="M1720 2960 c0 -5 16 -10 35 -10 19 0 35 5 35 10 0 6 -16 10 -35 10
-19 0 -35 -4 -35 -10z"/>
<path d="M2000 2960 c0 -5 16 -10 35 -10 19 0 35 5 35 10 0 6 -16 10 -35 10
-19 0 -35 -4 -35 -10z"/>
<path d="M2140 2960 c0 -5 16 -10 35 -10 19 0 35 5 35 10 0 6 -16 10 -35 10
-19 0 -35 -4 -35 -10z"/>
<path d="M2280 2960 c0 -5 16 -10 35 -10 19 0 35 5 35 10 0 6 -16 10 -35 10
-19 0 -35 -4 -35 -10z"/>
<path d="M2420 2960 c0 -5 16 -10 35 -10 19 0 35 5 35 10 0 6 -16 10 -35 10
-19 0 -35 -4 -35 -10z"/>
<path d="M2560 2960 c0 -5 16 -10 35 -10 19 0 35 5 35 10 0 6 -16 10 -35 10
-19 0 -35 -4 -35 -10z"/>
<path d="M2700 2960 c0 -5 16 -10 35 -10 19 0 35 5 35 10 0 6 -16 10 -35 10
-19 0 -35 -4 -35 -10z"/>
<path d="M2845 2960 c-4 -6 10 -10 35 -10 25 0 39 4 35 10 -3 6 -19 10 -35 10
-16 0 -32 -4 -35 -10z"/>
<path d="M2985 2960 c-4 -6 10 -10 35 -10 25 0 39 4 35 10 -3 6 -19 10 -35 10
-16 0 -32 -4 -35 -10z"/>
<path d="M3125 2960 c-4 -6 8 -10 29 -10 20 0 36 5 36 10 0 6 -13 10 -29 10
-17 0 -33 -4 -36 -10z"/>
<path d="M3555 2960 c3 -5 19 -10 35 -10 16 0 32 5 35 10 4 6 -10 10 -35 10
-25 0 -39 -4 -35 -10z"/>
<path d="M3695 2960 c3 -5 19 -10 35 -10 16 0 32 5 35 10 4 6 -10 10 -35 10
-25 0 -39 -4 -35 -10z"/>
<path d="M3840 2960 c0 -5 16 -10 35 -10 19 0 35 5 35 10 0 6 -16 10 -35 10
-19 0 -35 -4 -35 -10z"/>
<path d="M3980 2960 c0 -5 16 -10 35 -10 19 0 35 5 35 10 0 6 -16 10 -35 10
-19 0 -35 -4 -35 -10z"/>
<path d="M4120 2960 c0 -5 16 -10 35 -10 19 0 35 5 35 10 0 6 -16 10 -35 10
-19 0 -35 -4 -35 -10z"/>
<path d="M4260 2960 c0 -5 16 -10 35 -10 19 0 35 5 35 10 0 6 -16 10 -35 10
-19 0 -35 -4 -35 -10z"/>
<path d="M4400 2960 c0 -5 16 -10 35 -10 19 0 35 5 35 10 0 6 -16 10 -35 10
-19 0 -35 -4 -35 -10z"/>
<path d="M4540 2960 c0 -5 16 -10 35 -10 19 0 35 5 35 10 0 6 -16 10 -35 10
-19 0 -35 -4 -35 -10z"/>
<path d="M4680 2960 c0 -5 16 -10 35 -10 19 0 35 5 35 10 0 6 -16 10 -35 10
-19 0 -35 -4 -35 -10z"/>
<path d="M4820 2960 c0 -5 16 -10 35 -10 19 0 35 5 35 10 0 6 -16 10 -35 10
-19 0 -35 -4 -35 -10z"/>
<path d="M4960 2960 c0 -5 16 -10 35 -10 19 0 35 5 35 10 0 6 -16 10 -35 10
-19 0 -35 -4 -35 -10z"/>
<path d="M5100 2960 c0 -5 16 -10 35 -10 19 0 35 5 35 10 0 6 -16 10 -35 10
-19 0 -35 -4 -35 -10z"/>
<path d="M5240 2960 c0 -5 16 -10 35 -10 19 0 35 5 35 10 0 6 -16 10 -35 10
-19 0 -35 -4 -35 -10z"/>
<path d="M5380 2960 c0 -5 16 -10 35 -10 19 0 35 5 35 10 0 6 -16 10 -35 10
-19 0 -35 -4 -35 -10z"/>
<path d="M5525 2960 c-4 -6 8 -10 29 -10 20 0 36 5 36 10 0 6 -13 10 -29 10
-17 0 -33 -4 -36 -10z"/>
<path d="M5665 2960 c-4 -6 8 -10 29 -10 20 0 36 5 36 10 0 6 -13 10 -29 10
-17 0 -33 -4 -36 -10z"/>
<path d="M5805 2960 c-4 -6 8 -10 29 -10 20 0 36 5 36 10 0 6 -13 10 -29 10
-17 0 -33 -4 -36 -10z"/>
<path d="M5945 2960 c-4 -6 10 -10 35 -10 25 0 39 4 35 10 -3 6 -19 10 -35 10
-16 0 -32 -4 -35 -10z"/>
<path d="M6085 2960 c-4 -6 10 -10 35 -10 25 0 39 4 35 10 -3 6 -19 10 -35 10
-16 0 -32 -4 -35 -10z"/>
<path d="M6225 2960 c-4 -6 10 -10 35 -10 25 0 39 4 35 10 -3 6 -19 10 -35 10
-16 0 -32 -4 -35 -10z"/>
<path d="M6365 2960 c-4 -6 10 -10 35 -10 25 0 39 4 35 10 -3 6 -19 10 -35 10
-16 0 -32 -4 -35 -10z"/>
<path d="M6515 2960 c-15 -7 -9 -9 25 -9 33 -1 41 2 30 9 -18 12 -28 12 -55 0z"/>
<path d="M6675 2960 l-40 -7 43 -2 c23 0 42 4 42 9 0 6 -1 9 -2 9 -2 -1 -21
-5 -43 -9z"/>
<path d="M6808 2953 c12 -2 30 -2 40 0 9 3 -1 5 -23 4 -22 0 -30 -2 -17 -4z"/>
<path d="M6948 2953 c12 -2 30 -2 40 0 9 3 -1 5 -23 4 -22 0 -30 -2 -17 -4z"/>
<path d="M4784 2879 c-3 -6 0 -16 7 -21 11 -8 10 -9 -3 -4 -10 3 -20 1 -23 -4
-4 -6 -2 -10 4 -10 5 0 17 -7 25 -16 15 -14 16 -12 16 25 0 40 -11 53 -26 30z"/>
<path d="M397 2712 c-47 -52 15 -129 73 -92 11 7 5 10 -23 10 -30 0 -40 5 -49
25 -15 33 4 55 49 55 20 0 32 4 28 10 -10 17 -61 11 -78 -8z"/>
<path d="M6587 2724 c-14 -14 6 -24 48 -24 50 0 77 8 69 21 -6 10 -107 12
-117 3z"/>
<path d="M6786 2721 c-8 -12 19 -21 65 -21 28 0 39 4 39 15 0 11 -12 15 -49
15 -28 0 -52 -4 -55 -9z"/>
<path d="M520 2670 c0 -27 5 -50 10 -50 6 0 10 23 10 50 0 28 -4 50 -10 50 -5
0 -10 -22 -10 -50z"/>
<path d="M1950 2681 c8 -5 80 -17 160 -26 285 -32 323 -56 248 -153 -46 -60
-246 -235 -262 -229 -14 5 -52 -61 -41 -71 10 -10 73 26 71 41 0 8 50 61 113
117 108 98 171 175 171 210 0 25 -40 57 -88 70 -40 10 -337 50 -372 50 -13 -1
-13 -2 0 -9z"/>
<path d="M6540 2585 c0 -41 3 -56 13 -52 7 2 12 22 12 52 0 30 -5 50 -12 53
-10 3 -13 -12 -13 -53z"/>
<path d="M6910 2585 c0 -55 13 -73 25 -35 8 24 -4 90 -16 90 -5 0 -9 -25 -9
-55z"/>
<path d="M3743 2618 c-4 -7 -9 -28 -10 -46 -2 -35 19 -54 39 -34 23 23 13 92
-13 92 -4 0 -11 -6 -16 -12z m27 -18 c0 -5 -4 -10 -10 -10 -5 0 -10 5 -10 10
0 6 5 10 10 10 6 0 10 -4 10 -10z m0 -45 c0 -8 -4 -15 -9 -15 -13 0 -22 16
-14 24 11 11 23 6 23 -9z"/>
<path d="M3927 2623 c-4 -3 -7 -26 -7 -50 0 -44 8 -51 44 -37 13 5 15 14 10
43 -8 42 -29 62 -47 44z m33 -23 c0 -5 -7 -10 -15 -10 -8 0 -15 5 -15 10 0 6
7 10 15 10 8 0 15 -4 15 -10z m8 -42 c-3 -7 -11 -13 -18 -13 -7 0 -15 6 -17
13 -3 7 4 12 17 12 13 0 20 -5 18 -12z"/>
<path d="M3514 2580 c1 -40 4 -45 26 -47 22 -2 23 -2 5 6 -13 5 -22 21 -26 47
l-7 39 2 -45z"/>
<path d="M3590 2612 c0 -5 8 -9 18 -8 13 1 17 -7 17 -29 0 -23 -4 -30 -19 -28
-13 1 -15 -2 -7 -10 17 -17 42 12 39 47 -2 23 -9 32 -25 34 -13 2 -23 -1 -23
-6z"/>
<path d="M3811 2578 c2 -30 3 -35 6 -15 5 29 13 33 30 16 8 -8 13 -8 17 0 12
19 25 12 29 -16 3 -20 4 -15 6 15 1 44 -8 52 -29 27 -12 -14 -15 -14 -30 0
-25 23 -30 19 -29 -27z"/>
<path d="M3696 2594 c-8 -22 -8 -62 2 -67 4 -3 7 15 7 39 0 49 0 50 -9 28z"/>
<path d="M4001 2595 c1 -19 18 -51 18 -35 0 8 -4 22 -9 30 -5 8 -9 11 -9 5z"/>
<path d="M5076 2590 c6 -6 117 -25 245 -41 448 -55 481 -73 327 -173 -105 -68
-183 -107 -200 -101 -13 5 -65 -52 -55 -61 2 -2 22 -1 43 4 25 5 38 13 37 23
-1 8 32 33 85 62 178 97 230 157 165 190 -45 23 -163 45 -388 72 -115 14 -223
28 -240 31 -23 5 -27 3 -19 -6z"/>
<path d="M1203 2583 c130 -2 344 -2 475 0 130 1 23 2 -238 2 -261 0 -368 -1
-237 -2z"/>
<path d="M3581 2574 c0 -11 3 -14 6 -6 3 7 2 16 -1 19 -3 4 -6 -2 -5 -13z"/>
<path d="M5850 2490 c0 -10 8 -24 18 -29 16 -10 16 -12 -3 -27 -20 -16 -20
-16 0 -12 26 4 31 36 8 54 -16 12 -16 15 -3 24 13 8 13 10 -2 10 -11 0 -18 -8
-18 -20z"/>
<path d="M6620 2445 l0 -55 36 0 c21 0 33 4 29 10 -3 6 -15 10 -26 10 -16 0
-19 7 -19 45 0 25 -4 45 -10 45 -5 0 -10 -25 -10 -55z"/>
<path d="M4353 2478 c16 -10 164 -10 170 0 3 4 -37 7 -88 7 -51 0 -88 -3 -82
-7z"/>
<path d="M4757 2478 c2 -5 40 -8 83 -8 43 0 81 3 83 8 3 4 -35 7 -83 7 -48 0
-86 -3 -83 -7z"/>
<path d="M6545 2449 c-9 -24 -2 -104 10 -104 14 0 19 80 6 102 -9 16 -10 16
-16 2z"/>
<path d="M6707 2453 c-12 -11 -8 -40 8 -53 30 -25 79 16 54 46 -12 15 -51 19
-62 7z m53 -22 c0 -24 -25 -34 -40 -16 -15 18 -5 35 21 35 12 0 19 -7 19 -19z"/>
<path d="M6800 2433 c0 -16 -3 -38 -6 -50 -4 -14 -2 -23 5 -23 7 0 10 4 6 9
-7 12 12 24 25 16 8 -5 7 -11 -1 -21 -10 -12 -9 -13 5 -8 20 8 21 30 0 42 -14
8 -14 10 0 21 24 20 19 41 -9 41 -21 0 -25 -5 -25 -27z m30 7 c0 -5 -4 -10
-10 -10 -5 0 -10 5 -10 10 0 6 5 10 10 10 6 0 10 -4 10 -10z"/>
<path d="M6918 2454 c-12 -11 -9 -104 2 -104 6 0 13 7 17 16 7 20 -10 98 -19
88z"/>
<path d="M3102 2274 c2 -30 8 -40 23 -42 15 -2 16 -1 7 6 -8 5 -12 22 -10 37
2 17 -2 30 -10 33 -10 3 -13 -6 -10 -34z"/>
<path d="M396 2284 c-44 -43 3 -117 61 -96 28 10 28 10 -10 11 -30 1 -40 6
-49 27 -11 23 -10 29 12 46 16 13 32 17 48 13 15 -4 21 -2 17 5 -10 15 -62 12
-79 -6z"/>
<path d="M500 2290 c0 -5 3 -9 8 -9 37 6 42 -19 12 -61 -11 -15 -17 -30 -13
-34 10 -10 53 -7 53 4 0 6 -7 10 -15 10 -19 0 -19 0 1 39 13 25 13 35 4 46
-14 17 -50 20 -50 5z"/>
<path d="M2391 2263 c1 -37 2 -37 8 -8 3 17 13 30 21 30 8 0 17 -13 21 -30 l6
-30 4 29 c5 37 29 47 29 12 0 -13 5 -28 11 -31 7 -5 9 5 7 26 -3 33 -4 34 -55
37 l-53 2 1 -37z"/>
<path d="M2525 2290 c-4 -6 -4 -22 -1 -36 5 -18 13 -24 34 -23 20 1 22 2 7 6
-34 8 -41 23 -11 23 21 0 27 4 24 18 -4 20 -43 29 -53 12z m40 -10 c3 -5 -1
-10 -9 -10 -9 0 -16 5 -16 10 0 6 4 10 9 10 6 0 13 -4 16 -10z"/>
<path d="M2607 2293 c-6 -11 -2 -51 6 -59 4 -4 7 4 7 19 0 14 8 31 18 36 15 9
15 10 -5 11 -12 0 -24 -3 -26 -7z"/>
<path d="M2674 2285 c-3 -8 -3 -19 1 -24 3 -6 1 -20 -6 -32 -17 -32 17 -51 51
-29 13 9 11 13 -9 29 -20 15 -21 19 -7 24 24 9 21 47 -4 47 -11 0 -23 -7 -26
-15z m30 -16 c-3 -5 -10 -7 -15 -3 -5 3 -7 10 -3 15 3 5 10 7 15 3 5 -3 7 -10
3 -15z m6 -59 c0 -5 -7 -10 -15 -10 -8 0 -15 5 -15 10 0 6 7 10 15 10 8 0 15
-4 15 -10z"/>
<path d="M2745 2280 c-8 -26 11 -50 39 -49 19 0 19 1 -4 11 -25 11 -25 11 -2
15 14 3 22 12 22 24 0 27 -46 26 -55 -1z m45 0 c0 -5 -7 -10 -15 -10 -8 0 -15
5 -15 10 0 6 7 10 15 10 8 0 15 -4 15 -10z"/>
<path d="M2870 2285 c0 -9 7 -18 15 -21 20 -8 19 -21 -2 -27 -14 -4 -13 -5 4
-6 29 -1 37 14 16 34 -14 14 -14 18 -2 26 11 7 9 9 -8 9 -14 0 -23 -6 -23 -15z"/>
<path d="M2939 2284 c-17 -21 0 -48 34 -52 21 -3 28 2 33 23 10 42 -39 63 -67
29z m55 -10 c7 -19 -1 -34 -19 -34 -18 0 -28 17 -21 35 7 20 32 19 40 -1z"/>
<path d="M3035 2288 c-6 -16 -1 -45 8 -54 4 -4 7 4 7 19 0 14 8 31 18 36 15 9
14 10 -6 11 -12 0 -25 -6 -27 -12z"/>
<path d="M3817 2293 c-13 -12 -7 -25 6 -14 18 14 27 4 27 -31 0 -28 -23 -40
-33 -18 -3 6 -4 5 -3 -2 4 -20 38 -15 46 7 14 38 -19 83 -43 58z"/>
<path d="M3882 2254 c1 -37 2 -41 5 -16 4 28 7 31 19 21 11 -9 17 -9 28 0 12
10 15 7 19 -21 3 -25 4 -21 5 16 2 48 2 49 -18 31 -19 -17 -21 -17 -40 0 -20
18 -20 17 -18 -31z"/>
<path d="M3990 2256 c0 -43 2 -46 25 -46 26 0 46 26 29 39 -5 3 -9 15 -9 26 0
13 -8 21 -22 23 -21 3 -23 -1 -23 -42z m32 19 c0 -5 -5 -11 -11 -13 -6 -2 -11
4 -11 13 0 9 5 15 11 13 6 -2 11 -8 11 -13z m11 -40 c1 -5 -6 -11 -15 -13 -11
-2 -18 3 -18 13 0 17 30 18 33 0z"/>
<path d="M3511 2253 c-1 -41 1 -43 27 -42 23 0 24 1 7 8 -12 5 -22 21 -26 42
-6 34 -6 33 -8 -8z"/>
<path d="M3613 2255 c0 -22 2 -30 4 -17 2 12 2 30 0 40 -3 9 -5 -1 -4 -23z"/>
<path d="M3753 2255 c0 -22 2 -30 4 -17 2 12 2 30 0 40 -3 9 -5 -1 -4 -23z"/>
<path d="M4075 2240 c0 -26 3 -43 7 -37 4 7 8 23 8 37 0 14 -4 30 -8 37 -4 6
-7 -11 -7 -37z"/>
<path d="M3697 2273 c-10 -9 -8 -55 2 -71 5 -8 8 5 7 32 -1 25 -1 46 -2 46 0
0 -4 -3 -7 -7z"/>
<path d="M6540 2242 c0 -33 27 -62 56 -62 18 1 18 1 -2 18 -11 10 -24 30 -28
45 -9 36 -26 35 -26 -1z"/>
<path d="M6910 2250 c0 -11 -9 -29 -20 -40 -11 -11 -20 -22 -20 -25 0 -10 36
-5 48 7 14 14 16 78 2 78 -5 0 -10 -9 -10 -20z"/>
<path d="M6685 2190 c-3 -6 0 -13 8 -16 25 -9 90 0 95 14 5 15 -94 17 -103 2z"/>
<path d="M4360 2150 c8 -5 44 -10 80 -10 36 0 72 5 80 10 10 7 -15 10 -80 10
-65 0 -90 -3 -80 -10z"/>
<path d="M4760 2150 c8 -5 44 -10 80 -10 36 0 72 5 80 10 10 7 -15 10 -80 10
-65 0 -90 -3 -80 -10z"/>
<path d="M5160 2150 c8 -5 44 -10 80 -10 36 0 72 5 80 10 10 7 -15 10 -80 10
-65 0 -90 -3 -80 -10z"/>
<path d="M2180 2132 c0 -12 126 -82 243 -136 136 -63 261 -140 297 -184 24
-29 30 -46 30 -84 0 -80 -68 -153 -310 -335 -85 -64 -182 -137 -214 -161 -32
-25 -68 -46 -80 -47 -20 -2 -64 -60 -53 -71 9 -9 77 25 75 38 -2 7 44 47 102
90 344 255 439 338 479 415 37 73 25 128 -41 189 -47 44 -99 75 -280 165 -88
44 -177 91 -198 104 -43 27 -50 29 -50 17z"/>
<path d="M750 2070 c88 -10 1292 -10 1355 0 28 4 -281 7 -685 7 -404 0 -706
-3 -670 -7z"/>
<path d="M3585 1970 c-3 -5 1 -10 9 -10 21 0 20 -24 0 -55 -16 -25 -16 -25 12
-25 22 0 25 3 15 9 -12 8 -13 15 -4 33 16 36 -13 79 -32 48z"/>
<path d="M3820 1965 c-7 -9 -10 -18 -6 -22 3 -3 6 -1 6 5 0 7 7 12 15 12 10 0
15 -10 15 -29 0 -36 -15 -48 -29 -24 -9 16 -10 16 -11 1 0 -25 19 -32 39 -14
16 14 19 14 35 -2 16 -16 18 -16 32 2 18 25 18 47 -1 72 -15 19 -15 19 -30 0
-14 -18 -16 -18 -33 -2 -17 15 -20 15 -32 1z m95 -16 c9 -14 -3 -59 -15 -59
-5 0 -12 11 -16 24 -6 26 1 46 16 46 5 0 12 -5 15 -11z"/>
<path d="M4067 1973 c-4 -3 -7 -26 -7 -50 0 -39 2 -43 24 -43 14 0 27 4 30 8
7 12 -5 82 -14 82 -4 0 -7 -6 -6 -12 0 -7 -3 -14 -9 -15 -5 -2 -9 6 -8 17 3
21 0 24 -10 13z m41 -65 c-3 -7 -11 -13 -18 -13 -7 0 -15 6 -17 13 -3 7 4 12
17 12 13 0 20 -5 18 -12z"/>
<path d="M3513 1930 c2 -40 5 -45 27 -47 14 -1 18 0 8 3 -10 3 -20 15 -23 27
-12 57 -13 59 -12 17z"/>
<path d="M3753 1930 c0 -25 2 -35 4 -22 2 12 2 32 0 45 -2 12 -4 2 -4 -23z"/>
<path d="M3951 1928 c1 -26 4 -33 6 -17 3 21 9 25 38 25 29 0 35 -4 38 -25 2
-16 5 -9 6 17 1 44 -8 52 -29 27 -12 -14 -15 -14 -30 0 -25 23 -30 19 -29 -27z"/>
<path d="M3696 1944 c-9 -23 -7 -62 2 -68 5 -3 8 15 8 39 -1 50 -1 51 -10 29z"/>
<path d="M4144 1907 c-1 -38 0 -40 8 -15 5 15 6 34 1 42 -6 10 -9 1 -9 -27z"/>
<path d="M4344 1835 c21 -16 171 -22 180 -7 2 4 -27 6 -64 4 -38 -2 -84 1
-102 7 -30 10 -31 9 -14 -4z"/>
<path d="M5729 1840 c-8 -5 -52 -8 -96 -7 -45 1 -79 -1 -76 -5 8 -15 158 -9
179 7 21 16 17 19 -7 5z"/>
<path d="M6127 1839 c-11 -6 -54 -9 -102 -7 -76 3 -81 2 -58 -11 36 -18 147
-11 170 12 20 19 16 21 -10 6z"/>
<path d="M4757 1828 c6 -10 154 -10 170 0 6 4 -31 7 -82 7 -51 0 -91 -3 -88
-7z"/>
<path d="M5157 1828 c2 -5 40 -8 83 -8 43 0 81 3 83 8 3 4 -35 7 -83 7 -48 0
-86 -3 -83 -7z"/>
<path d="M3511 1608 c-1 -46 0 -48 27 -47 23 0 24 1 7 8 -13 5 -22 21 -26 47
l-6 39 -2 -47z"/>
<path d="M3591 1643 c18 -5 22 -64 5 -75 -7 -5 -4 -8 7 -8 18 0 19 3 19 45 0
43 -1 45 -24 44 -15 -1 -17 -3 -7 -6z"/>
<path d="M3786 1634 c-34 -34 -9 -78 41 -72 28 3 39 28 15 36 -7 2 -10 -2 -6
-12 8 -22 -29 -22 -47 0 -18 21 -1 47 37 55 l29 7 -27 1 c-15 0 -34 -6 -42
-15z"/>
<path d="M3880 1606 c0 -42 2 -46 24 -46 28 0 41 14 29 32 -4 7 -7 22 -8 33 0
13 -8 21 -22 23 -21 3 -23 -1 -23 -42z m32 19 c0 -5 -5 -11 -11 -13 -6 -2 -11
4 -11 13 0 9 5 15 11 13 6 -2 11 -8 11 -13z m8 -40 c0 -8 -7 -15 -15 -15 -8 0
-15 7 -15 15 0 8 7 15 15 15 8 0 15 -7 15 -15z"/>
<path d="M3738 1605 c-2 -19 0 -35 4 -35 4 0 8 16 8 35 0 19 -2 35 -4 35 -2 0
-6 -16 -8 -35z"/>
<path d="M3697 1623 c-10 -9 -8 -55 2 -72 5 -8 8 3 7 33 0 25 -1 46 -2 46 0 0
-4 -3 -7 -7z"/>
<path d="M3972 1590 c0 -14 2 -19 5 -12 2 6 2 18 0 25 -3 6 -5 1 -5 -13z"/>
<path d="M4353 1498 c16 -10 164 -10 170 0 3 4 -37 7 -88 7 -51 0 -88 -3 -82
-7z"/>
<path d="M4757 1498 c6 -10 154 -10 170 0 6 4 -31 7 -82 7 -51 0 -91 -3 -88
-7z"/>
<path d="M5157 1498 c2 -5 40 -8 83 -8 43 0 81 3 83 8 3 4 -35 7 -83 7 -48 0
-86 -3 -83 -7z"/>
<path d="M5563 1498 c7 -4 44 -8 82 -8 39 0 75 4 82 8 6 4 -31 7 -82 7 -51 0
-88 -3 -82 -7z"/>
<path d="M5961 1495 c16 -16 141 -18 162 -3 15 11 4 13 -77 13 -61 0 -92 -3
-85 -10z"/>
<path d="M6367 1498 c2 -5 42 -8 88 -8 46 0 86 3 88 8 3 4 -37 7 -88 7 -51 0
-91 -3 -88 -7z"/>
<path d="M4658 1233 c7 -3 16 -2 19 1 4 3 -2 6 -13 5 -11 0 -14 -3 -6 -6z"/>
<path d="M4748 1233 c7 -3 16 -2 19 1 4 3 -2 6 -13 5 -11 0 -14 -3 -6 -6z"/>
<path d="M4838 1233 c7 -3 16 -2 19 1 4 3 -2 6 -13 5 -11 0 -14 -3 -6 -6z"/>
<path d="M5098 1233 c7 -3 16 -2 19 1 4 3 -2 6 -13 5 -11 0 -14 -3 -6 -6z"/>
<path d="M5188 1233 c7 -3 16 -2 19 1 4 3 -2 6 -13 5 -11 0 -14 -3 -6 -6z"/>
<path d="M5448 1233 c7 -3 16 -2 19 1 4 3 -2 6 -13 5 -11 0 -14 -3 -6 -6z"/>
<path d="M5535 1230 c4 -6 11 -8 16 -5 14 9 11 15 -7 15 -8 0 -12 -5 -9 -10z"/>
<path d="M396 1134 c-43 -43 3 -116 61 -98 27 8 27 8 -10 12 -29 2 -41 9 -50
29 -10 22 -8 28 12 44 14 12 31 17 42 14 11 -4 19 -2 19 4 0 17 -57 13 -74 -5z"/>
<path d="M500 1092 c-5 -48 2 -69 13 -39 3 8 10 7 26 -7 11 -11 21 -14 21 -8
0 6 -5 14 -11 18 -6 3 -8 17 -4 32 6 26 6 26 -14 8 -19 -17 -20 -17 -23 16 -3
26 -5 23 -8 -20z"/>
<path d="M3803 1003 c12 -3 17 -16 19 -46 1 -40 1 -41 5 -7 2 19 11 41 20 48
14 10 11 12 -23 11 -21 -1 -31 -3 -21 -6z"/>
<path d="M3887 1004 c-10 -10 -9 -82 1 -88 5 -3 18 -3 30 1 18 4 21 11 19 47
-2 32 -7 42 -23 44 -11 2 -23 0 -27 -4z m33 -19 c0 -8 -4 -15 -10 -15 -5 0
-10 7 -10 15 0 8 5 15 10 15 6 0 10 -7 10 -15z m10 -40 c0 -8 -7 -15 -15 -15
-8 0 -15 7 -15 15 0 8 7 15 15 15 8 0 15 -7 15 -15z"/>
<path d="M3542 963 c-2 -39 11 -63 26 -48 3 3 1 9 -5 13 -6 4 -13 23 -16 42
-4 34 -4 34 -5 -7z"/>
<path d="M3608 976 c-14 -31 -4 -56 22 -56 24 0 28 38 4 47 -8 3 -13 12 -10
19 9 24 -4 15 -16 -10z m29 -42 c-9 -9 -28 6 -21 18 4 6 10 6 17 -1 6 -6 8
-13 4 -17z"/>
<path d="M3763 960 c0 -25 2 -35 4 -22 2 12 2 32 0 45 -2 12 -4 2 -4 -23z"/>
<path d="M3714 964 c-4 -14 -2 -35 4 -47 8 -18 10 -14 9 26 0 53 -4 59 -13 21z"/>
<path d="M3972 950 c0 -14 2 -19 5 -12 2 6 2 18 0 25 -3 6 -5 1 -5 -13z"/>
<path d="M4460 871 c-103 -6 -101 -21 4 -21 39 0 69 5 82 15 10 8 17 14 14 13
-3 -1 -48 -4 -100 -7z"/>
<path d="M4771 865 c16 -16 151 -19 172 -3 15 11 3 13 -82 13 -66 0 -97 -3
-90 -10z"/>
<path d="M5177 862 c21 -16 156 -13 172 3 7 7 -24 10 -90 10 -85 0 -97 -2 -82
-13z"/>
<path d="M5587 863 c19 -15 131 -17 152 -4 10 6 -17 11 -77 13 -76 2 -89 1
-75 -9z"/>
<path d="M6040 871 c-64 -4 -87 -8 -70 -13 43 -13 135 -9 156 7 10 8 17 14 14
13 -3 -1 -48 -4 -100 -7z"/>
<path d="M6367 863 c20 -15 149 -18 158 -4 3 6 -33 11 -85 13 -74 2 -87 1 -73
-9z"/>
<path d="M565 820 c61 -12 1747 -12 1765 0 10 6 -296 9 -895 9 -501 -1 -892
-5 -870 -9z"/>
<path d="M5867 692 c-13 -14 -17 -38 -17 -90 0 -100 13 -112 118 -112 69 0 81
3 100 23 18 19 22 35 22 88 0 99 -11 109 -119 109 -72 0 -91 -3 -104 -18z"/>
<path d="M3633 644 c-4 -10 4 -25 21 -41 28 -26 26 -48 -5 -40 -11 3 -19 1
-19 -4 0 -5 14 -9 30 -9 25 0 30 4 30 25 0 14 -8 29 -20 35 -27 14 -25 38 3
43 19 4 18 4 -6 6 -17 0 -30 -5 -34 -15z"/>
<path d="M3713 643 c-4 -11 3 -24 22 -38 30 -25 26 -50 -6 -42 -11 3 -19 1
-19 -4 0 -5 14 -9 30 -9 25 0 30 4 30 25 0 14 -9 30 -20 37 -27 17 -25 36 3
41 19 4 18 4 -6 6 -17 1 -30 -5 -34 -16z"/>
<path d="M3808 653 c19 -4 22 -11 24 -56 l1 -52 6 49 c4 37 11 51 26 57 13 5
4 7 -30 7 -27 0 -40 -3 -27 -5z"/>
<path d="M3951 608 c-1 -57 -1 -58 28 -58 18 0 31 6 35 16 10 26 -3 54 -25 54
-11 0 -24 10 -29 23 -7 17 -9 9 -9 -35z m49 -23 c0 -25 -23 -35 -35 -15 -10
16 2 40 20 40 9 0 15 -9 15 -25z"/>
<path d="M4043 605 c0 -33 2 -45 4 -27 2 18 2 45 0 60 -2 15 -4 0 -4 -33z"/>
<path d="M4216 644 c-10 -25 -7 -94 4 -94 9 0 15 43 10 84 -1 14 3 18 19 13
12 -3 21 -1 21 4 0 16 -48 10 -54 -7z"/>
<path d="M4303 605 c0 -33 2 -45 4 -27 2 18 2 45 0 60 -2 15 -4 0 -4 -33z"/>
<path d="M5502 608 c3 -51 4 -53 33 -53 27 0 30 3 30 30 0 23 -5 31 -22 33
-15 2 -23 10 -23 23 0 10 -5 19 -11 19 -6 0 -9 -21 -7 -52z m53 -23 c0 -11 -8
-21 -17 -23 -14 -3 -18 3 -18 23 0 20 4 26 18 23 9 -2 17 -12 17 -23z"/>
<path d="M5590 611 c0 -28 5 -53 10 -56 6 -4 10 15 10 49 0 31 -4 56 -10 56
-5 0 -10 -22 -10 -49z"/>
<path d="M6771 608 c-1 -55 0 -58 23 -58 13 0 29 7 36 15 12 15 5 54 -11 56
-5 1 -14 2 -20 3 -7 0 -15 10 -20 21 -5 13 -8 1 -8 -37z m49 -17 c0 -11 -5
-23 -11 -27 -15 -9 -33 12 -26 30 9 23 37 20 37 -3z"/>
<path d="M6853 605 c0 -33 2 -45 4 -27 2 18 2 45 0 60 -2 15 -4 0 -4 -33z"/>
<path d="M5370 606 c0 -36 10 -56 29 -55 10 0 11 2 4 6 -16 6 -17 53 -2 53 5
0 7 5 4 10 -12 19 -35 10 -35 -14z"/>
<path d="M6639 625 c-3 -2 -3 -20 -1 -40 4 -35 5 -35 53 -35 42 0 49 3 49 19
0 36 -12 51 -39 50 -21 -1 -22 -2 -5 -6 15 -3 22 -12 22 -29 0 -13 -4 -24 -9
-24 -5 0 -9 5 -9 11 0 8 -4 8 -15 -1 -8 -6 -19 -9 -25 -5 -13 8 -13 45 1 45 5
0 7 5 4 10 -7 11 -19 13 -26 5z"/>
<path d="M3891 613 c10 -2 17 -14 17 -29 0 -24 8 -42 16 -33 2 2 1 19 -1 37
-4 25 -10 32 -27 31 -15 -1 -16 -3 -5 -6z"/>
<path d="M4075 600 c-8 -26 11 -50 39 -49 21 0 21 0 -1 9 -13 6 -23 18 -23 30
0 22 26 28 33 8 2 -7 8 -10 12 -6 12 12 -5 28 -30 28 -15 0 -26 -7 -30 -20z"/>
<path d="M4263 585 c0 -22 2 -30 4 -17 2 12 2 30 0 40 -3 9 -5 -1 -4 -23z"/>
<path d="M4335 600 c-8 -26 11 -50 39 -49 21 0 21 0 -1 9 -13 6 -21 17 -20 29
1 23 23 29 30 9 2 -7 8 -10 12 -6 12 12 -5 28 -30 28 -15 0 -26 -7 -30 -20z"/>
<path d="M4426 611 c-3 -5 1 -14 9 -21 20 -16 19 -28 -2 -33 -11 -3 -7 -5 10
-6 31 -1 36 19 11 40 -14 12 -14 14 3 20 16 7 16 8 -4 8 -12 1 -24 -3 -27 -8z"/>
<path d="M5022 583 c1 -37 1 -37 5 -5 6 42 33 44 33 2 0 -16 5 -30 10 -30 6 0
10 14 10 30 0 20 5 30 15 30 10 0 15 -10 15 -30 0 -16 5 -30 11 -30 6 0 9 14
7 33 -3 31 -4 32 -55 35 l-53 3 2 -38z"/>
<path d="M5154 606 c-12 -30 1 -51 31 -53 28 -2 28 -1 5 6 -17 5 -24 13 -22
27 5 27 12 31 22 14 5 -8 12 -11 15 -8 11 11 -5 28 -26 28 -11 0 -22 -6 -25
-14z"/>
<path d="M5231 583 l1 -38 9 33 c5 17 16 32 24 32 10 0 15 -11 16 -32 l1 -33
7 30 c3 17 13 30 21 30 8 0 18 -13 21 -30 6 -29 7 -29 8 8 l1 37 -55 0 -55 0
1 -37z"/>
<path d="M5443 614 c11 -4 17 -15 17 -35 0 -16 5 -29 11 -29 6 0 9 14 7 33 -2
26 -8 32 -28 34 -14 1 -18 0 -7 -3z"/>
<path d="M5634 606 c-12 -31 1 -51 31 -53 20 -1 23 0 8 4 -16 3 -23 12 -23 29
0 25 15 33 23 12 2 -7 8 -10 12 -6 11 11 -4 28 -26 28 -11 0 -22 -6 -25 -14z"/>
<path d="M6243 585 c0 -22 2 -30 4 -17 2 12 2 30 0 40 -3 9 -5 -1 -4 -23z"/>
<path d="M6270 584 c0 -21 4 -33 10 -29 6 3 10 17 10 31 0 15 6 24 15 24 10 0
15 -10 15 -30 0 -16 5 -30 10 -30 6 0 10 14 10 30 0 20 5 30 15 30 10 0 15
-10 15 -30 0 -16 5 -30 10 -30 11 0 13 30 4 54 -5 12 -20 16 -60 16 l-54 0 0
-36z"/>
<path d="M6410 585 c0 -19 5 -35 10 -35 6 0 10 14 10 30 0 20 5 30 15 30 10 0
15 -10 15 -31 0 -17 4 -28 10 -24 6 3 10 17 10 31 0 15 6 24 15 24 10 0 15
-10 15 -30 0 -16 5 -30 10 -30 11 0 13 30 4 54 -5 12 -20 16 -60 16 l-54 0 0
-35z"/>
<path d="M6551 588 c-1 -36 1 -38 29 -38 28 0 30 2 29 38 -1 36 -2 36 -8 7 -3
-17 -13 -30 -21 -30 -8 0 -18 13 -21 30 -6 29 -7 29 -8 -7z"/>
<path d="M6895 600 c-8 -26 11 -50 39 -49 21 0 21 0 -1 9 -25 10 -28 18 -13
40 9 13 11 13 19 0 11 -16 27 -7 16 9 -11 19 -53 13 -60 -9z"/>
<path d="M3875 571 c-3 -5 -1 -12 5 -16 5 -3 10 1 10 9 0 18 -6 21 -15 7z"/>
<path d="M5430 565 c0 -8 4 -15 10 -15 5 0 7 7 4 15 -4 8 -8 15 -10 15 -2 0
-4 -7 -4 -15z"/>
<path d="M4640 527 c0 -3 7 -13 16 -21 19 -20 151 -22 177 -3 14 10 1 11 -73
9 -61 -2 -96 1 -106 8 -8 7 -14 10 -14 7z"/>
<path d="M3280 500 c19 -12 150 -13 168 -1 8 5 -27 8 -84 9 -63 0 -93 -3 -84
-8z"/>
<path d="M1530 240 l0 -70 40 0 c22 0 40 5 40 10 0 6 -13 10 -30 10 l-30 0 0
60 c0 33 -4 60 -10 60 -6 0 -10 -30 -10 -70z"/>
<path d="M1637 303 c-16 -16 -5 -51 23 -72 34 -25 30 -45 -7 -38 -15 3 -22 0
-20 -7 7 -21 55 -19 67 4 10 18 7 25 -19 49 -38 35 -39 51 -5 51 14 0 23 4 19
10 -7 11 -48 14 -58 3z"/>
<path d="M1730 240 c0 -40 4 -70 10 -70 6 0 10 23 10 52 l0 51 23 -21 23 -22
22 22 22 22 0 -52 c0 -28 5 -52 10 -52 6 0 10 30 10 70 0 39 -4 70 -8 70 -5 0
-19 -11 -32 -25 l-24 -25 -26 25 c-14 14 -29 25 -33 25 -4 0 -7 -31 -7 -70z"/>
<path d="M4771 243 c-1 -71 0 -73 23 -73 66 0 76 80 11 91 -10 2 -22 15 -26
29 -4 16 -7 -2 -8 -47z m54 -23 c0 -16 -6 -26 -18 -28 -19 -4 -32 20 -23 44 9
25 41 13 41 -16z"/>
<path d="M4875 295 c14 -41 17 -94 6 -126 -16 -46 -4 -49 15 -4 18 44 14 93
-12 127 -14 20 -15 20 -9 3z"/>
<path d="M5000 240 l0 -70 40 0 c22 0 40 5 40 10 0 6 -13 10 -30 10 l-30 0 0
60 c0 33 -4 60 -10 60 -6 0 -10 -30 -10 -70z"/>
<path d="M5390 240 c0 -45 4 -69 10 -65 6 3 10 33 10 65 0 32 -4 62 -10 65 -6
4 -10 -20 -10 -65z"/>
<path d="M5434 296 c-3 -7 -4 -38 -2 -67 3 -53 3 -54 37 -57 42 -4 75 12 90
44 13 29 0 68 -28 83 -28 16 -91 14 -97 -3z m94 -18 c17 -17 15 -63 -2 -77 -8
-7 -27 -11 -43 -9 -26 3 -28 7 -31 51 l-3 47 33 0 c19 0 39 -5 46 -12z"/>
<path d="M5600 239 l0 -70 36 3 c45 4 65 29 47 58 -7 10 -10 26 -7 35 9 23
-14 45 -47 45 l-29 0 0 -71z m58 34 c-5 -26 -38 -29 -38 -4 0 15 6 21 21 21
14 0 19 -5 17 -17z m10 -60 c-2 -10 -13 -19 -26 -21 -17 -3 -22 2 -22 17 0 16
6 21 26 21 19 0 25 -5 22 -17z"/>
<path d="M1413 261 c8 -30 8 -52 0 -83 -14 -53 -10 -60 12 -17 20 37 15 103
-8 126 -13 13 -13 10 -4 -26z"/>
<path d="M1249 269 c-15 -29 -6 -107 15 -128 16 -15 16 -14 5 17 -7 19 -9 55
-6 83 7 54 4 60 -14 28z"/>
<path d="M4710 264 c-13 -34 -12 -74 3 -102 11 -19 13 -13 12 53 0 41 -1 75
-3 75 -1 0 -7 -12 -12 -26z"/>
<path d="M1958 265 c-2 -3 -2 -24 1 -47 4 -30 11 -44 24 -46 9 -2 17 1 17 7 0
6 -4 11 -10 11 -5 0 -10 14 -10 30 0 17 5 30 13 30 8 0 7 4 -3 10 -17 11 -24
12 -32 5z"/>
<path d="M1300 249 c0 -6 9 -8 20 -4 14 4 20 2 20 -9 0 -8 -9 -18 -21 -21 -21
-7 -23 -35 -2 -42 7 -3 9 3 6 16 -3 12 -1 21 6 21 6 0 11 -9 11 -20 0 -11 7
-20 15 -20 14 0 14 31 -1 78 -4 15 -54 16 -54 1z"/>
<path d="M2030 213 c0 -53 18 -58 22 -6 2 30 8 39 28 44 20 6 18 7 -12 6 -38
0 -38 0 -38 -44z"/>
<path d="M2104 237 c-8 -35 11 -67 41 -67 34 0 41 18 8 22 -21 2 -28 9 -29 26
-1 13 5 26 13 29 20 8 30 -6 13 -17 -12 -8 -10 -10 8 -10 38 0 24 34 -15 38
-27 3 -33 -1 -39 -21z"/>
<path d="M2210 240 c-6 -12 -8 -30 -5 -40 7 -22 47 -36 67 -24 9 6 4 10 -16
14 -40 7 -39 24 2 28 28 3 31 6 22 23 -14 25 -56 25 -70 -1z m50 0 c0 -5 -7
-10 -15 -10 -8 0 -15 5 -15 10 0 6 7 10 15 10 8 0 15 -4 15 -10z"/>
<path d="M5107 253 c-11 -11 -8 -58 5 -71 15 -15 58 -16 58 -2 0 6 -11 10 -25
10 -22 0 -25 4 -22 28 2 15 10 27 18 27 8 0 13 -6 12 -12 -2 -7 4 -13 12 -13
18 0 19 12 3 28 -13 13 -50 16 -61 5z"/>
<path d="M5190 256 c0 -15 32 -76 40 -76 6 0 10 2 10 4 0 2 7 20 15 40 8 20
11 36 6 36 -5 0 -13 -9 -16 -20 -3 -11 -10 -20 -15 -20 -5 0 -12 9 -15 20 -5
16 -25 29 -25 16z"/>
<path d="M5292 248 c-15 -15 -16 -50 0 -66 15 -15 54 -16 63 -2 3 6 -4 10 -18
10 -30 0 -40 10 -26 27 9 10 8 13 0 13 -7 0 -9 5 -6 10 10 16 38 12 31 -5 -3
-9 0 -15 10 -15 9 0 14 7 12 18 -4 21 -48 28 -66 10z"/>
<path d="M1890 220 c0 -5 9 -10 20 -10 11 0 20 5 20 10 0 6 -9 10 -20 10 -11
0 -20 -4 -20 -10z"/>
</g>
</svg>
