<svg width="1346" height="1001" xmlns="http://www.w3.org/2000/svg" xmlns:xlink="http://www.w3.org/1999/xlink" version="1.1" baseProfile="full" viewBox="0 0 1346 1001">
<rect width="1346" height="1001" x="0" y="0" fill="none"></rect>
<path d="M69.4913 951.5L1292.16 951.5" fill="transparent" stroke="#E0E6F1" class="zr10-cls-0"></path>
<path d="M69.4913 802.5L1292.16 802.5" fill="transparent" stroke="#E0E6F1" class="zr10-cls-0"></path>
<path d="M69.4913 654.5L1292.16 654.5" fill="transparent" stroke="#E0E6F1" class="zr10-cls-0"></path>
<path d="M69.4913 505.5L1292.16 505.5" fill="transparent" stroke="#E0E6F1" class="zr10-cls-0"></path>
<path d="M69.4913 357.5L1292.16 357.5" fill="transparent" stroke="#E0E6F1" class="zr10-cls-0"></path>
<path d="M69.4913 208.5L1292.16 208.5" fill="transparent" stroke="#E0E6F1" class="zr10-cls-0"></path>
<path d="M69.4913 60.5L1292.16 60.5" fill="transparent" stroke="#E0E6F1" class="zr10-cls-0"></path>
<path d="M69.4913 951.5L1292.16 951.5" fill="transparent" stroke="#6E7079" stroke-linecap="round" class="zr10-cls-0"></path>
<path d="M69.5 950.97L69.5 955.97" fill="transparent" stroke="#6E7079" class="zr10-cls-0"></path>
<path d="M110.5 950.97L110.5 955.97" fill="transparent" stroke="#6E7079" class="zr10-cls-0"></path>
<path d="M151.5 950.97L151.5 955.97" fill="transparent" stroke="#6E7079" class="zr10-cls-0"></path>
<path d="M192.5 950.97L192.5 955.97" fill="transparent" stroke="#6E7079" class="zr10-cls-0"></path>
<path d="M232.5 950.97L232.5 955.97" fill="transparent" stroke="#6E7079" class="zr10-cls-0"></path>
<path d="M273.5 950.97L273.5 955.97" fill="transparent" stroke="#6E7079" class="zr10-cls-0"></path>
<path d="M314.5 950.97L314.5 955.97" fill="transparent" stroke="#6E7079" class="zr10-cls-0"></path>
<path d="M355.5 950.97L355.5 955.97" fill="transparent" stroke="#6E7079" class="zr10-cls-0"></path>
<path d="M395.5 950.97L395.5 955.97" fill="transparent" stroke="#6E7079" class="zr10-cls-0"></path>
<path d="M436.5 950.97L436.5 955.97" fill="transparent" stroke="#6E7079" class="zr10-cls-0"></path>
<path d="M477.5 950.97L477.5 955.97" fill="transparent" stroke="#6E7079" class="zr10-cls-0"></path>
<path d="M518.5 950.97L518.5 955.97" fill="transparent" stroke="#6E7079" class="zr10-cls-0"></path>
<path d="M558.5 950.97L558.5 955.97" fill="transparent" stroke="#6E7079" class="zr10-cls-0"></path>
<path d="M599.5 950.97L599.5 955.97" fill="transparent" stroke="#6E7079" class="zr10-cls-0"></path>
<path d="M640.5 950.97L640.5 955.97" fill="transparent" stroke="#6E7079" class="zr10-cls-0"></path>
<path d="M681.5 950.97L681.5 955.97" fill="transparent" stroke="#6E7079" class="zr10-cls-0"></path>
<path d="M721.5 950.97L721.5 955.97" fill="transparent" stroke="#6E7079" class="zr10-cls-0"></path>
<path d="M762.5 950.97L762.5 955.97" fill="transparent" stroke="#6E7079" class="zr10-cls-0"></path>
<path d="M803.5 950.97L803.5 955.97" fill="transparent" stroke="#6E7079" class="zr10-cls-0"></path>
<path d="M844.5 950.97L844.5 955.97" fill="transparent" stroke="#6E7079" class="zr10-cls-0"></path>
<path d="M884.5 950.97L884.5 955.97" fill="transparent" stroke="#6E7079" class="zr10-cls-0"></path>
<path d="M925.5 950.97L925.5 955.97" fill="transparent" stroke="#6E7079" class="zr10-cls-0"></path>
<path d="M966.5 950.97L966.5 955.97" fill="transparent" stroke="#6E7079" class="zr10-cls-0"></path>
<path d="M1007.5 950.97L1007.5 955.97" fill="transparent" stroke="#6E7079" class="zr10-cls-0"></path>
<path d="M1047.5 950.97L1047.5 955.97" fill="transparent" stroke="#6E7079" class="zr10-cls-0"></path>
<path d="M1088.5 950.97L1088.5 955.97" fill="transparent" stroke="#6E7079" class="zr10-cls-0"></path>
<path d="M1129.5 950.97L1129.5 955.97" fill="transparent" stroke="#6E7079" class="zr10-cls-0"></path>
<path d="M1170.5 950.97L1170.5 955.97" fill="transparent" stroke="#6E7079" class="zr10-cls-0"></path>
<path d="M1210.5 950.97L1210.5 955.97" fill="transparent" stroke="#6E7079" class="zr10-cls-0"></path>
<path d="M1251.5 950.97L1251.5 955.97" fill="transparent" stroke="#6E7079" class="zr10-cls-0"></path>
<path d="M1292.5 950.97L1292.5 955.97" fill="transparent" stroke="#6E7079" class="zr10-cls-0"></path>
<text dominant-baseline="central" text-anchor="end" style="font-size:12px;font-family:Microsoft YaHei;" transform="translate(61.4913 950.97)" fill="#6E7079">0</text>
<text dominant-baseline="central" text-anchor="end" style="font-size:12px;font-family:Microsoft YaHei;" transform="translate(61.4913 802.475)" fill="#6E7079">20</text>
<text dominant-baseline="central" text-anchor="end" style="font-size:12px;font-family:Microsoft YaHei;" transform="translate(61.4913 653.98)" fill="#6E7079">40</text>
<text dominant-baseline="central" text-anchor="end" style="font-size:12px;font-family:Microsoft YaHei;" transform="translate(61.4913 505.485)" fill="#6E7079">60</text>
<text dominant-baseline="central" text-anchor="end" style="font-size:12px;font-family:Microsoft YaHei;" transform="translate(61.4913 356.99)" fill="#6E7079">80</text>
<text dominant-baseline="central" text-anchor="end" style="font-size:12px;font-family:Microsoft YaHei;" transform="translate(61.4913 208.495)" fill="#6E7079">100</text>
<text dominant-baseline="central" text-anchor="end" style="font-size:12px;font-family:Microsoft YaHei;" transform="translate(61.4913 60)" fill="#6E7079">120</text>
<text dominant-baseline="central" text-anchor="middle" style="font-size:12px;font-family:Microsoft YaHei;" y="6" transform="translate(477.0476 958.97)" fill="#6E7079">100</text>
<text dominant-baseline="central" text-anchor="middle" style="font-size:12px;font-family:Microsoft YaHei;" y="6" transform="translate(884.6038 958.97)" fill="#6E7079">200</text>
<text dominant-baseline="central" text-anchor="middle" style="font-size:12px;font-family:Microsoft YaHei;" y="6" transform="translate(1292.16 958.97)" fill="#6E7079">300</text>
<g clip-path="url(#zr10-c0)">
<path d="M69.4913 668.8295L110.2469 876.7225L151.0026 839.5988L191.7582 876.7225L232.5138 861.873L273.2694 832.174L314.0251 839.5988L354.7807 861.873L395.5363 876.7225L436.2919 817.3245L477.0475 847.0235L517.8032 839.5988L558.5588 869.2977L599.3144 832.174L640.0701 832.174L680.8257 869.2977L721.5813 839.5988L762.3369 832.174L803.0925 876.7225L843.8481 809.8998L884.6038 869.2977L925.3594 876.7225L966.1151 839.5988L1006.8707 861.873L1047.6262 839.5988L1088.3818 839.5988L1129.1375 847.0235L1169.8932 839.5988L1210.6488 817.3245L1251.4044 861.873" fill="transparent" stroke="rgb(84,112,198)" stroke-width="2" stroke-linejoin="bevel" class="zr10-cls-2"></path>
</g>
<g clip-path="url(#zr10-c1)">
<path d="M69.4913 111.0823L110.2469 691.772L151.0026 597.1064L191.7582 705.4335L232.5138 648.9312L273.2694 629.998L314.0251 583.8161L354.7807 727.485L395.5363 711.5961L436.2919 590.6469L477.0475 614.6288L517.8032 638.5365L558.5588 723.8469L599.3144 630.889L640.0701 581.366L680.8257 686.7231L721.5813 627.9933L762.3369 538.5251L803.0925 729.7867L843.8481 544.8362L884.6038 701.3499L925.3594 710.8536L966.1151 583.9646L1006.8707 651.5298L1047.6262 578.5446L1088.3818 582.6282L1129.1375 589.2362L1169.8932 567.3332L1210.6488 510.4596L1251.4044 647.0007" fill="transparent" stroke="rgb(145,204,117)" stroke-width="2" stroke-linejoin="bevel" class="zr10-cls-2"></path>
</g>
<path d="M1 0A1 1 0 1 1 1 -0.0001" transform="matrix(2,0,0,2,69.4913,668.8295)" fill="rgb(255,255,255)" stroke="#5470c6" class="zr10-cls-3"></path>
<path d="M1 0A1 1 0 1 1 1 -0.0001" transform="matrix(2,0,0,2,110.2469,876.7225)" fill="rgb(255,255,255)" stroke="#5470c6" class="zr10-cls-3"></path>
<path d="M1 0A1 1 0 1 1 1 -0.0001" transform="matrix(2,0,0,2,151.0026,839.5988)" fill="rgb(255,255,255)" stroke="#5470c6" class="zr10-cls-3"></path>
<path d="M1 0A1 1 0 1 1 1 -0.0001" transform="matrix(2,0,0,2,191.7582,876.7225)" fill="rgb(255,255,255)" stroke="#5470c6" class="zr10-cls-3"></path>
<path d="M1 0A1 1 0 1 1 1 -0.0001" transform="matrix(2,0,0,2,232.5138,861.873)" fill="rgb(255,255,255)" stroke="#5470c6" class="zr10-cls-3"></path>
<path d="M1 0A1 1 0 1 1 1 -0.0001" transform="matrix(2,0,0,2,273.2694,832.174)" fill="rgb(255,255,255)" stroke="#5470c6" class="zr10-cls-3"></path>
<path d="M1 0A1 1 0 1 1 1 -0.0001" transform="matrix(2,0,0,2,314.0251,839.5988)" fill="rgb(255,255,255)" stroke="#5470c6" class="zr10-cls-3"></path>
<path d="M1 0A1 1 0 1 1 1 -0.0001" transform="matrix(2,0,0,2,354.7807,861.873)" fill="rgb(255,255,255)" stroke="#5470c6" class="zr10-cls-3"></path>
<path d="M1 0A1 1 0 1 1 1 -0.0001" transform="matrix(2,0,0,2,395.5363,876.7225)" fill="rgb(255,255,255)" stroke="#5470c6" class="zr10-cls-3"></path>
<path d="M1 0A1 1 0 1 1 1 -0.0001" transform="matrix(2,0,0,2,436.2919,817.3245)" fill="rgb(255,255,255)" stroke="#5470c6" class="zr10-cls-3"></path>
<path d="M1 0A1 1 0 1 1 1 -0.0001" transform="matrix(2,0,0,2,477.0475,847.0235)" fill="rgb(255,255,255)" stroke="#5470c6" class="zr10-cls-3"></path>
<path d="M1 0A1 1 0 1 1 1 -0.0001" transform="matrix(2,0,0,2,517.8032,839.5988)" fill="rgb(255,255,255)" stroke="#5470c6" class="zr10-cls-3"></path>
<path d="M1 0A1 1 0 1 1 1 -0.0001" transform="matrix(2,0,0,2,558.5588,869.2977)" fill="rgb(255,255,255)" stroke="#5470c6" class="zr10-cls-3"></path>
<path d="M1 0A1 1 0 1 1 1 -0.0001" transform="matrix(2,0,0,2,599.3144,832.174)" fill="rgb(255,255,255)" stroke="#5470c6" class="zr10-cls-3"></path>
<path d="M1 0A1 1 0 1 1 1 -0.0001" transform="matrix(2,0,0,2,640.0701,832.174)" fill="rgb(255,255,255)" stroke="#5470c6" class="zr10-cls-3"></path>
<path d="M1 0A1 1 0 1 1 1 -0.0001" transform="matrix(2,0,0,2,680.8257,869.2977)" fill="rgb(255,255,255)" stroke="#5470c6" class="zr10-cls-3"></path>
<path d="M1 0A1 1 0 1 1 1 -0.0001" transform="matrix(2,0,0,2,721.5813,839.5988)" fill="rgb(255,255,255)" stroke="#5470c6" class="zr10-cls-3"></path>
<path d="M1 0A1 1 0 1 1 1 -0.0001" transform="matrix(2,0,0,2,762.3369,832.174)" fill="rgb(255,255,255)" stroke="#5470c6" class="zr10-cls-3"></path>
<path d="M1 0A1 1 0 1 1 1 -0.0001" transform="matrix(2,0,0,2,803.0925,876.7225)" fill="rgb(255,255,255)" stroke="#5470c6" class="zr10-cls-3"></path>
<path d="M1 0A1 1 0 1 1 1 -0.0001" transform="matrix(2,0,0,2,843.8481,809.8998)" fill="rgb(255,255,255)" stroke="#5470c6" class="zr10-cls-3"></path>
<path d="M1 0A1 1 0 1 1 1 -0.0001" transform="matrix(2,0,0,2,884.6038,869.2977)" fill="#fff" stroke="#5470c6" class="zr10-cls-3"></path>
<path d="M1 0A1 1 0 1 1 1 -0.0001" transform="matrix(2,0,0,2,925.3594,876.7225)" fill="#fff" stroke="#5470c6" class="zr10-cls-3"></path>
<path d="M1 0A1 1 0 1 1 1 -0.0001" transform="matrix(2,0,0,2,966.1151,839.5988)" fill="#fff" stroke="#5470c6" class="zr10-cls-3"></path>
<path d="M1 0A1 1 0 1 1 1 -0.0001" transform="matrix(2,0,0,2,1006.8707,861.873)" fill="#fff" stroke="#5470c6" class="zr10-cls-3"></path>
<path d="M1 0A1 1 0 1 1 1 -0.0001" transform="matrix(2,0,0,2,1047.6262,839.5988)" fill="#fff" stroke="#5470c6" class="zr10-cls-3"></path>
<path d="M1 0A1 1 0 1 1 1 -0.0001" transform="matrix(2,0,0,2,1088.3818,839.5988)" fill="#fff" stroke="#5470c6" class="zr10-cls-3"></path>
<path d="M1 0A1 1 0 1 1 1 -0.0001" transform="matrix(2,0,0,2,1129.1375,847.0235)" fill="#fff" stroke="#5470c6" class="zr10-cls-3"></path>
<path d="M1 0A1 1 0 1 1 1 -0.0001" transform="matrix(2,0,0,2,1169.8932,839.5988)" fill="#fff" stroke="#5470c6" class="zr10-cls-3"></path>
<path d="M1 0A1 1 0 1 1 1 -0.0001" transform="matrix(2,0,0,2,1210.6488,817.3245)" fill="#fff" stroke="#5470c6" class="zr10-cls-3"></path>
<path d="M1 0A1 1 0 1 1 1 -0.0001" transform="matrix(2,0,0,2,1251.4044,861.873)" fill="#fff" stroke="#5470c6" class="zr10-cls-3"></path>
<path d="M1 0A1 1 0 1 1 1 -0.0001" transform="matrix(2,0,0,2,69.4913,111.0823)" fill="rgb(255,255,255)" stroke="#91cc75" class="zr10-cls-3"></path>
<path d="M1 0A1 1 0 1 1 1 -0.0001" transform="matrix(2,0,0,2,110.2469,691.772)" fill="rgb(255,255,255)" stroke="#91cc75" class="zr10-cls-3"></path>
<path d="M1 0A1 1 0 1 1 1 -0.0001" transform="matrix(2,0,0,2,151.0026,597.1064)" fill="rgb(255,255,255)" stroke="#91cc75" class="zr10-cls-3"></path>
<path d="M1 0A1 1 0 1 1 1 -0.0001" transform="matrix(2,0,0,2,191.7582,705.4335)" fill="rgb(255,255,255)" stroke="#91cc75" class="zr10-cls-3"></path>
<path d="M1 0A1 1 0 1 1 1 -0.0001" transform="matrix(2,0,0,2,232.5138,648.9312)" fill="rgb(255,255,255)" stroke="#91cc75" class="zr10-cls-3"></path>
<path d="M1 0A1 1 0 1 1 1 -0.0001" transform="matrix(2,0,0,2,273.2694,629.998)" fill="rgb(255,255,255)" stroke="#91cc75" class="zr10-cls-3"></path>
<path d="M1 0A1 1 0 1 1 1 -0.0001" transform="matrix(2,0,0,2,314.0251,583.8161)" fill="rgb(255,255,255)" stroke="#91cc75" class="zr10-cls-3"></path>
<path d="M1 0A1 1 0 1 1 1 -0.0001" transform="matrix(2,0,0,2,354.7807,727.485)" fill="rgb(255,255,255)" stroke="#91cc75" class="zr10-cls-3"></path>
<path d="M1 0A1 1 0 1 1 1 -0.0001" transform="matrix(2,0,0,2,395.5363,711.5961)" fill="rgb(255,255,255)" stroke="#91cc75" class="zr10-cls-3"></path>
<path d="M1 0A1 1 0 1 1 1 -0.0001" transform="matrix(2,0,0,2,436.2919,590.6469)" fill="rgb(255,255,255)" stroke="#91cc75" class="zr10-cls-3"></path>
<path d="M1 0A1 1 0 1 1 1 -0.0001" transform="matrix(2,0,0,2,477.0475,614.6288)" fill="rgb(255,255,255)" stroke="#91cc75" class="zr10-cls-3"></path>
<path d="M1 0A1 1 0 1 1 1 -0.0001" transform="matrix(2,0,0,2,517.8032,638.5365)" fill="rgb(255,255,255)" stroke="#91cc75" class="zr10-cls-3"></path>
<path d="M1 0A1 1 0 1 1 1 -0.0001" transform="matrix(2,0,0,2,558.5588,723.8469)" fill="rgb(255,255,255)" stroke="#91cc75" class="zr10-cls-3"></path>
<path d="M1 0A1 1 0 1 1 1 -0.0001" transform="matrix(2,0,0,2,599.3144,630.889)" fill="rgb(255,255,255)" stroke="#91cc75" class="zr10-cls-3"></path>
<path d="M1 0A1 1 0 1 1 1 -0.0001" transform="matrix(2,0,0,2,640.0701,581.366)" fill="rgb(255,255,255)" stroke="#91cc75" class="zr10-cls-3"></path>
<path d="M1 0A1 1 0 1 1 1 -0.0001" transform="matrix(2,0,0,2,680.8257,686.7231)" fill="rgb(255,255,255)" stroke="#91cc75" class="zr10-cls-3"></path>
<path d="M1 0A1 1 0 1 1 1 -0.0001" transform="matrix(2,0,0,2,721.5813,627.9933)" fill="rgb(255,255,255)" stroke="#91cc75" class="zr10-cls-3"></path>
<path d="M1 0A1 1 0 1 1 1 -0.0001" transform="matrix(2,0,0,2,762.3369,538.5251)" fill="rgb(255,255,255)" stroke="#91cc75" class="zr10-cls-3"></path>
<path d="M1 0A1 1 0 1 1 1 -0.0001" transform="matrix(2,0,0,2,803.0925,729.7867)" fill="rgb(255,255,255)" stroke="#91cc75" class="zr10-cls-3"></path>
<path d="M1 0A1 1 0 1 1 1 -0.0001" transform="matrix(2,0,0,2,843.8481,544.8362)" fill="rgb(255,255,255)" stroke="#91cc75" class="zr10-cls-3"></path>
<path d="M1 0A1 1 0 1 1 1 -0.0001" transform="matrix(2,0,0,2,884.6038,701.3499)" fill="#fff" stroke="#91cc75" class="zr10-cls-3"></path>
<path d="M1 0A1 1 0 1 1 1 -0.0001" transform="matrix(2,0,0,2,925.3594,710.8536)" fill="#fff" stroke="#91cc75" class="zr10-cls-3"></path>
<path d="M1 0A1 1 0 1 1 1 -0.0001" transform="matrix(2,0,0,2,966.1151,583.9646)" fill="#fff" stroke="#91cc75" class="zr10-cls-3"></path>
<path d="M1 0A1 1 0 1 1 1 -0.0001" transform="matrix(2,0,0,2,1006.8707,651.5298)" fill="#fff" stroke="#91cc75" class="zr10-cls-3"></path>
<path d="M1 0A1 1 0 1 1 1 -0.0001" transform="matrix(2,0,0,2,1047.6262,578.5446)" fill="#fff" stroke="#91cc75" class="zr10-cls-3"></path>
<path d="M1 0A1 1 0 1 1 1 -0.0001" transform="matrix(2,0,0,2,1088.3818,582.6282)" fill="#fff" stroke="#91cc75" class="zr10-cls-3"></path>
<path d="M1 0A1 1 0 1 1 1 -0.0001" transform="matrix(2,0,0,2,1129.1375,589.2362)" fill="#fff" stroke="#91cc75" class="zr10-cls-3"></path>
<path d="M1 0A1 1 0 1 1 1 -0.0001" transform="matrix(2,0,0,2,1169.8932,567.3332)" fill="#fff" stroke="#91cc75" class="zr10-cls-3"></path>
<path d="M1 0A1 1 0 1 1 1 -0.0001" transform="matrix(2,0,0,2,1210.6488,510.4596)" fill="#fff" stroke="#91cc75" class="zr10-cls-3"></path>
<path d="M1 0A1 1 0 1 1 1 -0.0001" transform="matrix(2,0,0,2,1251.4044,647.0007)" fill="#fff" stroke="#91cc75" class="zr10-cls-3"></path>
<path d="M-5 -5l187.9902 0l0 23.2l-187.9902 0Z" transform="translate(584.0049 5)" fill="rgb(0,0,0)" fill-opacity="0" stroke="#ccc" stroke-width="0" class="zr10-cls-0"></path>
<path d="M0 7L25 7" transform="translate(585.0049 4.6)" fill="#000" stroke="#5470c6" stroke-width="2" stroke-linecap="butt" stroke-miterlimit="10" class="zr10-cls-0"></path>
<path d="M18.1 7A5.6 5.6 0 1 1 18.1 6.9994" transform="translate(585.0049 4.6)" fill="#fff" stroke="#5470c6" stroke-width="2" stroke-linecap="butt" stroke-miterlimit="10" class="zr10-cls-0"></path>
<path d="M18.1 7A5.6 5.6 0 1 1 18.1 6.9994" transform="translate(585.0049 4.6)" fill="url(#zr10-p0)" stroke="#5470c6" stroke-width="2" stroke-linecap="butt" stroke-miterlimit="10" class="zr10-cls-0"></path>
<text dominant-baseline="central" text-anchor="start" style="font-size:12px;font-family:Microsoft YaHei;" x="30" y="7" transform="translate(585.0049 4.6)" fill="#333">NVMevirt</text>
<path d="M-1 0.4l86.3242 0l0 13.2l-86.3242 0Z" transform="translate(585.0049 4.6)" fill="transparent" class="zr10-cls-4"></path>
<path d="M0 7L25 7" transform="translate(681.3291 4.6)" fill="#000" stroke="#91cc75" stroke-width="2" stroke-linecap="butt" stroke-miterlimit="10" class="zr10-cls-0"></path>
<path d="M18.1 7A5.6 5.6 0 1 1 18.1 6.9994" transform="translate(681.3291 4.6)" fill="#fff" stroke="#91cc75" stroke-width="2" stroke-linecap="butt" stroke-miterlimit="10" class="zr10-cls-0"></path>
<path d="M18.1 7A5.6 5.6 0 1 1 18.1 6.9994" transform="translate(681.3291 4.6)" fill="url(#zr10-p1)" stroke="#91cc75" stroke-width="2" stroke-linecap="butt" stroke-miterlimit="10" class="zr10-cls-0"></path>
<text dominant-baseline="central" text-anchor="start" style="font-size:12px;font-family:Microsoft YaHei;" xml:space="preserve" x="30" y="7" transform="translate(681.3291 4.6)" fill="#333">ZNS SSD</text>
<path d="M-1 0.4l81.666 0l0 13.2l-81.666 0Z" transform="translate(681.3291 4.6)" fill="transparent" class="zr10-cls-4"></path>
<path d="M-5 -5l144.6484 0l0 28l-144.6484 0Z" transform="translate(5 5)" fill="rgb(0,0,0)" fill-opacity="0" stroke="#ccc" stroke-width="0" class="zr10-cls-0"></path>
<text dominant-baseline="central" text-anchor="start" style="font-size:18px;font-family:Microsoft YaHei;font-weight:bold;" xml:space="preserve" y="9" transform="translate(5 5)" fill="#464646">吞吐量(K IOPS) </text>
<defs >
<clipPath id="zr10-c0">
<path d="M68 59l1226 0l0 892.97l-1226 0Z" fill="#000" class="zr10-cls-1"></path>
</clipPath>
<clipPath id="zr10-c1">
<path d="M68 59l1226 0l0 892.97l-1226 0Z" fill="#000" class="zr10-cls-1"></path>
</clipPath>
<pattern width="1" height="7" patternUnits="userSpaceOnUse" patternTransform="rotate(29.999999999999996)" id="zr10-p0">
<g >
<path d="M0 -7l1 0l0 2l-1 0Z" fill="rgb(0,0,0)" fill-opacity="0.2"></path>
<path d="M1 -7l1 0l0 2l-1 0Z" fill="rgb(0,0,0)" fill-opacity="0.2"></path>
<path d="M0 0l1 0l0 2l-1 0Z" fill="rgb(0,0,0)" fill-opacity="0.2"></path>
<path d="M1 0l1 0l0 2l-1 0Z" fill="rgb(0,0,0)" fill-opacity="0.2"></path>
</g>
</pattern>
<pattern width="16" height="12" patternUnits="userSpaceOnUse" id="zr10-p1">
<g >
<path d="M6.4 -3A2.4 2.4 0 1 1 6.4 -3.0002" fill="rgb(0,0,0)" fill-opacity="0.2"></path>
<path d="M22.4 -3A2.4 2.4 0 1 1 22.4 -3.0002" fill="rgb(0,0,0)" fill-opacity="0.2"></path>
<path d="M0 3A0 0 0 1 1 0 3" fill="rgb(0,0,0)" fill-opacity="0.2"></path>
<path d="M14.4 3A2.4 2.4 0 1 1 14.4 2.9998" fill="rgb(0,0,0)" fill-opacity="0.2"></path>
<path d="M16 3A0 0 0 1 1 16 3" fill="rgb(0,0,0)" fill-opacity="0.2"></path>
<path d="M30.4 3A2.4 2.4 0 1 1 30.4 2.9998" fill="rgb(0,0,0)" fill-opacity="0.2"></path>
<path d="M6.4 9A2.4 2.4 0 1 1 6.4 8.9998" fill="rgb(0,0,0)" fill-opacity="0.2"></path>
<path d="M22.4 9A2.4 2.4 0 1 1 22.4 8.9998" fill="rgb(0,0,0)" fill-opacity="0.2"></path>
</g>
</pattern>
</defs>
<style ><![CDATA[
.zr10-cls-0:hover {
pointer-events:none;
}
.zr10-cls-1:hover {
cursor:pointer;
fill:rgba(0,0,0,1);
}
.zr10-cls-2:hover {
cursor:pointer;
}
.zr10-cls-3:hover {
cursor:pointer;
fill:rgba(255,255,255,1);
}
.zr10-cls-4:hover {
cursor:pointer;
fill:rgba(0,0,0,0);
}

]]>

</style>
</svg>