<svg width="1346" height="1001" xmlns="http://www.w3.org/2000/svg" xmlns:xlink="http://www.w3.org/1999/xlink" version="1.1" baseProfile="full" viewBox="0 0 1346 1001">
<rect width="1346" height="1001" x="0" y="0" fill="none"></rect>
<path d="M62.4542 951.5L1292.16 951.5" fill="transparent" stroke="#E0E6F1" class="zr11-cls-5"></path>
<path d="M62.4542 728.5L1292.16 728.5" fill="transparent" stroke="#E0E6F1" class="zr11-cls-5"></path>
<path d="M62.4542 505.5L1292.16 505.5" fill="transparent" stroke="#E0E6F1" class="zr11-cls-5"></path>
<path d="M62.4542 282.5L1292.16 282.5" fill="transparent" stroke="#E0E6F1" class="zr11-cls-5"></path>
<path d="M62.4542 60.5L1292.16 60.5" fill="transparent" stroke="#E0E6F1" class="zr11-cls-5"></path>
<path d="M62.4542 951.5L1292.16 951.5" fill="transparent" stroke="#6E7079" stroke-linecap="round" class="zr11-cls-5"></path>
<path d="M62.5 950.97L62.5 955.97" fill="transparent" stroke="#6E7079" class="zr11-cls-5"></path>
<path d="M103.5 950.97L103.5 955.97" fill="transparent" stroke="#6E7079" class="zr11-cls-5"></path>
<path d="M144.5 950.97L144.5 955.97" fill="transparent" stroke="#6E7079" class="zr11-cls-5"></path>
<path d="M185.5 950.97L185.5 955.97" fill="transparent" stroke="#6E7079" class="zr11-cls-5"></path>
<path d="M226.5 950.97L226.5 955.97" fill="transparent" stroke="#6E7079" class="zr11-cls-5"></path>
<path d="M267.5 950.97L267.5 955.97" fill="transparent" stroke="#6E7079" class="zr11-cls-5"></path>
<path d="M308.5 950.97L308.5 955.97" fill="transparent" stroke="#6E7079" class="zr11-cls-5"></path>
<path d="M349.5 950.97L349.5 955.97" fill="transparent" stroke="#6E7079" class="zr11-cls-5"></path>
<path d="M390.5 950.97L390.5 955.97" fill="transparent" stroke="#6E7079" class="zr11-cls-5"></path>
<path d="M431.5 950.97L431.5 955.97" fill="transparent" stroke="#6E7079" class="zr11-cls-5"></path>
<path d="M472.5 950.97L472.5 955.97" fill="transparent" stroke="#6E7079" class="zr11-cls-5"></path>
<path d="M513.5 950.97L513.5 955.97" fill="transparent" stroke="#6E7079" class="zr11-cls-5"></path>
<path d="M554.5 950.97L554.5 955.97" fill="transparent" stroke="#6E7079" class="zr11-cls-5"></path>
<path d="M595.5 950.97L595.5 955.97" fill="transparent" stroke="#6E7079" class="zr11-cls-5"></path>
<path d="M636.5 950.97L636.5 955.97" fill="transparent" stroke="#6E7079" class="zr11-cls-5"></path>
<path d="M677.5 950.97L677.5 955.97" fill="transparent" stroke="#6E7079" class="zr11-cls-5"></path>
<path d="M718.5 950.97L718.5 955.97" fill="transparent" stroke="#6E7079" class="zr11-cls-5"></path>
<path d="M759.5 950.97L759.5 955.97" fill="transparent" stroke="#6E7079" class="zr11-cls-5"></path>
<path d="M800.5 950.97L800.5 955.97" fill="transparent" stroke="#6E7079" class="zr11-cls-5"></path>
<path d="M841.5 950.97L841.5 955.97" fill="transparent" stroke="#6E7079" class="zr11-cls-5"></path>
<path d="M882.5 950.97L882.5 955.97" fill="transparent" stroke="#6E7079" class="zr11-cls-5"></path>
<path d="M923.5 950.97L923.5 955.97" fill="transparent" stroke="#6E7079" class="zr11-cls-5"></path>
<path d="M964.5 950.97L964.5 955.97" fill="transparent" stroke="#6E7079" class="zr11-cls-5"></path>
<path d="M1005.5 950.97L1005.5 955.97" fill="transparent" stroke="#6E7079" class="zr11-cls-5"></path>
<path d="M1046.5 950.97L1046.5 955.97" fill="transparent" stroke="#6E7079" class="zr11-cls-5"></path>
<path d="M1087.5 950.97L1087.5 955.97" fill="transparent" stroke="#6E7079" class="zr11-cls-5"></path>
<path d="M1128.5 950.97L1128.5 955.97" fill="transparent" stroke="#6E7079" class="zr11-cls-5"></path>
<path d="M1169.5 950.97L1169.5 955.97" fill="transparent" stroke="#6E7079" class="zr11-cls-5"></path>
<path d="M1210.5 950.97L1210.5 955.97" fill="transparent" stroke="#6E7079" class="zr11-cls-5"></path>
<path d="M1251.5 950.97L1251.5 955.97" fill="transparent" stroke="#6E7079" class="zr11-cls-5"></path>
<path d="M1292.5 950.97L1292.5 955.97" fill="transparent" stroke="#6E7079" class="zr11-cls-5"></path>
<text dominant-baseline="central" text-anchor="end" style="font-size:12px;font-family:Microsoft YaHei;" transform="translate(54.4542 950.97)" fill="#6E7079">0</text>
<text dominant-baseline="central" text-anchor="end" style="font-size:12px;font-family:Microsoft YaHei;" transform="translate(54.4542 728.2275)" fill="#6E7079">20</text>
<text dominant-baseline="central" text-anchor="end" style="font-size:12px;font-family:Microsoft YaHei;" transform="translate(54.4542 505.485)" fill="#6E7079">40</text>
<text dominant-baseline="central" text-anchor="end" style="font-size:12px;font-family:Microsoft YaHei;" transform="translate(54.4542 282.7425)" fill="#6E7079">60</text>
<text dominant-baseline="central" text-anchor="end" style="font-size:12px;font-family:Microsoft YaHei;" transform="translate(54.4542 60)" fill="#6E7079">80</text>
<text dominant-baseline="central" text-anchor="middle" style="font-size:12px;font-family:Microsoft YaHei;" y="6" transform="translate(472.3561 958.97)" fill="#6E7079">100</text>
<text dominant-baseline="central" text-anchor="middle" style="font-size:12px;font-family:Microsoft YaHei;" y="6" transform="translate(882.2581 958.97)" fill="#6E7079">200</text>
<text dominant-baseline="central" text-anchor="middle" style="font-size:12px;font-family:Microsoft YaHei;" y="6" transform="translate(1292.16 958.97)" fill="#6E7079">300</text>
<g clip-path="url(#zr11-c0)">
<path d="M62.4542 527.7593L103.4444 839.5988L144.4346 783.9131L185.4248 839.5988L226.415 817.3245L267.4052 772.776L308.3954 783.9131L349.3856 817.3245L390.3758 839.5988L431.366 750.5018L472.3561 795.0502L513.3463 783.9131L554.3365 828.4616L595.3267 772.776L636.3169 772.776L677.3071 828.4616L718.2973 783.9131L759.2875 772.776L800.2777 839.5988L841.2679 739.3646L882.2581 828.4616L923.2483 839.5988L964.2385 783.9131L1005.2286 817.3245L1046.2189 783.9131L1087.209 783.9131L1128.1992 795.0502L1169.1895 783.9131L1210.1796 750.5018L1251.1698 817.3245" fill="transparent" stroke="rgb(84,112,198)" stroke-width="2" stroke-linejoin="bevel" class="zr11-cls-7"></path>
</g>
<g clip-path="url(#zr11-c1)">
<path d="M62.4542 82.2742L103.4444 673.5442L144.4346 587.2315L185.4248 694.0365L226.415 631.5573L267.4052 647.7061L308.3954 567.296L349.3856 749.3881L390.3758 703.2803L431.366 610.9536L472.3561 602.378L513.3463 649.3766L554.3365 732.7937L595.3267 649.0425L636.3169 574.7579L677.3071 677.1081L718.2973 633.562L759.2875 510.4967L800.2777 730.5663L841.2679 553.3746L882.2581 699.0482L923.2483 702.1666L964.2385 567.5188L1005.2286 635.4553L1046.2189 559.3887L1087.209 565.5141L1128.1992 564.289L1169.1895 542.5717L1210.1796 490.6726L1251.1698 628.6616" fill="transparent" stroke="rgb(145,204,117)" stroke-width="2" stroke-linejoin="bevel" class="zr11-cls-7"></path>
</g>
<path d="M1 0A1 1 0 1 1 1 -0.0001" transform="matrix(2,0,0,2,62.4542,527.7593)" fill="rgb(255,255,255)" stroke="#5470c6" class="zr11-cls-8"></path>
<path d="M1 0A1 1 0 1 1 1 -0.0001" transform="matrix(2,0,0,2,103.4444,839.5988)" fill="rgb(255,255,255)" stroke="#5470c6" class="zr11-cls-8"></path>
<path d="M1 0A1 1 0 1 1 1 -0.0001" transform="matrix(2,0,0,2,144.4346,783.9131)" fill="rgb(255,255,255)" stroke="#5470c6" class="zr11-cls-8"></path>
<path d="M1 0A1 1 0 1 1 1 -0.0001" transform="matrix(2,0,0,2,185.4248,839.5988)" fill="rgb(255,255,255)" stroke="#5470c6" class="zr11-cls-8"></path>
<path d="M1 0A1 1 0 1 1 1 -0.0001" transform="matrix(2,0,0,2,226.415,817.3245)" fill="rgb(255,255,255)" stroke="#5470c6" class="zr11-cls-8"></path>
<path d="M1 0A1 1 0 1 1 1 -0.0001" transform="matrix(2,0,0,2,267.4052,772.776)" fill="rgb(255,255,255)" stroke="#5470c6" class="zr11-cls-8"></path>
<path d="M1 0A1 1 0 1 1 1 -0.0001" transform="matrix(2,0,0,2,308.3954,783.9131)" fill="rgb(255,255,255)" stroke="#5470c6" class="zr11-cls-8"></path>
<path d="M1 0A1 1 0 1 1 1 -0.0001" transform="matrix(2,0,0,2,349.3856,817.3245)" fill="rgb(255,255,255)" stroke="#5470c6" class="zr11-cls-8"></path>
<path d="M1 0A1 1 0 1 1 1 -0.0001" transform="matrix(2,0,0,2,390.3758,839.5988)" fill="rgb(255,255,255)" stroke="#5470c6" class="zr11-cls-8"></path>
<path d="M1 0A1 1 0 1 1 1 -0.0001" transform="matrix(2,0,0,2,431.366,750.5018)" fill="rgb(255,255,255)" stroke="#5470c6" class="zr11-cls-8"></path>
<path d="M1 0A1 1 0 1 1 1 -0.0001" transform="matrix(2,0,0,2,472.3561,795.0502)" fill="rgb(255,255,255)" stroke="#5470c6" class="zr11-cls-8"></path>
<path d="M1 0A1 1 0 1 1 1 -0.0001" transform="matrix(2,0,0,2,513.3463,783.9131)" fill="rgb(255,255,255)" stroke="#5470c6" class="zr11-cls-8"></path>
<path d="M1 0A1 1 0 1 1 1 -0.0001" transform="matrix(2,0,0,2,554.3365,828.4616)" fill="rgb(255,255,255)" stroke="#5470c6" class="zr11-cls-8"></path>
<path d="M1 0A1 1 0 1 1 1 -0.0001" transform="matrix(2,0,0,2,595.3267,772.776)" fill="rgb(255,255,255)" stroke="#5470c6" class="zr11-cls-8"></path>
<path d="M1 0A1 1 0 1 1 1 -0.0001" transform="matrix(2,0,0,2,636.3169,772.776)" fill="rgb(255,255,255)" stroke="#5470c6" class="zr11-cls-8"></path>
<path d="M1 0A1 1 0 1 1 1 -0.0001" transform="matrix(2,0,0,2,677.3071,828.4616)" fill="#fff" stroke="#5470c6" class="zr11-cls-8"></path>
<path d="M1 0A1 1 0 1 1 1 -0.0001" transform="matrix(2,0,0,2,718.2973,783.9131)" fill="rgb(255,255,255)" stroke="#5470c6" class="zr11-cls-8"></path>
<path d="M1 0A1 1 0 1 1 1 -0.0001" transform="matrix(2,0,0,2,759.2875,772.776)" fill="rgb(255,255,255)" stroke="#5470c6" class="zr11-cls-8"></path>
<path d="M1 0A1 1 0 1 1 1 -0.0001" transform="matrix(2,0,0,2,800.2777,839.5988)" fill="rgb(255,255,255)" stroke="#5470c6" class="zr11-cls-8"></path>
<path d="M1 0A1 1 0 1 1 1 -0.0001" transform="matrix(2,0,0,2,841.2679,739.3646)" fill="rgb(255,255,255)" stroke="#5470c6" class="zr11-cls-8"></path>
<path d="M1 0A1 1 0 1 1 1 -0.0001" transform="matrix(2,0,0,2,882.2581,828.4616)" fill="rgb(255,255,255)" stroke="#5470c6" class="zr11-cls-8"></path>
<path d="M1 0A1 1 0 1 1 1 -0.0001" transform="matrix(2,0,0,2,923.2483,839.5988)" fill="rgb(255,255,255)" stroke="#5470c6" class="zr11-cls-8"></path>
<path d="M1 0A1 1 0 1 1 1 -0.0001" transform="matrix(2,0,0,2,964.2385,783.9131)" fill="rgb(255,255,255)" stroke="#5470c6" class="zr11-cls-8"></path>
<path d="M1 0A1 1 0 1 1 1 -0.0001" transform="matrix(2,0,0,2,1005.2286,817.3245)" fill="rgb(255,255,255)" stroke="#5470c6" class="zr11-cls-8"></path>
<path d="M1 0A1 1 0 1 1 1 -0.0001" transform="matrix(2,0,0,2,1046.2189,783.9131)" fill="rgb(255,255,255)" stroke="#5470c6" class="zr11-cls-8"></path>
<path d="M1 0A1 1 0 1 1 1 -0.0001" transform="matrix(2,0,0,2,1087.209,783.9131)" fill="rgb(255,255,255)" stroke="#5470c6" class="zr11-cls-8"></path>
<path d="M1 0A1 1 0 1 1 1 -0.0001" transform="matrix(2,0,0,2,1128.1992,795.0502)" fill="rgb(255,255,255)" stroke="#5470c6" class="zr11-cls-8"></path>
<path d="M1 0A1 1 0 1 1 1 -0.0001" transform="matrix(2,0,0,2,1169.1895,783.9131)" fill="rgb(255,255,255)" stroke="#5470c6" class="zr11-cls-8"></path>
<path d="M1 0A1 1 0 1 1 1 -0.0001" transform="matrix(2,0,0,2,1210.1796,750.5018)" fill="#fff" stroke="#5470c6" class="zr11-cls-8"></path>
<path d="M1 0A1 1 0 1 1 1 -0.0001" transform="matrix(2,0,0,2,1251.1698,817.3245)" fill="#fff" stroke="#5470c6" class="zr11-cls-8"></path>
<path d="M1 0A1 1 0 1 1 1 -0.0001" transform="matrix(2,0,0,2,62.4542,82.2742)" fill="rgb(255,255,255)" stroke="#91cc75" class="zr11-cls-8"></path>
<path d="M1 0A1 1 0 1 1 1 -0.0001" transform="matrix(2,0,0,2,103.4444,673.5442)" fill="rgb(255,255,255)" stroke="#91cc75" class="zr11-cls-8"></path>
<path d="M1 0A1 1 0 1 1 1 -0.0001" transform="matrix(2,0,0,2,144.4346,587.2315)" fill="rgb(255,255,255)" stroke="#91cc75" class="zr11-cls-8"></path>
<path d="M1 0A1 1 0 1 1 1 -0.0001" transform="matrix(2,0,0,2,185.4248,694.0365)" fill="rgb(255,255,255)" stroke="#91cc75" class="zr11-cls-8"></path>
<path d="M1 0A1 1 0 1 1 1 -0.0001" transform="matrix(2,0,0,2,226.415,631.5573)" fill="rgb(255,255,255)" stroke="#91cc75" class="zr11-cls-8"></path>
<path d="M1 0A1 1 0 1 1 1 -0.0001" transform="matrix(2,0,0,2,267.4052,647.7061)" fill="rgb(255,255,255)" stroke="#91cc75" class="zr11-cls-8"></path>
<path d="M1 0A1 1 0 1 1 1 -0.0001" transform="matrix(2,0,0,2,308.3954,567.296)" fill="rgb(255,255,255)" stroke="#91cc75" class="zr11-cls-8"></path>
<path d="M1 0A1 1 0 1 1 1 -0.0001" transform="matrix(2,0,0,2,349.3856,749.3881)" fill="rgb(255,255,255)" stroke="#91cc75" class="zr11-cls-8"></path>
<path d="M1 0A1 1 0 1 1 1 -0.0001" transform="matrix(2,0,0,2,390.3758,703.2803)" fill="rgb(255,255,255)" stroke="#91cc75" class="zr11-cls-8"></path>
<path d="M1 0A1 1 0 1 1 1 -0.0001" transform="matrix(2,0,0,2,431.366,610.9536)" fill="rgb(255,255,255)" stroke="#91cc75" class="zr11-cls-8"></path>
<path d="M1 0A1 1 0 1 1 1 -0.0001" transform="matrix(2,0,0,2,472.3561,602.378)" fill="rgb(255,255,255)" stroke="#91cc75" class="zr11-cls-8"></path>
<path d="M1 0A1 1 0 1 1 1 -0.0001" transform="matrix(2,0,0,2,513.3463,649.3766)" fill="rgb(255,255,255)" stroke="#91cc75" class="zr11-cls-8"></path>
<path d="M1 0A1 1 0 1 1 1 -0.0001" transform="matrix(2,0,0,2,554.3365,732.7937)" fill="rgb(255,255,255)" stroke="#91cc75" class="zr11-cls-8"></path>
<path d="M1 0A1 1 0 1 1 1 -0.0001" transform="matrix(2,0,0,2,595.3267,649.0425)" fill="rgb(255,255,255)" stroke="#91cc75" class="zr11-cls-8"></path>
<path d="M1 0A1 1 0 1 1 1 -0.0001" transform="matrix(2,0,0,2,636.3169,574.7579)" fill="rgb(255,255,255)" stroke="#91cc75" class="zr11-cls-8"></path>
<path d="M1 0A1 1 0 1 1 1 -0.0001" transform="matrix(2,0,0,2,677.3071,677.1081)" fill="#fff" stroke="#91cc75" class="zr11-cls-8"></path>
<path d="M1 0A1 1 0 1 1 1 -0.0001" transform="matrix(2,0,0,2,718.2973,633.562)" fill="rgb(255,255,255)" stroke="#91cc75" class="zr11-cls-8"></path>
<path d="M1 0A1 1 0 1 1 1 -0.0001" transform="matrix(2,0,0,2,759.2875,510.4967)" fill="rgb(255,255,255)" stroke="#91cc75" class="zr11-cls-8"></path>
<path d="M1 0A1 1 0 1 1 1 -0.0001" transform="matrix(2,0,0,2,800.2777,730.5663)" fill="rgb(255,255,255)" stroke="#91cc75" class="zr11-cls-8"></path>
<path d="M1 0A1 1 0 1 1 1 -0.0001" transform="matrix(2,0,0,2,841.2679,553.3746)" fill="rgb(255,255,255)" stroke="#91cc75" class="zr11-cls-8"></path>
<path d="M1 0A1 1 0 1 1 1 -0.0001" transform="matrix(2,0,0,2,882.2581,699.0482)" fill="rgb(255,255,255)" stroke="#91cc75" class="zr11-cls-8"></path>
<path d="M1 0A1 1 0 1 1 1 -0.0001" transform="matrix(2,0,0,2,923.2483,702.1666)" fill="rgb(255,255,255)" stroke="#91cc75" class="zr11-cls-8"></path>
<path d="M1 0A1 1 0 1 1 1 -0.0001" transform="matrix(2,0,0,2,964.2385,567.5188)" fill="rgb(255,255,255)" stroke="#91cc75" class="zr11-cls-8"></path>
<path d="M1 0A1 1 0 1 1 1 -0.0001" transform="matrix(2,0,0,2,1005.2286,635.4553)" fill="rgb(255,255,255)" stroke="#91cc75" class="zr11-cls-8"></path>
<path d="M1 0A1 1 0 1 1 1 -0.0001" transform="matrix(2,0,0,2,1046.2189,559.3887)" fill="rgb(255,255,255)" stroke="#91cc75" class="zr11-cls-8"></path>
<path d="M1 0A1 1 0 1 1 1 -0.0001" transform="matrix(2,0,0,2,1087.209,565.5141)" fill="rgb(255,255,255)" stroke="#91cc75" class="zr11-cls-8"></path>
<path d="M1 0A1 1 0 1 1 1 -0.0001" transform="matrix(2,0,0,2,1128.1992,564.289)" fill="rgb(255,255,255)" stroke="#91cc75" class="zr11-cls-8"></path>
<path d="M1 0A1 1 0 1 1 1 -0.0001" transform="matrix(2,0,0,2,1169.1895,542.5717)" fill="rgb(255,255,255)" stroke="#91cc75" class="zr11-cls-8"></path>
<path d="M1 0A1 1 0 1 1 1 -0.0001" transform="matrix(2,0,0,2,1210.1796,490.6726)" fill="#fff" stroke="#91cc75" class="zr11-cls-8"></path>
<path d="M1 0A1 1 0 1 1 1 -0.0001" transform="matrix(2,0,0,2,1251.1698,628.6616)" fill="#fff" stroke="#91cc75" class="zr11-cls-8"></path>
<path d="M-5 -5l187.9902 0l0 23.2l-187.9902 0Z" transform="translate(584.0049 5)" fill="rgb(0,0,0)" fill-opacity="0" stroke="#ccc" stroke-width="0" class="zr11-cls-5"></path>
<path d="M0 7L25 7" transform="translate(585.0049 4.6)" fill="#000" stroke="#5470c6" stroke-width="2" stroke-linecap="butt" stroke-miterlimit="10" class="zr11-cls-5"></path>
<path d="M18.1 7A5.6 5.6 0 1 1 18.1 6.9994" transform="translate(585.0049 4.6)" fill="#fff" stroke="#5470c6" stroke-width="2" stroke-linecap="butt" stroke-miterlimit="10" class="zr11-cls-5"></path>
<text dominant-baseline="central" text-anchor="start" style="font-size:12px;font-family:Microsoft YaHei;" x="30" y="7" transform="translate(585.0049 4.6)" fill="#333">NVMevirt</text>
<path d="M-1 0.4l86.3242 0l0 13.2l-86.3242 0Z" transform="translate(585.0049 4.6)" fill="transparent" class="zr11-cls-9"></path>
<path d="M0 7L25 7" transform="translate(681.3291 4.6)" fill="#000" stroke="#91cc75" stroke-width="2" stroke-linecap="butt" stroke-miterlimit="10" class="zr11-cls-5"></path>
<path d="M18.1 7A5.6 5.6 0 1 1 18.1 6.9994" transform="translate(681.3291 4.6)" fill="#fff" stroke="#91cc75" stroke-width="2" stroke-linecap="butt" stroke-miterlimit="10" class="zr11-cls-5"></path>
<text dominant-baseline="central" text-anchor="start" style="font-size:12px;font-family:Microsoft YaHei;" xml:space="preserve" x="30" y="7" transform="translate(681.3291 4.6)" fill="#333">ZNS SSD</text>
<path d="M-1 0.4l81.666 0l0 13.2l-81.666 0Z" transform="translate(681.3291 4.6)" fill="transparent" class="zr11-cls-9"></path>
<path d="M-5 -5l144.6484 0l0 28l-144.6484 0Z" transform="translate(5 5)" fill="rgb(0,0,0)" fill-opacity="0" stroke="#ccc" stroke-width="0" class="zr11-cls-5"></path>
<text dominant-baseline="central" text-anchor="start" style="font-size:18px;font-family:Microsoft YaHei;font-weight:bold;" xml:space="preserve" y="9" transform="translate(5 5)" fill="#464646">吞吐量(K IOPS) </text>
<defs >
<clipPath id="zr11-c0">
<path d="M61 59l1233 0l0 892.97l-1233 0Z" fill="#000" class="zr11-cls-6"></path>
</clipPath>
<clipPath id="zr11-c1">
<path d="M61 59l1233 0l0 892.97l-1233 0Z" fill="#000" class="zr11-cls-6"></path>
</clipPath>
</defs>
<style ><![CDATA[
.zr11-cls-5:hover {
pointer-events:none;
}
.zr11-cls-6:hover {
cursor:pointer;
fill:rgba(0,0,0,1);
}
.zr11-cls-7:hover {
cursor:pointer;
}
.zr11-cls-8:hover {
cursor:pointer;
fill:rgba(255,255,255,1);
}
.zr11-cls-9:hover {
cursor:pointer;
fill:rgba(0,0,0,0);
}

]]>

</style>
</svg>