<?xml version="1.0" encoding="utf-8" standalone="no"?>
<!DOCTYPE svg PUBLIC "-//W3C//DTD SVG 1.1//EN"
  "http://www.w3.org/Graphics/SVG/1.1/DTD/svg11.dtd">
<svg xmlns:xlink="http://www.w3.org/1999/xlink" width="720pt" height="432pt" viewBox="0 0 720 432" xmlns="http://www.w3.org/2000/svg" version="1.1">
 <metadata>
  <rdf:RDF xmlns:dc="http://purl.org/dc/elements/1.1/" xmlns:cc="http://creativecommons.org/ns#" xmlns:rdf="http://www.w3.org/1999/02/22-rdf-syntax-ns#">
   <cc:Work>
    <dc:type rdf:resource="http://purl.org/dc/dcmitype/StillImage"/>
    <dc:date>2024-10-28T17:43:49.877561</dc:date>
    <dc:format>image/svg+xml</dc:format>
    <dc:creator>
     <cc:Agent>
      <dc:title>Matplotlib v3.9.2, https://matplotlib.org/</dc:title>
     </cc:Agent>
    </dc:creator>
   </cc:Work>
  </rdf:RDF>
 </metadata>
 <defs>
  <style type="text/css">*{stroke-linejoin: round; stroke-linecap: butt}</style>
 </defs>
 <g id="figure_1">
  <g id="patch_1">
   <path d="M 0 432 
L 720 432 
L 720 0 
L 0 0 
z
" style="fill: #ffffff"/>
  </g>
  <g id="axes_1">
   <g id="patch_2">
    <path d="M 54.47 386.44 
L 703.735794 386.44 
L 703.735794 28.32 
L 54.47 28.32 
z
" style="fill: #ffffff"/>
   </g>
   <g id="matplotlib.axis_1">
    <g id="xtick_1">
     <g id="line2d_1">
      <path d="M 83.982082 386.44 
L 83.982082 28.32 
" clip-path="url(#p984fb4c9ae)" style="fill: none; stroke-dasharray: 2.96,1.28; stroke-dashoffset: 0; stroke: #b0b0b0; stroke-opacity: 0.7; stroke-width: 0.8"/>
     </g>
     <g id="line2d_2">
      <defs>
       <path id="m24f35bc429" d="M 0 0 
L 0 3.5 
" style="stroke: #000000; stroke-width: 0.8"/>
      </defs>
      <g>
       <use xlink:href="#m24f35bc429" x="83.982082" y="386.44" style="stroke: #000000; stroke-width: 0.8"/>
      </g>
     </g>
     <g id="text_1">
      <!-- 31 16:00 -->
      <g transform="translate(61.621144 401.038437) scale(0.1 -0.1)">
       <defs>
        <path id="DejaVuSans-33" d="M 2597 2516 
Q 3050 2419 3304 2112 
Q 3559 1806 3559 1356 
Q 3559 666 3084 287 
Q 2609 -91 1734 -91 
Q 1441 -91 1130 -33 
Q 819 25 488 141 
L 488 750 
Q 750 597 1062 519 
Q 1375 441 1716 441 
Q 2309 441 2620 675 
Q 2931 909 2931 1356 
Q 2931 1769 2642 2001 
Q 2353 2234 1838 2234 
L 1294 2234 
L 1294 2753 
L 1863 2753 
Q 2328 2753 2575 2939 
Q 2822 3125 2822 3475 
Q 2822 3834 2567 4026 
Q 2313 4219 1838 4219 
Q 1578 4219 1281 4162 
Q 984 4106 628 3988 
L 628 4550 
Q 988 4650 1302 4700 
Q 1616 4750 1894 4750 
Q 2613 4750 3031 4423 
Q 3450 4097 3450 3541 
Q 3450 3153 3228 2886 
Q 3006 2619 2597 2516 
z
" transform="scale(0.015625)"/>
        <path id="DejaVuSans-31" d="M 794 531 
L 1825 531 
L 1825 4091 
L 703 3866 
L 703 4441 
L 1819 4666 
L 2450 4666 
L 2450 531 
L 3481 531 
L 3481 0 
L 794 0 
L 794 531 
z
" transform="scale(0.015625)"/>
        <path id="DejaVuSans-20" transform="scale(0.015625)"/>
        <path id="DejaVuSans-36" d="M 2113 2584 
Q 1688 2584 1439 2293 
Q 1191 2003 1191 1497 
Q 1191 994 1439 701 
Q 1688 409 2113 409 
Q 2538 409 2786 701 
Q 3034 994 3034 1497 
Q 3034 2003 2786 2293 
Q 2538 2584 2113 2584 
z
M 3366 4563 
L 3366 3988 
Q 3128 4100 2886 4159 
Q 2644 4219 2406 4219 
Q 1781 4219 1451 3797 
Q 1122 3375 1075 2522 
Q 1259 2794 1537 2939 
Q 1816 3084 2150 3084 
Q 2853 3084 3261 2657 
Q 3669 2231 3669 1497 
Q 3669 778 3244 343 
Q 2819 -91 2113 -91 
Q 1303 -91 875 529 
Q 447 1150 447 2328 
Q 447 3434 972 4092 
Q 1497 4750 2381 4750 
Q 2619 4750 2861 4703 
Q 3103 4656 3366 4563 
z
" transform="scale(0.015625)"/>
        <path id="DejaVuSans-3a" d="M 750 794 
L 1409 794 
L 1409 0 
L 750 0 
L 750 794 
z
M 750 3309 
L 1409 3309 
L 1409 2516 
L 750 2516 
L 750 3309 
z
" transform="scale(0.015625)"/>
        <path id="DejaVuSans-30" d="M 2034 4250 
Q 1547 4250 1301 3770 
Q 1056 3291 1056 2328 
Q 1056 1369 1301 889 
Q 1547 409 2034 409 
Q 2525 409 2770 889 
Q 3016 1369 3016 2328 
Q 3016 3291 2770 3770 
Q 2525 4250 2034 4250 
z
M 2034 4750 
Q 2819 4750 3233 4129 
Q 3647 3509 3647 2328 
Q 3647 1150 3233 529 
Q 2819 -91 2034 -91 
Q 1250 -91 836 529 
Q 422 1150 422 2328 
Q 422 3509 836 4129 
Q 1250 4750 2034 4750 
z
" transform="scale(0.015625)"/>
       </defs>
       <use xlink:href="#DejaVuSans-33"/>
       <use xlink:href="#DejaVuSans-31" x="63.623047"/>
       <use xlink:href="#DejaVuSans-20" x="127.246094"/>
       <use xlink:href="#DejaVuSans-31" x="159.033203"/>
       <use xlink:href="#DejaVuSans-36" x="222.65625"/>
       <use xlink:href="#DejaVuSans-3a" x="286.279297"/>
       <use xlink:href="#DejaVuSans-30" x="319.970703"/>
       <use xlink:href="#DejaVuSans-30" x="383.59375"/>
      </g>
     </g>
    </g>
    <g id="xtick_2">
     <g id="line2d_3">
      <path d="M 184.023036 386.44 
L 184.023036 28.32 
" clip-path="url(#p984fb4c9ae)" style="fill: none; stroke-dasharray: 2.96,1.28; stroke-dashoffset: 0; stroke: #b0b0b0; stroke-opacity: 0.7; stroke-width: 0.8"/>
     </g>
     <g id="line2d_4">
      <g>
       <use xlink:href="#m24f35bc429" x="184.023036" y="386.44" style="stroke: #000000; stroke-width: 0.8"/>
      </g>
     </g>
     <g id="text_2">
      <!-- 31 16:10 -->
      <g transform="translate(161.662098 401.038437) scale(0.1 -0.1)">
       <use xlink:href="#DejaVuSans-33"/>
       <use xlink:href="#DejaVuSans-31" x="63.623047"/>
       <use xlink:href="#DejaVuSans-20" x="127.246094"/>
       <use xlink:href="#DejaVuSans-31" x="159.033203"/>
       <use xlink:href="#DejaVuSans-36" x="222.65625"/>
       <use xlink:href="#DejaVuSans-3a" x="286.279297"/>
       <use xlink:href="#DejaVuSans-31" x="319.970703"/>
       <use xlink:href="#DejaVuSans-30" x="383.59375"/>
      </g>
     </g>
    </g>
    <g id="xtick_3">
     <g id="line2d_5">
      <path d="M 284.06399 386.44 
L 284.06399 28.32 
" clip-path="url(#p984fb4c9ae)" style="fill: none; stroke-dasharray: 2.96,1.28; stroke-dashoffset: 0; stroke: #b0b0b0; stroke-opacity: 0.7; stroke-width: 0.8"/>
     </g>
     <g id="line2d_6">
      <g>
       <use xlink:href="#m24f35bc429" x="284.06399" y="386.44" style="stroke: #000000; stroke-width: 0.8"/>
      </g>
     </g>
     <g id="text_3">
      <!-- 31 16:20 -->
      <g transform="translate(261.703053 401.038437) scale(0.1 -0.1)">
       <defs>
        <path id="DejaVuSans-32" d="M 1228 531 
L 3431 531 
L 3431 0 
L 469 0 
L 469 531 
Q 828 903 1448 1529 
Q 2069 2156 2228 2338 
Q 2531 2678 2651 2914 
Q 2772 3150 2772 3378 
Q 2772 3750 2511 3984 
Q 2250 4219 1831 4219 
Q 1534 4219 1204 4116 
Q 875 4013 500 3803 
L 500 4441 
Q 881 4594 1212 4672 
Q 1544 4750 1819 4750 
Q 2544 4750 2975 4387 
Q 3406 4025 3406 3419 
Q 3406 3131 3298 2873 
Q 3191 2616 2906 2266 
Q 2828 2175 2409 1742 
Q 1991 1309 1228 531 
z
" transform="scale(0.015625)"/>
       </defs>
       <use xlink:href="#DejaVuSans-33"/>
       <use xlink:href="#DejaVuSans-31" x="63.623047"/>
       <use xlink:href="#DejaVuSans-20" x="127.246094"/>
       <use xlink:href="#DejaVuSans-31" x="159.033203"/>
       <use xlink:href="#DejaVuSans-36" x="222.65625"/>
       <use xlink:href="#DejaVuSans-3a" x="286.279297"/>
       <use xlink:href="#DejaVuSans-32" x="319.970703"/>
       <use xlink:href="#DejaVuSans-30" x="383.59375"/>
      </g>
     </g>
    </g>
    <g id="xtick_4">
     <g id="line2d_7">
      <path d="M 384.104944 386.44 
L 384.104944 28.32 
" clip-path="url(#p984fb4c9ae)" style="fill: none; stroke-dasharray: 2.96,1.28; stroke-dashoffset: 0; stroke: #b0b0b0; stroke-opacity: 0.7; stroke-width: 0.8"/>
     </g>
     <g id="line2d_8">
      <g>
       <use xlink:href="#m24f35bc429" x="384.104944" y="386.44" style="stroke: #000000; stroke-width: 0.8"/>
      </g>
     </g>
     <g id="text_4">
      <!-- 31 16:30 -->
      <g transform="translate(361.744007 401.038437) scale(0.1 -0.1)">
       <use xlink:href="#DejaVuSans-33"/>
       <use xlink:href="#DejaVuSans-31" x="63.623047"/>
       <use xlink:href="#DejaVuSans-20" x="127.246094"/>
       <use xlink:href="#DejaVuSans-31" x="159.033203"/>
       <use xlink:href="#DejaVuSans-36" x="222.65625"/>
       <use xlink:href="#DejaVuSans-3a" x="286.279297"/>
       <use xlink:href="#DejaVuSans-33" x="319.970703"/>
       <use xlink:href="#DejaVuSans-30" x="383.59375"/>
      </g>
     </g>
    </g>
    <g id="xtick_5">
     <g id="line2d_9">
      <path d="M 484.145899 386.44 
L 484.145899 28.32 
" clip-path="url(#p984fb4c9ae)" style="fill: none; stroke-dasharray: 2.96,1.28; stroke-dashoffset: 0; stroke: #b0b0b0; stroke-opacity: 0.7; stroke-width: 0.8"/>
     </g>
     <g id="line2d_10">
      <g>
       <use xlink:href="#m24f35bc429" x="484.145899" y="386.44" style="stroke: #000000; stroke-width: 0.8"/>
      </g>
     </g>
     <g id="text_5">
      <!-- 31 16:40 -->
      <g transform="translate(461.784961 401.038437) scale(0.1 -0.1)">
       <defs>
        <path id="DejaVuSans-34" d="M 2419 4116 
L 825 1625 
L 2419 1625 
L 2419 4116 
z
M 2253 4666 
L 3047 4666 
L 3047 1625 
L 3713 1625 
L 3713 1100 
L 3047 1100 
L 3047 0 
L 2419 0 
L 2419 1100 
L 313 1100 
L 313 1709 
L 2253 4666 
z
" transform="scale(0.015625)"/>
       </defs>
       <use xlink:href="#DejaVuSans-33"/>
       <use xlink:href="#DejaVuSans-31" x="63.623047"/>
       <use xlink:href="#DejaVuSans-20" x="127.246094"/>
       <use xlink:href="#DejaVuSans-31" x="159.033203"/>
       <use xlink:href="#DejaVuSans-36" x="222.65625"/>
       <use xlink:href="#DejaVuSans-3a" x="286.279297"/>
       <use xlink:href="#DejaVuSans-34" x="319.970703"/>
       <use xlink:href="#DejaVuSans-30" x="383.59375"/>
      </g>
     </g>
    </g>
    <g id="xtick_6">
     <g id="line2d_11">
      <path d="M 584.186853 386.44 
L 584.186853 28.32 
" clip-path="url(#p984fb4c9ae)" style="fill: none; stroke-dasharray: 2.96,1.28; stroke-dashoffset: 0; stroke: #b0b0b0; stroke-opacity: 0.7; stroke-width: 0.8"/>
     </g>
     <g id="line2d_12">
      <g>
       <use xlink:href="#m24f35bc429" x="584.186853" y="386.44" style="stroke: #000000; stroke-width: 0.8"/>
      </g>
     </g>
     <g id="text_6">
      <!-- 31 16:50 -->
      <g transform="translate(561.825916 401.038437) scale(0.1 -0.1)">
       <defs>
        <path id="DejaVuSans-35" d="M 691 4666 
L 3169 4666 
L 3169 4134 
L 1269 4134 
L 1269 2991 
Q 1406 3038 1543 3061 
Q 1681 3084 1819 3084 
Q 2600 3084 3056 2656 
Q 3513 2228 3513 1497 
Q 3513 744 3044 326 
Q 2575 -91 1722 -91 
Q 1428 -91 1123 -41 
Q 819 9 494 109 
L 494 744 
Q 775 591 1075 516 
Q 1375 441 1709 441 
Q 2250 441 2565 725 
Q 2881 1009 2881 1497 
Q 2881 1984 2565 2268 
Q 2250 2553 1709 2553 
Q 1456 2553 1204 2497 
Q 953 2441 691 2322 
L 691 4666 
z
" transform="scale(0.015625)"/>
       </defs>
       <use xlink:href="#DejaVuSans-33"/>
       <use xlink:href="#DejaVuSans-31" x="63.623047"/>
       <use xlink:href="#DejaVuSans-20" x="127.246094"/>
       <use xlink:href="#DejaVuSans-31" x="159.033203"/>
       <use xlink:href="#DejaVuSans-36" x="222.65625"/>
       <use xlink:href="#DejaVuSans-3a" x="286.279297"/>
       <use xlink:href="#DejaVuSans-35" x="319.970703"/>
       <use xlink:href="#DejaVuSans-30" x="383.59375"/>
      </g>
     </g>
    </g>
    <g id="xtick_7">
     <g id="line2d_13">
      <path d="M 684.227807 386.44 
L 684.227807 28.32 
" clip-path="url(#p984fb4c9ae)" style="fill: none; stroke-dasharray: 2.96,1.28; stroke-dashoffset: 0; stroke: #b0b0b0; stroke-opacity: 0.7; stroke-width: 0.8"/>
     </g>
     <g id="line2d_14">
      <g>
       <use xlink:href="#m24f35bc429" x="684.227807" y="386.44" style="stroke: #000000; stroke-width: 0.8"/>
      </g>
     </g>
     <g id="text_7">
      <!-- 31 17:00 -->
      <g transform="translate(661.86687 401.038437) scale(0.1 -0.1)">
       <defs>
        <path id="DejaVuSans-37" d="M 525 4666 
L 3525 4666 
L 3525 4397 
L 1831 0 
L 1172 0 
L 2766 4134 
L 525 4134 
L 525 4666 
z
" transform="scale(0.015625)"/>
       </defs>
       <use xlink:href="#DejaVuSans-33"/>
       <use xlink:href="#DejaVuSans-31" x="63.623047"/>
       <use xlink:href="#DejaVuSans-20" x="127.246094"/>
       <use xlink:href="#DejaVuSans-31" x="159.033203"/>
       <use xlink:href="#DejaVuSans-37" x="222.65625"/>
       <use xlink:href="#DejaVuSans-3a" x="286.279297"/>
       <use xlink:href="#DejaVuSans-30" x="319.970703"/>
       <use xlink:href="#DejaVuSans-30" x="383.59375"/>
      </g>
     </g>
    </g>
    <g id="text_8">
     <!-- Time (Minute) -->
     <g transform="translate(330.380709 417.755938) scale(0.14 -0.14)">
      <defs>
       <path id="DejaVuSans-54" d="M -19 4666 
L 3928 4666 
L 3928 4134 
L 2272 4134 
L 2272 0 
L 1638 0 
L 1638 4134 
L -19 4134 
L -19 4666 
z
" transform="scale(0.015625)"/>
       <path id="DejaVuSans-69" d="M 603 3500 
L 1178 3500 
L 1178 0 
L 603 0 
L 603 3500 
z
M 603 4863 
L 1178 4863 
L 1178 4134 
L 603 4134 
L 603 4863 
z
" transform="scale(0.015625)"/>
       <path id="DejaVuSans-6d" d="M 3328 2828 
Q 3544 3216 3844 3400 
Q 4144 3584 4550 3584 
Q 5097 3584 5394 3201 
Q 5691 2819 5691 2113 
L 5691 0 
L 5113 0 
L 5113 2094 
Q 5113 2597 4934 2840 
Q 4756 3084 4391 3084 
Q 3944 3084 3684 2787 
Q 3425 2491 3425 1978 
L 3425 0 
L 2847 0 
L 2847 2094 
Q 2847 2600 2669 2842 
Q 2491 3084 2119 3084 
Q 1678 3084 1418 2786 
Q 1159 2488 1159 1978 
L 1159 0 
L 581 0 
L 581 3500 
L 1159 3500 
L 1159 2956 
Q 1356 3278 1631 3431 
Q 1906 3584 2284 3584 
Q 2666 3584 2933 3390 
Q 3200 3197 3328 2828 
z
" transform="scale(0.015625)"/>
       <path id="DejaVuSans-65" d="M 3597 1894 
L 3597 1613 
L 953 1613 
Q 991 1019 1311 708 
Q 1631 397 2203 397 
Q 2534 397 2845 478 
Q 3156 559 3463 722 
L 3463 178 
Q 3153 47 2828 -22 
Q 2503 -91 2169 -91 
Q 1331 -91 842 396 
Q 353 884 353 1716 
Q 353 2575 817 3079 
Q 1281 3584 2069 3584 
Q 2775 3584 3186 3129 
Q 3597 2675 3597 1894 
z
M 3022 2063 
Q 3016 2534 2758 2815 
Q 2500 3097 2075 3097 
Q 1594 3097 1305 2825 
Q 1016 2553 972 2059 
L 3022 2063 
z
" transform="scale(0.015625)"/>
       <path id="DejaVuSans-28" d="M 1984 4856 
Q 1566 4138 1362 3434 
Q 1159 2731 1159 2009 
Q 1159 1288 1364 580 
Q 1569 -128 1984 -844 
L 1484 -844 
Q 1016 -109 783 600 
Q 550 1309 550 2009 
Q 550 2706 781 3412 
Q 1013 4119 1484 4856 
L 1984 4856 
z
" transform="scale(0.015625)"/>
       <path id="DejaVuSans-4d" d="M 628 4666 
L 1569 4666 
L 2759 1491 
L 3956 4666 
L 4897 4666 
L 4897 0 
L 4281 0 
L 4281 4097 
L 3078 897 
L 2444 897 
L 1241 4097 
L 1241 0 
L 628 0 
L 628 4666 
z
" transform="scale(0.015625)"/>
       <path id="DejaVuSans-6e" d="M 3513 2113 
L 3513 0 
L 2938 0 
L 2938 2094 
Q 2938 2591 2744 2837 
Q 2550 3084 2163 3084 
Q 1697 3084 1428 2787 
Q 1159 2491 1159 1978 
L 1159 0 
L 581 0 
L 581 3500 
L 1159 3500 
L 1159 2956 
Q 1366 3272 1645 3428 
Q 1925 3584 2291 3584 
Q 2894 3584 3203 3211 
Q 3513 2838 3513 2113 
z
" transform="scale(0.015625)"/>
       <path id="DejaVuSans-75" d="M 544 1381 
L 544 3500 
L 1119 3500 
L 1119 1403 
Q 1119 906 1312 657 
Q 1506 409 1894 409 
Q 2359 409 2629 706 
Q 2900 1003 2900 1516 
L 2900 3500 
L 3475 3500 
L 3475 0 
L 2900 0 
L 2900 538 
Q 2691 219 2414 64 
Q 2138 -91 1772 -91 
Q 1169 -91 856 284 
Q 544 659 544 1381 
z
M 1991 3584 
L 1991 3584 
z
" transform="scale(0.015625)"/>
       <path id="DejaVuSans-74" d="M 1172 4494 
L 1172 3500 
L 2356 3500 
L 2356 3053 
L 1172 3053 
L 1172 1153 
Q 1172 725 1289 603 
Q 1406 481 1766 481 
L 2356 481 
L 2356 0 
L 1766 0 
Q 1100 0 847 248 
Q 594 497 594 1153 
L 594 3053 
L 172 3053 
L 172 3500 
L 594 3500 
L 594 4494 
L 1172 4494 
z
" transform="scale(0.015625)"/>
       <path id="DejaVuSans-29" d="M 513 4856 
L 1013 4856 
Q 1481 4119 1714 3412 
Q 1947 2706 1947 2009 
Q 1947 1309 1714 600 
Q 1481 -109 1013 -844 
L 513 -844 
Q 928 -128 1133 580 
Q 1338 1288 1338 2009 
Q 1338 2731 1133 3434 
Q 928 4138 513 4856 
z
" transform="scale(0.015625)"/>
      </defs>
      <use xlink:href="#DejaVuSans-54"/>
      <use xlink:href="#DejaVuSans-69" x="57.958984"/>
      <use xlink:href="#DejaVuSans-6d" x="85.742188"/>
      <use xlink:href="#DejaVuSans-65" x="183.154297"/>
      <use xlink:href="#DejaVuSans-20" x="244.677734"/>
      <use xlink:href="#DejaVuSans-28" x="276.464844"/>
      <use xlink:href="#DejaVuSans-4d" x="315.478516"/>
      <use xlink:href="#DejaVuSans-69" x="401.757812"/>
      <use xlink:href="#DejaVuSans-6e" x="429.541016"/>
      <use xlink:href="#DejaVuSans-75" x="492.919922"/>
      <use xlink:href="#DejaVuSans-74" x="556.298828"/>
      <use xlink:href="#DejaVuSans-65" x="595.507812"/>
      <use xlink:href="#DejaVuSans-29" x="657.03125"/>
     </g>
    </g>
   </g>
   <g id="matplotlib.axis_2">
    <g id="ytick_1">
     <g id="line2d_15">
      <path d="M 54.47 386.042971 
L 703.735794 386.042971 
" clip-path="url(#p984fb4c9ae)" style="fill: none; stroke-dasharray: 2.96,1.28; stroke-dashoffset: 0; stroke: #b0b0b0; stroke-opacity: 0.7; stroke-width: 0.8"/>
     </g>
     <g id="line2d_16">
      <defs>
       <path id="m2764820562" d="M 0 0 
L -3.5 0 
" style="stroke: #000000; stroke-width: 0.8"/>
      </defs>
      <g>
       <use xlink:href="#m2764820562" x="54.47" y="386.042971" style="stroke: #000000; stroke-width: 0.8"/>
      </g>
     </g>
     <g id="text_9">
      <!-- 20 -->
      <g transform="translate(34.745 389.84219) scale(0.1 -0.1)">
       <use xlink:href="#DejaVuSans-32"/>
       <use xlink:href="#DejaVuSans-30" x="63.623047"/>
      </g>
     </g>
    </g>
    <g id="ytick_2">
     <g id="line2d_17">
      <path d="M 54.47 306.637206 
L 703.735794 306.637206 
" clip-path="url(#p984fb4c9ae)" style="fill: none; stroke-dasharray: 2.96,1.28; stroke-dashoffset: 0; stroke: #b0b0b0; stroke-opacity: 0.7; stroke-width: 0.8"/>
     </g>
     <g id="line2d_18">
      <g>
       <use xlink:href="#m2764820562" x="54.47" y="306.637206" style="stroke: #000000; stroke-width: 0.8"/>
      </g>
     </g>
     <g id="text_10">
      <!-- 40 -->
      <g transform="translate(34.745 310.436425) scale(0.1 -0.1)">
       <use xlink:href="#DejaVuSans-34"/>
       <use xlink:href="#DejaVuSans-30" x="63.623047"/>
      </g>
     </g>
    </g>
    <g id="ytick_3">
     <g id="line2d_19">
      <path d="M 54.47 227.231441 
L 703.735794 227.231441 
" clip-path="url(#p984fb4c9ae)" style="fill: none; stroke-dasharray: 2.96,1.28; stroke-dashoffset: 0; stroke: #b0b0b0; stroke-opacity: 0.7; stroke-width: 0.8"/>
     </g>
     <g id="line2d_20">
      <g>
       <use xlink:href="#m2764820562" x="54.47" y="227.231441" style="stroke: #000000; stroke-width: 0.8"/>
      </g>
     </g>
     <g id="text_11">
      <!-- 60 -->
      <g transform="translate(34.745 231.03066) scale(0.1 -0.1)">
       <use xlink:href="#DejaVuSans-36"/>
       <use xlink:href="#DejaVuSans-30" x="63.623047"/>
      </g>
     </g>
    </g>
    <g id="ytick_4">
     <g id="line2d_21">
      <path d="M 54.47 147.825676 
L 703.735794 147.825676 
" clip-path="url(#p984fb4c9ae)" style="fill: none; stroke-dasharray: 2.96,1.28; stroke-dashoffset: 0; stroke: #b0b0b0; stroke-opacity: 0.7; stroke-width: 0.8"/>
     </g>
     <g id="line2d_22">
      <g>
       <use xlink:href="#m2764820562" x="54.47" y="147.825676" style="stroke: #000000; stroke-width: 0.8"/>
      </g>
     </g>
     <g id="text_12">
      <!-- 80 -->
      <g transform="translate(34.745 151.624895) scale(0.1 -0.1)">
       <defs>
        <path id="DejaVuSans-38" d="M 2034 2216 
Q 1584 2216 1326 1975 
Q 1069 1734 1069 1313 
Q 1069 891 1326 650 
Q 1584 409 2034 409 
Q 2484 409 2743 651 
Q 3003 894 3003 1313 
Q 3003 1734 2745 1975 
Q 2488 2216 2034 2216 
z
M 1403 2484 
Q 997 2584 770 2862 
Q 544 3141 544 3541 
Q 544 4100 942 4425 
Q 1341 4750 2034 4750 
Q 2731 4750 3128 4425 
Q 3525 4100 3525 3541 
Q 3525 3141 3298 2862 
Q 3072 2584 2669 2484 
Q 3125 2378 3379 2068 
Q 3634 1759 3634 1313 
Q 3634 634 3220 271 
Q 2806 -91 2034 -91 
Q 1263 -91 848 271 
Q 434 634 434 1313 
Q 434 1759 690 2068 
Q 947 2378 1403 2484 
z
M 1172 3481 
Q 1172 3119 1398 2916 
Q 1625 2713 2034 2713 
Q 2441 2713 2670 2916 
Q 2900 3119 2900 3481 
Q 2900 3844 2670 4047 
Q 2441 4250 2034 4250 
Q 1625 4250 1398 4047 
Q 1172 3844 1172 3481 
z
" transform="scale(0.015625)"/>
       </defs>
       <use xlink:href="#DejaVuSans-38"/>
       <use xlink:href="#DejaVuSans-30" x="63.623047"/>
      </g>
     </g>
    </g>
    <g id="ytick_5">
     <g id="line2d_23">
      <path d="M 54.47 68.419911 
L 703.735794 68.419911 
" clip-path="url(#p984fb4c9ae)" style="fill: none; stroke-dasharray: 2.96,1.28; stroke-dashoffset: 0; stroke: #b0b0b0; stroke-opacity: 0.7; stroke-width: 0.8"/>
     </g>
     <g id="line2d_24">
      <g>
       <use xlink:href="#m2764820562" x="54.47" y="68.419911" style="stroke: #000000; stroke-width: 0.8"/>
      </g>
     </g>
     <g id="text_13">
      <!-- 100 -->
      <g transform="translate(28.3825 72.21913) scale(0.1 -0.1)">
       <use xlink:href="#DejaVuSans-31"/>
       <use xlink:href="#DejaVuSans-30" x="63.623047"/>
       <use xlink:href="#DejaVuSans-30" x="127.246094"/>
      </g>
     </g>
    </g>
    <g id="text_14">
     <!-- Number of Requests -->
     <g transform="translate(21.470938 278.777812) rotate(-90) scale(0.14 -0.14)">
      <defs>
       <path id="DejaVuSans-4e" d="M 628 4666 
L 1478 4666 
L 3547 763 
L 3547 4666 
L 4159 4666 
L 4159 0 
L 3309 0 
L 1241 3903 
L 1241 0 
L 628 0 
L 628 4666 
z
" transform="scale(0.015625)"/>
       <path id="DejaVuSans-62" d="M 3116 1747 
Q 3116 2381 2855 2742 
Q 2594 3103 2138 3103 
Q 1681 3103 1420 2742 
Q 1159 2381 1159 1747 
Q 1159 1113 1420 752 
Q 1681 391 2138 391 
Q 2594 391 2855 752 
Q 3116 1113 3116 1747 
z
M 1159 2969 
Q 1341 3281 1617 3432 
Q 1894 3584 2278 3584 
Q 2916 3584 3314 3078 
Q 3713 2572 3713 1747 
Q 3713 922 3314 415 
Q 2916 -91 2278 -91 
Q 1894 -91 1617 61 
Q 1341 213 1159 525 
L 1159 0 
L 581 0 
L 581 4863 
L 1159 4863 
L 1159 2969 
z
" transform="scale(0.015625)"/>
       <path id="DejaVuSans-72" d="M 2631 2963 
Q 2534 3019 2420 3045 
Q 2306 3072 2169 3072 
Q 1681 3072 1420 2755 
Q 1159 2438 1159 1844 
L 1159 0 
L 581 0 
L 581 3500 
L 1159 3500 
L 1159 2956 
Q 1341 3275 1631 3429 
Q 1922 3584 2338 3584 
Q 2397 3584 2469 3576 
Q 2541 3569 2628 3553 
L 2631 2963 
z
" transform="scale(0.015625)"/>
       <path id="DejaVuSans-6f" d="M 1959 3097 
Q 1497 3097 1228 2736 
Q 959 2375 959 1747 
Q 959 1119 1226 758 
Q 1494 397 1959 397 
Q 2419 397 2687 759 
Q 2956 1122 2956 1747 
Q 2956 2369 2687 2733 
Q 2419 3097 1959 3097 
z
M 1959 3584 
Q 2709 3584 3137 3096 
Q 3566 2609 3566 1747 
Q 3566 888 3137 398 
Q 2709 -91 1959 -91 
Q 1206 -91 779 398 
Q 353 888 353 1747 
Q 353 2609 779 3096 
Q 1206 3584 1959 3584 
z
" transform="scale(0.015625)"/>
       <path id="DejaVuSans-66" d="M 2375 4863 
L 2375 4384 
L 1825 4384 
Q 1516 4384 1395 4259 
Q 1275 4134 1275 3809 
L 1275 3500 
L 2222 3500 
L 2222 3053 
L 1275 3053 
L 1275 0 
L 697 0 
L 697 3053 
L 147 3053 
L 147 3500 
L 697 3500 
L 697 3744 
Q 697 4328 969 4595 
Q 1241 4863 1831 4863 
L 2375 4863 
z
" transform="scale(0.015625)"/>
       <path id="DejaVuSans-52" d="M 2841 2188 
Q 3044 2119 3236 1894 
Q 3428 1669 3622 1275 
L 4263 0 
L 3584 0 
L 2988 1197 
Q 2756 1666 2539 1819 
Q 2322 1972 1947 1972 
L 1259 1972 
L 1259 0 
L 628 0 
L 628 4666 
L 2053 4666 
Q 2853 4666 3247 4331 
Q 3641 3997 3641 3322 
Q 3641 2881 3436 2590 
Q 3231 2300 2841 2188 
z
M 1259 4147 
L 1259 2491 
L 2053 2491 
Q 2509 2491 2742 2702 
Q 2975 2913 2975 3322 
Q 2975 3731 2742 3939 
Q 2509 4147 2053 4147 
L 1259 4147 
z
" transform="scale(0.015625)"/>
       <path id="DejaVuSans-71" d="M 947 1747 
Q 947 1113 1208 752 
Q 1469 391 1925 391 
Q 2381 391 2643 752 
Q 2906 1113 2906 1747 
Q 2906 2381 2643 2742 
Q 2381 3103 1925 3103 
Q 1469 3103 1208 2742 
Q 947 2381 947 1747 
z
M 2906 525 
Q 2725 213 2448 61 
Q 2172 -91 1784 -91 
Q 1150 -91 751 415 
Q 353 922 353 1747 
Q 353 2572 751 3078 
Q 1150 3584 1784 3584 
Q 2172 3584 2448 3432 
Q 2725 3281 2906 2969 
L 2906 3500 
L 3481 3500 
L 3481 -1331 
L 2906 -1331 
L 2906 525 
z
" transform="scale(0.015625)"/>
       <path id="DejaVuSans-73" d="M 2834 3397 
L 2834 2853 
Q 2591 2978 2328 3040 
Q 2066 3103 1784 3103 
Q 1356 3103 1142 2972 
Q 928 2841 928 2578 
Q 928 2378 1081 2264 
Q 1234 2150 1697 2047 
L 1894 2003 
Q 2506 1872 2764 1633 
Q 3022 1394 3022 966 
Q 3022 478 2636 193 
Q 2250 -91 1575 -91 
Q 1294 -91 989 -36 
Q 684 19 347 128 
L 347 722 
Q 666 556 975 473 
Q 1284 391 1588 391 
Q 1994 391 2212 530 
Q 2431 669 2431 922 
Q 2431 1156 2273 1281 
Q 2116 1406 1581 1522 
L 1381 1569 
Q 847 1681 609 1914 
Q 372 2147 372 2553 
Q 372 3047 722 3315 
Q 1072 3584 1716 3584 
Q 2034 3584 2315 3537 
Q 2597 3491 2834 3397 
z
" transform="scale(0.015625)"/>
      </defs>
      <use xlink:href="#DejaVuSans-4e"/>
      <use xlink:href="#DejaVuSans-75" x="74.804688"/>
      <use xlink:href="#DejaVuSans-6d" x="138.183594"/>
      <use xlink:href="#DejaVuSans-62" x="235.595703"/>
      <use xlink:href="#DejaVuSans-65" x="299.072266"/>
      <use xlink:href="#DejaVuSans-72" x="360.595703"/>
      <use xlink:href="#DejaVuSans-20" x="401.708984"/>
      <use xlink:href="#DejaVuSans-6f" x="433.496094"/>
      <use xlink:href="#DejaVuSans-66" x="494.677734"/>
      <use xlink:href="#DejaVuSans-20" x="529.882812"/>
      <use xlink:href="#DejaVuSans-52" x="561.669922"/>
      <use xlink:href="#DejaVuSans-65" x="626.652344"/>
      <use xlink:href="#DejaVuSans-71" x="688.175781"/>
      <use xlink:href="#DejaVuSans-75" x="751.652344"/>
      <use xlink:href="#DejaVuSans-65" x="815.03125"/>
      <use xlink:href="#DejaVuSans-73" x="876.554688"/>
      <use xlink:href="#DejaVuSans-74" x="928.654297"/>
      <use xlink:href="#DejaVuSans-73" x="967.863281"/>
     </g>
    </g>
   </g>
   <g id="line2d_25">
    <path d="M 83.982082 131.944523 
L 93.986177 44.598182 
L 103.990272 354.280665 
L 113.994368 354.280665 
L 123.998463 362.221242 
L 134.002559 346.340089 
L 144.006654 354.280665 
L 154.01075 314.577783 
L 164.014845 362.221242 
L 174.01894 362.221242 
L 184.023036 135.914812 
L 194.027131 330.458936 
L 204.031227 362.221242 
L 214.035322 362.221242 
L 224.039418 362.221242 
L 234.043513 346.340089 
L 244.047608 362.221242 
L 254.051704 362.221242 
L 264.055799 362.221242 
L 274.059895 358.250953 
L 284.06399 104.152506 
L 294.068086 330.458936 
L 304.072181 362.221242 
L 314.076276 362.221242 
L 324.080372 362.221242 
L 334.084467 298.69663 
L 344.088563 243.112594 
L 354.092658 231.201729 
L 364.096754 243.112594 
L 374.100849 243.112594 
L 384.104944 80.330776 
L 394.10904 370.161818 
L 404.113135 219.290865 
L 414.117231 243.112594 
L 424.121326 243.112594 
L 434.125422 227.231441 
L 444.129517 243.112594 
L 454.133613 243.112594 
L 464.137708 243.112594 
L 474.141803 362.221242 
L 484.145899 52.538758 
L 494.149994 362.221242 
L 504.15409 362.221242 
L 514.158185 362.221242 
L 524.162281 334.429224 
L 534.166376 326.488647 
L 544.170471 322.518359 
L 554.174567 243.112594 
L 564.178662 243.112594 
L 574.182758 243.112594 
L 584.186853 116.06337 
L 594.190949 251.053171 
L 604.195044 243.112594 
L 614.199139 243.112594 
L 624.203235 243.112594 
L 634.20733 227.231441 
L 644.211426 227.231441 
L 654.215521 362.221242 
L 664.219617 362.221242 
L 674.223712 362.221242 
" clip-path="url(#p984fb4c9ae)" style="fill: none; stroke: #0000ff; stroke-opacity: 0.9; stroke-width: 2; stroke-linecap: square"/>
    <defs>
     <path id="m87eed5b46d" d="M 0 3 
C 0.795609 3 1.55874 2.683901 2.12132 2.12132 
C 2.683901 1.55874 3 0.795609 3 0 
C 3 -0.795609 2.683901 -1.55874 2.12132 -2.12132 
C 1.55874 -2.683901 0.795609 -3 0 -3 
C -0.795609 -3 -1.55874 -2.683901 -2.12132 -2.12132 
C -2.683901 -1.55874 -3 -0.795609 -3 0 
C -3 0.795609 -2.683901 1.55874 -2.12132 2.12132 
C -1.55874 2.683901 -0.795609 3 0 3 
z
" style="stroke: #0000ff; stroke-opacity: 0.9"/>
    </defs>
    <g clip-path="url(#p984fb4c9ae)">
     <use xlink:href="#m87eed5b46d" x="83.982082" y="131.944523" style="fill: #0000ff; fill-opacity: 0.9; stroke: #0000ff; stroke-opacity: 0.9"/>
     <use xlink:href="#m87eed5b46d" x="93.986177" y="44.598182" style="fill: #0000ff; fill-opacity: 0.9; stroke: #0000ff; stroke-opacity: 0.9"/>
     <use xlink:href="#m87eed5b46d" x="103.990272" y="354.280665" style="fill: #0000ff; fill-opacity: 0.9; stroke: #0000ff; stroke-opacity: 0.9"/>
     <use xlink:href="#m87eed5b46d" x="113.994368" y="354.280665" style="fill: #0000ff; fill-opacity: 0.9; stroke: #0000ff; stroke-opacity: 0.9"/>
     <use xlink:href="#m87eed5b46d" x="123.998463" y="362.221242" style="fill: #0000ff; fill-opacity: 0.9; stroke: #0000ff; stroke-opacity: 0.9"/>
     <use xlink:href="#m87eed5b46d" x="134.002559" y="346.340089" style="fill: #0000ff; fill-opacity: 0.9; stroke: #0000ff; stroke-opacity: 0.9"/>
     <use xlink:href="#m87eed5b46d" x="144.006654" y="354.280665" style="fill: #0000ff; fill-opacity: 0.9; stroke: #0000ff; stroke-opacity: 0.9"/>
     <use xlink:href="#m87eed5b46d" x="154.01075" y="314.577783" style="fill: #0000ff; fill-opacity: 0.9; stroke: #0000ff; stroke-opacity: 0.9"/>
     <use xlink:href="#m87eed5b46d" x="164.014845" y="362.221242" style="fill: #0000ff; fill-opacity: 0.9; stroke: #0000ff; stroke-opacity: 0.9"/>
     <use xlink:href="#m87eed5b46d" x="174.01894" y="362.221242" style="fill: #0000ff; fill-opacity: 0.9; stroke: #0000ff; stroke-opacity: 0.9"/>
     <use xlink:href="#m87eed5b46d" x="184.023036" y="135.914812" style="fill: #0000ff; fill-opacity: 0.9; stroke: #0000ff; stroke-opacity: 0.9"/>
     <use xlink:href="#m87eed5b46d" x="194.027131" y="330.458936" style="fill: #0000ff; fill-opacity: 0.9; stroke: #0000ff; stroke-opacity: 0.9"/>
     <use xlink:href="#m87eed5b46d" x="204.031227" y="362.221242" style="fill: #0000ff; fill-opacity: 0.9; stroke: #0000ff; stroke-opacity: 0.9"/>
     <use xlink:href="#m87eed5b46d" x="214.035322" y="362.221242" style="fill: #0000ff; fill-opacity: 0.9; stroke: #0000ff; stroke-opacity: 0.9"/>
     <use xlink:href="#m87eed5b46d" x="224.039418" y="362.221242" style="fill: #0000ff; fill-opacity: 0.9; stroke: #0000ff; stroke-opacity: 0.9"/>
     <use xlink:href="#m87eed5b46d" x="234.043513" y="346.340089" style="fill: #0000ff; fill-opacity: 0.9; stroke: #0000ff; stroke-opacity: 0.9"/>
     <use xlink:href="#m87eed5b46d" x="244.047608" y="362.221242" style="fill: #0000ff; fill-opacity: 0.9; stroke: #0000ff; stroke-opacity: 0.9"/>
     <use xlink:href="#m87eed5b46d" x="254.051704" y="362.221242" style="fill: #0000ff; fill-opacity: 0.9; stroke: #0000ff; stroke-opacity: 0.9"/>
     <use xlink:href="#m87eed5b46d" x="264.055799" y="362.221242" style="fill: #0000ff; fill-opacity: 0.9; stroke: #0000ff; stroke-opacity: 0.9"/>
     <use xlink:href="#m87eed5b46d" x="274.059895" y="358.250953" style="fill: #0000ff; fill-opacity: 0.9; stroke: #0000ff; stroke-opacity: 0.9"/>
     <use xlink:href="#m87eed5b46d" x="284.06399" y="104.152506" style="fill: #0000ff; fill-opacity: 0.9; stroke: #0000ff; stroke-opacity: 0.9"/>
     <use xlink:href="#m87eed5b46d" x="294.068086" y="330.458936" style="fill: #0000ff; fill-opacity: 0.9; stroke: #0000ff; stroke-opacity: 0.9"/>
     <use xlink:href="#m87eed5b46d" x="304.072181" y="362.221242" style="fill: #0000ff; fill-opacity: 0.9; stroke: #0000ff; stroke-opacity: 0.9"/>
     <use xlink:href="#m87eed5b46d" x="314.076276" y="362.221242" style="fill: #0000ff; fill-opacity: 0.9; stroke: #0000ff; stroke-opacity: 0.9"/>
     <use xlink:href="#m87eed5b46d" x="324.080372" y="362.221242" style="fill: #0000ff; fill-opacity: 0.9; stroke: #0000ff; stroke-opacity: 0.9"/>
     <use xlink:href="#m87eed5b46d" x="334.084467" y="298.69663" style="fill: #0000ff; fill-opacity: 0.9; stroke: #0000ff; stroke-opacity: 0.9"/>
     <use xlink:href="#m87eed5b46d" x="344.088563" y="243.112594" style="fill: #0000ff; fill-opacity: 0.9; stroke: #0000ff; stroke-opacity: 0.9"/>
     <use xlink:href="#m87eed5b46d" x="354.092658" y="231.201729" style="fill: #0000ff; fill-opacity: 0.9; stroke: #0000ff; stroke-opacity: 0.9"/>
     <use xlink:href="#m87eed5b46d" x="364.096754" y="243.112594" style="fill: #0000ff; fill-opacity: 0.9; stroke: #0000ff; stroke-opacity: 0.9"/>
     <use xlink:href="#m87eed5b46d" x="374.100849" y="243.112594" style="fill: #0000ff; fill-opacity: 0.9; stroke: #0000ff; stroke-opacity: 0.9"/>
     <use xlink:href="#m87eed5b46d" x="384.104944" y="80.330776" style="fill: #0000ff; fill-opacity: 0.9; stroke: #0000ff; stroke-opacity: 0.9"/>
     <use xlink:href="#m87eed5b46d" x="394.10904" y="370.161818" style="fill: #0000ff; fill-opacity: 0.9; stroke: #0000ff; stroke-opacity: 0.9"/>
     <use xlink:href="#m87eed5b46d" x="404.113135" y="219.290865" style="fill: #0000ff; fill-opacity: 0.9; stroke: #0000ff; stroke-opacity: 0.9"/>
     <use xlink:href="#m87eed5b46d" x="414.117231" y="243.112594" style="fill: #0000ff; fill-opacity: 0.9; stroke: #0000ff; stroke-opacity: 0.9"/>
     <use xlink:href="#m87eed5b46d" x="424.121326" y="243.112594" style="fill: #0000ff; fill-opacity: 0.9; stroke: #0000ff; stroke-opacity: 0.9"/>
     <use xlink:href="#m87eed5b46d" x="434.125422" y="227.231441" style="fill: #0000ff; fill-opacity: 0.9; stroke: #0000ff; stroke-opacity: 0.9"/>
     <use xlink:href="#m87eed5b46d" x="444.129517" y="243.112594" style="fill: #0000ff; fill-opacity: 0.9; stroke: #0000ff; stroke-opacity: 0.9"/>
     <use xlink:href="#m87eed5b46d" x="454.133613" y="243.112594" style="fill: #0000ff; fill-opacity: 0.9; stroke: #0000ff; stroke-opacity: 0.9"/>
     <use xlink:href="#m87eed5b46d" x="464.137708" y="243.112594" style="fill: #0000ff; fill-opacity: 0.9; stroke: #0000ff; stroke-opacity: 0.9"/>
     <use xlink:href="#m87eed5b46d" x="474.141803" y="362.221242" style="fill: #0000ff; fill-opacity: 0.9; stroke: #0000ff; stroke-opacity: 0.9"/>
     <use xlink:href="#m87eed5b46d" x="484.145899" y="52.538758" style="fill: #0000ff; fill-opacity: 0.9; stroke: #0000ff; stroke-opacity: 0.9"/>
     <use xlink:href="#m87eed5b46d" x="494.149994" y="362.221242" style="fill: #0000ff; fill-opacity: 0.9; stroke: #0000ff; stroke-opacity: 0.9"/>
     <use xlink:href="#m87eed5b46d" x="504.15409" y="362.221242" style="fill: #0000ff; fill-opacity: 0.9; stroke: #0000ff; stroke-opacity: 0.9"/>
     <use xlink:href="#m87eed5b46d" x="514.158185" y="362.221242" style="fill: #0000ff; fill-opacity: 0.9; stroke: #0000ff; stroke-opacity: 0.9"/>
     <use xlink:href="#m87eed5b46d" x="524.162281" y="334.429224" style="fill: #0000ff; fill-opacity: 0.9; stroke: #0000ff; stroke-opacity: 0.9"/>
     <use xlink:href="#m87eed5b46d" x="534.166376" y="326.488647" style="fill: #0000ff; fill-opacity: 0.9; stroke: #0000ff; stroke-opacity: 0.9"/>
     <use xlink:href="#m87eed5b46d" x="544.170471" y="322.518359" style="fill: #0000ff; fill-opacity: 0.9; stroke: #0000ff; stroke-opacity: 0.9"/>
     <use xlink:href="#m87eed5b46d" x="554.174567" y="243.112594" style="fill: #0000ff; fill-opacity: 0.9; stroke: #0000ff; stroke-opacity: 0.9"/>
     <use xlink:href="#m87eed5b46d" x="564.178662" y="243.112594" style="fill: #0000ff; fill-opacity: 0.9; stroke: #0000ff; stroke-opacity: 0.9"/>
     <use xlink:href="#m87eed5b46d" x="574.182758" y="243.112594" style="fill: #0000ff; fill-opacity: 0.9; stroke: #0000ff; stroke-opacity: 0.9"/>
     <use xlink:href="#m87eed5b46d" x="584.186853" y="116.06337" style="fill: #0000ff; fill-opacity: 0.9; stroke: #0000ff; stroke-opacity: 0.9"/>
     <use xlink:href="#m87eed5b46d" x="594.190949" y="251.053171" style="fill: #0000ff; fill-opacity: 0.9; stroke: #0000ff; stroke-opacity: 0.9"/>
     <use xlink:href="#m87eed5b46d" x="604.195044" y="243.112594" style="fill: #0000ff; fill-opacity: 0.9; stroke: #0000ff; stroke-opacity: 0.9"/>
     <use xlink:href="#m87eed5b46d" x="614.199139" y="243.112594" style="fill: #0000ff; fill-opacity: 0.9; stroke: #0000ff; stroke-opacity: 0.9"/>
     <use xlink:href="#m87eed5b46d" x="624.203235" y="243.112594" style="fill: #0000ff; fill-opacity: 0.9; stroke: #0000ff; stroke-opacity: 0.9"/>
     <use xlink:href="#m87eed5b46d" x="634.20733" y="227.231441" style="fill: #0000ff; fill-opacity: 0.9; stroke: #0000ff; stroke-opacity: 0.9"/>
     <use xlink:href="#m87eed5b46d" x="644.211426" y="227.231441" style="fill: #0000ff; fill-opacity: 0.9; stroke: #0000ff; stroke-opacity: 0.9"/>
     <use xlink:href="#m87eed5b46d" x="654.215521" y="362.221242" style="fill: #0000ff; fill-opacity: 0.9; stroke: #0000ff; stroke-opacity: 0.9"/>
     <use xlink:href="#m87eed5b46d" x="664.219617" y="362.221242" style="fill: #0000ff; fill-opacity: 0.9; stroke: #0000ff; stroke-opacity: 0.9"/>
     <use xlink:href="#m87eed5b46d" x="674.223712" y="362.221242" style="fill: #0000ff; fill-opacity: 0.9; stroke: #0000ff; stroke-opacity: 0.9"/>
    </g>
   </g>
   <g id="patch_3">
    <path d="M 54.47 386.44 
L 54.47 28.32 
" style="fill: none; stroke: #000000; stroke-width: 0.8; stroke-linejoin: miter; stroke-linecap: square"/>
   </g>
   <g id="patch_4">
    <path d="M 703.735794 386.44 
L 703.735794 28.32 
" style="fill: none; stroke: #000000; stroke-width: 0.8; stroke-linejoin: miter; stroke-linecap: square"/>
   </g>
   <g id="patch_5">
    <path d="M 54.47 386.44 
L 703.735794 386.44 
" style="fill: none; stroke: #000000; stroke-width: 0.8; stroke-linejoin: miter; stroke-linecap: square"/>
   </g>
   <g id="patch_6">
    <path d="M 54.47 28.32 
L 703.735794 28.32 
" style="fill: none; stroke: #000000; stroke-width: 0.8; stroke-linejoin: miter; stroke-linecap: square"/>
   </g>
   <g id="text_15">
    <!-- Request Frequency for Device 479 (Minute) -->
    <g transform="translate(205.369147 22.32) scale(0.16 -0.16)">
     <defs>
      <path id="DejaVuSans-46" d="M 628 4666 
L 3309 4666 
L 3309 4134 
L 1259 4134 
L 1259 2759 
L 3109 2759 
L 3109 2228 
L 1259 2228 
L 1259 0 
L 628 0 
L 628 4666 
z
" transform="scale(0.015625)"/>
      <path id="DejaVuSans-63" d="M 3122 3366 
L 3122 2828 
Q 2878 2963 2633 3030 
Q 2388 3097 2138 3097 
Q 1578 3097 1268 2742 
Q 959 2388 959 1747 
Q 959 1106 1268 751 
Q 1578 397 2138 397 
Q 2388 397 2633 464 
Q 2878 531 3122 666 
L 3122 134 
Q 2881 22 2623 -34 
Q 2366 -91 2075 -91 
Q 1284 -91 818 406 
Q 353 903 353 1747 
Q 353 2603 823 3093 
Q 1294 3584 2113 3584 
Q 2378 3584 2631 3529 
Q 2884 3475 3122 3366 
z
" transform="scale(0.015625)"/>
      <path id="DejaVuSans-79" d="M 2059 -325 
Q 1816 -950 1584 -1140 
Q 1353 -1331 966 -1331 
L 506 -1331 
L 506 -850 
L 844 -850 
Q 1081 -850 1212 -737 
Q 1344 -625 1503 -206 
L 1606 56 
L 191 3500 
L 800 3500 
L 1894 763 
L 2988 3500 
L 3597 3500 
L 2059 -325 
z
" transform="scale(0.015625)"/>
      <path id="DejaVuSans-44" d="M 1259 4147 
L 1259 519 
L 2022 519 
Q 2988 519 3436 956 
Q 3884 1394 3884 2338 
Q 3884 3275 3436 3711 
Q 2988 4147 2022 4147 
L 1259 4147 
z
M 628 4666 
L 1925 4666 
Q 3281 4666 3915 4102 
Q 4550 3538 4550 2338 
Q 4550 1131 3912 565 
Q 3275 0 1925 0 
L 628 0 
L 628 4666 
z
" transform="scale(0.015625)"/>
      <path id="DejaVuSans-76" d="M 191 3500 
L 800 3500 
L 1894 563 
L 2988 3500 
L 3597 3500 
L 2284 0 
L 1503 0 
L 191 3500 
z
" transform="scale(0.015625)"/>
      <path id="DejaVuSans-39" d="M 703 97 
L 703 672 
Q 941 559 1184 500 
Q 1428 441 1663 441 
Q 2288 441 2617 861 
Q 2947 1281 2994 2138 
Q 2813 1869 2534 1725 
Q 2256 1581 1919 1581 
Q 1219 1581 811 2004 
Q 403 2428 403 3163 
Q 403 3881 828 4315 
Q 1253 4750 1959 4750 
Q 2769 4750 3195 4129 
Q 3622 3509 3622 2328 
Q 3622 1225 3098 567 
Q 2575 -91 1691 -91 
Q 1453 -91 1209 -44 
Q 966 3 703 97 
z
M 1959 2075 
Q 2384 2075 2632 2365 
Q 2881 2656 2881 3163 
Q 2881 3666 2632 3958 
Q 2384 4250 1959 4250 
Q 1534 4250 1286 3958 
Q 1038 3666 1038 3163 
Q 1038 2656 1286 2365 
Q 1534 2075 1959 2075 
z
" transform="scale(0.015625)"/>
     </defs>
     <use xlink:href="#DejaVuSans-52"/>
     <use xlink:href="#DejaVuSans-65" x="64.982422"/>
     <use xlink:href="#DejaVuSans-71" x="126.505859"/>
     <use xlink:href="#DejaVuSans-75" x="189.982422"/>
     <use xlink:href="#DejaVuSans-65" x="253.361328"/>
     <use xlink:href="#DejaVuSans-73" x="314.884766"/>
     <use xlink:href="#DejaVuSans-74" x="366.984375"/>
     <use xlink:href="#DejaVuSans-20" x="406.193359"/>
     <use xlink:href="#DejaVuSans-46" x="437.980469"/>
     <use xlink:href="#DejaVuSans-72" x="488.25"/>
     <use xlink:href="#DejaVuSans-65" x="527.113281"/>
     <use xlink:href="#DejaVuSans-71" x="588.636719"/>
     <use xlink:href="#DejaVuSans-75" x="652.113281"/>
     <use xlink:href="#DejaVuSans-65" x="715.492188"/>
     <use xlink:href="#DejaVuSans-6e" x="777.015625"/>
     <use xlink:href="#DejaVuSans-63" x="840.394531"/>
     <use xlink:href="#DejaVuSans-79" x="895.375"/>
     <use xlink:href="#DejaVuSans-20" x="954.554688"/>
     <use xlink:href="#DejaVuSans-66" x="986.341797"/>
     <use xlink:href="#DejaVuSans-6f" x="1021.546875"/>
     <use xlink:href="#DejaVuSans-72" x="1082.728516"/>
     <use xlink:href="#DejaVuSans-20" x="1123.841797"/>
     <use xlink:href="#DejaVuSans-44" x="1155.628906"/>
     <use xlink:href="#DejaVuSans-65" x="1232.630859"/>
     <use xlink:href="#DejaVuSans-76" x="1294.154297"/>
     <use xlink:href="#DejaVuSans-69" x="1353.333984"/>
     <use xlink:href="#DejaVuSans-63" x="1381.117188"/>
     <use xlink:href="#DejaVuSans-65" x="1436.097656"/>
     <use xlink:href="#DejaVuSans-20" x="1497.621094"/>
     <use xlink:href="#DejaVuSans-34" x="1529.408203"/>
     <use xlink:href="#DejaVuSans-37" x="1593.03125"/>
     <use xlink:href="#DejaVuSans-39" x="1656.654297"/>
     <use xlink:href="#DejaVuSans-20" x="1720.277344"/>
     <use xlink:href="#DejaVuSans-28" x="1752.064453"/>
     <use xlink:href="#DejaVuSans-4d" x="1791.078125"/>
     <use xlink:href="#DejaVuSans-69" x="1877.357422"/>
     <use xlink:href="#DejaVuSans-6e" x="1905.140625"/>
     <use xlink:href="#DejaVuSans-75" x="1968.519531"/>
     <use xlink:href="#DejaVuSans-74" x="2031.898438"/>
     <use xlink:href="#DejaVuSans-65" x="2071.107422"/>
     <use xlink:href="#DejaVuSans-29" x="2132.630859"/>
    </g>
   </g>
  </g>
 </g>
 <defs>
  <clipPath id="p984fb4c9ae">
   <rect x="54.47" y="28.32" width="649.265794" height="358.12"/>
  </clipPath>
 </defs>
</svg>
