<?xml version="1.0" encoding="utf-8" standalone="no"?>
<!DOCTYPE svg PUBLIC "-//W3C//DTD SVG 1.1//EN"
  "http://www.w3.org/Graphics/SVG/1.1/DTD/svg11.dtd">
<svg xmlns:xlink="http://www.w3.org/1999/xlink" width="720pt" height="432pt" viewBox="0 0 720 432" xmlns="http://www.w3.org/2000/svg" version="1.1">
 <metadata>
  <rdf:RDF xmlns:dc="http://purl.org/dc/elements/1.1/" xmlns:cc="http://creativecommons.org/ns#" xmlns:rdf="http://www.w3.org/1999/02/22-rdf-syntax-ns#">
   <cc:Work>
    <dc:type rdf:resource="http://purl.org/dc/dcmitype/StillImage"/>
    <dc:date>2024-10-28T17:43:49.483811</dc:date>
    <dc:format>image/svg+xml</dc:format>
    <dc:creator>
     <cc:Agent>
      <dc:title>Matplotlib v3.9.2, https://matplotlib.org/</dc:title>
     </cc:Agent>
    </dc:creator>
   </cc:Work>
  </rdf:RDF>
 </metadata>
 <defs>
  <style type="text/css">*{stroke-linejoin: round; stroke-linecap: butt}</style>
 </defs>
 <g id="figure_1">
  <g id="patch_1">
   <path d="M 0 432 
L 720 432 
L 720 0 
L 0 0 
z
" style="fill: #ffffff"/>
  </g>
  <g id="axes_1">
   <g id="patch_2">
    <path d="M 73.37 386.44 
L 703.735794 386.44 
L 703.735794 28.32 
L 73.37 28.32 
z
" style="fill: #ffffff"/>
   </g>
   <g id="matplotlib.axis_1">
    <g id="xtick_1">
     <g id="line2d_1">
      <path d="M 102.022991 386.44 
L 102.022991 28.32 
" clip-path="url(#p05261b793a)" style="fill: none; stroke-dasharray: 2.96,1.28; stroke-dashoffset: 0; stroke: #b0b0b0; stroke-opacity: 0.7; stroke-width: 0.8"/>
     </g>
     <g id="line2d_2">
      <defs>
       <path id="m2b04c68ee6" d="M 0 0 
L 0 3.5 
" style="stroke: #000000; stroke-width: 0.8"/>
      </defs>
      <g>
       <use xlink:href="#m2b04c68ee6" x="102.022991" y="386.44" style="stroke: #000000; stroke-width: 0.8"/>
      </g>
     </g>
     <g id="text_1">
      <!-- 31 16:00 -->
      <g transform="translate(79.662053 401.038437) scale(0.1 -0.1)">
       <defs>
        <path id="DejaVuSans-33" d="M 2597 2516 
Q 3050 2419 3304 2112 
Q 3559 1806 3559 1356 
Q 3559 666 3084 287 
Q 2609 -91 1734 -91 
Q 1441 -91 1130 -33 
Q 819 25 488 141 
L 488 750 
Q 750 597 1062 519 
Q 1375 441 1716 441 
Q 2309 441 2620 675 
Q 2931 909 2931 1356 
Q 2931 1769 2642 2001 
Q 2353 2234 1838 2234 
L 1294 2234 
L 1294 2753 
L 1863 2753 
Q 2328 2753 2575 2939 
Q 2822 3125 2822 3475 
Q 2822 3834 2567 4026 
Q 2313 4219 1838 4219 
Q 1578 4219 1281 4162 
Q 984 4106 628 3988 
L 628 4550 
Q 988 4650 1302 4700 
Q 1616 4750 1894 4750 
Q 2613 4750 3031 4423 
Q 3450 4097 3450 3541 
Q 3450 3153 3228 2886 
Q 3006 2619 2597 2516 
z
" transform="scale(0.015625)"/>
        <path id="DejaVuSans-31" d="M 794 531 
L 1825 531 
L 1825 4091 
L 703 3866 
L 703 4441 
L 1819 4666 
L 2450 4666 
L 2450 531 
L 3481 531 
L 3481 0 
L 794 0 
L 794 531 
z
" transform="scale(0.015625)"/>
        <path id="DejaVuSans-20" transform="scale(0.015625)"/>
        <path id="DejaVuSans-36" d="M 2113 2584 
Q 1688 2584 1439 2293 
Q 1191 2003 1191 1497 
Q 1191 994 1439 701 
Q 1688 409 2113 409 
Q 2538 409 2786 701 
Q 3034 994 3034 1497 
Q 3034 2003 2786 2293 
Q 2538 2584 2113 2584 
z
M 3366 4563 
L 3366 3988 
Q 3128 4100 2886 4159 
Q 2644 4219 2406 4219 
Q 1781 4219 1451 3797 
Q 1122 3375 1075 2522 
Q 1259 2794 1537 2939 
Q 1816 3084 2150 3084 
Q 2853 3084 3261 2657 
Q 3669 2231 3669 1497 
Q 3669 778 3244 343 
Q 2819 -91 2113 -91 
Q 1303 -91 875 529 
Q 447 1150 447 2328 
Q 447 3434 972 4092 
Q 1497 4750 2381 4750 
Q 2619 4750 2861 4703 
Q 3103 4656 3366 4563 
z
" transform="scale(0.015625)"/>
        <path id="DejaVuSans-3a" d="M 750 794 
L 1409 794 
L 1409 0 
L 750 0 
L 750 794 
z
M 750 3309 
L 1409 3309 
L 1409 2516 
L 750 2516 
L 750 3309 
z
" transform="scale(0.015625)"/>
        <path id="DejaVuSans-30" d="M 2034 4250 
Q 1547 4250 1301 3770 
Q 1056 3291 1056 2328 
Q 1056 1369 1301 889 
Q 1547 409 2034 409 
Q 2525 409 2770 889 
Q 3016 1369 3016 2328 
Q 3016 3291 2770 3770 
Q 2525 4250 2034 4250 
z
M 2034 4750 
Q 2819 4750 3233 4129 
Q 3647 3509 3647 2328 
Q 3647 1150 3233 529 
Q 2819 -91 2034 -91 
Q 1250 -91 836 529 
Q 422 1150 422 2328 
Q 422 3509 836 4129 
Q 1250 4750 2034 4750 
z
" transform="scale(0.015625)"/>
       </defs>
       <use xlink:href="#DejaVuSans-33"/>
       <use xlink:href="#DejaVuSans-31" x="63.623047"/>
       <use xlink:href="#DejaVuSans-20" x="127.246094"/>
       <use xlink:href="#DejaVuSans-31" x="159.033203"/>
       <use xlink:href="#DejaVuSans-36" x="222.65625"/>
       <use xlink:href="#DejaVuSans-3a" x="286.279297"/>
       <use xlink:href="#DejaVuSans-30" x="319.970703"/>
       <use xlink:href="#DejaVuSans-30" x="383.59375"/>
      </g>
     </g>
    </g>
    <g id="xtick_2">
     <g id="line2d_3">
      <path d="M 199.151772 386.44 
L 199.151772 28.32 
" clip-path="url(#p05261b793a)" style="fill: none; stroke-dasharray: 2.96,1.28; stroke-dashoffset: 0; stroke: #b0b0b0; stroke-opacity: 0.7; stroke-width: 0.8"/>
     </g>
     <g id="line2d_4">
      <g>
       <use xlink:href="#m2b04c68ee6" x="199.151772" y="386.44" style="stroke: #000000; stroke-width: 0.8"/>
      </g>
     </g>
     <g id="text_2">
      <!-- 31 16:10 -->
      <g transform="translate(176.790835 401.038437) scale(0.1 -0.1)">
       <use xlink:href="#DejaVuSans-33"/>
       <use xlink:href="#DejaVuSans-31" x="63.623047"/>
       <use xlink:href="#DejaVuSans-20" x="127.246094"/>
       <use xlink:href="#DejaVuSans-31" x="159.033203"/>
       <use xlink:href="#DejaVuSans-36" x="222.65625"/>
       <use xlink:href="#DejaVuSans-3a" x="286.279297"/>
       <use xlink:href="#DejaVuSans-31" x="319.970703"/>
       <use xlink:href="#DejaVuSans-30" x="383.59375"/>
      </g>
     </g>
    </g>
    <g id="xtick_3">
     <g id="line2d_5">
      <path d="M 296.280554 386.44 
L 296.280554 28.32 
" clip-path="url(#p05261b793a)" style="fill: none; stroke-dasharray: 2.96,1.28; stroke-dashoffset: 0; stroke: #b0b0b0; stroke-opacity: 0.7; stroke-width: 0.8"/>
     </g>
     <g id="line2d_6">
      <g>
       <use xlink:href="#m2b04c68ee6" x="296.280554" y="386.44" style="stroke: #000000; stroke-width: 0.8"/>
      </g>
     </g>
     <g id="text_3">
      <!-- 31 16:20 -->
      <g transform="translate(273.919617 401.038437) scale(0.1 -0.1)">
       <defs>
        <path id="DejaVuSans-32" d="M 1228 531 
L 3431 531 
L 3431 0 
L 469 0 
L 469 531 
Q 828 903 1448 1529 
Q 2069 2156 2228 2338 
Q 2531 2678 2651 2914 
Q 2772 3150 2772 3378 
Q 2772 3750 2511 3984 
Q 2250 4219 1831 4219 
Q 1534 4219 1204 4116 
Q 875 4013 500 3803 
L 500 4441 
Q 881 4594 1212 4672 
Q 1544 4750 1819 4750 
Q 2544 4750 2975 4387 
Q 3406 4025 3406 3419 
Q 3406 3131 3298 2873 
Q 3191 2616 2906 2266 
Q 2828 2175 2409 1742 
Q 1991 1309 1228 531 
z
" transform="scale(0.015625)"/>
       </defs>
       <use xlink:href="#DejaVuSans-33"/>
       <use xlink:href="#DejaVuSans-31" x="63.623047"/>
       <use xlink:href="#DejaVuSans-20" x="127.246094"/>
       <use xlink:href="#DejaVuSans-31" x="159.033203"/>
       <use xlink:href="#DejaVuSans-36" x="222.65625"/>
       <use xlink:href="#DejaVuSans-3a" x="286.279297"/>
       <use xlink:href="#DejaVuSans-32" x="319.970703"/>
       <use xlink:href="#DejaVuSans-30" x="383.59375"/>
      </g>
     </g>
    </g>
    <g id="xtick_4">
     <g id="line2d_7">
      <path d="M 393.409336 386.44 
L 393.409336 28.32 
" clip-path="url(#p05261b793a)" style="fill: none; stroke-dasharray: 2.96,1.28; stroke-dashoffset: 0; stroke: #b0b0b0; stroke-opacity: 0.7; stroke-width: 0.8"/>
     </g>
     <g id="line2d_8">
      <g>
       <use xlink:href="#m2b04c68ee6" x="393.409336" y="386.44" style="stroke: #000000; stroke-width: 0.8"/>
      </g>
     </g>
     <g id="text_4">
      <!-- 31 16:30 -->
      <g transform="translate(371.048398 401.038437) scale(0.1 -0.1)">
       <use xlink:href="#DejaVuSans-33"/>
       <use xlink:href="#DejaVuSans-31" x="63.623047"/>
       <use xlink:href="#DejaVuSans-20" x="127.246094"/>
       <use xlink:href="#DejaVuSans-31" x="159.033203"/>
       <use xlink:href="#DejaVuSans-36" x="222.65625"/>
       <use xlink:href="#DejaVuSans-3a" x="286.279297"/>
       <use xlink:href="#DejaVuSans-33" x="319.970703"/>
       <use xlink:href="#DejaVuSans-30" x="383.59375"/>
      </g>
     </g>
    </g>
    <g id="xtick_5">
     <g id="line2d_9">
      <path d="M 490.538118 386.44 
L 490.538118 28.32 
" clip-path="url(#p05261b793a)" style="fill: none; stroke-dasharray: 2.96,1.28; stroke-dashoffset: 0; stroke: #b0b0b0; stroke-opacity: 0.7; stroke-width: 0.8"/>
     </g>
     <g id="line2d_10">
      <g>
       <use xlink:href="#m2b04c68ee6" x="490.538118" y="386.44" style="stroke: #000000; stroke-width: 0.8"/>
      </g>
     </g>
     <g id="text_5">
      <!-- 31 16:40 -->
      <g transform="translate(468.17718 401.038437) scale(0.1 -0.1)">
       <defs>
        <path id="DejaVuSans-34" d="M 2419 4116 
L 825 1625 
L 2419 1625 
L 2419 4116 
z
M 2253 4666 
L 3047 4666 
L 3047 1625 
L 3713 1625 
L 3713 1100 
L 3047 1100 
L 3047 0 
L 2419 0 
L 2419 1100 
L 313 1100 
L 313 1709 
L 2253 4666 
z
" transform="scale(0.015625)"/>
       </defs>
       <use xlink:href="#DejaVuSans-33"/>
       <use xlink:href="#DejaVuSans-31" x="63.623047"/>
       <use xlink:href="#DejaVuSans-20" x="127.246094"/>
       <use xlink:href="#DejaVuSans-31" x="159.033203"/>
       <use xlink:href="#DejaVuSans-36" x="222.65625"/>
       <use xlink:href="#DejaVuSans-3a" x="286.279297"/>
       <use xlink:href="#DejaVuSans-34" x="319.970703"/>
       <use xlink:href="#DejaVuSans-30" x="383.59375"/>
      </g>
     </g>
    </g>
    <g id="xtick_6">
     <g id="line2d_11">
      <path d="M 587.666899 386.44 
L 587.666899 28.32 
" clip-path="url(#p05261b793a)" style="fill: none; stroke-dasharray: 2.96,1.28; stroke-dashoffset: 0; stroke: #b0b0b0; stroke-opacity: 0.7; stroke-width: 0.8"/>
     </g>
     <g id="line2d_12">
      <g>
       <use xlink:href="#m2b04c68ee6" x="587.666899" y="386.44" style="stroke: #000000; stroke-width: 0.8"/>
      </g>
     </g>
     <g id="text_6">
      <!-- 31 16:50 -->
      <g transform="translate(565.305962 401.038437) scale(0.1 -0.1)">
       <defs>
        <path id="DejaVuSans-35" d="M 691 4666 
L 3169 4666 
L 3169 4134 
L 1269 4134 
L 1269 2991 
Q 1406 3038 1543 3061 
Q 1681 3084 1819 3084 
Q 2600 3084 3056 2656 
Q 3513 2228 3513 1497 
Q 3513 744 3044 326 
Q 2575 -91 1722 -91 
Q 1428 -91 1123 -41 
Q 819 9 494 109 
L 494 744 
Q 775 591 1075 516 
Q 1375 441 1709 441 
Q 2250 441 2565 725 
Q 2881 1009 2881 1497 
Q 2881 1984 2565 2268 
Q 2250 2553 1709 2553 
Q 1456 2553 1204 2497 
Q 953 2441 691 2322 
L 691 4666 
z
" transform="scale(0.015625)"/>
       </defs>
       <use xlink:href="#DejaVuSans-33"/>
       <use xlink:href="#DejaVuSans-31" x="63.623047"/>
       <use xlink:href="#DejaVuSans-20" x="127.246094"/>
       <use xlink:href="#DejaVuSans-31" x="159.033203"/>
       <use xlink:href="#DejaVuSans-36" x="222.65625"/>
       <use xlink:href="#DejaVuSans-3a" x="286.279297"/>
       <use xlink:href="#DejaVuSans-35" x="319.970703"/>
       <use xlink:href="#DejaVuSans-30" x="383.59375"/>
      </g>
     </g>
    </g>
    <g id="xtick_7">
     <g id="line2d_13">
      <path d="M 684.795681 386.44 
L 684.795681 28.32 
" clip-path="url(#p05261b793a)" style="fill: none; stroke-dasharray: 2.96,1.28; stroke-dashoffset: 0; stroke: #b0b0b0; stroke-opacity: 0.7; stroke-width: 0.8"/>
     </g>
     <g id="line2d_14">
      <g>
       <use xlink:href="#m2b04c68ee6" x="684.795681" y="386.44" style="stroke: #000000; stroke-width: 0.8"/>
      </g>
     </g>
     <g id="text_7">
      <!-- 31 17:00 -->
      <g transform="translate(662.434744 401.038437) scale(0.1 -0.1)">
       <defs>
        <path id="DejaVuSans-37" d="M 525 4666 
L 3525 4666 
L 3525 4397 
L 1831 0 
L 1172 0 
L 2766 4134 
L 525 4134 
L 525 4666 
z
" transform="scale(0.015625)"/>
       </defs>
       <use xlink:href="#DejaVuSans-33"/>
       <use xlink:href="#DejaVuSans-31" x="63.623047"/>
       <use xlink:href="#DejaVuSans-20" x="127.246094"/>
       <use xlink:href="#DejaVuSans-31" x="159.033203"/>
       <use xlink:href="#DejaVuSans-37" x="222.65625"/>
       <use xlink:href="#DejaVuSans-3a" x="286.279297"/>
       <use xlink:href="#DejaVuSans-30" x="319.970703"/>
       <use xlink:href="#DejaVuSans-30" x="383.59375"/>
      </g>
     </g>
    </g>
    <g id="text_8">
     <!-- Time (Minute) -->
     <g transform="translate(339.830709 417.755938) scale(0.14 -0.14)">
      <defs>
       <path id="DejaVuSans-54" d="M -19 4666 
L 3928 4666 
L 3928 4134 
L 2272 4134 
L 2272 0 
L 1638 0 
L 1638 4134 
L -19 4134 
L -19 4666 
z
" transform="scale(0.015625)"/>
       <path id="DejaVuSans-69" d="M 603 3500 
L 1178 3500 
L 1178 0 
L 603 0 
L 603 3500 
z
M 603 4863 
L 1178 4863 
L 1178 4134 
L 603 4134 
L 603 4863 
z
" transform="scale(0.015625)"/>
       <path id="DejaVuSans-6d" d="M 3328 2828 
Q 3544 3216 3844 3400 
Q 4144 3584 4550 3584 
Q 5097 3584 5394 3201 
Q 5691 2819 5691 2113 
L 5691 0 
L 5113 0 
L 5113 2094 
Q 5113 2597 4934 2840 
Q 4756 3084 4391 3084 
Q 3944 3084 3684 2787 
Q 3425 2491 3425 1978 
L 3425 0 
L 2847 0 
L 2847 2094 
Q 2847 2600 2669 2842 
Q 2491 3084 2119 3084 
Q 1678 3084 1418 2786 
Q 1159 2488 1159 1978 
L 1159 0 
L 581 0 
L 581 3500 
L 1159 3500 
L 1159 2956 
Q 1356 3278 1631 3431 
Q 1906 3584 2284 3584 
Q 2666 3584 2933 3390 
Q 3200 3197 3328 2828 
z
" transform="scale(0.015625)"/>
       <path id="DejaVuSans-65" d="M 3597 1894 
L 3597 1613 
L 953 1613 
Q 991 1019 1311 708 
Q 1631 397 2203 397 
Q 2534 397 2845 478 
Q 3156 559 3463 722 
L 3463 178 
Q 3153 47 2828 -22 
Q 2503 -91 2169 -91 
Q 1331 -91 842 396 
Q 353 884 353 1716 
Q 353 2575 817 3079 
Q 1281 3584 2069 3584 
Q 2775 3584 3186 3129 
Q 3597 2675 3597 1894 
z
M 3022 2063 
Q 3016 2534 2758 2815 
Q 2500 3097 2075 3097 
Q 1594 3097 1305 2825 
Q 1016 2553 972 2059 
L 3022 2063 
z
" transform="scale(0.015625)"/>
       <path id="DejaVuSans-28" d="M 1984 4856 
Q 1566 4138 1362 3434 
Q 1159 2731 1159 2009 
Q 1159 1288 1364 580 
Q 1569 -128 1984 -844 
L 1484 -844 
Q 1016 -109 783 600 
Q 550 1309 550 2009 
Q 550 2706 781 3412 
Q 1013 4119 1484 4856 
L 1984 4856 
z
" transform="scale(0.015625)"/>
       <path id="DejaVuSans-4d" d="M 628 4666 
L 1569 4666 
L 2759 1491 
L 3956 4666 
L 4897 4666 
L 4897 0 
L 4281 0 
L 4281 4097 
L 3078 897 
L 2444 897 
L 1241 4097 
L 1241 0 
L 628 0 
L 628 4666 
z
" transform="scale(0.015625)"/>
       <path id="DejaVuSans-6e" d="M 3513 2113 
L 3513 0 
L 2938 0 
L 2938 2094 
Q 2938 2591 2744 2837 
Q 2550 3084 2163 3084 
Q 1697 3084 1428 2787 
Q 1159 2491 1159 1978 
L 1159 0 
L 581 0 
L 581 3500 
L 1159 3500 
L 1159 2956 
Q 1366 3272 1645 3428 
Q 1925 3584 2291 3584 
Q 2894 3584 3203 3211 
Q 3513 2838 3513 2113 
z
" transform="scale(0.015625)"/>
       <path id="DejaVuSans-75" d="M 544 1381 
L 544 3500 
L 1119 3500 
L 1119 1403 
Q 1119 906 1312 657 
Q 1506 409 1894 409 
Q 2359 409 2629 706 
Q 2900 1003 2900 1516 
L 2900 3500 
L 3475 3500 
L 3475 0 
L 2900 0 
L 2900 538 
Q 2691 219 2414 64 
Q 2138 -91 1772 -91 
Q 1169 -91 856 284 
Q 544 659 544 1381 
z
M 1991 3584 
L 1991 3584 
z
" transform="scale(0.015625)"/>
       <path id="DejaVuSans-74" d="M 1172 4494 
L 1172 3500 
L 2356 3500 
L 2356 3053 
L 1172 3053 
L 1172 1153 
Q 1172 725 1289 603 
Q 1406 481 1766 481 
L 2356 481 
L 2356 0 
L 1766 0 
Q 1100 0 847 248 
Q 594 497 594 1153 
L 594 3053 
L 172 3053 
L 172 3500 
L 594 3500 
L 594 4494 
L 1172 4494 
z
" transform="scale(0.015625)"/>
       <path id="DejaVuSans-29" d="M 513 4856 
L 1013 4856 
Q 1481 4119 1714 3412 
Q 1947 2706 1947 2009 
Q 1947 1309 1714 600 
Q 1481 -109 1013 -844 
L 513 -844 
Q 928 -128 1133 580 
Q 1338 1288 1338 2009 
Q 1338 2731 1133 3434 
Q 928 4138 513 4856 
z
" transform="scale(0.015625)"/>
      </defs>
      <use xlink:href="#DejaVuSans-54"/>
      <use xlink:href="#DejaVuSans-69" x="57.958984"/>
      <use xlink:href="#DejaVuSans-6d" x="85.742188"/>
      <use xlink:href="#DejaVuSans-65" x="183.154297"/>
      <use xlink:href="#DejaVuSans-20" x="244.677734"/>
      <use xlink:href="#DejaVuSans-28" x="276.464844"/>
      <use xlink:href="#DejaVuSans-4d" x="315.478516"/>
      <use xlink:href="#DejaVuSans-69" x="401.757812"/>
      <use xlink:href="#DejaVuSans-6e" x="429.541016"/>
      <use xlink:href="#DejaVuSans-75" x="492.919922"/>
      <use xlink:href="#DejaVuSans-74" x="556.298828"/>
      <use xlink:href="#DejaVuSans-65" x="595.507812"/>
      <use xlink:href="#DejaVuSans-29" x="657.03125"/>
     </g>
    </g>
   </g>
   <g id="matplotlib.axis_2">
    <g id="ytick_1">
     <g id="line2d_15">
      <path d="M 73.37 385.74225 
L 703.735794 385.74225 
" clip-path="url(#p05261b793a)" style="fill: none; stroke-dasharray: 2.96,1.28; stroke-dashoffset: 0; stroke: #b0b0b0; stroke-opacity: 0.7; stroke-width: 0.8"/>
     </g>
     <g id="line2d_16">
      <defs>
       <path id="mc62d09ebd3" d="M 0 0 
L -3.5 0 
" style="stroke: #000000; stroke-width: 0.8"/>
      </defs>
      <g>
       <use xlink:href="#mc62d09ebd3" x="73.37" y="385.74225" style="stroke: #000000; stroke-width: 0.8"/>
      </g>
     </g>
     <g id="text_9">
      <!-- 250000 -->
      <g transform="translate(28.195 389.541469) scale(0.1 -0.1)">
       <use xlink:href="#DejaVuSans-32"/>
       <use xlink:href="#DejaVuSans-35" x="63.623047"/>
       <use xlink:href="#DejaVuSans-30" x="127.246094"/>
       <use xlink:href="#DejaVuSans-30" x="190.869141"/>
       <use xlink:href="#DejaVuSans-30" x="254.492188"/>
       <use xlink:href="#DejaVuSans-30" x="318.115234"/>
      </g>
     </g>
    </g>
    <g id="ytick_2">
     <g id="line2d_17">
      <path d="M 73.37 343.413322 
L 703.735794 343.413322 
" clip-path="url(#p05261b793a)" style="fill: none; stroke-dasharray: 2.96,1.28; stroke-dashoffset: 0; stroke: #b0b0b0; stroke-opacity: 0.7; stroke-width: 0.8"/>
     </g>
     <g id="line2d_18">
      <g>
       <use xlink:href="#mc62d09ebd3" x="73.37" y="343.413322" style="stroke: #000000; stroke-width: 0.8"/>
      </g>
     </g>
     <g id="text_10">
      <!-- 300000 -->
      <g transform="translate(28.195 347.212541) scale(0.1 -0.1)">
       <use xlink:href="#DejaVuSans-33"/>
       <use xlink:href="#DejaVuSans-30" x="63.623047"/>
       <use xlink:href="#DejaVuSans-30" x="127.246094"/>
       <use xlink:href="#DejaVuSans-30" x="190.869141"/>
       <use xlink:href="#DejaVuSans-30" x="254.492188"/>
       <use xlink:href="#DejaVuSans-30" x="318.115234"/>
      </g>
     </g>
    </g>
    <g id="ytick_3">
     <g id="line2d_19">
      <path d="M 73.37 301.084394 
L 703.735794 301.084394 
" clip-path="url(#p05261b793a)" style="fill: none; stroke-dasharray: 2.96,1.28; stroke-dashoffset: 0; stroke: #b0b0b0; stroke-opacity: 0.7; stroke-width: 0.8"/>
     </g>
     <g id="line2d_20">
      <g>
       <use xlink:href="#mc62d09ebd3" x="73.37" y="301.084394" style="stroke: #000000; stroke-width: 0.8"/>
      </g>
     </g>
     <g id="text_11">
      <!-- 350000 -->
      <g transform="translate(28.195 304.883613) scale(0.1 -0.1)">
       <use xlink:href="#DejaVuSans-33"/>
       <use xlink:href="#DejaVuSans-35" x="63.623047"/>
       <use xlink:href="#DejaVuSans-30" x="127.246094"/>
       <use xlink:href="#DejaVuSans-30" x="190.869141"/>
       <use xlink:href="#DejaVuSans-30" x="254.492188"/>
       <use xlink:href="#DejaVuSans-30" x="318.115234"/>
      </g>
     </g>
    </g>
    <g id="ytick_4">
     <g id="line2d_21">
      <path d="M 73.37 258.755466 
L 703.735794 258.755466 
" clip-path="url(#p05261b793a)" style="fill: none; stroke-dasharray: 2.96,1.28; stroke-dashoffset: 0; stroke: #b0b0b0; stroke-opacity: 0.7; stroke-width: 0.8"/>
     </g>
     <g id="line2d_22">
      <g>
       <use xlink:href="#mc62d09ebd3" x="73.37" y="258.755466" style="stroke: #000000; stroke-width: 0.8"/>
      </g>
     </g>
     <g id="text_12">
      <!-- 400000 -->
      <g transform="translate(28.195 262.554685) scale(0.1 -0.1)">
       <use xlink:href="#DejaVuSans-34"/>
       <use xlink:href="#DejaVuSans-30" x="63.623047"/>
       <use xlink:href="#DejaVuSans-30" x="127.246094"/>
       <use xlink:href="#DejaVuSans-30" x="190.869141"/>
       <use xlink:href="#DejaVuSans-30" x="254.492188"/>
       <use xlink:href="#DejaVuSans-30" x="318.115234"/>
      </g>
     </g>
    </g>
    <g id="ytick_5">
     <g id="line2d_23">
      <path d="M 73.37 216.426538 
L 703.735794 216.426538 
" clip-path="url(#p05261b793a)" style="fill: none; stroke-dasharray: 2.96,1.28; stroke-dashoffset: 0; stroke: #b0b0b0; stroke-opacity: 0.7; stroke-width: 0.8"/>
     </g>
     <g id="line2d_24">
      <g>
       <use xlink:href="#mc62d09ebd3" x="73.37" y="216.426538" style="stroke: #000000; stroke-width: 0.8"/>
      </g>
     </g>
     <g id="text_13">
      <!-- 450000 -->
      <g transform="translate(28.195 220.225757) scale(0.1 -0.1)">
       <use xlink:href="#DejaVuSans-34"/>
       <use xlink:href="#DejaVuSans-35" x="63.623047"/>
       <use xlink:href="#DejaVuSans-30" x="127.246094"/>
       <use xlink:href="#DejaVuSans-30" x="190.869141"/>
       <use xlink:href="#DejaVuSans-30" x="254.492188"/>
       <use xlink:href="#DejaVuSans-30" x="318.115234"/>
      </g>
     </g>
    </g>
    <g id="ytick_6">
     <g id="line2d_25">
      <path d="M 73.37 174.097611 
L 703.735794 174.097611 
" clip-path="url(#p05261b793a)" style="fill: none; stroke-dasharray: 2.96,1.28; stroke-dashoffset: 0; stroke: #b0b0b0; stroke-opacity: 0.7; stroke-width: 0.8"/>
     </g>
     <g id="line2d_26">
      <g>
       <use xlink:href="#mc62d09ebd3" x="73.37" y="174.097611" style="stroke: #000000; stroke-width: 0.8"/>
      </g>
     </g>
     <g id="text_14">
      <!-- 500000 -->
      <g transform="translate(28.195 177.896829) scale(0.1 -0.1)">
       <use xlink:href="#DejaVuSans-35"/>
       <use xlink:href="#DejaVuSans-30" x="63.623047"/>
       <use xlink:href="#DejaVuSans-30" x="127.246094"/>
       <use xlink:href="#DejaVuSans-30" x="190.869141"/>
       <use xlink:href="#DejaVuSans-30" x="254.492188"/>
       <use xlink:href="#DejaVuSans-30" x="318.115234"/>
      </g>
     </g>
    </g>
    <g id="ytick_7">
     <g id="line2d_27">
      <path d="M 73.37 131.768683 
L 703.735794 131.768683 
" clip-path="url(#p05261b793a)" style="fill: none; stroke-dasharray: 2.96,1.28; stroke-dashoffset: 0; stroke: #b0b0b0; stroke-opacity: 0.7; stroke-width: 0.8"/>
     </g>
     <g id="line2d_28">
      <g>
       <use xlink:href="#mc62d09ebd3" x="73.37" y="131.768683" style="stroke: #000000; stroke-width: 0.8"/>
      </g>
     </g>
     <g id="text_15">
      <!-- 550000 -->
      <g transform="translate(28.195 135.567901) scale(0.1 -0.1)">
       <use xlink:href="#DejaVuSans-35"/>
       <use xlink:href="#DejaVuSans-35" x="63.623047"/>
       <use xlink:href="#DejaVuSans-30" x="127.246094"/>
       <use xlink:href="#DejaVuSans-30" x="190.869141"/>
       <use xlink:href="#DejaVuSans-30" x="254.492188"/>
       <use xlink:href="#DejaVuSans-30" x="318.115234"/>
      </g>
     </g>
    </g>
    <g id="ytick_8">
     <g id="line2d_29">
      <path d="M 73.37 89.439755 
L 703.735794 89.439755 
" clip-path="url(#p05261b793a)" style="fill: none; stroke-dasharray: 2.96,1.28; stroke-dashoffset: 0; stroke: #b0b0b0; stroke-opacity: 0.7; stroke-width: 0.8"/>
     </g>
     <g id="line2d_30">
      <g>
       <use xlink:href="#mc62d09ebd3" x="73.37" y="89.439755" style="stroke: #000000; stroke-width: 0.8"/>
      </g>
     </g>
     <g id="text_16">
      <!-- 600000 -->
      <g transform="translate(28.195 93.238974) scale(0.1 -0.1)">
       <use xlink:href="#DejaVuSans-36"/>
       <use xlink:href="#DejaVuSans-30" x="63.623047"/>
       <use xlink:href="#DejaVuSans-30" x="127.246094"/>
       <use xlink:href="#DejaVuSans-30" x="190.869141"/>
       <use xlink:href="#DejaVuSans-30" x="254.492188"/>
       <use xlink:href="#DejaVuSans-30" x="318.115234"/>
      </g>
     </g>
    </g>
    <g id="ytick_9">
     <g id="line2d_31">
      <path d="M 73.37 47.110827 
L 703.735794 47.110827 
" clip-path="url(#p05261b793a)" style="fill: none; stroke-dasharray: 2.96,1.28; stroke-dashoffset: 0; stroke: #b0b0b0; stroke-opacity: 0.7; stroke-width: 0.8"/>
     </g>
     <g id="line2d_32">
      <g>
       <use xlink:href="#mc62d09ebd3" x="73.37" y="47.110827" style="stroke: #000000; stroke-width: 0.8"/>
      </g>
     </g>
     <g id="text_17">
      <!-- 650000 -->
      <g transform="translate(28.195 50.910046) scale(0.1 -0.1)">
       <use xlink:href="#DejaVuSans-36"/>
       <use xlink:href="#DejaVuSans-35" x="63.623047"/>
       <use xlink:href="#DejaVuSans-30" x="127.246094"/>
       <use xlink:href="#DejaVuSans-30" x="190.869141"/>
       <use xlink:href="#DejaVuSans-30" x="254.492188"/>
       <use xlink:href="#DejaVuSans-30" x="318.115234"/>
      </g>
     </g>
    </g>
    <g id="text_18">
     <!-- Number of Requests -->
     <g transform="translate(21.283438 278.777812) rotate(-90) scale(0.14 -0.14)">
      <defs>
       <path id="DejaVuSans-4e" d="M 628 4666 
L 1478 4666 
L 3547 763 
L 3547 4666 
L 4159 4666 
L 4159 0 
L 3309 0 
L 1241 3903 
L 1241 0 
L 628 0 
L 628 4666 
z
" transform="scale(0.015625)"/>
       <path id="DejaVuSans-62" d="M 3116 1747 
Q 3116 2381 2855 2742 
Q 2594 3103 2138 3103 
Q 1681 3103 1420 2742 
Q 1159 2381 1159 1747 
Q 1159 1113 1420 752 
Q 1681 391 2138 391 
Q 2594 391 2855 752 
Q 3116 1113 3116 1747 
z
M 1159 2969 
Q 1341 3281 1617 3432 
Q 1894 3584 2278 3584 
Q 2916 3584 3314 3078 
Q 3713 2572 3713 1747 
Q 3713 922 3314 415 
Q 2916 -91 2278 -91 
Q 1894 -91 1617 61 
Q 1341 213 1159 525 
L 1159 0 
L 581 0 
L 581 4863 
L 1159 4863 
L 1159 2969 
z
" transform="scale(0.015625)"/>
       <path id="DejaVuSans-72" d="M 2631 2963 
Q 2534 3019 2420 3045 
Q 2306 3072 2169 3072 
Q 1681 3072 1420 2755 
Q 1159 2438 1159 1844 
L 1159 0 
L 581 0 
L 581 3500 
L 1159 3500 
L 1159 2956 
Q 1341 3275 1631 3429 
Q 1922 3584 2338 3584 
Q 2397 3584 2469 3576 
Q 2541 3569 2628 3553 
L 2631 2963 
z
" transform="scale(0.015625)"/>
       <path id="DejaVuSans-6f" d="M 1959 3097 
Q 1497 3097 1228 2736 
Q 959 2375 959 1747 
Q 959 1119 1226 758 
Q 1494 397 1959 397 
Q 2419 397 2687 759 
Q 2956 1122 2956 1747 
Q 2956 2369 2687 2733 
Q 2419 3097 1959 3097 
z
M 1959 3584 
Q 2709 3584 3137 3096 
Q 3566 2609 3566 1747 
Q 3566 888 3137 398 
Q 2709 -91 1959 -91 
Q 1206 -91 779 398 
Q 353 888 353 1747 
Q 353 2609 779 3096 
Q 1206 3584 1959 3584 
z
" transform="scale(0.015625)"/>
       <path id="DejaVuSans-66" d="M 2375 4863 
L 2375 4384 
L 1825 4384 
Q 1516 4384 1395 4259 
Q 1275 4134 1275 3809 
L 1275 3500 
L 2222 3500 
L 2222 3053 
L 1275 3053 
L 1275 0 
L 697 0 
L 697 3053 
L 147 3053 
L 147 3500 
L 697 3500 
L 697 3744 
Q 697 4328 969 4595 
Q 1241 4863 1831 4863 
L 2375 4863 
z
" transform="scale(0.015625)"/>
       <path id="DejaVuSans-52" d="M 2841 2188 
Q 3044 2119 3236 1894 
Q 3428 1669 3622 1275 
L 4263 0 
L 3584 0 
L 2988 1197 
Q 2756 1666 2539 1819 
Q 2322 1972 1947 1972 
L 1259 1972 
L 1259 0 
L 628 0 
L 628 4666 
L 2053 4666 
Q 2853 4666 3247 4331 
Q 3641 3997 3641 3322 
Q 3641 2881 3436 2590 
Q 3231 2300 2841 2188 
z
M 1259 4147 
L 1259 2491 
L 2053 2491 
Q 2509 2491 2742 2702 
Q 2975 2913 2975 3322 
Q 2975 3731 2742 3939 
Q 2509 4147 2053 4147 
L 1259 4147 
z
" transform="scale(0.015625)"/>
       <path id="DejaVuSans-71" d="M 947 1747 
Q 947 1113 1208 752 
Q 1469 391 1925 391 
Q 2381 391 2643 752 
Q 2906 1113 2906 1747 
Q 2906 2381 2643 2742 
Q 2381 3103 1925 3103 
Q 1469 3103 1208 2742 
Q 947 2381 947 1747 
z
M 2906 525 
Q 2725 213 2448 61 
Q 2172 -91 1784 -91 
Q 1150 -91 751 415 
Q 353 922 353 1747 
Q 353 2572 751 3078 
Q 1150 3584 1784 3584 
Q 2172 3584 2448 3432 
Q 2725 3281 2906 2969 
L 2906 3500 
L 3481 3500 
L 3481 -1331 
L 2906 -1331 
L 2906 525 
z
" transform="scale(0.015625)"/>
       <path id="DejaVuSans-73" d="M 2834 3397 
L 2834 2853 
Q 2591 2978 2328 3040 
Q 2066 3103 1784 3103 
Q 1356 3103 1142 2972 
Q 928 2841 928 2578 
Q 928 2378 1081 2264 
Q 1234 2150 1697 2047 
L 1894 2003 
Q 2506 1872 2764 1633 
Q 3022 1394 3022 966 
Q 3022 478 2636 193 
Q 2250 -91 1575 -91 
Q 1294 -91 989 -36 
Q 684 19 347 128 
L 347 722 
Q 666 556 975 473 
Q 1284 391 1588 391 
Q 1994 391 2212 530 
Q 2431 669 2431 922 
Q 2431 1156 2273 1281 
Q 2116 1406 1581 1522 
L 1381 1569 
Q 847 1681 609 1914 
Q 372 2147 372 2553 
Q 372 3047 722 3315 
Q 1072 3584 1716 3584 
Q 2034 3584 2315 3537 
Q 2597 3491 2834 3397 
z
" transform="scale(0.015625)"/>
      </defs>
      <use xlink:href="#DejaVuSans-4e"/>
      <use xlink:href="#DejaVuSans-75" x="74.804688"/>
      <use xlink:href="#DejaVuSans-6d" x="138.183594"/>
      <use xlink:href="#DejaVuSans-62" x="235.595703"/>
      <use xlink:href="#DejaVuSans-65" x="299.072266"/>
      <use xlink:href="#DejaVuSans-72" x="360.595703"/>
      <use xlink:href="#DejaVuSans-20" x="401.708984"/>
      <use xlink:href="#DejaVuSans-6f" x="433.496094"/>
      <use xlink:href="#DejaVuSans-66" x="494.677734"/>
      <use xlink:href="#DejaVuSans-20" x="529.882812"/>
      <use xlink:href="#DejaVuSans-52" x="561.669922"/>
      <use xlink:href="#DejaVuSans-65" x="626.652344"/>
      <use xlink:href="#DejaVuSans-71" x="688.175781"/>
      <use xlink:href="#DejaVuSans-75" x="751.652344"/>
      <use xlink:href="#DejaVuSans-65" x="815.03125"/>
      <use xlink:href="#DejaVuSans-73" x="876.554688"/>
      <use xlink:href="#DejaVuSans-74" x="928.654297"/>
      <use xlink:href="#DejaVuSans-73" x="967.863281"/>
     </g>
    </g>
   </g>
   <g id="line2d_33">
    <path d="M 102.022991 135.626541 
L 111.735869 176.276704 
L 121.448747 44.598182 
L 131.161625 157.414087 
L 140.874503 175.238798 
L 150.587381 191.433846 
L 160.30026 183.425213 
L 170.013138 197.130473 
L 179.726016 173.307753 
L 189.438894 153.941422 
L 199.151772 162.063496 
L 208.86465 158.028703 
L 218.577529 120.255214 
L 228.290407 211.457122 
L 238.003285 232.84593 
L 247.716163 222.271317 
L 257.429041 248.027623 
L 267.14192 257.968995 
L 276.854798 296.082808 
L 286.567676 326.316668 
L 296.280554 302.258599 
L 305.993432 301.064076 
L 315.70631 259.856865 
L 325.419189 271.17562 
L 335.132067 323.230889 
L 344.844945 307.251719 
L 354.557823 326.587573 
L 364.270701 325.377812 
L 373.983579 330.840784 
L 383.696458 330.292201 
L 393.409336 232.844236 
L 403.122214 300.246281 
L 412.835092 257.92074 
L 422.54797 268.580857 
L 432.260849 330.450511 
L 441.973727 323.706666 
L 451.686605 336.779533 
L 461.399483 337.283247 
L 471.112361 333.609096 
L 480.825239 331.402066 
L 490.538118 153.780572 
L 500.250996 249.741944 
L 509.963874 181.782851 
L 519.676752 228.445414 
L 529.38963 307.908664 
L 539.102508 314.390069 
L 548.815387 314.904789 
L 558.528265 275.389042 
L 568.241143 278.787208 
L 577.954021 341.544923 
L 587.666899 308.613017 
L 597.379778 330.924595 
L 607.092656 271.584518 
L 616.805534 334.871344 
L 626.518412 370.161818 
L 636.23129 337.643889 
L 645.944168 364.371221 
L 655.657047 350.489026 
L 665.369925 353.876186 
L 675.082803 330.519931 
" clip-path="url(#p05261b793a)" style="fill: none; stroke: #800080; stroke-opacity: 0.9; stroke-width: 2; stroke-linecap: square"/>
    <defs>
     <path id="m1c7103ecfe" d="M 0 3 
C 0.795609 3 1.55874 2.683901 2.12132 2.12132 
C 2.683901 1.55874 3 0.795609 3 0 
C 3 -0.795609 2.683901 -1.55874 2.12132 -2.12132 
C 1.55874 -2.683901 0.795609 -3 0 -3 
C -0.795609 -3 -1.55874 -2.683901 -2.12132 -2.12132 
C -2.683901 -1.55874 -3 -0.795609 -3 0 
C -3 0.795609 -2.683901 1.55874 -2.12132 2.12132 
C -1.55874 2.683901 -0.795609 3 0 3 
z
" style="stroke: #800080; stroke-opacity: 0.9"/>
    </defs>
    <g clip-path="url(#p05261b793a)">
     <use xlink:href="#m1c7103ecfe" x="102.022991" y="135.626541" style="fill: #800080; fill-opacity: 0.9; stroke: #800080; stroke-opacity: 0.9"/>
     <use xlink:href="#m1c7103ecfe" x="111.735869" y="176.276704" style="fill: #800080; fill-opacity: 0.9; stroke: #800080; stroke-opacity: 0.9"/>
     <use xlink:href="#m1c7103ecfe" x="121.448747" y="44.598182" style="fill: #800080; fill-opacity: 0.9; stroke: #800080; stroke-opacity: 0.9"/>
     <use xlink:href="#m1c7103ecfe" x="131.161625" y="157.414087" style="fill: #800080; fill-opacity: 0.9; stroke: #800080; stroke-opacity: 0.9"/>
     <use xlink:href="#m1c7103ecfe" x="140.874503" y="175.238798" style="fill: #800080; fill-opacity: 0.9; stroke: #800080; stroke-opacity: 0.9"/>
     <use xlink:href="#m1c7103ecfe" x="150.587381" y="191.433846" style="fill: #800080; fill-opacity: 0.9; stroke: #800080; stroke-opacity: 0.9"/>
     <use xlink:href="#m1c7103ecfe" x="160.30026" y="183.425213" style="fill: #800080; fill-opacity: 0.9; stroke: #800080; stroke-opacity: 0.9"/>
     <use xlink:href="#m1c7103ecfe" x="170.013138" y="197.130473" style="fill: #800080; fill-opacity: 0.9; stroke: #800080; stroke-opacity: 0.9"/>
     <use xlink:href="#m1c7103ecfe" x="179.726016" y="173.307753" style="fill: #800080; fill-opacity: 0.9; stroke: #800080; stroke-opacity: 0.9"/>
     <use xlink:href="#m1c7103ecfe" x="189.438894" y="153.941422" style="fill: #800080; fill-opacity: 0.9; stroke: #800080; stroke-opacity: 0.9"/>
     <use xlink:href="#m1c7103ecfe" x="199.151772" y="162.063496" style="fill: #800080; fill-opacity: 0.9; stroke: #800080; stroke-opacity: 0.9"/>
     <use xlink:href="#m1c7103ecfe" x="208.86465" y="158.028703" style="fill: #800080; fill-opacity: 0.9; stroke: #800080; stroke-opacity: 0.9"/>
     <use xlink:href="#m1c7103ecfe" x="218.577529" y="120.255214" style="fill: #800080; fill-opacity: 0.9; stroke: #800080; stroke-opacity: 0.9"/>
     <use xlink:href="#m1c7103ecfe" x="228.290407" y="211.457122" style="fill: #800080; fill-opacity: 0.9; stroke: #800080; stroke-opacity: 0.9"/>
     <use xlink:href="#m1c7103ecfe" x="238.003285" y="232.84593" style="fill: #800080; fill-opacity: 0.9; stroke: #800080; stroke-opacity: 0.9"/>
     <use xlink:href="#m1c7103ecfe" x="247.716163" y="222.271317" style="fill: #800080; fill-opacity: 0.9; stroke: #800080; stroke-opacity: 0.9"/>
     <use xlink:href="#m1c7103ecfe" x="257.429041" y="248.027623" style="fill: #800080; fill-opacity: 0.9; stroke: #800080; stroke-opacity: 0.9"/>
     <use xlink:href="#m1c7103ecfe" x="267.14192" y="257.968995" style="fill: #800080; fill-opacity: 0.9; stroke: #800080; stroke-opacity: 0.9"/>
     <use xlink:href="#m1c7103ecfe" x="276.854798" y="296.082808" style="fill: #800080; fill-opacity: 0.9; stroke: #800080; stroke-opacity: 0.9"/>
     <use xlink:href="#m1c7103ecfe" x="286.567676" y="326.316668" style="fill: #800080; fill-opacity: 0.9; stroke: #800080; stroke-opacity: 0.9"/>
     <use xlink:href="#m1c7103ecfe" x="296.280554" y="302.258599" style="fill: #800080; fill-opacity: 0.9; stroke: #800080; stroke-opacity: 0.9"/>
     <use xlink:href="#m1c7103ecfe" x="305.993432" y="301.064076" style="fill: #800080; fill-opacity: 0.9; stroke: #800080; stroke-opacity: 0.9"/>
     <use xlink:href="#m1c7103ecfe" x="315.70631" y="259.856865" style="fill: #800080; fill-opacity: 0.9; stroke: #800080; stroke-opacity: 0.9"/>
     <use xlink:href="#m1c7103ecfe" x="325.419189" y="271.17562" style="fill: #800080; fill-opacity: 0.9; stroke: #800080; stroke-opacity: 0.9"/>
     <use xlink:href="#m1c7103ecfe" x="335.132067" y="323.230889" style="fill: #800080; fill-opacity: 0.9; stroke: #800080; stroke-opacity: 0.9"/>
     <use xlink:href="#m1c7103ecfe" x="344.844945" y="307.251719" style="fill: #800080; fill-opacity: 0.9; stroke: #800080; stroke-opacity: 0.9"/>
     <use xlink:href="#m1c7103ecfe" x="354.557823" y="326.587573" style="fill: #800080; fill-opacity: 0.9; stroke: #800080; stroke-opacity: 0.9"/>
     <use xlink:href="#m1c7103ecfe" x="364.270701" y="325.377812" style="fill: #800080; fill-opacity: 0.9; stroke: #800080; stroke-opacity: 0.9"/>
     <use xlink:href="#m1c7103ecfe" x="373.983579" y="330.840784" style="fill: #800080; fill-opacity: 0.9; stroke: #800080; stroke-opacity: 0.9"/>
     <use xlink:href="#m1c7103ecfe" x="383.696458" y="330.292201" style="fill: #800080; fill-opacity: 0.9; stroke: #800080; stroke-opacity: 0.9"/>
     <use xlink:href="#m1c7103ecfe" x="393.409336" y="232.844236" style="fill: #800080; fill-opacity: 0.9; stroke: #800080; stroke-opacity: 0.9"/>
     <use xlink:href="#m1c7103ecfe" x="403.122214" y="300.246281" style="fill: #800080; fill-opacity: 0.9; stroke: #800080; stroke-opacity: 0.9"/>
     <use xlink:href="#m1c7103ecfe" x="412.835092" y="257.92074" style="fill: #800080; fill-opacity: 0.9; stroke: #800080; stroke-opacity: 0.9"/>
     <use xlink:href="#m1c7103ecfe" x="422.54797" y="268.580857" style="fill: #800080; fill-opacity: 0.9; stroke: #800080; stroke-opacity: 0.9"/>
     <use xlink:href="#m1c7103ecfe" x="432.260849" y="330.450511" style="fill: #800080; fill-opacity: 0.9; stroke: #800080; stroke-opacity: 0.9"/>
     <use xlink:href="#m1c7103ecfe" x="441.973727" y="323.706666" style="fill: #800080; fill-opacity: 0.9; stroke: #800080; stroke-opacity: 0.9"/>
     <use xlink:href="#m1c7103ecfe" x="451.686605" y="336.779533" style="fill: #800080; fill-opacity: 0.9; stroke: #800080; stroke-opacity: 0.9"/>
     <use xlink:href="#m1c7103ecfe" x="461.399483" y="337.283247" style="fill: #800080; fill-opacity: 0.9; stroke: #800080; stroke-opacity: 0.9"/>
     <use xlink:href="#m1c7103ecfe" x="471.112361" y="333.609096" style="fill: #800080; fill-opacity: 0.9; stroke: #800080; stroke-opacity: 0.9"/>
     <use xlink:href="#m1c7103ecfe" x="480.825239" y="331.402066" style="fill: #800080; fill-opacity: 0.9; stroke: #800080; stroke-opacity: 0.9"/>
     <use xlink:href="#m1c7103ecfe" x="490.538118" y="153.780572" style="fill: #800080; fill-opacity: 0.9; stroke: #800080; stroke-opacity: 0.9"/>
     <use xlink:href="#m1c7103ecfe" x="500.250996" y="249.741944" style="fill: #800080; fill-opacity: 0.9; stroke: #800080; stroke-opacity: 0.9"/>
     <use xlink:href="#m1c7103ecfe" x="509.963874" y="181.782851" style="fill: #800080; fill-opacity: 0.9; stroke: #800080; stroke-opacity: 0.9"/>
     <use xlink:href="#m1c7103ecfe" x="519.676752" y="228.445414" style="fill: #800080; fill-opacity: 0.9; stroke: #800080; stroke-opacity: 0.9"/>
     <use xlink:href="#m1c7103ecfe" x="529.38963" y="307.908664" style="fill: #800080; fill-opacity: 0.9; stroke: #800080; stroke-opacity: 0.9"/>
     <use xlink:href="#m1c7103ecfe" x="539.102508" y="314.390069" style="fill: #800080; fill-opacity: 0.9; stroke: #800080; stroke-opacity: 0.9"/>
     <use xlink:href="#m1c7103ecfe" x="548.815387" y="314.904789" style="fill: #800080; fill-opacity: 0.9; stroke: #800080; stroke-opacity: 0.9"/>
     <use xlink:href="#m1c7103ecfe" x="558.528265" y="275.389042" style="fill: #800080; fill-opacity: 0.9; stroke: #800080; stroke-opacity: 0.9"/>
     <use xlink:href="#m1c7103ecfe" x="568.241143" y="278.787208" style="fill: #800080; fill-opacity: 0.9; stroke: #800080; stroke-opacity: 0.9"/>
     <use xlink:href="#m1c7103ecfe" x="577.954021" y="341.544923" style="fill: #800080; fill-opacity: 0.9; stroke: #800080; stroke-opacity: 0.9"/>
     <use xlink:href="#m1c7103ecfe" x="587.666899" y="308.613017" style="fill: #800080; fill-opacity: 0.9; stroke: #800080; stroke-opacity: 0.9"/>
     <use xlink:href="#m1c7103ecfe" x="597.379778" y="330.924595" style="fill: #800080; fill-opacity: 0.9; stroke: #800080; stroke-opacity: 0.9"/>
     <use xlink:href="#m1c7103ecfe" x="607.092656" y="271.584518" style="fill: #800080; fill-opacity: 0.9; stroke: #800080; stroke-opacity: 0.9"/>
     <use xlink:href="#m1c7103ecfe" x="616.805534" y="334.871344" style="fill: #800080; fill-opacity: 0.9; stroke: #800080; stroke-opacity: 0.9"/>
     <use xlink:href="#m1c7103ecfe" x="626.518412" y="370.161818" style="fill: #800080; fill-opacity: 0.9; stroke: #800080; stroke-opacity: 0.9"/>
     <use xlink:href="#m1c7103ecfe" x="636.23129" y="337.643889" style="fill: #800080; fill-opacity: 0.9; stroke: #800080; stroke-opacity: 0.9"/>
     <use xlink:href="#m1c7103ecfe" x="645.944168" y="364.371221" style="fill: #800080; fill-opacity: 0.9; stroke: #800080; stroke-opacity: 0.9"/>
     <use xlink:href="#m1c7103ecfe" x="655.657047" y="350.489026" style="fill: #800080; fill-opacity: 0.9; stroke: #800080; stroke-opacity: 0.9"/>
     <use xlink:href="#m1c7103ecfe" x="665.369925" y="353.876186" style="fill: #800080; fill-opacity: 0.9; stroke: #800080; stroke-opacity: 0.9"/>
     <use xlink:href="#m1c7103ecfe" x="675.082803" y="330.519931" style="fill: #800080; fill-opacity: 0.9; stroke: #800080; stroke-opacity: 0.9"/>
    </g>
   </g>
   <g id="patch_3">
    <path d="M 73.37 386.44 
L 73.37 28.32 
" style="fill: none; stroke: #000000; stroke-width: 0.8; stroke-linejoin: miter; stroke-linecap: square"/>
   </g>
   <g id="patch_4">
    <path d="M 703.735794 386.44 
L 703.735794 28.32 
" style="fill: none; stroke: #000000; stroke-width: 0.8; stroke-linejoin: miter; stroke-linecap: square"/>
   </g>
   <g id="patch_5">
    <path d="M 73.37 386.44 
L 703.735794 386.44 
" style="fill: none; stroke: #000000; stroke-width: 0.8; stroke-linejoin: miter; stroke-linecap: square"/>
   </g>
   <g id="patch_6">
    <path d="M 73.37 28.32 
L 703.735794 28.32 
" style="fill: none; stroke: #000000; stroke-width: 0.8; stroke-linejoin: miter; stroke-linecap: square"/>
   </g>
   <g id="text_19">
    <!-- Request Frequency Over Time (Minute) -->
    <g transform="translate(232.175397 22.32) scale(0.16 -0.16)">
     <defs>
      <path id="DejaVuSans-46" d="M 628 4666 
L 3309 4666 
L 3309 4134 
L 1259 4134 
L 1259 2759 
L 3109 2759 
L 3109 2228 
L 1259 2228 
L 1259 0 
L 628 0 
L 628 4666 
z
" transform="scale(0.015625)"/>
      <path id="DejaVuSans-63" d="M 3122 3366 
L 3122 2828 
Q 2878 2963 2633 3030 
Q 2388 3097 2138 3097 
Q 1578 3097 1268 2742 
Q 959 2388 959 1747 
Q 959 1106 1268 751 
Q 1578 397 2138 397 
Q 2388 397 2633 464 
Q 2878 531 3122 666 
L 3122 134 
Q 2881 22 2623 -34 
Q 2366 -91 2075 -91 
Q 1284 -91 818 406 
Q 353 903 353 1747 
Q 353 2603 823 3093 
Q 1294 3584 2113 3584 
Q 2378 3584 2631 3529 
Q 2884 3475 3122 3366 
z
" transform="scale(0.015625)"/>
      <path id="DejaVuSans-79" d="M 2059 -325 
Q 1816 -950 1584 -1140 
Q 1353 -1331 966 -1331 
L 506 -1331 
L 506 -850 
L 844 -850 
Q 1081 -850 1212 -737 
Q 1344 -625 1503 -206 
L 1606 56 
L 191 3500 
L 800 3500 
L 1894 763 
L 2988 3500 
L 3597 3500 
L 2059 -325 
z
" transform="scale(0.015625)"/>
      <path id="DejaVuSans-4f" d="M 2522 4238 
Q 1834 4238 1429 3725 
Q 1025 3213 1025 2328 
Q 1025 1447 1429 934 
Q 1834 422 2522 422 
Q 3209 422 3611 934 
Q 4013 1447 4013 2328 
Q 4013 3213 3611 3725 
Q 3209 4238 2522 4238 
z
M 2522 4750 
Q 3503 4750 4090 4092 
Q 4678 3434 4678 2328 
Q 4678 1225 4090 567 
Q 3503 -91 2522 -91 
Q 1538 -91 948 565 
Q 359 1222 359 2328 
Q 359 3434 948 4092 
Q 1538 4750 2522 4750 
z
" transform="scale(0.015625)"/>
      <path id="DejaVuSans-76" d="M 191 3500 
L 800 3500 
L 1894 563 
L 2988 3500 
L 3597 3500 
L 2284 0 
L 1503 0 
L 191 3500 
z
" transform="scale(0.015625)"/>
     </defs>
     <use xlink:href="#DejaVuSans-52"/>
     <use xlink:href="#DejaVuSans-65" x="64.982422"/>
     <use xlink:href="#DejaVuSans-71" x="126.505859"/>
     <use xlink:href="#DejaVuSans-75" x="189.982422"/>
     <use xlink:href="#DejaVuSans-65" x="253.361328"/>
     <use xlink:href="#DejaVuSans-73" x="314.884766"/>
     <use xlink:href="#DejaVuSans-74" x="366.984375"/>
     <use xlink:href="#DejaVuSans-20" x="406.193359"/>
     <use xlink:href="#DejaVuSans-46" x="437.980469"/>
     <use xlink:href="#DejaVuSans-72" x="488.25"/>
     <use xlink:href="#DejaVuSans-65" x="527.113281"/>
     <use xlink:href="#DejaVuSans-71" x="588.636719"/>
     <use xlink:href="#DejaVuSans-75" x="652.113281"/>
     <use xlink:href="#DejaVuSans-65" x="715.492188"/>
     <use xlink:href="#DejaVuSans-6e" x="777.015625"/>
     <use xlink:href="#DejaVuSans-63" x="840.394531"/>
     <use xlink:href="#DejaVuSans-79" x="895.375"/>
     <use xlink:href="#DejaVuSans-20" x="954.554688"/>
     <use xlink:href="#DejaVuSans-4f" x="986.341797"/>
     <use xlink:href="#DejaVuSans-76" x="1065.052734"/>
     <use xlink:href="#DejaVuSans-65" x="1124.232422"/>
     <use xlink:href="#DejaVuSans-72" x="1185.755859"/>
     <use xlink:href="#DejaVuSans-20" x="1226.869141"/>
     <use xlink:href="#DejaVuSans-54" x="1258.65625"/>
     <use xlink:href="#DejaVuSans-69" x="1316.615234"/>
     <use xlink:href="#DejaVuSans-6d" x="1344.398438"/>
     <use xlink:href="#DejaVuSans-65" x="1441.810547"/>
     <use xlink:href="#DejaVuSans-20" x="1503.333984"/>
     <use xlink:href="#DejaVuSans-28" x="1535.121094"/>
     <use xlink:href="#DejaVuSans-4d" x="1574.134766"/>
     <use xlink:href="#DejaVuSans-69" x="1660.414062"/>
     <use xlink:href="#DejaVuSans-6e" x="1688.197266"/>
     <use xlink:href="#DejaVuSans-75" x="1751.576172"/>
     <use xlink:href="#DejaVuSans-74" x="1814.955078"/>
     <use xlink:href="#DejaVuSans-65" x="1854.164062"/>
     <use xlink:href="#DejaVuSans-29" x="1915.6875"/>
    </g>
   </g>
  </g>
 </g>
 <defs>
  <clipPath id="p05261b793a">
   <rect x="73.37" y="28.32" width="630.365794" height="358.12"/>
  </clipPath>
 </defs>
</svg>
