<?xml version="1.0" encoding="utf-8" standalone="no"?>
<!DOCTYPE svg PUBLIC "-//W3C//DTD SVG 1.1//EN"
  "http://www.w3.org/Graphics/SVG/1.1/DTD/svg11.dtd">
<svg xmlns:xlink="http://www.w3.org/1999/xlink" width="720pt" height="432pt" viewBox="0 0 720 432" xmlns="http://www.w3.org/2000/svg" version="1.1">
 <metadata>
  <rdf:RDF xmlns:dc="http://purl.org/dc/elements/1.1/" xmlns:cc="http://creativecommons.org/ns#" xmlns:rdf="http://www.w3.org/1999/02/22-rdf-syntax-ns#">
   <cc:Work>
    <dc:type rdf:resource="http://purl.org/dc/dcmitype/StillImage"/>
    <dc:date>2024-10-27T07:55:21.637622</dc:date>
    <dc:format>image/svg+xml</dc:format>
    <dc:creator>
     <cc:Agent>
      <dc:title>Matplotlib v3.9.2, https://matplotlib.org/</dc:title>
     </cc:Agent>
    </dc:creator>
   </cc:Work>
  </rdf:RDF>
 </metadata>
 <defs>
  <style type="text/css">*{stroke-linejoin: round; stroke-linecap: butt}</style>
 </defs>
 <g id="figure_1">
  <g id="patch_1">
   <path d="M 0 432 
L 720 432 
L 720 0 
L 0 0 
z
" style="fill: #ffffff"/>
  </g>
  <g id="axes_1">
   <g id="patch_2">
    <path d="M 90 384.48 
L 648 384.48 
L 648 51.84 
L 90 51.84 
z
" style="fill: #ffffff"/>
   </g>
   <g id="matplotlib.axis_1">
    <g id="xtick_1">
     <g id="line2d_1">
      <path d="M 115.358313 384.48 
L 115.358313 51.84 
" clip-path="url(#p8ed50db130)" style="fill: none; stroke: #b0b0b0; stroke-width: 0.8; stroke-linecap: square"/>
     </g>
     <g id="line2d_2">
      <defs>
       <path id="me92fbe3a82" d="M 0 0 
L 0 3.5 
" style="stroke: #000000; stroke-width: 0.8"/>
      </defs>
      <g>
       <use xlink:href="#me92fbe3a82" x="115.358313" y="384.48" style="stroke: #000000; stroke-width: 0.8"/>
      </g>
     </g>
     <g id="text_1">
      <!-- 0 -->
      <g transform="translate(112.177063 399.078438) scale(0.1 -0.1)">
       <defs>
        <path id="DejaVuSans-30" d="M 2034 4250 
Q 1547 4250 1301 3770 
Q 1056 3291 1056 2328 
Q 1056 1369 1301 889 
Q 1547 409 2034 409 
Q 2525 409 2770 889 
Q 3016 1369 3016 2328 
Q 3016 3291 2770 3770 
Q 2525 4250 2034 4250 
z
M 2034 4750 
Q 2819 4750 3233 4129 
Q 3647 3509 3647 2328 
Q 3647 1150 3233 529 
Q 2819 -91 2034 -91 
Q 1250 -91 836 529 
Q 422 1150 422 2328 
Q 422 3509 836 4129 
Q 1250 4750 2034 4750 
z
" transform="scale(0.015625)"/>
       </defs>
       <use xlink:href="#DejaVuSans-30"/>
      </g>
     </g>
    </g>
    <g id="xtick_2">
     <g id="line2d_3">
      <path d="M 221.823091 384.48 
L 221.823091 51.84 
" clip-path="url(#p8ed50db130)" style="fill: none; stroke: #b0b0b0; stroke-width: 0.8; stroke-linecap: square"/>
     </g>
     <g id="line2d_4">
      <g>
       <use xlink:href="#me92fbe3a82" x="221.823091" y="384.48" style="stroke: #000000; stroke-width: 0.8"/>
      </g>
     </g>
     <g id="text_2">
      <!-- 20000 -->
      <g transform="translate(205.916841 399.078438) scale(0.1 -0.1)">
       <defs>
        <path id="DejaVuSans-32" d="M 1228 531 
L 3431 531 
L 3431 0 
L 469 0 
L 469 531 
Q 828 903 1448 1529 
Q 2069 2156 2228 2338 
Q 2531 2678 2651 2914 
Q 2772 3150 2772 3378 
Q 2772 3750 2511 3984 
Q 2250 4219 1831 4219 
Q 1534 4219 1204 4116 
Q 875 4013 500 3803 
L 500 4441 
Q 881 4594 1212 4672 
Q 1544 4750 1819 4750 
Q 2544 4750 2975 4387 
Q 3406 4025 3406 3419 
Q 3406 3131 3298 2873 
Q 3191 2616 2906 2266 
Q 2828 2175 2409 1742 
Q 1991 1309 1228 531 
z
" transform="scale(0.015625)"/>
       </defs>
       <use xlink:href="#DejaVuSans-32"/>
       <use xlink:href="#DejaVuSans-30" x="63.623047"/>
       <use xlink:href="#DejaVuSans-30" x="127.246094"/>
       <use xlink:href="#DejaVuSans-30" x="190.869141"/>
       <use xlink:href="#DejaVuSans-30" x="254.492188"/>
      </g>
     </g>
    </g>
    <g id="xtick_3">
     <g id="line2d_5">
      <path d="M 328.287869 384.48 
L 328.287869 51.84 
" clip-path="url(#p8ed50db130)" style="fill: none; stroke: #b0b0b0; stroke-width: 0.8; stroke-linecap: square"/>
     </g>
     <g id="line2d_6">
      <g>
       <use xlink:href="#me92fbe3a82" x="328.287869" y="384.48" style="stroke: #000000; stroke-width: 0.8"/>
      </g>
     </g>
     <g id="text_3">
      <!-- 40000 -->
      <g transform="translate(312.381619 399.078438) scale(0.1 -0.1)">
       <defs>
        <path id="DejaVuSans-34" d="M 2419 4116 
L 825 1625 
L 2419 1625 
L 2419 4116 
z
M 2253 4666 
L 3047 4666 
L 3047 1625 
L 3713 1625 
L 3713 1100 
L 3047 1100 
L 3047 0 
L 2419 0 
L 2419 1100 
L 313 1100 
L 313 1709 
L 2253 4666 
z
" transform="scale(0.015625)"/>
       </defs>
       <use xlink:href="#DejaVuSans-34"/>
       <use xlink:href="#DejaVuSans-30" x="63.623047"/>
       <use xlink:href="#DejaVuSans-30" x="127.246094"/>
       <use xlink:href="#DejaVuSans-30" x="190.869141"/>
       <use xlink:href="#DejaVuSans-30" x="254.492188"/>
      </g>
     </g>
    </g>
    <g id="xtick_4">
     <g id="line2d_7">
      <path d="M 434.752647 384.48 
L 434.752647 51.84 
" clip-path="url(#p8ed50db130)" style="fill: none; stroke: #b0b0b0; stroke-width: 0.8; stroke-linecap: square"/>
     </g>
     <g id="line2d_8">
      <g>
       <use xlink:href="#me92fbe3a82" x="434.752647" y="384.48" style="stroke: #000000; stroke-width: 0.8"/>
      </g>
     </g>
     <g id="text_4">
      <!-- 60000 -->
      <g transform="translate(418.846397 399.078438) scale(0.1 -0.1)">
       <defs>
        <path id="DejaVuSans-36" d="M 2113 2584 
Q 1688 2584 1439 2293 
Q 1191 2003 1191 1497 
Q 1191 994 1439 701 
Q 1688 409 2113 409 
Q 2538 409 2786 701 
Q 3034 994 3034 1497 
Q 3034 2003 2786 2293 
Q 2538 2584 2113 2584 
z
M 3366 4563 
L 3366 3988 
Q 3128 4100 2886 4159 
Q 2644 4219 2406 4219 
Q 1781 4219 1451 3797 
Q 1122 3375 1075 2522 
Q 1259 2794 1537 2939 
Q 1816 3084 2150 3084 
Q 2853 3084 3261 2657 
Q 3669 2231 3669 1497 
Q 3669 778 3244 343 
Q 2819 -91 2113 -91 
Q 1303 -91 875 529 
Q 447 1150 447 2328 
Q 447 3434 972 4092 
Q 1497 4750 2381 4750 
Q 2619 4750 2861 4703 
Q 3103 4656 3366 4563 
z
" transform="scale(0.015625)"/>
       </defs>
       <use xlink:href="#DejaVuSans-36"/>
       <use xlink:href="#DejaVuSans-30" x="63.623047"/>
       <use xlink:href="#DejaVuSans-30" x="127.246094"/>
       <use xlink:href="#DejaVuSans-30" x="190.869141"/>
       <use xlink:href="#DejaVuSans-30" x="254.492188"/>
      </g>
     </g>
    </g>
    <g id="xtick_5">
     <g id="line2d_9">
      <path d="M 541.217425 384.48 
L 541.217425 51.84 
" clip-path="url(#p8ed50db130)" style="fill: none; stroke: #b0b0b0; stroke-width: 0.8; stroke-linecap: square"/>
     </g>
     <g id="line2d_10">
      <g>
       <use xlink:href="#me92fbe3a82" x="541.217425" y="384.48" style="stroke: #000000; stroke-width: 0.8"/>
      </g>
     </g>
     <g id="text_5">
      <!-- 80000 -->
      <g transform="translate(525.311175 399.078438) scale(0.1 -0.1)">
       <defs>
        <path id="DejaVuSans-38" d="M 2034 2216 
Q 1584 2216 1326 1975 
Q 1069 1734 1069 1313 
Q 1069 891 1326 650 
Q 1584 409 2034 409 
Q 2484 409 2743 651 
Q 3003 894 3003 1313 
Q 3003 1734 2745 1975 
Q 2488 2216 2034 2216 
z
M 1403 2484 
Q 997 2584 770 2862 
Q 544 3141 544 3541 
Q 544 4100 942 4425 
Q 1341 4750 2034 4750 
Q 2731 4750 3128 4425 
Q 3525 4100 3525 3541 
Q 3525 3141 3298 2862 
Q 3072 2584 2669 2484 
Q 3125 2378 3379 2068 
Q 3634 1759 3634 1313 
Q 3634 634 3220 271 
Q 2806 -91 2034 -91 
Q 1263 -91 848 271 
Q 434 634 434 1313 
Q 434 1759 690 2068 
Q 947 2378 1403 2484 
z
M 1172 3481 
Q 1172 3119 1398 2916 
Q 1625 2713 2034 2713 
Q 2441 2713 2670 2916 
Q 2900 3119 2900 3481 
Q 2900 3844 2670 4047 
Q 2441 4250 2034 4250 
Q 1625 4250 1398 4047 
Q 1172 3844 1172 3481 
z
" transform="scale(0.015625)"/>
       </defs>
       <use xlink:href="#DejaVuSans-38"/>
       <use xlink:href="#DejaVuSans-30" x="63.623047"/>
       <use xlink:href="#DejaVuSans-30" x="127.246094"/>
       <use xlink:href="#DejaVuSans-30" x="190.869141"/>
       <use xlink:href="#DejaVuSans-30" x="254.492188"/>
      </g>
     </g>
    </g>
    <g id="xtick_6">
     <g id="line2d_11">
      <path d="M 647.682203 384.48 
L 647.682203 51.84 
" clip-path="url(#p8ed50db130)" style="fill: none; stroke: #b0b0b0; stroke-width: 0.8; stroke-linecap: square"/>
     </g>
     <g id="line2d_12">
      <g>
       <use xlink:href="#me92fbe3a82" x="647.682203" y="384.48" style="stroke: #000000; stroke-width: 0.8"/>
      </g>
     </g>
     <g id="text_6">
      <!-- 100000 -->
      <g transform="translate(628.594703 399.078438) scale(0.1 -0.1)">
       <defs>
        <path id="DejaVuSans-31" d="M 794 531 
L 1825 531 
L 1825 4091 
L 703 3866 
L 703 4441 
L 1819 4666 
L 2450 4666 
L 2450 531 
L 3481 531 
L 3481 0 
L 794 0 
L 794 531 
z
" transform="scale(0.015625)"/>
       </defs>
       <use xlink:href="#DejaVuSans-31"/>
       <use xlink:href="#DejaVuSans-30" x="63.623047"/>
       <use xlink:href="#DejaVuSans-30" x="127.246094"/>
       <use xlink:href="#DejaVuSans-30" x="190.869141"/>
       <use xlink:href="#DejaVuSans-30" x="254.492188"/>
       <use xlink:href="#DejaVuSans-30" x="318.115234"/>
      </g>
     </g>
    </g>
    <g id="text_7">
     <!-- Reuse Distance -->
     <g transform="translate(330.372656 412.756563) scale(0.1 -0.1)">
      <defs>
       <path id="DejaVuSans-52" d="M 2841 2188 
Q 3044 2119 3236 1894 
Q 3428 1669 3622 1275 
L 4263 0 
L 3584 0 
L 2988 1197 
Q 2756 1666 2539 1819 
Q 2322 1972 1947 1972 
L 1259 1972 
L 1259 0 
L 628 0 
L 628 4666 
L 2053 4666 
Q 2853 4666 3247 4331 
Q 3641 3997 3641 3322 
Q 3641 2881 3436 2590 
Q 3231 2300 2841 2188 
z
M 1259 4147 
L 1259 2491 
L 2053 2491 
Q 2509 2491 2742 2702 
Q 2975 2913 2975 3322 
Q 2975 3731 2742 3939 
Q 2509 4147 2053 4147 
L 1259 4147 
z
" transform="scale(0.015625)"/>
       <path id="DejaVuSans-65" d="M 3597 1894 
L 3597 1613 
L 953 1613 
Q 991 1019 1311 708 
Q 1631 397 2203 397 
Q 2534 397 2845 478 
Q 3156 559 3463 722 
L 3463 178 
Q 3153 47 2828 -22 
Q 2503 -91 2169 -91 
Q 1331 -91 842 396 
Q 353 884 353 1716 
Q 353 2575 817 3079 
Q 1281 3584 2069 3584 
Q 2775 3584 3186 3129 
Q 3597 2675 3597 1894 
z
M 3022 2063 
Q 3016 2534 2758 2815 
Q 2500 3097 2075 3097 
Q 1594 3097 1305 2825 
Q 1016 2553 972 2059 
L 3022 2063 
z
" transform="scale(0.015625)"/>
       <path id="DejaVuSans-75" d="M 544 1381 
L 544 3500 
L 1119 3500 
L 1119 1403 
Q 1119 906 1312 657 
Q 1506 409 1894 409 
Q 2359 409 2629 706 
Q 2900 1003 2900 1516 
L 2900 3500 
L 3475 3500 
L 3475 0 
L 2900 0 
L 2900 538 
Q 2691 219 2414 64 
Q 2138 -91 1772 -91 
Q 1169 -91 856 284 
Q 544 659 544 1381 
z
M 1991 3584 
L 1991 3584 
z
" transform="scale(0.015625)"/>
       <path id="DejaVuSans-73" d="M 2834 3397 
L 2834 2853 
Q 2591 2978 2328 3040 
Q 2066 3103 1784 3103 
Q 1356 3103 1142 2972 
Q 928 2841 928 2578 
Q 928 2378 1081 2264 
Q 1234 2150 1697 2047 
L 1894 2003 
Q 2506 1872 2764 1633 
Q 3022 1394 3022 966 
Q 3022 478 2636 193 
Q 2250 -91 1575 -91 
Q 1294 -91 989 -36 
Q 684 19 347 128 
L 347 722 
Q 666 556 975 473 
Q 1284 391 1588 391 
Q 1994 391 2212 530 
Q 2431 669 2431 922 
Q 2431 1156 2273 1281 
Q 2116 1406 1581 1522 
L 1381 1569 
Q 847 1681 609 1914 
Q 372 2147 372 2553 
Q 372 3047 722 3315 
Q 1072 3584 1716 3584 
Q 2034 3584 2315 3537 
Q 2597 3491 2834 3397 
z
" transform="scale(0.015625)"/>
       <path id="DejaVuSans-20" transform="scale(0.015625)"/>
       <path id="DejaVuSans-44" d="M 1259 4147 
L 1259 519 
L 2022 519 
Q 2988 519 3436 956 
Q 3884 1394 3884 2338 
Q 3884 3275 3436 3711 
Q 2988 4147 2022 4147 
L 1259 4147 
z
M 628 4666 
L 1925 4666 
Q 3281 4666 3915 4102 
Q 4550 3538 4550 2338 
Q 4550 1131 3912 565 
Q 3275 0 1925 0 
L 628 0 
L 628 4666 
z
" transform="scale(0.015625)"/>
       <path id="DejaVuSans-69" d="M 603 3500 
L 1178 3500 
L 1178 0 
L 603 0 
L 603 3500 
z
M 603 4863 
L 1178 4863 
L 1178 4134 
L 603 4134 
L 603 4863 
z
" transform="scale(0.015625)"/>
       <path id="DejaVuSans-74" d="M 1172 4494 
L 1172 3500 
L 2356 3500 
L 2356 3053 
L 1172 3053 
L 1172 1153 
Q 1172 725 1289 603 
Q 1406 481 1766 481 
L 2356 481 
L 2356 0 
L 1766 0 
Q 1100 0 847 248 
Q 594 497 594 1153 
L 594 3053 
L 172 3053 
L 172 3500 
L 594 3500 
L 594 4494 
L 1172 4494 
z
" transform="scale(0.015625)"/>
       <path id="DejaVuSans-61" d="M 2194 1759 
Q 1497 1759 1228 1600 
Q 959 1441 959 1056 
Q 959 750 1161 570 
Q 1363 391 1709 391 
Q 2188 391 2477 730 
Q 2766 1069 2766 1631 
L 2766 1759 
L 2194 1759 
z
M 3341 1997 
L 3341 0 
L 2766 0 
L 2766 531 
Q 2569 213 2275 61 
Q 1981 -91 1556 -91 
Q 1019 -91 701 211 
Q 384 513 384 1019 
Q 384 1609 779 1909 
Q 1175 2209 1959 2209 
L 2766 2209 
L 2766 2266 
Q 2766 2663 2505 2880 
Q 2244 3097 1772 3097 
Q 1472 3097 1187 3025 
Q 903 2953 641 2809 
L 641 3341 
Q 956 3463 1253 3523 
Q 1550 3584 1831 3584 
Q 2591 3584 2966 3190 
Q 3341 2797 3341 1997 
z
" transform="scale(0.015625)"/>
       <path id="DejaVuSans-6e" d="M 3513 2113 
L 3513 0 
L 2938 0 
L 2938 2094 
Q 2938 2591 2744 2837 
Q 2550 3084 2163 3084 
Q 1697 3084 1428 2787 
Q 1159 2491 1159 1978 
L 1159 0 
L 581 0 
L 581 3500 
L 1159 3500 
L 1159 2956 
Q 1366 3272 1645 3428 
Q 1925 3584 2291 3584 
Q 2894 3584 3203 3211 
Q 3513 2838 3513 2113 
z
" transform="scale(0.015625)"/>
       <path id="DejaVuSans-63" d="M 3122 3366 
L 3122 2828 
Q 2878 2963 2633 3030 
Q 2388 3097 2138 3097 
Q 1578 3097 1268 2742 
Q 959 2388 959 1747 
Q 959 1106 1268 751 
Q 1578 397 2138 397 
Q 2388 397 2633 464 
Q 2878 531 3122 666 
L 3122 134 
Q 2881 22 2623 -34 
Q 2366 -91 2075 -91 
Q 1284 -91 818 406 
Q 353 903 353 1747 
Q 353 2603 823 3093 
Q 1294 3584 2113 3584 
Q 2378 3584 2631 3529 
Q 2884 3475 3122 3366 
z
" transform="scale(0.015625)"/>
      </defs>
      <use xlink:href="#DejaVuSans-52"/>
      <use xlink:href="#DejaVuSans-65" x="64.982422"/>
      <use xlink:href="#DejaVuSans-75" x="126.505859"/>
      <use xlink:href="#DejaVuSans-73" x="189.884766"/>
      <use xlink:href="#DejaVuSans-65" x="241.984375"/>
      <use xlink:href="#DejaVuSans-20" x="303.507812"/>
      <use xlink:href="#DejaVuSans-44" x="335.294922"/>
      <use xlink:href="#DejaVuSans-69" x="412.296875"/>
      <use xlink:href="#DejaVuSans-73" x="440.080078"/>
      <use xlink:href="#DejaVuSans-74" x="492.179688"/>
      <use xlink:href="#DejaVuSans-61" x="531.388672"/>
      <use xlink:href="#DejaVuSans-6e" x="592.667969"/>
      <use xlink:href="#DejaVuSans-63" x="656.046875"/>
      <use xlink:href="#DejaVuSans-65" x="711.027344"/>
     </g>
    </g>
   </g>
   <g id="matplotlib.axis_2">
    <g id="ytick_1">
     <g id="line2d_13">
      <path d="M 90 369.36 
L 648 369.36 
" clip-path="url(#p8ed50db130)" style="fill: none; stroke: #b0b0b0; stroke-width: 0.8; stroke-linecap: square"/>
     </g>
     <g id="line2d_14">
      <defs>
       <path id="mf4b0a92add" d="M 0 0 
L -3.5 0 
" style="stroke: #000000; stroke-width: 0.8"/>
      </defs>
      <g>
       <use xlink:href="#mf4b0a92add" x="90" y="369.36" style="stroke: #000000; stroke-width: 0.8"/>
      </g>
     </g>
     <g id="text_8">
      <!-- 0.0 -->
      <g transform="translate(67.096875 373.159219) scale(0.1 -0.1)">
       <defs>
        <path id="DejaVuSans-2e" d="M 684 794 
L 1344 794 
L 1344 0 
L 684 0 
L 684 794 
z
" transform="scale(0.015625)"/>
       </defs>
       <use xlink:href="#DejaVuSans-30"/>
       <use xlink:href="#DejaVuSans-2e" x="63.623047"/>
       <use xlink:href="#DejaVuSans-30" x="95.410156"/>
      </g>
     </g>
    </g>
    <g id="ytick_2">
     <g id="line2d_15">
      <path d="M 90 308.875179 
L 648 308.875179 
" clip-path="url(#p8ed50db130)" style="fill: none; stroke: #b0b0b0; stroke-width: 0.8; stroke-linecap: square"/>
     </g>
     <g id="line2d_16">
      <g>
       <use xlink:href="#mf4b0a92add" x="90" y="308.875179" style="stroke: #000000; stroke-width: 0.8"/>
      </g>
     </g>
     <g id="text_9">
      <!-- 0.2 -->
      <g transform="translate(67.096875 312.674398) scale(0.1 -0.1)">
       <use xlink:href="#DejaVuSans-30"/>
       <use xlink:href="#DejaVuSans-2e" x="63.623047"/>
       <use xlink:href="#DejaVuSans-32" x="95.410156"/>
      </g>
     </g>
    </g>
    <g id="ytick_3">
     <g id="line2d_17">
      <path d="M 90 248.390359 
L 648 248.390359 
" clip-path="url(#p8ed50db130)" style="fill: none; stroke: #b0b0b0; stroke-width: 0.8; stroke-linecap: square"/>
     </g>
     <g id="line2d_18">
      <g>
       <use xlink:href="#mf4b0a92add" x="90" y="248.390359" style="stroke: #000000; stroke-width: 0.8"/>
      </g>
     </g>
     <g id="text_10">
      <!-- 0.4 -->
      <g transform="translate(67.096875 252.189577) scale(0.1 -0.1)">
       <use xlink:href="#DejaVuSans-30"/>
       <use xlink:href="#DejaVuSans-2e" x="63.623047"/>
       <use xlink:href="#DejaVuSans-34" x="95.410156"/>
      </g>
     </g>
    </g>
    <g id="ytick_4">
     <g id="line2d_19">
      <path d="M 90 187.905538 
L 648 187.905538 
" clip-path="url(#p8ed50db130)" style="fill: none; stroke: #b0b0b0; stroke-width: 0.8; stroke-linecap: square"/>
     </g>
     <g id="line2d_20">
      <g>
       <use xlink:href="#mf4b0a92add" x="90" y="187.905538" style="stroke: #000000; stroke-width: 0.8"/>
      </g>
     </g>
     <g id="text_11">
      <!-- 0.6 -->
      <g transform="translate(67.096875 191.704757) scale(0.1 -0.1)">
       <use xlink:href="#DejaVuSans-30"/>
       <use xlink:href="#DejaVuSans-2e" x="63.623047"/>
       <use xlink:href="#DejaVuSans-36" x="95.410156"/>
      </g>
     </g>
    </g>
    <g id="ytick_5">
     <g id="line2d_21">
      <path d="M 90 127.420717 
L 648 127.420717 
" clip-path="url(#p8ed50db130)" style="fill: none; stroke: #b0b0b0; stroke-width: 0.8; stroke-linecap: square"/>
     </g>
     <g id="line2d_22">
      <g>
       <use xlink:href="#mf4b0a92add" x="90" y="127.420717" style="stroke: #000000; stroke-width: 0.8"/>
      </g>
     </g>
     <g id="text_12">
      <!-- 0.8 -->
      <g transform="translate(67.096875 131.219936) scale(0.1 -0.1)">
       <use xlink:href="#DejaVuSans-30"/>
       <use xlink:href="#DejaVuSans-2e" x="63.623047"/>
       <use xlink:href="#DejaVuSans-38" x="95.410156"/>
      </g>
     </g>
    </g>
    <g id="ytick_6">
     <g id="line2d_23">
      <path d="M 90 66.935897 
L 648 66.935897 
" clip-path="url(#p8ed50db130)" style="fill: none; stroke: #b0b0b0; stroke-width: 0.8; stroke-linecap: square"/>
     </g>
     <g id="line2d_24">
      <g>
       <use xlink:href="#mf4b0a92add" x="90" y="66.935897" style="stroke: #000000; stroke-width: 0.8"/>
      </g>
     </g>
     <g id="text_13">
      <!-- 1.0 -->
      <g transform="translate(67.096875 70.735115) scale(0.1 -0.1)">
       <use xlink:href="#DejaVuSans-31"/>
       <use xlink:href="#DejaVuSans-2e" x="63.623047"/>
       <use xlink:href="#DejaVuSans-30" x="95.410156"/>
      </g>
     </g>
    </g>
    <g id="text_14">
     <!-- Percent -->
     <g transform="translate(61.017187 236.967812) rotate(-90) scale(0.1 -0.1)">
      <defs>
       <path id="DejaVuSans-50" d="M 1259 4147 
L 1259 2394 
L 2053 2394 
Q 2494 2394 2734 2622 
Q 2975 2850 2975 3272 
Q 2975 3691 2734 3919 
Q 2494 4147 2053 4147 
L 1259 4147 
z
M 628 4666 
L 2053 4666 
Q 2838 4666 3239 4311 
Q 3641 3956 3641 3272 
Q 3641 2581 3239 2228 
Q 2838 1875 2053 1875 
L 1259 1875 
L 1259 0 
L 628 0 
L 628 4666 
z
" transform="scale(0.015625)"/>
       <path id="DejaVuSans-72" d="M 2631 2963 
Q 2534 3019 2420 3045 
Q 2306 3072 2169 3072 
Q 1681 3072 1420 2755 
Q 1159 2438 1159 1844 
L 1159 0 
L 581 0 
L 581 3500 
L 1159 3500 
L 1159 2956 
Q 1341 3275 1631 3429 
Q 1922 3584 2338 3584 
Q 2397 3584 2469 3576 
Q 2541 3569 2628 3553 
L 2631 2963 
z
" transform="scale(0.015625)"/>
      </defs>
      <use xlink:href="#DejaVuSans-50"/>
      <use xlink:href="#DejaVuSans-65" x="56.677734"/>
      <use xlink:href="#DejaVuSans-72" x="118.201172"/>
      <use xlink:href="#DejaVuSans-63" x="157.064453"/>
      <use xlink:href="#DejaVuSans-65" x="212.044922"/>
      <use xlink:href="#DejaVuSans-6e" x="273.568359"/>
      <use xlink:href="#DejaVuSans-74" x="336.947266"/>
     </g>
    </g>
   </g>
   <g id="line2d_25">
    <path d="M 115.363636 369.36 
L 115.470101 327.227432 
L 115.475424 326.697159 
L 115.581889 299.122984 
L 115.587212 298.592712 
L 115.693677 281.166026 
L 115.699 280.635753 
L 115.805465 269.716958 
L 115.816112 269.162582 
L 115.922576 260.895151 
L 115.933223 260.340775 
L 116.039688 253.760574 
L 116.055657 253.182095 
L 116.162122 248.891707 
L 116.178092 248.313228 
L 116.284557 244.89056 
L 116.316496 244.23977 
L 116.422961 241.467891 
L 116.460224 240.792999 
L 116.566688 238.117532 
L 116.598628 237.466743 
L 116.705093 235.225136 
L 116.753002 234.502037 
L 116.859466 232.573773 
L 116.933992 231.730158 
L 117.040457 230.259857 
L 117.125628 229.368034 
L 117.22677 228.620832 
L 117.264033 228.283386 
L 117.370497 227.005911 
L 117.476962 226.017676 
L 117.583427 225.005337 
L 117.668599 224.113515 
L 117.775064 223.390416 
L 117.924114 222.209354 
L 118.030579 220.78726 
L 118.142367 219.774921 
L 118.248832 218.593859 
L 118.302064 218.208207 
L 118.403206 217.219971 
L 118.456438 216.834319 
L 118.562903 215.773773 
L 118.674691 214.761435 
L 118.781156 213.55627 
L 119.089904 211.652109 
L 119.196368 210.832597 
L 119.499793 208.952539 
L 119.606258 208.398164 
L 119.765955 207.168895 
L 119.87242 206.421693 
L 119.925652 206.03604 
L 120.032117 205.553974 
L 121.847341 196.82858 
L 121.94316 196.081377 
L 122.038978 195.816241 
L 122.241261 195.358278 
L 122.363696 195.117245 
L 122.459514 194.611076 
L 122.544686 194.442353 
L 122.65115 193.936184 
L 122.757615 193.309498 
L 122.906666 192.706915 
L 123.417697 189.886829 
L 123.524162 189.404763 
L 125.147749 182.559426 
L 126.159165 180.004476 
L 126.361448 179.570617 
L 126.44662 179.377791 
L 127.101378 176.919254 
L 127.362217 176.340775 
L 127.452712 176.147948 
L 127.511268 175.979225 
L 128.251198 174.484821 
L 128.368309 174.316098 
L 128.469451 174.075065 
L 129.166795 172.677073 
L 129.379724 172.484247 
L 129.475543 172.36373 
L 130.715857 170.797016 
L 130.997989 170.411363 
L 131.599515 169.905194 
L 131.769859 169.664161 
L 131.849707 169.519541 
L 132.254273 168.868752 
L 132.722718 168.434892 
L 134.005619 166.819971 
L 134.639084 165.663013 
L 135.033004 164.964017 
L 135.229964 164.747088 
L 135.448217 164.506055 
L 135.879399 163.975782 
L 135.927308 163.855265 
L 136.087005 163.686542 
L 136.230733 163.541923 
L 136.747087 162.963443 
L 137.055835 162.6501 
L 137.125037 162.360861 
L 137.460401 162.071621 
L 137.566866 161.734175 
L 137.726563 161.517245 
L 137.923523 161.203902 
L 138.024664 161.059283 
L 138.375998 160.794146 
L 138.503756 160.721836 
L 138.759271 160.504907 
L 138.849766 160.38439 
L 139.110605 160.215667 
L 139.254333 160.022841 
L 139.429999 159.733601 
L 139.648252 159.540775 
L 139.818596 159.372052 
L 140.042172 159.179225 
L 141.207961 157.97406 
L 141.607204 157.564304 
L 141.820134 157.299168 
L 142.075649 156.985825 
L 142.256639 156.624275 
L 142.325841 156.527862 
L 142.42166 156.383242 
L 142.911398 155.804763 
L 143.103034 155.63604 
L 143.598095 155.129871 
L 143.811025 154.985251 
L 144.050571 154.840631 
L 144.162359 154.744218 
L 144.322056 154.575495 
L 144.561602 154.406772 
L 145.141835 154.093429 
L 146.190513 153.29802 
L 146.275685 153.129297 
L 146.765423 152.791851 
L 147.020938 152.599024 
L 147.425504 152.333888 
L 147.617141 152.213372 
L 147.723606 152.092855 
L 147.856687 151.972339 
L 148.106879 151.779512 
L 148.777607 151.152826 
L 148.78293 151.128723 
L 149.038446 150.984103 
L 149.203466 150.74307 
L 149.464305 150.285108 
L 149.666588 149.875352 
L 150.065831 149.200459 
L 150.188265 149.007633 
L 150.347962 148.790703 
L 150.560892 148.501463 
L 150.704619 148.284534 
L 150.970781 147.947088 
L 151.039983 147.826571 
L 151.300822 147.657848 
L 151.354055 147.561435 
L 151.620216 147.416815 
L 151.705388 147.320402 
L 152.269652 147.007059 
L 152.418702 146.838336 
L 152.951026 146.308063 
L 153.014905 146.187547 
L 153.185249 146.042927 
L 153.275744 145.874204 
L 153.552552 145.753687 
L 153.818714 145.584964 
L 154.25522 145.175208 
L 154.697049 144.837762 
L 155.112261 144.331593 
L 155.181463 144.259283 
L 155.644585 143.994146 
L 155.76702 143.897733 
L 156.011889 143.704907 
L 156.166262 143.43977 
L 156.900869 142.909498 
L 157.119122 142.692568 
L 157.209617 142.547948 
L 157.571598 142.282812 
L 157.688709 142.138192 
L 157.784527 142.065882 
L 158.492518 141.728436 
L 159.147276 140.860717 
L 159.376176 140.691994 
L 159.69557 140.402755 
L 159.887206 140.234032 
L 159.961732 139.727862 
L 160.233217 139.462726 
L 160.355652 139.294003 
L 160.440823 139.149383 
L 160.627137 138.739627 
L 160.802804 138.595007 
L 161.058319 137.751392 
L 161.132844 137.558565 
L 161.297865 137.413945 
L 161.446915 137.172912 
L 161.56935 137.004189 
L 161.755663 136.618537 
L 162.032472 136.377504 
L 162.133613 136.184677 
L 162.799018 135.582095 
L 163.24617 135.316958 
L 163.341989 135.220545 
L 163.858343 134.931306 
L 163.996747 134.738479 
L 164.289525 134.521549 
L 164.369374 134.401033 
L 164.720707 134.208207 
L 164.864435 134.063587 
L 165.242385 133.822554 
L 165.322233 133.726141 
L 165.976992 133.461004 
L 165.998285 133.436901 
L 166.402851 133.292281 
L 168.069025 132.135323 
L 168.377773 131.9666 
L 168.53747 131.701463 
L 168.803632 131.508637 
L 169.037854 131.219397 
L 169.319986 131.002468 
L 169.490329 130.881951 
L 169.916189 130.472195 
L 170.240906 130.303472 
L 170.597563 129.845509 
L 170.704028 129.62858 
L 170.821139 129.33934 
L 171.023422 128.857274 
L 171.15118 128.688551 
L 171.305554 128.471621 
L 171.385402 128.254692 
L 171.896433 127.603902 
L 172.199858 127.459283 
L 172.354232 127.386973 
L 172.551192 127.21825 
L 172.657657 127.097733 
L 173.115455 126.880803 
L 173.18998 126.736184 
L 173.551961 126.519254 
L 173.647779 126.446944 
L 173.866032 126.254118 
L 173.919264 126.181808 
L 174.313184 126.037188 
L 174.472881 125.844362 
L 175.026498 125.651535 
L 175.377832 125.314089 
L 175.622701 125.241779 
L 175.899509 125.097159 
L 176.096469 124.976643 
L 176.442479 124.759713 
L 176.564914 124.687403 
L 176.703318 124.615093 
L 177.177086 124.470473 
L 177.52842 124.325854 
L 177.757319 124.181234 
L 177.959603 123.940201 
L 178.550482 123.434032 
L 178.6463 123.337618 
L 178.85923 123.192999 
L 179.120069 122.927862 
L 179.20524 122.590416 
L 179.306382 122.39759 
L 179.412847 122.25297 
L 179.742888 121.81911 
L 180.152777 121.626284 
L 180.259242 121.529871 
L 180.429585 121.337044 
L 180.498787 121.264735 
L 181.952032 120.710359 
L 182.079789 120.589842 
L 182.681315 120.252396 
L 184.107943 119.77033 
L 184.31555 119.649813 
L 184.682853 119.456987 
L 186.285148 118.950818 
L 186.700361 118.516958 
L 186.785533 118.468752 
L 187.440291 118.324132 
L 188.286686 118.107202 
L 188.297332 118.083099 
L 188.653989 117.938479 
L 188.808363 117.890273 
L 189.292778 117.697446 
L 190.490507 117.456413 
L 190.974922 117.28769 
L 191.092033 117.239484 
L 191.581771 117.14307 
L 192.364287 116.974347 
L 192.502691 116.926141 
L 195.339978 116.203042 
L 195.600816 116.082525 
L 196.463181 115.913802 
L 197.373455 115.504046 
L 197.400071 115.455839 
L 198.470042 115.263013 
L 198.624416 115.1666 
L 199.870054 114.973773 
L 200.003135 114.925567 
L 201.089076 114.684534 
L 201.594783 114.491707 
L 202.792512 114.322984 
L 203.654877 114.106055 
L 204.746141 113.961435 
L 205.741586 113.623989 
L 205.879991 113.503472 
L 207.258709 113.166026 
L 207.359851 113.021406 
L 207.95073 112.876786 
L 208.685337 112.515237 
L 209.13249 112.346514 
L 209.249601 112.298307 
L 209.819187 112.129584 
L 211.080795 111.502898 
L 211.181936 111.285968 
L 212.278524 110.731593 
L 212.28917 110.707489 
L 212.624534 110.586973 
L 213.854202 110.080803 
L 215.861063 109.863874 
L 215.999468 109.815667 
L 216.41468 109.478221 
L 217.899864 109.261291 
L 218.006329 108.827432 
L 218.315077 108.441779 
L 218.969835 108.297159 
L 219.086946 108.248953 
L 219.810907 108.056126 
L 220.098362 107.815093 
L 220.332584 107.694577 
L 221.876323 107.42944 
L 221.924233 107.381234 
L 222.845153 107.212511 
L 225.565328 106.224275 
L 225.575974 106.176069 
L 226.75241 105.862726 
L 226.896138 105.814519 
L 227.657361 105.6699 
L 228.061927 105.404763 
L 229.083989 105.187834 
L 229.366121 105.067317 
L 230.111374 104.705768 
L 230.132667 104.681664 
L 230.931153 104.488838 
L 231.154729 104.392425 
L 231.937245 104.296011 
L 233.912167 103.958565 
L 234.588218 103.789842 
L 235.945644 103.621119 
L 236.664281 103.452396 
L 238.548708 103.139053 
L 239.639972 102.994433 
L 239.773053 102.946227 
L 241.146448 102.777504 
L 241.976873 102.656987 
L 243.637724 102.512367 
L 245.224049 102.102611 
L 245.990596 101.933888 
L 246.139646 101.861578 
L 247.03395 101.620545 
L 247.42787 101.500029 
L 255.008162 100.84924 
L 255.13592 100.680516 
L 259.362572 100.222554 
L 259.389188 100.198451 
L 260.544331 100.029727 
L 260.688058 99.885108 
L 262.806707 99.571765 
L 262.939788 99.523558 
L 264.797599 99.258422 
L 265.180872 99.065595 
L 265.282013 99.017389 
L 266.256166 98.896872 
L 266.266813 98.872769 
L 269.109422 98.607633 
L 270.472171 98.43891 
L 270.775596 98.390703 
L 271.712486 98.22198 
L 275.965754 97.739914 
L 277.083634 97.402468 
L 278.185544 97.209641 
L 278.542201 97.161435 
L 283.892057 96.848092 
L 288.086769 96.703472 
L 288.097415 96.679369 
L 288.235819 96.655265 
L 293.569705 96.438336 
L 293.782634 96.390129 
L 294.708878 96.317819 
L 294.99101 96.173199 
L 294.99101 96.149096 
L 295.422192 96.02858 
L 295.523334 95.95627 
L 297.136275 95.763443 
L 297.796357 95.546514 
L 299.941622 95.401894 
L 300.255693 95.305481 
L 302.550009 95.136758 
L 302.709706 94.943931 
L 304.19489 94.799311 
L 304.248122 94.751105 
L 310.534867 94.534175 
L 310.726504 94.485968 
L 313.308275 94.269039 
L 313.446679 94.052109 
L 313.638315 93.931593 
L 313.728811 93.883386 
L 315.416277 93.61825 
L 321.782871 93.304907 
L 321.83078 93.2567 
L 322.453599 93.136184 
L 322.607973 92.895151 
L 322.778317 92.557704 
L 330.465074 92.123845 
L 331.716035 91.858709 
L 336.075767 91.400746 
L 336.29402 91.039197 
L 337.076536 90.91868 
L 344.731354 90.62944 
L 344.779263 90.605337 
L 359.199917 89.906341 
L 359.199917 89.882238 
L 365.619743 89.641205 
L 368.627373 89.400172 
L 368.63802 89.376069 
L 373.476844 88.918106 
L 387.945407 88.43604 
L 387.9667 88.387834 
L 388.296741 88.29142 
L 392.84811 88.122697 
L 392.911989 88.050387 
L 394.466375 87.857561 
L 394.626072 87.664735 
L 395.259537 87.544218 
L 395.302123 87.375495 
L 397.335601 87.206772 
L 397.378187 87.182669 
L 400.167564 86.917532 
L 400.247412 86.869326 
L 402.42994 86.555983 
L 402.509789 86.38726 
L 404.255811 86.24264 
L 404.873307 86.09802 
L 405.144792 85.302611 
L 405.629207 85.157991 
L 407.625421 84.820545 
L 407.806412 84.724132 
L 408.450523 84.603615 
L 408.551665 84.434892 
L 409.179807 84.290273 
L 409.520494 84.001033 
L 409.669545 83.784103 
L 410.414799 83.494864 
L 412.017094 83.350244 
L 412.123558 83.277934 
L 412.927367 83.133314 
L 413.150943 83.061004 
L 418.985213 82.241492 
L 419.203466 81.904046 
L 419.544153 81.759426 
L 419.608032 81.663013 
L 425.820252 80.891707 
L 427.374638 80.602468 
L 429.131307 80.433745 
L 429.322943 80.385538 
L 431.478855 80.265022 
L 431.627906 80.048092 
L 441.310877 78.842927 
L 441.422665 78.746514 
L 442.561838 78.577791 
L 442.833323 78.288551 
L 444.424972 78.023415 
L 444.462235 77.854692 
L 445.266044 77.710072 
L 445.313953 77.541349 
L 445.452357 77.131593 
L 445.86757 77.011076 
L 445.878216 76.938766 
L 446.932217 76.74594 
L 447.294198 76.360287 
L 449.58319 75.854118 
L 449.652393 75.637188 
L 451.590051 75.323845 
L 451.781688 75.203329 
L 453.213639 75.034605 
L 453.309458 74.889986 
L 453.926953 74.48023 
L 457.264624 74.166887 
L 457.312533 74.11868 
L 459.707991 73.781234 
L 460.011415 73.275065 
L 466.878394 72.841205 
L 467.293606 72.696585 
L 467.336192 72.672482 
L 468.166617 72.527862 
L 468.171941 72.503759 
L 469.742296 72.286829 
L 469.848761 72.214519 
L 469.981842 72.190416 
L 472.324067 72.045796 
L 472.409239 71.85297 
L 476.694446 71.684247 
L 476.742355 71.660143 
L 477.924114 71.515524 
L 478.355297 71.467317 
L 480.979653 71.298594 
L 480.984977 71.274491 
L 483.875495 71.009354 
L 483.976637 70.912941 
L 490.045129 70.623702 
L 490.886201 70.503185 
L 493.010173 70.358565 
L 493.100668 70.310359 
L 498.147099 70.045222 
L 502.038386 69.731879 
L 502.059679 69.707776 
L 507.409535 69.105194 
L 510.353286 68.960574 
L 510.481043 68.840057 
L 513.840007 68.695438 
L 514.388301 68.550818 
L 514.484119 68.526714 
L 517.342698 68.406198 
L 517.4119 68.237475 
L 524.156444 68.020545 
L 529.900219 67.875925 
L 529.948128 67.779512 
L 552.646419 67.417963 
L 593.012539 67.201033 
L 594.087833 67.056413 
L 622.636364 66.96 
L 622.636364 66.96 
" clip-path="url(#p8ed50db130)" style="fill: none; stroke: #0000ff; stroke-opacity: 0.7; stroke-width: 1.5; stroke-linecap: square"/>
   </g>
   <g id="patch_3">
    <path d="M 90 384.48 
L 90 51.84 
" style="fill: none; stroke: #000000; stroke-width: 0.8; stroke-linejoin: miter; stroke-linecap: square"/>
   </g>
   <g id="patch_4">
    <path d="M 648 384.48 
L 648 51.84 
" style="fill: none; stroke: #000000; stroke-width: 0.8; stroke-linejoin: miter; stroke-linecap: square"/>
   </g>
   <g id="patch_5">
    <path d="M 90 384.48 
L 648 384.48 
" style="fill: none; stroke: #000000; stroke-width: 0.8; stroke-linejoin: miter; stroke-linecap: square"/>
   </g>
   <g id="patch_6">
    <path d="M 90 51.84 
L 648 51.84 
" style="fill: none; stroke: #000000; stroke-width: 0.8; stroke-linejoin: miter; stroke-linecap: square"/>
   </g>
   <g id="text_15">
    <!-- Block Reuse Distance CDF -->
    <g transform="translate(290.344688 45.84) scale(0.12 -0.12)">
     <defs>
      <path id="DejaVuSans-42" d="M 1259 2228 
L 1259 519 
L 2272 519 
Q 2781 519 3026 730 
Q 3272 941 3272 1375 
Q 3272 1813 3026 2020 
Q 2781 2228 2272 2228 
L 1259 2228 
z
M 1259 4147 
L 1259 2741 
L 2194 2741 
Q 2656 2741 2882 2914 
Q 3109 3088 3109 3444 
Q 3109 3797 2882 3972 
Q 2656 4147 2194 4147 
L 1259 4147 
z
M 628 4666 
L 2241 4666 
Q 2963 4666 3353 4366 
Q 3744 4066 3744 3513 
Q 3744 3084 3544 2831 
Q 3344 2578 2956 2516 
Q 3422 2416 3680 2098 
Q 3938 1781 3938 1306 
Q 3938 681 3513 340 
Q 3088 0 2303 0 
L 628 0 
L 628 4666 
z
" transform="scale(0.015625)"/>
      <path id="DejaVuSans-6c" d="M 603 4863 
L 1178 4863 
L 1178 0 
L 603 0 
L 603 4863 
z
" transform="scale(0.015625)"/>
      <path id="DejaVuSans-6f" d="M 1959 3097 
Q 1497 3097 1228 2736 
Q 959 2375 959 1747 
Q 959 1119 1226 758 
Q 1494 397 1959 397 
Q 2419 397 2687 759 
Q 2956 1122 2956 1747 
Q 2956 2369 2687 2733 
Q 2419 3097 1959 3097 
z
M 1959 3584 
Q 2709 3584 3137 3096 
Q 3566 2609 3566 1747 
Q 3566 888 3137 398 
Q 2709 -91 1959 -91 
Q 1206 -91 779 398 
Q 353 888 353 1747 
Q 353 2609 779 3096 
Q 1206 3584 1959 3584 
z
" transform="scale(0.015625)"/>
      <path id="DejaVuSans-6b" d="M 581 4863 
L 1159 4863 
L 1159 1991 
L 2875 3500 
L 3609 3500 
L 1753 1863 
L 3688 0 
L 2938 0 
L 1159 1709 
L 1159 0 
L 581 0 
L 581 4863 
z
" transform="scale(0.015625)"/>
      <path id="DejaVuSans-43" d="M 4122 4306 
L 4122 3641 
Q 3803 3938 3442 4084 
Q 3081 4231 2675 4231 
Q 1875 4231 1450 3742 
Q 1025 3253 1025 2328 
Q 1025 1406 1450 917 
Q 1875 428 2675 428 
Q 3081 428 3442 575 
Q 3803 722 4122 1019 
L 4122 359 
Q 3791 134 3420 21 
Q 3050 -91 2638 -91 
Q 1578 -91 968 557 
Q 359 1206 359 2328 
Q 359 3453 968 4101 
Q 1578 4750 2638 4750 
Q 3056 4750 3426 4639 
Q 3797 4528 4122 4306 
z
" transform="scale(0.015625)"/>
      <path id="DejaVuSans-46" d="M 628 4666 
L 3309 4666 
L 3309 4134 
L 1259 4134 
L 1259 2759 
L 3109 2759 
L 3109 2228 
L 1259 2228 
L 1259 0 
L 628 0 
L 628 4666 
z
" transform="scale(0.015625)"/>
     </defs>
     <use xlink:href="#DejaVuSans-42"/>
     <use xlink:href="#DejaVuSans-6c" x="68.603516"/>
     <use xlink:href="#DejaVuSans-6f" x="96.386719"/>
     <use xlink:href="#DejaVuSans-63" x="157.568359"/>
     <use xlink:href="#DejaVuSans-6b" x="212.548828"/>
     <use xlink:href="#DejaVuSans-20" x="270.458984"/>
     <use xlink:href="#DejaVuSans-52" x="302.246094"/>
     <use xlink:href="#DejaVuSans-65" x="367.228516"/>
     <use xlink:href="#DejaVuSans-75" x="428.751953"/>
     <use xlink:href="#DejaVuSans-73" x="492.130859"/>
     <use xlink:href="#DejaVuSans-65" x="544.230469"/>
     <use xlink:href="#DejaVuSans-20" x="605.753906"/>
     <use xlink:href="#DejaVuSans-44" x="637.541016"/>
     <use xlink:href="#DejaVuSans-69" x="714.542969"/>
     <use xlink:href="#DejaVuSans-73" x="742.326172"/>
     <use xlink:href="#DejaVuSans-74" x="794.425781"/>
     <use xlink:href="#DejaVuSans-61" x="833.634766"/>
     <use xlink:href="#DejaVuSans-6e" x="894.914062"/>
     <use xlink:href="#DejaVuSans-63" x="958.292969"/>
     <use xlink:href="#DejaVuSans-65" x="1013.273438"/>
     <use xlink:href="#DejaVuSans-20" x="1074.796875"/>
     <use xlink:href="#DejaVuSans-43" x="1106.583984"/>
     <use xlink:href="#DejaVuSans-44" x="1176.408203"/>
     <use xlink:href="#DejaVuSans-46" x="1253.410156"/>
    </g>
   </g>
  </g>
 </g>
 <defs>
  <clipPath id="p8ed50db130">
   <rect x="90" y="51.84" width="558" height="332.64"/>
  </clipPath>
 </defs>
</svg>
